<svg width="30" height="30" viewBox="0 0 30 30" fill="none" xmlns="http://www.w3.org/2000/svg">
<path d="M20.9953 6.31086C21.6152 6.29734 23.2336 6.02129 22.8013 5.11391C22.7267 4.993 22.6072 4.90662 22.469 4.87376C22.3308 4.84089 22.1852 4.86422 22.0642 4.93862C21.669 5.17476 21.2068 5.27343 20.7496 5.21921C20.2925 5.16499 19.8662 4.96094 19.5372 4.63892C19.2083 4.31689 18.9952 3.89501 18.9313 3.43913C18.8674 2.98326 18.9562 2.51904 19.1839 2.11896C19.4116 1.71887 19.7653 1.40543 20.1899 1.22757C20.6145 1.04971 21.086 1.01743 21.5309 1.13578C21.9757 1.25413 22.3689 1.51644 22.649 1.88177C22.9291 2.2471 23.0803 2.69489 23.0791 3.15522C23.0399 3.5699 22.971 3.97137 23.4725 4.09843C24.0287 4.20156 24.1797 3.6048 24.1505 3.15517C24.1496 2.31863 23.8169 1.5166 23.2254 0.92507C22.6339 0.333544 21.8319 0.000850935 20.9953 0C16.8188 0.14797 16.8197 6.16308 20.9953 6.31086Z" fill="#007C0C"/>
<path d="M20.9953 6.31086C21.6152 6.29734 23.2336 6.02129 22.8013 5.11391C22.7267 4.993 22.6072 4.90662 22.469 4.87376C22.3308 4.84089 22.1852 4.86422 22.0642 4.93862C21.669 5.17476 21.2068 5.27343 20.7496 5.21921C20.2925 5.16499 19.8662 4.96094 19.5372 4.63892C19.2083 4.31689 18.9952 3.89501 18.9313 3.43913C18.8674 2.98326 18.9562 2.51904 19.1839 2.11896C19.4116 1.71887 19.7653 1.40543 20.1899 1.22757C20.6145 1.04971 21.086 1.01743 21.5309 1.13578C21.9757 1.25413 22.3689 1.51644 22.649 1.88177C22.9291 2.2471 23.0803 2.69489 23.0791 3.15522C23.0399 3.5699 22.971 3.97137 23.4725 4.09843C24.0287 4.20156 24.1797 3.6048 24.1505 3.15517C24.1496 2.31863 23.8169 1.5166 23.2254 0.92507C22.6339 0.333544 21.8319 0.000850935 20.9953 0C16.8188 0.14797 16.8197 6.16308 20.9953 6.31086Z" fill="black" fill-opacity="0.2"/>
<path d="M27.7568 11.9933C27.4957 11.5897 27.0945 11.297 26.6305 11.1714C26.1665 11.0459 25.6725 11.0964 25.2435 11.3132L23.2351 12.3308C23.1056 12.3945 22.9562 12.4049 22.8191 12.3596C22.682 12.3143 22.5682 12.217 22.5022 12.0886L20.7553 8.66553C20.4466 8.06523 19.9806 7.56003 19.4072 7.20383C18.5269 6.67252 17.4547 5.87829 16.3749 5.93054L11.6155 5.81798C11.1084 5.80467 10.6055 5.91435 10.15 6.13765C9.6945 6.36094 9.29982 6.69122 8.99971 7.10024L7.12288 9.625C6.94862 9.85567 6.82396 10.1199 6.75675 10.4011C6.68954 10.6822 6.68123 10.9743 6.73235 11.2588C7.01574 13.0226 9.48502 13.6762 10.5166 12.1366L11.4219 10.8508C11.65 10.5312 11.9606 10.2795 12.3204 10.1226C12.6803 9.96574 13.0761 9.90948 13.4654 9.95987L11.9553 13.0161C11.8946 13.1432 11.8863 13.2891 11.9323 13.4223C11.9783 13.5554 12.0749 13.6651 12.2012 13.7275C12.3275 13.79 12.4733 13.8002 12.607 13.7559C12.7408 13.7117 12.8517 13.6166 12.9158 13.4911L14.4898 10.3056C14.5638 10.1582 14.5991 9.99433 14.5923 9.82948C14.5855 9.66463 14.5368 9.50424 14.4508 9.36342C14.315 9.17612 14.1286 9.03138 13.9135 8.94614C13.6984 8.86091 13.4635 8.83872 13.2363 8.88216C12.711 8.86804 12.1905 8.98415 11.721 9.22011C11.2515 9.45607 10.8478 9.80455 10.5457 10.2345L9.64036 11.5204C8.85579 12.606 7.15981 11.365 7.97989 10.2679L9.86035 7.73849C10.0579 7.46633 10.3191 7.24666 10.6211 7.09865C10.923 6.95064 11.2567 6.8788 11.5928 6.88938L16.3525 7.00188C16.8118 7.0108 17.2603 7.14249 17.6515 7.38327C18.3375 7.8385 19.4713 8.34595 19.8011 9.15211L21.549 12.5772C21.7445 12.9573 22.082 13.245 22.4883 13.3778C22.8945 13.5106 23.3368 13.4779 23.7191 13.2866L25.7254 12.2701C25.8282 12.2177 25.9403 12.1862 26.0553 12.1773C26.1704 12.1685 26.286 12.1825 26.3956 12.2185C26.5052 12.2546 26.6066 12.3119 26.6939 12.3874C26.7812 12.4628 26.8527 12.5547 26.9043 12.6579C26.9559 12.7611 26.9866 12.8734 26.9946 12.9885C27.0025 13.1036 26.9877 13.2192 26.9508 13.3285C26.9139 13.4378 26.8557 13.5387 26.7796 13.6255C26.7036 13.7122 26.6111 13.783 26.5075 13.8338L22.4164 15.8527C22.1843 15.9661 21.9186 15.9901 21.67 15.9202C21.4213 15.8502 21.2071 15.6912 21.0682 15.4734L19.0536 12.302C19.0071 12.2287 18.9434 12.1678 18.8682 12.1246C18.7929 12.0814 18.7082 12.0572 18.6214 12.054C18.5345 12.0496 18.4479 12.067 18.3694 12.1045C18.291 12.1421 18.2231 12.1986 18.172 12.269L11.0204 21.8585C10.8707 22.0607 10.6524 22.2012 10.4064 22.2538C10.1605 22.3064 9.90378 22.2674 9.68451 22.1442L3.65799 18.8012C3.3817 18.646 3.17343 18.393 3.07407 18.0921C2.9747 17.7912 2.99143 17.4639 3.12096 17.1747C3.26621 16.8666 3.52772 16.6287 3.84813 16.5132C4.16854 16.3977 4.52169 16.4139 4.83012 16.5584L9.06324 18.616C9.34487 18.7509 9.66816 18.7701 9.96373 18.6693C10.2593 18.5686 10.5036 18.356 10.6442 18.0772L11.8977 15.5487C11.9583 15.4217 11.9665 15.276 11.9206 15.143C11.8746 15.01 11.7782 14.9004 11.6522 14.8379C11.5261 14.7754 11.3805 14.765 11.2468 14.8089C11.1132 14.8528 11.0021 14.9476 10.9377 15.0727L9.68501 17.5995C9.67846 17.6132 9.66922 17.6255 9.65784 17.6356C9.64646 17.6457 9.63318 17.6534 9.61876 17.6583C9.60435 17.6632 9.58911 17.6651 9.57394 17.664C9.55876 17.6629 9.54397 17.6588 9.53042 17.6518L5.29519 15.5932C4.74777 15.3274 4.11827 15.2856 3.54053 15.4768C2.96279 15.6679 2.48239 16.0768 2.20145 16.6166C1.92052 17.1564 1.86122 17.7845 2.03616 18.3673C2.2111 18.9502 2.60648 19.4418 3.13824 19.7377L9.1666 23.0817C9.61344 23.3263 10.1334 23.4021 10.6315 23.2951C11.1295 23.1881 11.5725 22.9055 11.8795 22.4989L16.175 16.7387L19.5322 19.2323C20.1073 19.6598 20.5706 20.22 20.8824 20.8653C21.1942 21.5105 21.3453 22.2215 21.3229 22.9378L21.1665 27.8743C21.1544 28.1573 21.0325 28.4244 20.8268 28.619C20.621 28.8137 20.3475 28.9205 20.0643 28.9169C19.7811 28.9133 19.5105 28.7995 19.3098 28.5997C19.109 28.3999 18.994 28.1298 18.9891 27.8466L18.9593 22.9771C18.9572 22.5858 18.8596 22.2011 18.675 21.8562C18.4904 21.5112 18.2243 21.2166 17.8999 20.998L15.9124 19.6545C15.7947 19.5774 15.6514 19.5498 15.5135 19.5775C15.3756 19.6052 15.2541 19.6861 15.1754 19.8026C15.0966 19.9192 15.0668 20.062 15.0925 20.2003C15.1182 20.3386 15.1973 20.4613 15.3126 20.5418L17.3004 21.8857C17.4803 22.0071 17.6278 22.1704 17.7302 22.3617C17.8326 22.553 17.8867 22.7664 17.8879 22.9833L17.9177 27.8529C18.0112 30.6434 22.0752 30.7198 22.2369 27.9078L22.3933 22.9713C22.4213 22.0824 22.2338 21.1998 21.8469 20.399C21.46 19.5982 20.8852 18.9028 20.1715 18.3722L16.8156 15.8796L18.5659 13.5325L20.1642 16.0483C20.4443 16.4891 20.8772 16.8111 21.38 16.9524C21.8828 17.0938 22.42 17.0445 22.8888 16.8142L26.9841 14.7933C27.2288 14.6705 27.445 14.4978 27.6188 14.2862C27.7925 14.0747 27.9199 13.829 27.9928 13.5651C28.0656 13.3012 28.0822 13.0249 28.0416 12.7542C28.0009 12.4834 27.9039 12.2242 27.7568 11.9933Z" fill="#007C0C"/>
<path d="M27.7568 11.9933C27.4957 11.5897 27.0945 11.297 26.6305 11.1714C26.1665 11.0459 25.6725 11.0964 25.2435 11.3132L23.2351 12.3308C23.1056 12.3945 22.9562 12.4049 22.8191 12.3596C22.682 12.3143 22.5682 12.217 22.5022 12.0886L20.7553 8.66553C20.4466 8.06523 19.9806 7.56003 19.4072 7.20383C18.5269 6.67252 17.4547 5.87829 16.3749 5.93054L11.6155 5.81798C11.1084 5.80467 10.6055 5.91435 10.15 6.13765C9.6945 6.36094 9.29982 6.69122 8.99971 7.10024L7.12288 9.625C6.94862 9.85567 6.82396 10.1199 6.75675 10.4011C6.68954 10.6822 6.68123 10.9743 6.73235 11.2588C7.01574 13.0226 9.48502 13.6762 10.5166 12.1366L11.4219 10.8508C11.65 10.5312 11.9606 10.2795 12.3204 10.1226C12.6803 9.96574 13.0761 9.90948 13.4654 9.95987L11.9553 13.0161C11.8946 13.1432 11.8863 13.2891 11.9323 13.4223C11.9783 13.5554 12.0749 13.6651 12.2012 13.7275C12.3275 13.79 12.4733 13.8002 12.607 13.7559C12.7408 13.7117 12.8517 13.6166 12.9158 13.4911L14.4898 10.3056C14.5638 10.1582 14.5991 9.99433 14.5923 9.82948C14.5855 9.66463 14.5368 9.50424 14.4508 9.36342C14.315 9.17612 14.1286 9.03138 13.9135 8.94614C13.6984 8.86091 13.4635 8.83872 13.2363 8.88216C12.711 8.86804 12.1905 8.98415 11.721 9.22011C11.2515 9.45607 10.8478 9.80455 10.5457 10.2345L9.64036 11.5204C8.85579 12.606 7.15981 11.365 7.97989 10.2679L9.86035 7.73849C10.0579 7.46633 10.3191 7.24666 10.6211 7.09865C10.923 6.95064 11.2567 6.8788 11.5928 6.88938L16.3525 7.00188C16.8118 7.0108 17.2603 7.14249 17.6515 7.38327C18.3375 7.8385 19.4713 8.34595 19.8011 9.15211L21.549 12.5772C21.7445 12.9573 22.082 13.245 22.4883 13.3778C22.8945 13.5106 23.3368 13.4779 23.7191 13.2866L25.7254 12.2701C25.8282 12.2177 25.9403 12.1862 26.0553 12.1773C26.1704 12.1685 26.286 12.1825 26.3956 12.2185C26.5052 12.2546 26.6066 12.3119 26.6939 12.3874C26.7812 12.4628 26.8527 12.5547 26.9043 12.6579C26.9559 12.7611 26.9866 12.8734 26.9946 12.9885C27.0025 13.1036 26.9877 13.2192 26.9508 13.3285C26.9139 13.4378 26.8557 13.5387 26.7796 13.6255C26.7036 13.7122 26.6111 13.783 26.5075 13.8338L22.4164 15.8527C22.1843 15.9661 21.9186 15.9901 21.67 15.9202C21.4213 15.8502 21.2071 15.6912 21.0682 15.4734L19.0536 12.302C19.0071 12.2287 18.9434 12.1678 18.8682 12.1246C18.7929 12.0814 18.7082 12.0572 18.6214 12.054C18.5345 12.0496 18.4479 12.067 18.3694 12.1045C18.291 12.1421 18.2231 12.1986 18.172 12.269L11.0204 21.8585C10.8707 22.0607 10.6524 22.2012 10.4064 22.2538C10.1605 22.3064 9.90378 22.2674 9.68451 22.1442L3.65799 18.8012C3.3817 18.646 3.17343 18.393 3.07407 18.0921C2.9747 17.7912 2.99143 17.4639 3.12096 17.1747C3.26621 16.8666 3.52772 16.6287 3.84813 16.5132C4.16854 16.3977 4.52169 16.4139 4.83012 16.5584L9.06324 18.616C9.34487 18.7509 9.66816 18.7701 9.96373 18.6693C10.2593 18.5686 10.5036 18.356 10.6442 18.0772L11.8977 15.5487C11.9583 15.4217 11.9665 15.276 11.9206 15.143C11.8746 15.01 11.7782 14.9004 11.6522 14.8379C11.5261 14.7754 11.3805 14.765 11.2468 14.8089C11.1132 14.8528 11.0021 14.9476 10.9377 15.0727L9.68501 17.5995C9.67846 17.6132 9.66922 17.6255 9.65784 17.6356C9.64646 17.6457 9.63318 17.6534 9.61876 17.6583C9.60435 17.6632 9.58911 17.6651 9.57394 17.664C9.55876 17.6629 9.54397 17.6588 9.53042 17.6518L5.29519 15.5932C4.74777 15.3274 4.11827 15.2856 3.54053 15.4768C2.96279 15.6679 2.48239 16.0768 2.20145 16.6166C1.92052 17.1564 1.86122 17.7845 2.03616 18.3673C2.2111 18.9502 2.60648 19.4418 3.13824 19.7377L9.1666 23.0817C9.61344 23.3263 10.1334 23.4021 10.6315 23.2951C11.1295 23.1881 11.5725 22.9055 11.8795 22.4989L16.175 16.7387L19.5322 19.2323C20.1073 19.6598 20.5706 20.22 20.8824 20.8653C21.1942 21.5105 21.3453 22.2215 21.3229 22.9378L21.1665 27.8743C21.1544 28.1573 21.0325 28.4244 20.8268 28.619C20.621 28.8137 20.3475 28.9205 20.0643 28.9169C19.7811 28.9133 19.5105 28.7995 19.3098 28.5997C19.109 28.3999 18.994 28.1298 18.9891 27.8466L18.9593 22.9771C18.9572 22.5858 18.8596 22.2011 18.675 21.8562C18.4904 21.5112 18.2243 21.2166 17.8999 20.998L15.9124 19.6545C15.7947 19.5774 15.6514 19.5498 15.5135 19.5775C15.3756 19.6052 15.2541 19.6861 15.1754 19.8026C15.0966 19.9192 15.0668 20.062 15.0925 20.2003C15.1182 20.3386 15.1973 20.4613 15.3126 20.5418L17.3004 21.8857C17.4803 22.0071 17.6278 22.1704 17.7302 22.3617C17.8326 22.553 17.8867 22.7664 17.8879 22.9833L17.9177 27.8529C18.0112 30.6434 22.0752 30.7198 22.2369 27.9078L22.3933 22.9713C22.4213 22.0824 22.2338 21.1998 21.8469 20.399C21.46 19.5982 20.8852 18.9028 20.1715 18.3722L16.8156 15.8796L18.5659 13.5325L20.1642 16.0483C20.4443 16.4891 20.8772 16.8111 21.38 16.9524C21.8828 17.0938 22.42 17.0445 22.8888 16.8142L26.9841 14.7933C27.2288 14.6705 27.445 14.4978 27.6188 14.2862C27.7925 14.0747 27.9199 13.829 27.9928 13.5651C28.0656 13.3012 28.0822 13.0249 28.0416 12.7542C28.0009 12.4834 27.9039 12.2242 27.7568 11.9933Z" fill="black" fill-opacity="0.2"/>
</svg>
