<svg width="30" height="30" viewBox="0 0 30 30" fill="none" xmlns="http://www.w3.org/2000/svg">
<g clip-path="url(#clip0_1685_11427)">
<path d="M25.625 8.05859H4.37502C1.96248 8.05859 0 10.0211 0 12.4336V24.9335C0 27.346 1.96248 29.3086 4.37502 29.3086H25.625C28.0375 29.3086 30.0001 27.3461 30.0001 24.9335V12.4336C30 10.0211 28.0375 8.05859 25.625 8.05859ZM28.75 24.9336C28.75 26.6561 27.3488 28.0586 25.625 28.0586H4.37502C2.65125 28.0586 1.25004 26.6561 1.25004 24.9336V12.4336C1.25004 10.7111 2.65131 9.30857 4.37502 9.30857H25.625C27.3488 9.30857 28.75 10.7111 28.75 12.4336V24.9336Z" fill="#007C0C"/>
<path d="M25.625 8.05859H4.37502C1.96248 8.05859 0 10.0211 0 12.4336V24.9335C0 27.346 1.96248 29.3086 4.37502 29.3086H25.625C28.0375 29.3086 30.0001 27.3461 30.0001 24.9335V12.4336C30 10.0211 28.0375 8.05859 25.625 8.05859ZM28.75 24.9336C28.75 26.6561 27.3488 28.0586 25.625 28.0586H4.37502C2.65125 28.0586 1.25004 26.6561 1.25004 24.9336V12.4336C1.25004 10.7111 2.65131 9.30857 4.37502 9.30857H25.625C27.3488 9.30857 28.75 10.7111 28.75 12.4336V24.9336Z" fill="black" fill-opacity="0.2"/>
<path d="M24.375 16.8086C23.3412 16.8086 22.5 17.6498 22.5 18.6836C22.5 19.7174 23.3412 20.5586 24.375 20.5586C25.4088 20.5586 26.25 19.7174 26.25 18.6836C26.25 17.6498 25.4088 16.8086 24.375 16.8086ZM24.375 19.3086C24.0312 19.3086 23.75 19.0286 23.75 18.6836C23.75 18.3386 24.0312 18.0586 24.375 18.0586C24.7188 18.0586 25 18.3386 25 18.6836C25 19.0286 24.7188 19.3086 24.375 19.3086Z" fill="#007C0C"/>
<path d="M24.375 16.8086C23.3412 16.8086 22.5 17.6498 22.5 18.6836C22.5 19.7174 23.3412 20.5586 24.375 20.5586C25.4088 20.5586 26.25 19.7174 26.25 18.6836C26.25 17.6498 25.4088 16.8086 24.375 16.8086ZM24.375 19.3086C24.0312 19.3086 23.75 19.0286 23.75 18.6836C23.75 18.3386 24.0312 18.0586 24.375 18.0586C24.7188 18.0586 25 18.3386 25 18.6836C25 19.0286 24.7188 19.3086 24.375 19.3086Z" fill="black" fill-opacity="0.2"/>
<path d="M29.375 14.3086H24.375C21.9625 14.3086 20 16.2711 20 18.6836C20 21.0961 21.9625 23.0586 24.375 23.0586H29.375C29.72 23.0586 30 22.7786 30 22.4336V14.9336C30 14.5886 29.72 14.3086 29.375 14.3086ZM28.75 21.8086H24.375C22.6512 21.8086 21.25 20.4061 21.25 18.6836C21.25 16.9611 22.6513 15.5586 24.375 15.5586H28.75V21.8086Z" fill="#007C0C"/>
<path d="M29.375 14.3086H24.375C21.9625 14.3086 20 16.2711 20 18.6836C20 21.0961 21.9625 23.0586 24.375 23.0586H29.375C29.72 23.0586 30 22.7786 30 22.4336V14.9336C30 14.5886 29.72 14.3086 29.375 14.3086ZM28.75 21.8086H24.375C22.6512 21.8086 21.25 20.4061 21.25 18.6836C21.25 16.9611 22.6513 15.5586 24.375 15.5586H28.75V21.8086Z" fill="black" fill-opacity="0.2"/>
<path d="M25.5586 8.40357L22.9124 3.11103C22.3786 2.04351 21.4574 1.2573 20.3199 0.897296C19.1824 0.538527 17.9774 0.651027 16.9249 1.21605L4.07864 8.13357C3.77489 8.29605 3.66116 8.67609 3.82487 8.97984C3.98864 9.28359 4.36862 9.39732 4.67114 9.23361L17.5199 2.31855C18.2699 1.91355 19.1336 1.83228 19.9436 2.0898C20.7561 2.34603 21.4136 2.90853 21.7949 3.67107L24.4411 8.96355C24.5511 9.18228 24.7711 9.30855 24.9999 9.30855C25.0936 9.30855 25.1886 9.28728 25.2786 9.24228C25.5874 9.0873 25.7124 8.7123 25.5586 8.40357Z" fill="#007C0C"/>
<path d="M25.5586 8.40357L22.9124 3.11103C22.3786 2.04351 21.4574 1.2573 20.3199 0.897296C19.1824 0.538527 17.9774 0.651027 16.9249 1.21605L4.07864 8.13357C3.77489 8.29605 3.66116 8.67609 3.82487 8.97984C3.98864 9.28359 4.36862 9.39732 4.67114 9.23361L17.5199 2.31855C18.2699 1.91355 19.1336 1.83228 19.9436 2.0898C20.7561 2.34603 21.4136 2.90853 21.7949 3.67107L24.4411 8.96355C24.5511 9.18228 24.7711 9.30855 24.9999 9.30855C25.0936 9.30855 25.1886 9.28728 25.2786 9.24228C25.5874 9.0873 25.7124 8.7123 25.5586 8.40357Z" fill="black" fill-opacity="0.2"/>
<path d="M23.0522 3.38861C22.8872 3.08363 22.5072 2.97113 22.2047 3.13361L12.9185 8.13359C12.6147 8.29736 12.501 8.67611 12.6647 8.97986C12.7772 9.18986 12.9922 9.30863 13.2147 9.30863C13.3148 9.30863 13.4172 9.2849 13.5122 9.23486L22.7984 4.23488C23.1022 4.07111 23.216 3.69236 23.0522 3.38861Z" fill="#007C0C"/>
<path d="M23.0522 3.38861C22.8872 3.08363 22.5072 2.97113 22.2047 3.13361L12.9185 8.13359C12.6147 8.29736 12.501 8.67611 12.6647 8.97986C12.7772 9.18986 12.9922 9.30863 13.2147 9.30863C13.3148 9.30863 13.4172 9.2849 13.5122 9.23486L22.7984 4.23488C23.1022 4.07111 23.216 3.69236 23.0522 3.38861Z" fill="black" fill-opacity="0.2"/>
<path d="M11.25 4.30859H6.87498C3.08502 4.30859 0 7.39232 0 11.1836V12.4336C0 12.7786 0.28002 13.0586 0.62502 13.0586C0.97002 13.0586 1.25004 12.7786 1.25004 12.4336V11.1836C1.25004 8.08232 3.77379 5.55857 6.87504 5.55857H11.25C11.595 5.55857 11.875 5.27855 11.875 4.93355C11.875 4.58855 11.595 4.30859 11.25 4.30859Z" fill="#007C0C"/>
<path d="M11.25 4.30859H6.87498C3.08502 4.30859 0 7.39232 0 11.1836V12.4336C0 12.7786 0.28002 13.0586 0.62502 13.0586C0.97002 13.0586 1.25004 12.7786 1.25004 12.4336V11.1836C1.25004 8.08232 3.77379 5.55857 6.87504 5.55857H11.25C11.595 5.55857 11.875 5.27855 11.875 4.93355C11.875 4.58855 11.595 4.30859 11.25 4.30859Z" fill="black" fill-opacity="0.2"/>
<path d="M23.125 4.30859C22.78 4.30859 22.5 4.58861 22.5 4.93361C22.5 5.27861 22.78 5.55863 23.125 5.55863C26.2263 5.55863 28.75 8.08238 28.75 11.1836V12.4336C28.75 12.7786 29.03 13.0586 29.375 13.0586C29.72 13.0586 30.0001 12.7786 30.0001 12.4336V11.1836C30 7.39232 26.915 4.30859 23.125 4.30859Z" fill="#007C0C"/>
<path d="M23.125 4.30859C22.78 4.30859 22.5 4.58861 22.5 4.93361C22.5 5.27861 22.78 5.55863 23.125 5.55863C26.2263 5.55863 28.75 8.08238 28.75 11.1836V12.4336C28.75 12.7786 29.03 13.0586 29.375 13.0586C29.72 13.0586 30.0001 12.7786 30.0001 12.4336V11.1836C30 7.39232 26.915 4.30859 23.125 4.30859Z" fill="black" fill-opacity="0.2"/>
</g>
<defs>
<clipPath id="clip0_1685_11427">
<rect width="30" height="30" fill="white"/>
</clipPath>
</defs>
</svg>
