<svg width="14" height="14" viewBox="0 0 14 14" xmlns="http://www.w3.org/2000/svg">

    <path
        d="M12.4784 2.73913H10.8632C11.0191 2.47029 11.1089 2.1586 11.1089 1.8261C11.1089 0.819191 10.2897 0 9.28278 0C8.33105 0 7.4913 0.488004 7.00018 1.22683C6.50905 0.488004 5.6693 0 4.71757 0C3.71067 0 2.89148 0.819191 2.89148 1.8261C2.89148 2.1586 2.98122 2.47032 3.13713 2.73913H1.52191C0.766731 2.73913 0.152344 3.35352 0.152344 4.1087V6.23913C0.152344 6.49124 0.356738 6.69566 0.608875 6.69566H1.06541V12.6304C1.06541 13.3856 1.67979 14 2.43497 14C2.81694 14 11.1448 14 11.5654 14C12.3206 14 12.935 13.3856 12.935 12.6304V6.69566H13.3915C13.6436 6.69566 13.848 6.49127 13.848 6.23913V4.1087C13.848 3.35352 13.2336 2.73913 12.4784 2.73913ZM4.71757 0.913035C5.72448 0.913035 6.54367 1.73223 6.54367 2.73913C6.34373 2.73913 4.94991 2.73913 4.71757 2.73913C4.21412 2.73913 3.80454 2.32955 3.80454 1.8261C3.80451 1.32264 4.21412 0.913035 4.71757 0.913035ZM5.63061 13.087H2.43497C2.18325 13.087 1.97844 12.8822 1.97844 12.6304V6.69566H5.63061V13.087ZM5.63061 5.7826C5.44021 5.7826 1.25722 5.7826 1.06541 5.7826V4.1087C1.06541 3.85697 1.27021 3.65217 1.52194 3.65217C1.60443 3.65217 5.54054 3.65217 5.63064 3.65217V5.7826H5.63061ZM7.45671 13.087H6.54367V6.69566H7.45671V13.087ZM7.45671 5.7826H6.54367V3.65217C6.87407 3.65217 7.12631 3.65217 7.45671 3.65217V5.7826ZM9.28278 0.913035C9.78623 0.913035 10.1958 1.32262 10.1958 1.82607C10.1958 2.32952 9.78623 2.73911 9.28278 2.73911C9.073 2.73911 7.6535 2.73911 7.45668 2.73911C7.45671 1.73223 8.27587 0.913035 9.28278 0.913035ZM12.0219 12.6304C12.0219 12.8822 11.8171 13.087 11.5654 13.087H8.36971V6.69566H12.0219V12.6304H12.0219ZM12.9349 5.7826C12.743 5.7826 8.56 5.7826 8.36974 5.7826V3.65217C8.45987 3.65217 12.396 3.65217 12.4784 3.65217C12.7302 3.65217 12.935 3.85697 12.935 4.1087V5.7826H12.9349Z" />


</svg>