<svg width="36" height="36" viewBox="0 0 36 36" xmlns="http://www.w3.org/2000/svg">
    <path fill-rule="evenodd" clip-rule="evenodd"
        d="M14.4645 6.57895L10.9868 12.375H25.0131L21.5355 6.57895C21.216 6.04645 21.3885 5.35495 21.921 5.03545C22.4535 4.71595 23.145 4.88845 23.4645 5.42095L27.6369 12.375H31.5H33C33.621 12.375 34.125 12.879 34.125 13.5C34.125 14.121 33.621 14.625 33 14.625H32.4557L30.3225 27.666C29.9955 29.661 28.272 31.125 26.2515 31.125H9.74855C7.72805 31.125 6.00455 29.661 5.67755 27.666C5.06853 23.938 3.95229 17.1169 3.54447 14.625H3C2.379 14.625 1.875 14.121 1.875 13.5C1.875 12.879 2.379 12.375 3 12.375H4.50005H8.36302L12.5355 5.42095C12.855 4.88845 13.5465 4.71595 14.079 5.03545C14.6115 5.35495 14.784 6.04645 14.4645 6.57895ZM5.82455 14.625L7.89905 27.303C8.04755 28.209 8.83055 28.875 9.74855 28.875H26.2515C27.1695 28.875 27.9525 28.209 28.101 27.303L30.1755 14.625H5.82455ZM16.875 18.75V24.75C16.875 25.371 17.379 25.875 18 25.875C18.621 25.875 19.125 25.371 19.125 24.75V18.75C19.125 18.129 18.621 17.625 18 17.625C17.379 17.625 16.875 18.129 16.875 18.75ZM10.875 24.75V18.75C10.875 18.129 11.379 17.625 12 17.625C12.621 17.625 13.125 18.129 13.125 18.75V24.75C13.125 25.371 12.621 25.875 12 25.875C11.379 25.875 10.875 25.371 10.875 24.75ZM22.875 18.75V24.75C22.875 25.371 23.379 25.875 24 25.875C24.621 25.875 25.125 25.371 25.125 24.75V18.75C25.125 18.129 24.621 17.625 24 17.625C23.379 17.625 22.875 18.129 22.875 18.75Z" />

</svg>