<svg width="25" height="24" viewBox="0 0 25 24" xmlns="http://www.w3.org/2000/svg">
    <path
        d="M11.7929 17.707C11.8021 17.7162 11.8144 17.7188 11.8238 17.7276C11.909 17.8101 12.0084 17.8766 12.1171 17.9238L12.1202 17.9244C12.3026 17.9994 12.5031 18.0188 12.6965 17.9801C12.8898 17.9414 13.0674 17.8464 13.2069 17.707L18.2069 12.707C18.3891 12.5184 18.4899 12.2658 18.4876 12.0036C18.4853 11.7414 18.3801 11.4906 18.1947 11.3052C18.0093 11.1198 17.7585 11.0146 17.4963 11.0123C17.2341 11.01 16.9815 11.1108 16.7929 11.293L13.4999 14.5859V3C13.4999 2.73478 13.3946 2.48043 13.207 2.29289C13.0195 2.10536 12.7651 2 12.4999 2C12.2347 2 11.9803 2.10536 11.7928 2.29289C11.6053 2.48043 11.4999 2.73478 11.4999 3V14.5859L8.20692 11.293C8.01832 11.1108 7.76571 11.01 7.50352 11.0123C7.24132 11.0146 6.99051 11.1198 6.8051 11.3052C6.61969 11.4906 6.51452 11.7414 6.51224 12.0036C6.50997 12.2658 6.61076 12.5184 6.79292 12.707L11.7929 17.707Z" />
    <path
        d="M20.5 16V19C20.4997 19.2651 20.3943 19.5193 20.2068 19.7068C20.0193 19.8943 19.7651 19.9997 19.5 20H5.5C5.23489 19.9997 4.98073 19.8942 4.79327 19.7067C4.60581 19.5193 4.50034 19.2651 4.5 19V16C4.5 15.7348 4.39464 15.4804 4.20711 15.2929C4.01957 15.1054 3.76522 15 3.5 15C3.23478 15 2.98043 15.1054 2.79289 15.2929C2.60536 15.4804 2.5 15.7348 2.5 16V19C2.50087 19.7954 2.81722 20.5579 3.37964 21.1204C3.94206 21.6828 4.70462 21.9991 5.5 22H19.5C20.2954 21.9991 21.0579 21.6828 21.6204 21.1204C22.1828 20.5579 22.4991 19.7954 22.5 19V16C22.5 15.7348 22.3946 15.4804 22.2071 15.2929C22.0196 15.1054 21.7652 15 21.5 15C21.2348 15 20.9804 15.1054 20.7929 15.2929C20.6054 15.4804 20.5 15.7348 20.5 16Z" />
</svg>