<svg xmlns="http://www.w3.org/2000/svg" viewBox="0 0 22 22">

    <path
        d="M17.42,20.25H4.58c-.76,0-1.47-.29-2-.83s-.83-1.25-.83-2V4.58c0-.76,.29-1.47,.83-2s1.25-.83,2-.83h6.42c.55,0,1,.45,1,1s-.45,1-1,1H4.58c-.22,0-.43,.09-.59,.24-.16,.16-.24,.37-.24,.59v12.83c0,.22,.09,.43,.24,.59,.16,.16,.37,.24,.59,.24h12.83c.22,0,.43-.09,.59-.24s.24-.37,.24-.59v-6.42c0-.55,.45-1,1-1s1,.45,1,1v6.42c0,.76-.29,1.47-.83,2s-1.25,.83-2,.83Z" />

    <path
        d="M17.42,20.25H4.58c-.76,0-1.47-.29-2-.83s-.83-1.25-.83-2V4.58c0-.76,.29-1.47,.83-2s1.25-.83,2-.83h6.42c.55,0,1,.45,1,1s-.45,1-1,1H4.58c-.22,0-.43,.09-.59,.24-.16,.16-.24,.37-.24,.59v12.83c0,.22,.09,.43,.24,.59,.16,.16,.37,.24,.59,.24h12.83c.22,0,.43-.09,.59-.24s.24-.37,.24-.59v-6.42c0-.55,.45-1,1-1s1,.45,1,1v6.42c0,.76-.29,1.47-.83,2s-1.25,.83-2,.83Z" />

    <path
        d="M7.79,15.67c-.12,0-.24-.01-.36-.04-.25-.06-.48-.2-.67-.38-.19-.19-.32-.42-.38-.67-.07-.26-.06-.53,.01-.78l.77-2.63c.13-.45,.38-.87,.72-1.21L16.14,1.7h0c1.11-1.11,3.05-1.11,4.17,0,.56,.56,.86,1.29,.86,2.08s-.31,1.53-.86,2.08L12.04,14.13c-.33,.33-.75,.58-1.21,.72l-2.63,.77c-.14,.04-.27,.06-.41,.06Zm.52-1.31h0s0,0,0,0ZM17.55,3.11L9.29,11.38c-.1,.1-.17,.22-.21,.35l-.49,1.68,1.68-.49c.13-.04,.26-.11,.35-.21L18.89,4.45c.18-.18,.28-.42,.28-.67s-.1-.49-.28-.67c-.36-.36-.98-.36-1.34,0Z" />

    <path
        d="M7.79,15.67c-.12,0-.24-.01-.36-.04-.25-.06-.48-.2-.67-.38-.19-.19-.32-.42-.38-.67-.07-.26-.06-.53,.01-.78l.77-2.63c.13-.45,.38-.87,.72-1.21L16.14,1.7h0c1.11-1.11,3.05-1.11,4.17,0,.56,.56,.86,1.29,.86,2.08s-.31,1.53-.86,2.08L12.04,14.13c-.33,.33-.75,.58-1.21,.72l-2.63,.77c-.14,.04-.27,.06-.41,.06Zm.52-1.31h0s0,0,0,0ZM17.55,3.11L9.29,11.38c-.1,.1-.17,.22-.21,.35l-.49,1.68,1.68-.49c.13-.04,.26-.11,.35-.21L18.89,4.45c.18-.18,.28-.42,.28-.67s-.1-.49-.28-.67c-.36-.36-.98-.36-1.34,0Z" />

</svg>