<svg width="16" height="16" viewBox="0 0 16 16" xmlns="http://www.w3.org/2000/svg">
    <path fill-rule="evenodd" clip-rule="evenodd"
        d="M1.6 8.0007C1.6024 7.9879 1.6136 7.9175 1.676 7.7791C1.7448 7.6263 1.856 7.4343 2.0152 7.2127C2.3336 6.7703 2.8096 6.2591 3.4112 5.7743C4.6216 4.7967 6.2496 3.9999 8 3.9999C9.7504 3.9999 11.3784 4.7967 12.5888 5.7727C13.1904 6.2575 13.6664 6.7687 13.9848 7.2111C14.1448 7.4327 14.2552 7.6247 14.324 7.7775C14.3864 7.9159 14.3976 7.9863 14.4 7.9991V7.9999C14.3976 8.0127 14.3864 8.0831 14.324 8.2215C14.2294 8.42074 14.1158 8.61041 13.9848 8.7879C13.6664 9.2303 13.1904 9.7415 12.5888 10.2263C11.3792 11.2031 9.7512 11.9999 8 11.9999C6.2488 11.9999 4.6216 11.2031 3.4112 10.2271C2.8096 9.7423 2.3336 9.2311 2.0152 8.7887C1.88381 8.6115 1.7702 8.42178 1.676 8.2223C1.63993 8.15257 1.61432 8.0779 1.6 8.0007ZM8 2.3999C5.7736 2.3999 3.8016 3.4031 2.4072 4.5271C1.7056 5.0919 1.1272 5.7063 0.7168 6.2767C0.521747 6.54022 0.354205 6.82303 0.2168 7.1207C0.0983999 7.3839 0 7.6887 0 7.9999C0 8.3103 0.0984 8.6167 0.216 8.8791C0.34 9.1527 0.512 9.4391 0.7168 9.7231C1.1272 10.2935 1.7056 10.9071 2.4072 11.4727C3.8016 12.5967 5.7736 13.5999 8 13.5999C10.2264 13.5999 12.1984 12.5967 13.5928 11.4727C14.2944 10.9079 14.8728 10.2935 15.2832 9.7231C15.4888 9.4383 15.66 9.1527 15.7832 8.8791C15.9016 8.6167 16 8.3111 16 7.9999C16 7.6895 15.9016 7.3831 15.784 7.1207C15.6454 6.82351 15.4776 6.54079 15.2832 6.2767C14.8728 5.7063 14.2944 5.0927 13.5928 4.5271C12.1984 3.4031 10.2264 2.3999 8 2.3999ZM7.2 7.9999C7.2 7.78773 7.28429 7.58425 7.43431 7.43422C7.58434 7.28419 7.78783 7.1999 8 7.1999C8.21217 7.1999 8.41566 7.28419 8.56569 7.43422C8.71571 7.58425 8.8 7.78773 8.8 7.9999C8.8 8.21208 8.71571 8.41556 8.56569 8.56559C8.41566 8.71562 8.21217 8.7999 8 8.7999C7.78783 8.7999 7.58434 8.71562 7.43431 8.56559C7.28429 8.41556 7.2 8.21208 7.2 7.9999ZM8 5.5999C7.36348 5.5999 6.75303 5.85276 6.30294 6.30285C5.85286 6.75293 5.6 7.36338 5.6 7.9999C5.6 8.63642 5.85286 9.24687 6.30294 9.69696C6.75303 10.147 7.36348 10.3999 8 10.3999C8.63652 10.3999 9.24697 10.147 9.69706 9.69696C10.1471 9.24687 10.4 8.63642 10.4 7.9999C10.4 7.36338 10.1471 6.75293 9.69706 6.30285C9.24697 5.85276 8.63652 5.5999 8 5.5999Z" />
</svg>