<?xml version="1.0" encoding="UTF-8"?>
<svg id="Layer_1" data-name="Layer 1" xmlns="http://www.w3.org/2000/svg" xmlns:xlink="http://www.w3.org/1999/xlink"
    viewBox="0 0 64 64">

    <g class="cls-2">
        <g>
            <path class="cls-3"
                d="M58.56,15.71c-2.92-2.33-7.04-4.23-12.24-5.66-10.01-2.75-21.3-3.05-25.69-3.05C9.25,7.01,0,16.26,0,27.63v8.74c0,11.37,9.25,20.63,20.63,20.63,5.24,0,9.18-1.64,13.35-3.38,4.31-1.8,8.77-3.66,15.04-3.66,8.26,0,14.98-6.72,14.98-14.98v-8.74c0-4.1-1.83-7.65-5.44-10.52Zm-1.05,21.37c.47,.5,1.26,.53,1.77,.05,.85-.8,1.59-1.69,2.23-2.65v.48c0,6.88-5.6,12.48-12.48,12.48s-11.46,1.96-16,3.85c-3.93,1.64-7.65,3.19-12.39,3.19-9.6,0-17.48-7.51-18.09-16.96,3.51,6.38,10.3,10.72,18.09,10.72,5.24,0,9.18-1.64,13.35-3.38,4.31-1.8,8.77-3.66,15.04-3.66,.47,0,.94-.02,1.4-.07,.69-.06,1.19-.67,1.13-1.36-.06-.69-.67-1.19-1.36-1.13-.39,.04-.78,.05-1.17,.05-6.77,0-11.46,1.96-16,3.85-3.93,1.64-7.65,3.19-12.39,3.19-9.99,0-18.13-8.13-18.13-18.12S10.63,9.51,20.63,9.51c4.29,0,15.31,.29,25.03,2.96,10.52,2.89,15.85,7.52,15.85,13.77,0,3.41-1.44,6.72-3.94,9.08-.5,.47-.53,1.26-.05,1.77Z" />
            <path class="cls-3"
                d="M54.81,37.28s-.02,.01-.03,.01c-.62,.31-.87,1.06-.56,1.68,.22,.44,.66,.69,1.12,.69,.19,0,.37-.04,.55-.13,.61-.3,.87-1.04,.58-1.66-.29-.62-1.04-.89-1.66-.6Z" />
            <path class="cls-3"
                d="M29.39,14.84h.06s.07,0,.1,0c.65,0,1.19-.5,1.24-1.15,.05-.69-.46-1.29-1.15-1.35h-.06c-.69-.06-1.29,.45-1.35,1.14-.05,.69,.46,1.29,1.15,1.35Z" />
            <path class="cls-3"
                d="M58.22,22.87c-1.24-2.45-4-4.57-8.2-6.29-3.4-1.4-7.12-2.28-9.64-2.77-1.51-.3-3.09-.56-4.7-.79-.68-.1-1.32,.38-1.41,1.06-.1,.68,.38,1.32,1.06,1.41,1.57,.22,3.1,.48,4.57,.76,8.59,1.68,14.45,4.51,16.09,7.74,.34,.68,.51,1.41,.51,2.24,0,4.13-3.36,7.48-7.48,7.48s-8.22,.68-12.38,2.08c-1.79,.6-3.53,1.33-5.22,2.02-1.11,.46-2.26,.94-3.41,1.37-2.88,1.09-5.09,1.56-7.39,1.56-7.24,0-13.13-5.89-13.13-13.12s5.89-13.13,13.13-13.13c1.41,0,2.85,.03,4.26,.08,.24,0,.48,.02,.72,.03,.69,.03,1.27-.5,1.3-1.19,.03-.69-.5-1.27-1.19-1.3-.25-.01-.49-.02-.74-.03-1.45-.05-2.91-.08-4.35-.08-8.62,0-15.63,7.01-15.63,15.63s7.01,15.62,15.63,15.62c2.62,0,5.09-.51,8.27-1.72,1.18-.45,2.35-.93,3.48-1.4,1.64-.68,3.34-1.39,5.06-1.96,3.9-1.31,7.69-1.95,11.58-1.95,5.5,0,9.98-4.48,9.98-9.98,0-1.23-.26-2.33-.78-3.37Z" />
            <path class="cls-3"
                d="M21.82,16.98c-3.49,0-6.34,2.58-6.34,5.75s2.84,5.75,6.34,5.75,6.34-2.58,6.34-5.75-2.84-5.75-6.34-5.75Zm0,8.99c-2.12,0-3.84-1.46-3.84-3.25s1.72-3.25,3.84-3.25,3.84,1.46,3.84,3.25-1.72,3.25-3.84,3.25Z" />
        </g>
    </g>
</svg>