<svg width="64" height="64" viewBox="0 0 64 64" xmlns="http://www.w3.org/2000/svg">

    <path
        d="M0.000269243 30.9333C0.000269243 42.0053 5.4296 52.608 13.8669 58.1653V60.8C13.8669 62.56 15.3069 64 17.0669 64H46.9336C48.6936 64 50.1336 62.56 50.1336 60.8V58.1653C58.5709 52.608 64.0003 42.0053 64.0003 30.9333C64.0003 29.1733 62.5603 27.7333 60.8003 27.7333H58.6669C59.1896 27.104 59.6376 26.4106 59.9576 25.6426C60.8963 23.36 60.7149 20.7573 59.5309 18.624C60.3096 17.9306 60.9283 17.0666 61.3443 16.064C62.0483 14.336 62.0376 12.448 61.3123 10.7306C60.5869 9.02397 59.2536 7.70131 57.5683 7.01864C57.4936 6.98664 57.4296 6.95464 57.3549 6.93331C57.8989 4.26664 56.4909 1.50397 53.8883 0.426638C51.2963 -0.629362 48.3523 0.351971 46.8696 2.63464C46.8056 2.60264 46.7416 2.5813 46.6776 2.5493C43.1363 1.09864 39.0829 2.80531 37.6323 6.33597C37.2163 7.33864 37.0456 8.38397 37.1096 9.43997C35.7656 9.83464 34.5603 10.5706 33.5896 11.5626C31.8829 9.13064 29.5896 7.45597 26.6563 7.45597C23.3603 7.45597 20.8643 9.55731 19.1149 12.4906C18.3683 11.7973 17.4509 11.328 16.4589 11.136L16.5976 5.88797C16.6189 5.03464 16.3096 4.22397 15.7229 3.6053C15.1363 2.98664 14.3363 2.62397 13.4723 2.60264C13.4403 2.60264 13.4189 2.60264 13.3869 2.60264C12.2243 2.60264 11.2109 3.24264 10.6456 4.1813C10.0483 2.62397 8.35227 1.75997 6.73094 2.2613C5.9096 2.50664 5.2376 3.0613 4.84294 3.81864C4.48027 4.51197 4.38427 5.29064 4.5656 6.04797C4.29894 5.91997 4.0216 5.8133 3.7336 5.77064C2.89094 5.6213 2.0376 5.82397 1.34427 6.31464C0.650936 6.81597 0.181603 7.56264 0.0429359 8.40531C-0.0957308 9.24797 0.0962693 10.0906 0.586936 10.784L3.6376 15.0826C3.17894 15.552 2.7736 16.0746 2.50694 16.6933C1.85627 18.144 1.8776 19.808 2.5496 21.248L5.5896 27.7333H3.20027C1.44027 27.7333 0.000269243 29.1733 0.000269243 30.9333ZM48.0003 60.8C48.0003 61.3866 47.5203 61.8666 46.9336 61.8666H17.0669C16.4803 61.8666 16.0003 61.3866 16.0003 60.8V58.6666H48.0003V60.8ZM61.8669 30.9333C61.8669 41.2373 56.6083 51.4773 48.7576 56.5333H15.2429C7.39227 51.4773 2.1336 41.2373 2.1336 30.9333C2.1336 30.3466 2.6136 29.8666 3.20027 29.8666H60.8003C61.3869 29.8666 61.8669 30.3466 61.8669 30.9333ZM23.4669 25.6C23.4669 23.84 24.9069 22.4 26.6669 22.4C28.4269 22.4 29.8669 23.84 29.8669 25.6C29.8669 26.3893 29.5576 27.1466 29.0243 27.7333H24.3096C23.7763 27.1466 23.4669 26.3893 23.4669 25.6ZM38.4749 11.328C38.7629 11.2853 39.0296 11.1146 39.1896 10.88C39.3603 10.6346 39.4136 10.336 39.3496 10.048C39.1363 9.08797 39.2216 8.09597 39.6056 7.16797C40.6083 4.71464 43.4243 3.54131 45.8456 4.53331C46.1229 4.6613 46.4536 4.79997 46.6883 4.98131C46.9549 5.17331 47.2963 5.23731 47.6163 5.14131C47.9363 5.04531 48.1923 4.82131 48.3096 4.51197L48.3523 4.41597C49.1203 2.57064 51.2429 1.66397 53.0989 2.4213C54.9549 3.17864 55.8403 5.31197 55.0829 7.16797L55.0403 7.27464C54.9229 7.57331 54.9443 7.91464 55.0936 8.19197C55.2536 8.46931 55.5309 8.67197 55.8509 8.72531C56.1389 8.76797 56.4376 8.86397 56.7469 9.00264C57.9309 9.48264 58.8589 10.4 59.3603 11.5733C59.8616 12.7573 59.8723 14.0693 59.3816 15.264C58.9976 16.192 58.3576 16.96 57.5469 17.4826C57.3016 17.6426 57.1203 17.8986 57.0669 18.1866C57.0136 18.4746 57.0776 18.7733 57.2589 19.0186C58.4963 20.6933 58.7843 22.9226 57.9949 24.8426C57.4723 26.0906 56.5869 27.0826 55.4349 27.744H43.8936L44.9283 25.216L49.7709 24.4266C50.3469 24.3306 50.7523 23.7866 50.6563 23.2C50.5603 22.6133 50.0163 22.2293 49.4296 22.3146L45.8776 22.8906L47.8403 18.0906L52.6936 17.3013C53.2696 17.2053 53.6749 16.6613 53.5789 16.0746C53.4829 15.488 52.9389 15.104 52.3523 15.1893L48.7896 15.776L50.9336 10.5173C51.1576 9.9733 50.8909 9.35464 50.3469 9.13064C49.8029 8.90664 49.1843 9.1733 48.9603 9.71731L46.8163 14.9653L44.6829 12.0533C44.3309 11.5733 43.6696 11.4773 43.1896 11.8186C42.7096 12.1706 42.6136 12.832 42.9549 13.312L45.8563 17.28L43.8936 22.08L41.7603 19.168C41.4083 18.688 40.7469 18.592 40.2669 18.9333C39.7869 19.2853 39.6909 19.9466 40.0323 20.4266L42.9336 24.3946L41.5683 27.7333H36.8109C37.1309 26.6986 37.3229 25.6213 37.3229 24.5333C37.3229 21.1093 36.4803 16.864 34.7416 13.472C35.6696 12.32 36.9923 11.552 38.4643 11.328H38.4749ZM26.6669 9.59997C32.1603 9.59997 35.2003 18.432 35.2003 24.5333C35.2003 25.632 34.9763 26.72 34.5603 27.7333H31.5523C31.8403 27.072 32.0003 26.3466 32.0003 25.6C32.0003 22.656 29.6109 20.2666 26.6669 20.2666C23.7229 20.2666 21.3336 22.656 21.3336 25.6C21.3336 26.3466 21.4936 27.072 21.7816 27.7333H18.7736C18.3576 26.72 18.1336 25.632 18.1336 24.5333C18.1336 23.9253 18.1763 23.2746 18.2296 22.624C18.7736 16.7466 21.7176 9.59997 26.6669 9.59997ZM12.6616 5.04531C12.8643 4.85331 13.1203 4.71464 13.4189 4.75731C13.7069 4.75731 13.9736 4.8853 14.1763 5.08797C14.3683 5.29064 14.4749 5.55731 14.4643 5.8453L14.3256 11.1573C14.1443 11.1893 13.9736 11.2106 13.7923 11.2746L12.9069 11.5413L12.2349 9.32264L12.3203 5.80264C12.3203 5.51464 12.4483 5.24797 12.6509 5.05597L12.6616 5.04531ZM6.7416 4.83197C6.8696 4.57597 7.0936 4.39464 7.37094 4.30931C7.93627 4.13864 8.5336 4.45864 8.70427 5.02397L10.8803 12.16L8.84294 12.7893L6.66694 5.65331C6.5816 5.38664 6.6136 5.08797 6.7416 4.84264V4.83197ZM2.15494 8.75731C2.1976 8.47997 2.34694 8.22397 2.5816 8.05331C3.0616 7.71197 3.7336 7.83997 4.07494 8.30931L6.12294 11.1893L6.79494 13.3973L5.92027 13.664C5.73894 13.7173 5.5896 13.8026 5.41894 13.8773L2.3256 9.52531C2.1656 9.29064 2.11227 9.0133 2.15494 8.73597V8.75731ZM5.5896 22.6986L10.3043 21.2586C10.8696 21.088 11.1896 20.4906 11.0083 19.9253C10.8269 19.36 10.2403 19.04 9.67494 19.2213L4.6616 20.7466L4.4696 20.3306C4.0536 19.4453 4.04294 18.432 4.4376 17.5466C4.83227 16.6613 5.5896 15.9893 6.5176 15.712L14.4003 13.3013C15.7763 12.8746 17.2376 13.3973 18.0589 14.528C17.0669 16.7893 16.4376 19.3066 16.1603 21.6853L13.9736 22.3466C13.4083 22.5173 13.0883 23.1146 13.2696 23.68C13.4083 24.1386 13.8349 24.4373 14.2936 24.4373C14.4003 24.4373 14.4963 24.4266 14.6029 24.3946L16.0003 23.968C16.0003 24.1493 15.9789 24.3413 15.9789 24.5226C15.9789 25.6106 16.1603 26.688 16.4909 27.7226H7.9576L5.60027 22.688L5.5896 22.6986Z" />






</svg>