<svg width="64" height="64" viewBox="0 0 64 64" xmlns="http://www.w3.org/2000/svg">

    <path
        d="M0.761367 33.2316C1.02381 34.7188 1.36124 36.206 1.78614 37.6307C2.26104 39.2928 2.88591 40.905 3.66074 42.4546C3.93568 42.9795 4.57304 43.1795 5.09793 42.9045C5.61032 42.6421 5.81027 42.0047 5.56033 41.4924C5.06044 40.4926 4.62303 39.4553 4.27311 38.4055H7.48491C11.7215 38.2556 11.7215 32.1569 7.48491 32.0069H2.74844C2.52349 30.6322 2.37352 29.2075 2.27354 27.7453H5.34787C7.10999 27.7453 8.54718 26.3081 8.54718 24.546C8.54718 22.7839 7.10999 21.3467 5.34787 21.3467H2.27354C2.37352 19.8845 2.52349 18.4598 2.74844 17.0851H7.48491C9.24703 17.0976 10.6967 15.6854 10.7217 13.9233C10.7467 12.1612 9.30951 10.6865 7.5349 10.6615C7.5099 10.6615 7.49741 10.6615 7.47241 10.6615H4.27311C10.0344 -5.27251 19.4323 3.37561 21.032 18.9847C21.0945 19.5721 21.6068 19.997 22.1942 19.947C22.7816 19.8845 23.2065 19.3721 23.1565 18.7848C21.9068 7.57471 17.3078 -0.0111508 11.7465 0.00134653C6.01023 -0.123626 1.89862 8.47451 0.761367 15.8104C-0.238416 21.5592 -0.250913 27.4829 0.761367 33.2316ZM8.54718 35.1937C8.54718 35.7811 8.07228 36.256 7.48491 36.256H3.62325C3.42329 35.5561 3.26083 34.8938 3.11086 34.1189H7.48491C8.05979 34.1314 8.54718 34.6063 8.54718 35.1937ZM6.41014 24.5335C6.41014 25.1209 5.93525 25.5958 5.34787 25.5958H2.16106C2.13607 24.896 2.13607 24.1711 2.16106 23.4588H5.33538C5.93525 23.4588 6.41014 23.9462 6.41014 24.5335ZM8.54718 13.8608C8.54718 14.4482 8.07228 14.9231 7.48491 14.9231H3.11086C3.26083 14.2108 3.42329 13.4859 3.62325 12.7861H7.48491C8.05979 12.7986 8.54718 13.2735 8.54718 13.8608Z" />

    <path
        d="M46.939 19.1972H34.1418C26.556 19.1097 17.333 23.1089 17.083 30.9322C17.0955 32.7818 17.6954 34.5814 18.7951 36.0685C19.1326 36.5559 19.7949 36.6684 20.2823 36.331C20.7697 35.9936 20.8822 35.3312 20.5448 34.8438C18.0328 31.3446 19.27 27.2205 23.0317 24.5585C30.6176 18.5848 48.8136 21.2593 49.0761 30.9322C49.0761 32.5568 48.4512 34.119 47.2015 35.5562C47.039 35.7436 46.939 35.9936 46.939 36.256V48.7033C46.9515 50.103 49.0011 50.1655 49.0761 48.7408C49.1011 48.7408 49.0511 36.6559 49.0761 36.6434C53.5501 31.2321 50.5133 24.3211 43.9272 21.3342H46.939C56.9994 21.3092 65.8599 28.1578 59.9987 35.5562C59.8362 35.7436 59.7363 35.9936 59.7363 36.256V61.863H47.6014C46.2017 61.9004 46.1892 63.95 47.6014 64H60.7985C61.3859 64 61.8608 63.5251 61.8608 62.9377C61.8608 62.9377 61.8608 36.6559 61.8608 36.6434C68.4594 27.8078 58.699 19.1222 46.939 19.1972Z" />

    <path
        d="M27.7427 26.6581C29.1549 26.6956 29.1549 28.7451 27.7427 28.7951C26.3305 28.7576 26.3305 26.7081 27.7427 26.6581Z" />

    <path
        d="M33.0674 24.5336C34.4795 24.5711 34.4795 26.6206 33.0674 26.6706C31.6677 26.6206 31.6677 24.5711 33.0674 24.5336Z" />

    <path
        d="M38.4029 26.6581C39.8151 26.6956 39.8151 28.7451 38.4029 28.7951C36.9907 28.7576 36.9907 26.7081 38.4029 26.6581Z" />

    <path
        d="M35.2037 30.9321C36.6159 30.9696 36.6159 33.0192 35.2037 33.0692C33.7915 33.0192 33.7915 30.9696 35.2037 30.9321Z" />

    <path
        d="M30.942 30.9321C32.3542 30.9696 32.3542 33.0192 30.942 33.0692C29.5298 33.0192 29.5298 30.9696 30.942 30.9321Z" />

    <path
        d="M23.4691 38.3931C10.472 38.3931 0.0117188 48.141 0.0117188 56.2017C0.0117188 63.8376 9.24722 63.9125 15.9958 63.975C16.5831 63.9625 17.058 63.5001 17.0705 62.9128C17.0705 62.3254 16.6081 61.838 16.0208 61.838C7.0227 61.763 2.13626 60.8382 2.14876 56.2017C2.14876 52.665 4.96065 48.1659 9.60964 44.9042V47.991C9.75961 52.2276 15.8583 52.2276 16.0083 47.991V41.7298C17.3955 41.2799 18.8201 40.955 20.2698 40.7676V44.7917C20.2698 46.5538 21.6945 47.991 23.4691 47.991C25.2313 47.991 26.6684 46.5663 26.6684 44.7917C26.6684 44.7917 26.6684 40.7676 26.6684 40.7551C28.1181 40.9425 29.5428 41.2674 30.93 41.7173V47.9785C31.08 52.2151 37.1787 52.2151 37.3286 47.9785V44.8917C42.4275 48.4159 47.064 55.3644 43.6273 59.3385C41.1278 62.2504 30.6301 61.838 23.4691 61.813L20.2698 61.8255C19.6825 61.8255 19.2076 62.3004 19.2076 62.8878C19.2076 63.4751 19.6825 63.95 20.2698 63.95L23.4691 63.9375C25.3937 63.9375 27.3308 63.95 29.2304 63.95C36.5663 63.95 42.3026 63.6626 45.1394 60.8257C46.3267 59.6385 46.9265 58.0763 46.9265 56.1642C46.939 48.141 36.4663 38.3931 23.4691 38.3931ZM13.8712 47.991C13.8712 48.5784 13.3963 49.0533 12.8089 49.0533C12.2216 49.0533 11.7467 48.5784 11.7467 47.991V43.5919C12.434 43.217 13.1464 42.8546 13.8837 42.5422V47.991H13.8712ZM35.2041 47.991C35.2041 48.5784 34.7292 49.0533 34.1418 49.0533C33.5544 49.0533 33.0796 48.5784 33.0796 47.991V42.5422C33.8169 42.8546 34.5292 43.2045 35.2166 43.5919V47.991H35.2041ZM24.5439 44.7917C24.5439 45.3791 24.069 45.854 23.4816 45.854C22.8943 45.854 22.4194 45.3791 22.4194 44.7917V40.5801C23.1317 40.5426 23.8441 40.5426 24.5564 40.5801L24.5439 44.7917Z" />


</svg>