<svg xmlns="http://www.w3.org/2000/svg" xmlns:xlink="http://www.w3.org/1999/xlink" viewBox="0 0 64 64">


    <ellipse cx="35" cy="30" rx="2" ry="1" />
    <path
        d="M61,27c0-4.42-6.45-8.26-16.83-10.02-.26-.04-.53,.02-.75,.17-.22,.15-.36,.39-.41,.65-.04,.26,.02,.53,.17,.75,.08,.11,.17,.2,.28,.27,.11,.07,.24,.12,.36,.14,9.07,1.54,15.17,4.78,15.17,8.05,0,1.57-1.51,3.2-4.21,4.64-1.48-4.94-10.95-8.64-22.79-8.64-4.79-.06-9.57,.63-14.14,2.05-.25,.08-.46,.26-.58,.5-.12,.24-.14,.51-.06,.76,.08,.25,.26,.46,.5,.58,.24,.12,.51,.14,.76,.06,4.38-1.34,8.94-2,13.52-1.95,12.04,0,20.27,3.8,20.94,7.52-4.79,2.02-12.12,3.48-20.94,3.48s-16.15-1.46-20.94-3.48c.27-1.52,1.8-3.04,4.39-4.33,.12-.06,.22-.14,.31-.24,.09-.1,.15-.21,.2-.34,.04-.12,.06-.26,.05-.39,0-.13-.04-.26-.1-.38-.06-.12-.14-.22-.24-.31s-.22-.15-.34-.19c-.13-.04-.26-.06-.39-.05-.13,0-.26,.05-.38,.11-2.97,1.48-4.77,3.27-5.34,5.25-2.7-1.44-4.21-3.08-4.21-4.65,0-3.54,7.05-6.97,17.14-8.35,.26-.04,.5-.17,.66-.39,.16-.21,.23-.48,.19-.74-.04-.26-.18-.5-.39-.66-.21-.16-.48-.23-.74-.19-11.64,1.59-18.86,5.55-18.86,10.33v1c0,7.69,3.07,15.06,8.5,20.5,5.44,5.44,12.81,8.49,20.5,8.5,5.37,.01,10.64-1.47,15.21-4.28,4.57-2.81,8.27-6.85,10.68-11.65,.12-.24,.14-.51,.05-.76-.08-.25-.26-.46-.5-.58-.24-.12-.51-.14-.76-.06-.25,.08-.46,.26-.58,.49-2.74,5.42-7.22,9.77-12.73,12.33-5.51,2.56-11.72,3.19-17.63,1.78-5.91-1.41-11.17-4.77-14.94-9.54-3.08-3.9-4.98-8.55-5.58-13.44,4.33,3.97,14.56,6.7,26.78,6.7s22.44-2.73,26.78-6.7c-.26,2.16-.77,4.3-1.55,6.34-.06,.15-.08,.31-.06,.48,.02,.16,.08,.31,.17,.45,.09,.13,.21,.24,.36,.32,.14,.08,.3,.12,.47,.12,.2,0,.4-.06,.57-.17,.17-.11,.3-.28,.37-.47,1.26-3.31,1.91-6.82,1.9-10.36v-1s0,0,0,0Z" />
    <path
        d="M61,27c0-4.42-6.45-8.26-16.83-10.02-.26-.04-.53,.02-.75,.17-.22,.15-.36,.39-.41,.65-.04,.26,.02,.53,.17,.75,.08,.11,.17,.2,.28,.27,.11,.07,.24,.12,.36,.14,9.07,1.54,15.17,4.78,15.17,8.05,0,1.57-1.51,3.2-4.21,4.64-1.48-4.94-10.95-8.64-22.79-8.64-4.79-.06-9.57,.63-14.14,2.05-.25,.08-.46,.26-.58,.5-.12,.24-.14,.51-.06,.76,.08,.25,.26,.46,.5,.58,.24,.12,.51,.14,.76,.06,4.38-1.34,8.94-2,13.52-1.95,12.04,0,20.27,3.8,20.94,7.52-4.79,2.02-12.12,3.48-20.94,3.48s-16.15-1.46-20.94-3.48c.27-1.52,1.8-3.04,4.39-4.33,.12-.06,.22-.14,.31-.24,.09-.1,.15-.21,.2-.34,.04-.12,.06-.26,.05-.39,0-.13-.04-.26-.1-.38-.06-.12-.14-.22-.24-.31s-.22-.15-.34-.19c-.13-.04-.26-.06-.39-.05-.13,0-.26,.05-.38,.11-2.97,1.48-4.77,3.27-5.34,5.25-2.7-1.44-4.21-3.08-4.21-4.65,0-3.54,7.05-6.97,17.14-8.35,.26-.04,.5-.17,.66-.39,.16-.21,.23-.48,.19-.74-.04-.26-.18-.5-.39-.66-.21-.16-.48-.23-.74-.19-11.64,1.59-18.86,5.55-18.86,10.33v1c0,7.69,3.07,15.06,8.5,20.5,5.44,5.44,12.81,8.49,20.5,8.5,5.37,.01,10.64-1.47,15.21-4.28,4.57-2.81,8.27-6.85,10.68-11.65,.12-.24,.14-.51,.05-.76-.08-.25-.26-.46-.5-.58-.24-.12-.51-.14-.76-.06-.25,.08-.46,.26-.58,.49-2.74,5.42-7.22,9.77-12.73,12.33-5.51,2.56-11.72,3.19-17.63,1.78-5.91-1.41-11.17-4.77-14.94-9.54-3.08-3.9-4.98-8.55-5.58-13.44,4.33,3.97,14.56,6.7,26.78,6.7s22.44-2.73,26.78-6.7c-.26,2.16-.77,4.3-1.55,6.34-.06,.15-.08,.31-.06,.48,.02,.16,.08,.31,.17,.45,.09,.13,.21,.24,.36,.32,.14,.08,.3,.12,.47,.12,.2,0,.4-.06,.57-.17,.17-.11,.3-.28,.37-.47,1.26-3.31,1.91-6.82,1.9-10.36v-1s0,0,0,0Z" />
    <path
        d="M51.48,51.59c-.12-.06-.24-.1-.37-.12-.13-.01-.26,0-.39,.04-.13,.04-.24,.1-.35,.18-.1,.08-.19,.18-.25,.3-.06,.12-.1,.24-.12,.37s0,.26,.04,.39c.04,.13,.1,.24,.18,.35,.08,.1,.18,.19,.3,.25,1.6,.87,2.48,1.81,2.48,2.65,0,2.51-7.99,6-21,6s-21-3.49-21-6c0-.84,.88-1.78,2.48-2.65,.23-.13,.41-.34,.48-.6,.08-.25,.05-.53-.08-.76-.13-.23-.34-.41-.6-.48-.25-.08-.53-.05-.76,.08-2.91,1.58-3.52,3.27-3.52,4.41,0,5.2,11.85,8,23,8s23-2.8,23-8c0-1.14-.61-2.83-3.52-4.41Z" />
    <path
        d="M51.48,51.59c-.12-.06-.24-.1-.37-.12-.13-.01-.26,0-.39,.04-.13,.04-.24,.1-.35,.18-.1,.08-.19,.18-.25,.3-.06,.12-.1,.24-.12,.37s0,.26,.04,.39c.04,.13,.1,.24,.18,.35,.08,.1,.18,.19,.3,.25,1.6,.87,2.48,1.81,2.48,2.65,0,2.51-7.99,6-21,6s-21-3.49-21-6c0-.84,.88-1.78,2.48-2.65,.23-.13,.41-.34,.48-.6,.08-.25,.05-.53-.08-.76-.13-.23-.34-.41-.6-.48-.25-.08-.53-.05-.76,.08-2.91,1.58-3.52,3.27-3.52,4.41,0,5.2,11.85,8,23,8s23-2.8,23-8c0-1.14-.61-2.83-3.52-4.41Z" />
    <path
        d="M22.55,30.9c.14,.07,.29,.11,.45,.1,.19,0,.37-.05,.53-.15,.16-.1,.29-.24,.37-.4,.19-.41,.49-.75,.86-1.01,.37-.25,.8-.41,1.25-.44,.27,0,.52-.11,.71-.3,.19-.19,.29-.44,.29-.71,0-.27-.11-.52-.3-.71-.19-.19-.44-.29-.71-.29-.82,.04-1.61,.29-2.3,.74-.69,.45-1.24,1.08-1.6,1.81-.06,.12-.09,.25-.1,.38,0,.13,0,.26,.05,.39,.04,.12,.11,.24,.19,.34,.09,.1,.19,.18,.31,.24Z" />
    <path
        d="M22.55,30.9c.14,.07,.29,.11,.45,.1,.19,0,.37-.05,.53-.15,.16-.1,.29-.24,.37-.4,.19-.41,.49-.75,.86-1.01,.37-.25,.8-.41,1.25-.44,.27,0,.52-.11,.71-.3,.19-.19,.29-.44,.29-.71,0-.27-.11-.52-.3-.71-.19-.19-.44-.29-.71-.29-.82,.04-1.61,.29-2.3,.74-.69,.45-1.24,1.08-1.6,1.81-.06,.12-.09,.25-.1,.38,0,.13,0,.26,.05,.39,.04,.12,.11,.24,.19,.34,.09,.1,.19,.18,.31,.24Z" />
    <path
        d="M40.29,33.71c.19,.19,.44,.29,.71,.29,.82-.04,1.61-.29,2.3-.74,.69-.45,1.24-1.07,1.6-1.81,.12-.24,.14-.51,.05-.76-.08-.25-.26-.46-.5-.58-.24-.12-.51-.14-.76-.05-.25,.08-.46,.26-.58,.5-.19,.41-.49,.75-.86,1.01-.37,.25-.8,.41-1.25,.44-.27,0-.52,.11-.71,.3-.19,.19-.29,.44-.29,.71,0,.27,.11,.52,.3,.71Z" />
    <path
        d="M40.29,33.71c.19,.19,.44,.29,.71,.29,.82-.04,1.61-.29,2.3-.74,.69-.45,1.24-1.07,1.6-1.81,.12-.24,.14-.51,.05-.76-.08-.25-.26-.46-.5-.58-.24-.12-.51-.14-.76-.05-.25,.08-.46,.26-.58,.5-.19,.41-.49,.75-.86,1.01-.37,.25-.8,.41-1.25,.44-.27,0-.52,.11-.71,.3-.19,.19-.29,.44-.29,.71,0,.27,.11,.52,.3,.71Z" />
    <path class="cls-4"
        d="M39,30c0-1.68-1.76-3-4-3s-4,1.32-4,3,1.76,3,4,3,4-1.32,4-3Zm-6,0c0-.41,.78-1,2-1s2,.59,2,1-.78,1-2,1-2-.59-2-1Z" />
    <path
        d="M19.97,31.99c-.26,0-.51,.11-.7,.3-.18,.19-.29,.44-.28,.71,0,.26,.11,.52,.3,.7,.22,.22,1.46,1.29,4.71,1.29,.27,0,.52-.11,.71-.29,.19-.19,.29-.44,.29-.71s-.11-.52-.29-.71c-.19-.19-.44-.29-.71-.29-2.37,0-3.26-.68-3.31-.73-.19-.18-.45-.28-.71-.28Z" />
    <path
        d="M19.97,31.99c-.26,0-.51,.11-.7,.3-.18,.19-.29,.44-.28,.71,0,.26,.11,.52,.3,.7,.22,.22,1.46,1.29,4.71,1.29,.27,0,.52-.11,.71-.29,.19-.19,.29-.44,.29-.71s-.11-.52-.29-.71c-.19-.19-.44-.29-.71-.29-2.37,0-3.26-.68-3.31-.73-.19-.18-.45-.28-.71-.28Z" />
    <path
        d="M29.38,7.78c.78,.63,1.7,1.57,1.62,2.49-.1,.39-.28,.76-.54,1.08-.25,.32-.57,.58-.93,.76-.2,.11-.35,.27-.44,.48-.09,.2-.11,.43-.06,.65,.05,.22,.18,.41,.36,.55,.18,.14,.39,.21,.62,.21,.16,0,.33-.04,.47-.12,.65-.35,1.21-.83,1.64-1.42s.73-1.27,.87-1.99c.14-1.46-.66-2.88-2.36-4.25-.78-.63-1.7-1.57-1.62-2.49,.1-.39,.28-.76,.54-1.08,.25-.32,.57-.58,.93-.76,.23-.13,.41-.34,.48-.59s.05-.53-.08-.76c-.13-.23-.34-.41-.59-.48-.25-.08-.53-.05-.76,.08-.65,.35-1.21,.83-1.64,1.42s-.73,1.27-.87,1.99c-.14,1.46,.66,2.89,2.36,4.25Z" />
    <path
        d="M29.38,7.78c.78,.63,1.7,1.57,1.62,2.49-.1,.39-.28,.76-.54,1.08-.25,.32-.57,.58-.93,.76-.2,.11-.35,.27-.44,.48-.09,.2-.11,.43-.06,.65,.05,.22,.18,.41,.36,.55,.18,.14,.39,.21,.62,.21,.16,0,.33-.04,.47-.12,.65-.35,1.21-.83,1.64-1.42s.73-1.27,.87-1.99c.14-1.46-.66-2.88-2.36-4.25-.78-.63-1.7-1.57-1.62-2.49,.1-.39,.28-.76,.54-1.08,.25-.32,.57-.58,.93-.76,.23-.13,.41-.34,.48-.59s.05-.53-.08-.76c-.13-.23-.34-.41-.59-.48-.25-.08-.53-.05-.76,.08-.65,.35-1.21,.83-1.64,1.42s-.73,1.27-.87,1.99c-.14,1.46,.66,2.89,2.36,4.25Z" />
    <path
        d="M38.37,15.78c.78,.63,1.7,1.57,1.62,2.49-.1,.39-.28,.76-.54,1.08-.25,.32-.57,.58-.93,.76-.2,.11-.35,.27-.44,.48-.09,.2-.11,.43-.06,.65,.05,.22,.18,.41,.36,.55s.39,.21,.62,.21c.16,0,.33-.04,.47-.12,.65-.35,1.21-.83,1.64-1.42,.43-.59,.73-1.27,.87-1.99,.14-1.46-.66-2.89-2.36-4.25-.78-.63-1.7-1.57-1.62-2.49,.1-.39,.28-.76,.54-1.08,.25-.32,.57-.58,.93-.76,.23-.13,.41-.34,.48-.59s.05-.53-.08-.76c-.13-.23-.34-.41-.59-.48-.25-.08-.53-.05-.76,.08-.65,.35-1.21,.83-1.64,1.42-.44,.59-.73,1.27-.87,1.99-.14,1.46,.66,2.89,2.36,4.25Z" />
    <path
        d="M38.37,15.78c.78,.63,1.7,1.57,1.62,2.49-.1,.39-.28,.76-.54,1.08-.25,.32-.57,.58-.93,.76-.2,.11-.35,.27-.44,.48-.09,.2-.11,.43-.06,.65,.05,.22,.18,.41,.36,.55s.39,.21,.62,.21c.16,0,.33-.04,.47-.12,.65-.35,1.21-.83,1.64-1.42,.43-.59,.73-1.27,.87-1.99,.14-1.46-.66-2.89-2.36-4.25-.78-.63-1.7-1.57-1.62-2.49,.1-.39,.28-.76,.54-1.08,.25-.32,.57-.58,.93-.76,.23-.13,.41-.34,.48-.59s.05-.53-.08-.76c-.13-.23-.34-.41-.59-.48-.25-.08-.53-.05-.76,.08-.65,.35-1.21,.83-1.64,1.42-.44,.59-.73,1.27-.87,1.99-.14,1.46,.66,2.89,2.36,4.25Z" />
    <path
        d="M24.38,15.78c.78,.63,1.7,1.57,1.62,2.49-.1,.39-.28,.76-.54,1.08-.25,.32-.57,.58-.93,.76-.2,.11-.35,.27-.44,.48-.09,.2-.11,.43-.06,.65,.05,.22,.18,.41,.36,.55,.18,.14,.39,.21,.62,.21,.17,0,.33-.04,.48-.12,.65-.35,1.21-.83,1.64-1.42s.73-1.27,.87-1.99c.14-1.46-.66-2.89-2.36-4.25-.78-.63-1.7-1.57-1.62-2.49,.1-.39,.28-.76,.54-1.08,.25-.32,.57-.58,.93-.76,.23-.13,.41-.34,.48-.59s.05-.53-.08-.76c-.13-.23-.34-.41-.59-.48-.25-.08-.53-.05-.76,.08-.65,.35-1.21,.83-1.64,1.42-.44,.59-.73,1.27-.87,1.99-.14,1.46,.66,2.89,2.36,4.25Z" />
    <path
        d="M24.38,15.78c.78,.63,1.7,1.57,1.62,2.49-.1,.39-.28,.76-.54,1.08-.25,.32-.57,.58-.93,.76-.2,.11-.35,.27-.44,.48-.09,.2-.11,.43-.06,.65,.05,.22,.18,.41,.36,.55,.18,.14,.39,.21,.62,.21,.17,0,.33-.04,.48-.12,.65-.35,1.21-.83,1.64-1.42s.73-1.27,.87-1.99c.14-1.46-.66-2.89-2.36-4.25-.78-.63-1.7-1.57-1.62-2.49,.1-.39,.28-.76,.54-1.08,.25-.32,.57-.58,.93-.76,.23-.13,.41-.34,.48-.59s.05-.53-.08-.76c-.13-.23-.34-.41-.59-.48-.25-.08-.53-.05-.76,.08-.65,.35-1.21,.83-1.64,1.42-.44,.59-.73,1.27-.87,1.99-.14,1.46,.66,2.89,2.36,4.25Z" />
    <circle cx="19" cy="30" r="1" />
    <circle cx="19" cy="30" r="1" />
    <circle cx="30" cy="34" r="1" />
    <circle cx="30" cy="34" r="1" />
    <circle cx="49" cy="31" r="1" />
    <circle cx="49" cy="31" r="1" />
    <circle cx="41" cy="28" r="1" />
    <circle cx="41" cy="28" r="1" />

</svg>