<svg width="64" height="64" viewBox="0 0 64 64" xmlns="http://www.w3.org/2000/svg">

    <path
        d="M8 33C8.26522 33 8.51957 32.8946 8.70711 32.7071C8.89464 32.5196 9 32.2652 9 32C9 31.4696 9.21071 30.9609 9.58579 30.5858C9.96086 30.2107 10.4696 30 11 30C11.5304 30 12.0391 30.2107 12.4142 30.5858C12.7893 30.9609 13 31.4696 13 32C13 32.2652 13.1054 32.5196 13.2929 32.7071C13.4804 32.8946 13.7348 33 14 33C14.2652 33 14.5196 32.8946 14.7071 32.7071C14.8946 32.5196 15 32.2652 15 32C15 30.9391 14.5786 29.9217 13.8284 29.1716C13.0783 28.4214 12.0609 28 11 28C9.93913 28 8.92172 28.4214 8.17157 29.1716C7.42143 29.9217 7 30.9391 7 32C7 32.2652 7.10536 32.5196 7.29289 32.7071C7.48043 32.8946 7.73478 33 8 33Z" />

    <path
        d="M49 32C49.2652 32 49.5196 31.8946 49.7071 31.7071C49.8946 31.5196 50 31.2652 50 31C50 30.4696 50.2107 29.9609 50.5858 29.5858C50.9609 29.2107 51.4696 29 52 29C52.5304 29 53.0391 29.2107 53.4142 29.5858C53.7893 29.9609 54 30.4696 54 31C54 31.2652 54.1054 31.5196 54.2929 31.7071C54.4804 31.8946 54.7348 32 55 32C55.2652 32 55.5196 31.8946 55.7071 31.7071C55.8946 31.5196 56 31.2652 56 31C56 29.9391 55.5786 28.9217 54.8284 28.1716C54.0783 27.4214 53.0609 27 52 27C50.9391 27 49.9217 27.4214 49.1716 28.1716C48.4214 28.9217 48 29.9391 48 31C48 31.2652 48.1054 31.5196 48.2929 31.7071C48.4804 31.8946 48.7348 32 49 32Z" />

    <path
        d="M33 20C33.2652 20 33.5196 19.8946 33.7071 19.7071C33.8946 19.5196 34 19.2652 34 19C34 18.4696 34.2107 17.9609 34.5858 17.5858C34.9609 17.2107 35.4696 17 36 17C36.5304 17 37.0391 17.2107 37.4142 17.5858C37.7893 17.9609 38 18.4696 38 19C38 19.2652 38.1054 19.5196 38.2929 19.7071C38.4804 19.8946 38.7348 20 39 20C39.2652 20 39.5196 19.8946 39.7071 19.7071C39.8946 19.5196 40 19.2652 40 19C40 17.9391 39.5786 16.9217 38.8284 16.1716C38.0783 15.4214 37.0609 15 36 15C34.9391 15 33.9217 15.4214 33.1716 16.1716C32.4214 16.9217 32 17.9391 32 19C32 19.2652 32.1054 19.5196 32.2929 19.7071C32.4804 19.8946 32.7348 20 33 20Z" />

    <path
        d="M41 32C39.9395 32.0012 38.9228 32.423 38.1729 33.1729C37.423 33.9228 37.0012 34.9395 37 36C37 36.2652 37.1054 36.5196 37.2929 36.7071C37.4804 36.8946 37.7348 37 38 37C38.2652 37 38.5196 36.8946 38.7071 36.7071C38.8946 36.5196 39 36.2652 39 36C39 35.4696 39.2107 34.9609 39.5858 34.5858C39.9609 34.2107 40.4696 34 41 34C41.5304 34 42.0391 34.2107 42.4142 34.5858C42.7893 34.9609 43 35.4696 43 36C43 36.2652 43.1054 36.5196 43.2929 36.7071C43.4804 36.8946 43.7348 37 44 37C44.2652 37 44.5196 36.8946 44.7071 36.7071C44.8946 36.5196 45 36.2652 45 36C44.9988 34.9395 44.577 33.9228 43.8271 33.1729C43.0772 32.423 42.0605 32.0012 41 32Z" />

    <path
        d="M39 24C37.9395 24.0012 36.9228 24.423 36.1729 25.1729C35.423 25.9228 35.0012 26.9395 35 28C35 28.2652 35.1054 28.5196 35.2929 28.7071C35.4804 28.8947 35.7348 29 36 29C36.2652 29 36.5196 28.8947 36.7071 28.7071C36.8946 28.5196 37 28.2652 37 28C37.0045 27.6749 37.0877 27.3556 37.2423 27.0696C37.3969 26.7835 37.6184 26.5391 37.8879 26.3572C38.1575 26.1752 38.467 26.0612 38.7901 26.0248C39.1133 25.9883 39.4404 26.0306 39.7436 26.148C39.8747 26.2006 40.0154 26.2248 40.1564 26.219C40.2975 26.2133 40.4358 26.1778 40.5621 26.1148C40.6884 26.0518 40.8 25.9627 40.8895 25.8535C40.9789 25.7442 41.0442 25.6173 41.0811 25.481C41.2055 25.0128 41.4962 24.606 41.8989 24.3366C42.3015 24.0672 42.7885 23.9537 43.2687 24.0173C43.749 24.0809 44.1896 24.3172 44.5083 24.6822C44.8269 25.0471 45.0017 25.5156 45 26C45 26.2652 45.1054 26.5196 45.2929 26.7071C45.4804 26.8947 45.7348 27 46 27C46.2652 27 46.5196 26.8947 46.7071 26.7071C46.8946 26.5196 47 26.2652 47 26C47.0018 25.1166 46.7106 24.2576 46.1718 23.5575C45.6331 22.8573 44.8773 22.3557 44.023 22.1311C43.1686 21.9066 42.2639 21.9718 41.4505 22.3165C40.6371 22.6612 39.9611 23.266 39.5283 24.0361C39.3532 24.0122 39.1767 24.0001 39 24Z" />

    <path
        d="M17 24C17.2652 24 17.5196 23.8947 17.7071 23.7071C17.8947 23.5196 18 23.2652 18 23C17.9983 22.5156 18.1731 22.0471 18.4917 21.6822C18.8104 21.3172 19.251 21.0809 19.7313 21.0173C20.2115 20.9537 20.6985 21.0672 21.1011 21.3366C21.5038 21.606 21.7945 22.0128 21.919 22.481C21.9558 22.6173 22.0211 22.7442 22.1106 22.8535C22.2 22.9627 22.3116 23.0518 22.4379 23.1148C22.5643 23.1778 22.7025 23.2133 22.8436 23.219C22.9846 23.2248 23.1253 23.2006 23.2564 23.148C23.5596 23.0305 23.8868 22.9881 24.21 23.0245C24.5331 23.0609 24.8427 23.1749 25.1123 23.3569C25.3818 23.5388 25.6033 23.7833 25.7579 24.0694C25.9125 24.3555 25.9956 24.6748 26 25C26 25.2652 26.1054 25.5196 26.2929 25.7071C26.4804 25.8947 26.7348 26 27 26C27.2652 26 27.5196 25.8947 27.7071 25.7071C27.8947 25.5196 28 25.2652 28 25C27.9988 23.9395 27.577 22.9228 26.8271 22.1729C26.0772 21.423 25.0605 21.0012 24 21C23.8233 21.0001 23.6468 21.0122 23.4717 21.0361C23.0389 20.266 22.3629 19.6612 21.5495 19.3165C20.7362 18.9718 19.8314 18.9066 18.977 19.1311C18.1227 19.3557 17.3669 19.8573 16.8282 20.5575C16.2895 21.2576 15.9982 22.1166 16 23C16 23.2652 16.1054 23.5196 16.2929 23.7071C16.4804 23.8947 16.7348 24 17 24Z" />

    <path
        d="M22.5283 31.0361C22.3532 31.0122 22.1767 31.0001 22 31C20.9395 31.0012 19.9228 31.423 19.1729 32.1729C18.423 32.9228 18.0012 33.9395 18 35C18 35.2652 18.1054 35.5196 18.2929 35.7071C18.4804 35.8947 18.7348 36 19 36C19.2652 36 19.5196 35.8947 19.7071 35.7071C19.8946 35.5196 20 35.2652 20 35C20.0045 34.6749 20.0876 34.3556 20.2422 34.0695C20.3968 33.7835 20.6184 33.539 20.8879 33.3571C21.1574 33.1752 21.467 33.0611 21.7901 33.0247C22.1132 32.9883 22.4404 33.0306 22.7437 33.148C22.8747 33.2006 23.0154 33.2248 23.1564 33.219C23.2975 33.2133 23.4358 33.1778 23.5621 33.1148C23.6884 33.0518 23.8 32.9627 23.8895 32.8535C23.9789 32.7442 24.0442 32.6173 24.0811 32.481C24.2055 32.0128 24.4962 31.606 24.8989 31.3366C25.3015 31.0672 25.7885 30.9537 26.2687 31.0173C26.749 31.0809 27.1896 31.3172 27.5083 31.6822C27.8269 32.0471 28.0017 32.5156 28 33C28 33.2652 28.1054 33.5196 28.2929 33.7071C28.4804 33.8947 28.7348 34 29 34C29.2652 34 29.5196 33.8947 29.7071 33.7071C29.8946 33.5196 30 33.2652 30 33C30.0018 32.1166 29.7106 31.2576 29.1718 30.5575C28.6331 29.8573 27.8773 29.3557 27.023 29.1311C26.1686 28.9066 25.2639 28.9718 24.4505 29.3165C23.6371 29.6612 22.9611 30.266 22.5283 31.0361Z" />

    <path d="M28 15H26V17H28V15Z" />

    <path d="M53 33H51V35H53V33Z" />

    <path d="M47 19H45V21H47V19Z" />

    <path d="M54 23H52V25H54V23Z" />

    <path d="M45 29H43V31H45V29Z" />

    <path d="M13 24H11V26H13V24Z" />

    <path d="M34 23H32V25H34V23Z" />

    <path d="M35 32H33V34H35V32Z" />

    <path d="M27 35H25V37H27V35Z" />

    <path d="M21 26H19V28H21V26Z" />

    <path
        d="M64.0001 31C63.9912 29.4944 63.5003 28.0313 62.5992 26.8251C61.6982 25.6188 60.4344 24.733 58.9932 24.2974C58.9976 24.1978 58.9999 24.0986 59.0001 24C59 23.0251 58.7963 22.0609 58.402 21.1693C58.0076 20.2777 57.4314 19.4783 56.7101 18.8224C55.9888 18.1664 55.1385 17.6684 54.2135 17.3602C53.2886 17.052 52.3095 16.9405 51.3389 17.0327C50.7322 15.7215 49.7321 14.6318 48.4777 13.915C47.2232 13.1981 45.7767 12.8898 44.3389 13.0327C43.9114 12.1169 43.2903 11.3047 42.5185 10.6521C41.7467 9.99955 40.8425 9.52213 39.8683 9.25279C38.8942 8.98344 37.8732 8.92857 36.8758 9.09196C35.8784 9.25536 34.9282 9.63313 34.0909 10.1992C33.3703 9.4338 32.4863 8.84071 31.5048 8.4641C30.5233 8.08748 29.4695 7.93703 28.4218 8.02393C27.3742 8.11083 26.3595 8.43285 25.4535 8.96603C24.5475 9.49921 23.7733 10.2298 23.1886 11.1035C22.7962 11.0348 22.3985 11.0002 22.0001 11C20.6501 11.0012 19.3292 11.3927 18.1965 12.1272C17.0638 12.8617 16.1676 13.9081 15.6158 15.1401C14.5256 15.364 13.5041 15.8432 12.6351 16.5384C11.7661 17.2337 11.0744 18.1252 10.6168 19.1397C9.33307 19.4001 8.14811 20.0154 7.19652 20.9155C6.24493 21.8157 5.56484 22.9646 5.2335 24.2319C3.73138 24.6149 2.40041 25.4891 1.45215 26.7154C0.5039 27.9417 -0.0072087 29.4498 7.68213e-05 31C7.68213e-05 31.2432 0.267956 51.4599 19.0001 57.9863V61C19 61.2119 19.0673 61.4184 19.1923 61.5896C19.3173 61.7608 19.4935 61.8877 19.6954 61.9522C23.6622 63.2839 27.8158 63.9752 32.0001 64C36.1844 63.9752 40.338 63.2839 44.3048 61.9522C44.5067 61.8877 44.6829 61.7608 44.8079 61.5896C44.9329 61.4184 45.0002 61.2119 45.0001 61V57.9863C63.7322 51.4599 64.0001 31.2432 64.0001 31ZM2.17635 33.4639C5.67684 36.2036 14.3282 41 32.0001 41C49.672 41 58.3233 36.2036 61.8238 33.4639C61.6246 35.1037 61.299 36.7256 60.8497 38.3153C56.9963 42.252 45.1406 45 32.0001 45C18.8596 45 7.00386 42.252 3.15041 38.3153C2.7012 36.7256 2.37555 35.1037 2.17635 33.4639ZM6.23108 26.0664C6.44102 26.034 6.63518 25.9355 6.7854 25.7853C6.93561 25.6351 7.03408 25.4409 7.06653 25.231C7.23461 24.1479 7.75427 23.1501 8.54542 22.3915C9.33656 21.6329 10.3553 21.1556 11.4445 21.0332C11.6325 21.0124 11.8108 20.9387 11.9586 20.8206C12.1064 20.7026 12.2176 20.545 12.2795 20.3662C12.5898 19.4751 13.1452 18.6895 13.882 18.1C14.6188 17.5104 15.507 17.1406 16.4445 17.0332C16.6325 17.0124 16.8107 16.9387 16.9586 16.8206C17.1064 16.7026 17.2176 16.545 17.2795 16.3662C17.7059 15.1602 18.5756 14.1618 19.7118 13.574C20.848 12.9863 22.1654 12.8533 23.3962 13.2021C23.6185 13.2665 23.8562 13.2518 24.069 13.1606C24.2817 13.0695 24.4563 12.9075 24.5632 12.7021C24.9592 11.9355 25.5472 11.2845 26.2697 10.8126C26.9922 10.3408 27.8247 10.0642 28.6859 10.0099C29.5472 9.95556 30.4078 10.1253 31.1839 10.5026C31.96 10.8798 32.6251 11.4518 33.1144 12.1626C33.1958 12.2805 33.3015 12.3795 33.4244 12.453C33.5473 12.5264 33.6846 12.5726 33.8269 12.5884C33.9693 12.6042 34.1133 12.5892 34.2494 12.5445C34.3854 12.4997 34.5102 12.4263 34.6154 12.3291C35.2302 11.7596 35.9786 11.3541 36.7915 11.1501C37.6043 10.9461 38.4555 10.9501 39.2663 11.1618C40.0772 11.3735 40.8217 11.786 41.4311 12.3614C42.0405 12.9367 42.4952 13.6562 42.7531 14.4536C42.8295 14.69 42.9914 14.8894 43.207 15.0128C43.4227 15.1361 43.6766 15.1746 43.9191 15.1206C45.1323 14.845 46.4046 15.0345 47.4848 15.6517C48.565 16.2688 49.3744 17.2686 49.7531 18.4536C49.8297 18.6899 49.9916 18.8892 50.2072 19.0125C50.4228 19.1358 50.6766 19.1744 50.9191 19.1206C51.7243 18.938 52.5623 18.9585 53.3576 19.1802C54.1529 19.4019 54.8806 19.8178 55.4752 20.3906C56.0698 20.9634 56.5127 21.675 56.764 22.4615C57.0153 23.248 57.0671 24.0845 56.9147 24.896C56.8908 25.0277 56.8936 25.1629 56.9229 25.2935C56.9521 25.4241 57.0074 25.5475 57.0852 25.6564C57.1631 25.7653 57.2621 25.8574 57.3762 25.9273C57.4903 25.9973 57.6174 26.0436 57.7497 26.0635C58.8681 26.2402 59.8937 26.7902 60.6597 27.624C61.4256 28.4578 61.8869 29.5263 61.9684 30.6556C60.5822 32.1082 52.8995 39 32.0001 39C11.2097 39 3.42794 32.0925 2.03133 30.6505C2.10242 29.5216 2.5579 28.4511 3.32199 27.6171C4.08609 26.7831 5.11272 26.2358 6.23108 26.0664ZM43.0001 60.2647C39.4422 61.3959 35.7334 61.981 32.0001 62C28.2668 61.981 24.5579 61.3959 21.0001 60.2647V58.6053C24.5867 59.5661 28.2872 60.0353 32.0001 60C35.713 60.0353 39.4135 59.5661 43.0001 58.6053V60.2647ZM32.0001 58C14.7437 58 7.41854 49.2058 4.30446 41.6479C9.86123 44.9138 20.3198 47 32.0001 47C43.6803 47 54.1389 44.9138 59.6957 41.6479C56.5816 49.2058 49.2565 58 32.0001 58Z" />


</svg>