<?xml version="1.0" encoding="UTF-8"?>
<svg id="Layer_1" data-name="Layer 1" xmlns="http://www.w3.org/2000/svg" viewBox="0 0 64 64">

    <path class="cls-1"
        d="M48.61,52.59c-.52-.03-.96,.37-.99,.88l-.2,3.58H22.65l-1.19-21.36c-.03-.52-.47-.91-.99-.88-.52,.03-.91,.47-.88,.99l1.45,26.15c.06,1.15,1.02,2.05,2.17,2.05h23.65c1.15,0,2.11-.9,2.17-2.05l.47-8.37c.03-.52-.37-.96-.88-.99Zm-1.45,9.26c0,.16-.14,.28-.3,.28H23.21c-.16,0-.29-.12-.3-.28l-.16-2.92h24.57l-.16,2.92Z" />
    <path class="cls-1"
        d="M57.97,3.16l-.64-1.74c-.42-1.12-1.67-1.7-2.79-1.28l-6.67,2.48c-1.5,.56-2.65,1.82-3.06,3.37l-1.98,7.45h-10.31l4.04-4.04c.53-.53,.82-1.23,.82-1.97s-.29-1.45-.82-1.97l-.22-.22C30.89-.21,22.6-1.55,15.7,1.9c-.46,.23-.65,.79-.42,1.26,.23,.46,.79,.65,1.26,.42,6.17-3.09,13.6-1.89,18.48,2.99l.22,.22c.17,.17,.27,.4,.27,.65s-.1,.47-.27,.65l-1.22,1.22-.89-.89c-2.49-2.49-5.8-3.9-9.31-3.98-3.54-.08-6.88,1.21-9.43,3.62-.09,.08-.17,.16-.25,.25-.08,.08-.17,.17-.25,.26-2.41,2.54-3.7,5.89-3.62,9.43,.08,3.52,1.49,6.82,3.98,9.31l.89,.89-1.22,1.22c-.17,.17-.4,.27-.65,.27s-.47-.1-.65-.27l-.1-.1c-6.28-6.28-6.35-16.46-.15-22.7,.3-.31,.62-.6,.95-.88,.39-.34,.44-.93,.1-1.32-.34-.39-.93-.44-1.32-.1-.36,.31-.72,.64-1.06,.98-6.93,6.96-6.86,18.33,.15,25.34l.1,.1c.54,.54,1.26,.82,1.97,.82s1.43-.27,1.97-.82l3.85-3.85,.27,4.84c.03,.52,.47,.91,.99,.88,.52-.03,.91-.47,.88-.99l-.47-8.43c.86,.15,1.44,.45,2.09,.77,1.01,.51,2.16,1.09,4.34,1.09s3.33-.58,4.34-1.09c.95-.48,1.76-.89,3.5-.89s2.55,.41,3.5,.89c1.01,.51,2.16,1.09,4.34,1.09s3.33-.58,4.34-1.09c.65-.33,1.23-.62,2.09-.77l-1.46,26.21c-.03,.52,.37,.96,.88,.99,.02,0,.04,0,.05,0,.49,0,.91-.39,.93-.89l1.88-33.75c.03-.59-.18-1.18-.59-1.61-.41-.43-.98-.68-1.58-.68h-.19l1.35-5.09c.02-.09,.09-.17,.18-.2l5.92-2.2c1.12-.42,1.7-1.67,1.28-2.79Zm-31.8,3.44c2.11,.49,4.06,1.56,5.63,3.13l.89,.89-2.82,2.82h-3.69V6.6Zm-14.04,11.33c-.06-2.83,.89-5.51,2.69-7.62l4.05,4.05c-.28,.4-.43,.89-.4,1.38l.15,2.72h-6.46c-.01-.17-.02-.35-.02-.53Zm4.32,8.92l-.89-.89c-1.57-1.57-2.64-3.51-3.13-5.63h6.29l.22,4.02-2.49,2.49Zm-.31-17.87c2.12-1.8,4.8-2.75,7.62-2.69,.18,0,.35,.01,.53,.02v7.12h-3.66s-.02,0-.03,0l-4.46-4.46Zm23.22,13.29c-1.01-.51-2.16-1.09-4.34-1.09s-3.33,.58-4.34,1.09c-.95,.48-1.76,.89-3.5,.89s-2.55-.41-3.5-.89c-.79-.4-1.66-.84-3.04-1.01l-.31-5.63c0-.11,.05-.19,.08-.22,.03-.03,.11-.09,.22-.09h21.69l-1.97,7.41c-.34-.14-.65-.29-.98-.46Zm5.4,.66c-.51,.14-1.11,.22-1.9,.22-.25,0-.47,0-.68-.02l2.08-7.82h2.53l-2.03,7.62Zm4.65-7.62c.11,0,.18,.06,.22,.09,.03,.03,.09,.11,.08,.22l-.31,5.63c-1.04,.13-1.8,.41-2.45,.72l1.77-6.66h.69Zm6.61-11.12l-5.92,2.2c-.66,.25-1.16,.8-1.34,1.48l-1.48,5.57h-2.53l1.85-6.97c.26-.96,.97-1.74,1.9-2.09l6.67-2.48c.15-.06,.32,.02,.38,.17l.64,1.74c.06,.15-.02,.32-.18,.38Z" />
    <path class="cls-1"
        d="M28.85,43.08c.52,0,.94-.42,.94-.94s-.42-.94-.94-.94c-.52,0-.94,.42-.94,.94s.42,.94,.94,.94Z" />
    <path class="cls-2"
        d="M28.85,43.08c.52,0,.94-.42,.94-.94s-.42-.94-.94-.94c-.52,0-.94,.42-.94,.94s.42,.94,.94,.94Z" />
    <path class="cls-1" d="M32,36.85c-.52,0-.94,.42-.94,.94s.42,.94,.94,.94,.94-.42,.94-.94c0-.52-.42-.94-.94-.94Z" />
    <path class="cls-2" d="M32,36.85c-.52,0-.94,.42-.94,.94s.42,.94,.94,.94,.94-.42,.94-.94c0-.52-.42-.94-.94-.94Z" />
    <path class="cls-1" d="M26.98,33.7c-.52,0-.94,.42-.94,.94s.42,.94,.94,.94,.94-.42,.94-.94-.42-.94-.94-.94Z" />
    <path class="cls-2" d="M26.98,33.7c-.52,0-.94,.42-.94,.94s.42,.94,.94,.94,.94-.42,.94-.94-.42-.94-.94-.94Z" />
    <path class="cls-1"
        d="M35.09,46.7l-1.94,1.94c-.41,.41-.64,.96-.64,1.55s.23,1.13,.64,1.55l1.94,1.94h0c.43,.43,.99,.64,1.55,.64s1.12-.21,1.55-.64l1.94-1.94c.41-.41,.64-.96,.64-1.55s-.23-1.13-.64-1.55l-1.94-1.94c-.85-.85-2.24-.85-3.09,0Zm3.7,3.26c.08,.08,.09,.17,.09,.22s-.01,.14-.09,.22l-1.94,1.94c-.12,.12-.32,.12-.44,0l-1.94-1.94c-.08-.08-.09-.17-.09-.22s.01-.14,.09-.22l1.94-1.94c.12-.12,.32-.12,.44,0l1.94,1.94Z" />
    <path class="cls-1"
        d="M40.33,44.07c.43,.43,.99,.64,1.55,.64s1.12-.21,1.55-.64l1.94-1.94c.85-.85,.85-2.24,0-3.09l-1.94-1.94c-.85-.85-2.24-.85-3.09,0l-1.94,1.94c-.85,.85-.85,2.24,0,3.09l1.94,1.94Zm-.61-3.7l1.94-1.94c.06-.06,.14-.09,.22-.09s.16,.03,.22,.09l1.94,1.94c.12,.12,.12,.32,0,.44l-1.94,1.94c-.12,.12-.32,.12-.44,0l-1.94-1.94c-.12-.12-.12-.32,0-.44Z" />
</svg>