<?xml version="1.0" encoding="UTF-8"?>
<svg id="Layer_1" data-name="Layer 1" xmlns="http://www.w3.org/2000/svg" xmlns:xlink="http://www.w3.org/1999/xlink"
    viewBox="0 0 64 64">

    <g class="cls-2">
        <path class="cls-3"
            d="M63.95,31.26c-1.23-8.17-5.72-17.98-14.28-23.32,0-.02,.02-.04,.03-.07,.32-.96,.32-1.87,.27-2.34-.02-.74-.52-1.4-1.21-1.67-.69-.27-1.9-.62-3.2-.37-.54-1.43-1.45-2.39-2.02-2.93-.64-.54-1.55-.62-2.19-.15-.52,.38-1.52,1.34-1.89,3-1.05-.62-2.23-1.03-3.46-1.17-2.42-.28-4.79,.41-6.73,2.07-2.37,2.04-4.37,6.06-5.95,11.95-.6,2.25-.16,4.62,1.2,6.5,1.37,1.88,3.48,3.03,5.81,3.15,.99,.05,1.93,.08,2.83,.08,4.65,0,8.13-.69,10.37-2.05,0,0,.1-.06,.1-.06,2.06-1.27,3.47-3.3,3.94-5.7,.24-1.21,.22-2.44-.04-3.62,.17,.02,.35,.05,.51,.05,1.43-.02,2.46-.62,2.93-.94,.38-.31,.62-.72,.66-1.2,5.36,4.78,8.44,11.7,9.63,17.94H5.34l13.96-9.26c.57-.37,.74-1.13,.34-1.7-.37-.57-1.13-.74-1.7-.34L1.5,29.98c-.94,.64-1.5,1.67-1.5,2.81v27.77c0,1.85,1.5,3.35,3.35,3.35H60.65c1.85,0,3.35-1.5,3.35-3.35V31.82c0-.2-.02-.37-.05-.57Zm-18.79-13.57c-.34,1.72-1.34,3.17-2.85,4.1l-.03,.02s-.02,.01-.03,.02c-2.21,1.34-6.28,1.9-11.8,1.61-1.58-.08-3.01-.86-3.94-2.14-.93-1.28-1.23-2.89-.82-4.41,1.43-5.33,3.22-9.04,5.26-10.79,1.13-.96,2.52-1.47,3.99-1.47,.25,0,.51,.02,.77,.05,1.77,.21,3.38,1.16,4.43,2.6l3.92,5.39c1.05,1.44,1.45,3.27,1.1,5.02Zm1.63-5.83c-.19-.08-.36-.17-.53-.27-.08-.12-.13-.25-.21-.36l-3.92-5.39c-.08-.11-.18-.19-.26-.29-.04-.19-.08-.39-.1-.6v-.25c-.02-.89,.25-1.45,.57-1.85,.42,.49,.96,1.28,1.13,2.29,.02,.05,.05,.1,.05,.15,.05,.42,.32,.76,.66,.94,.37,.17,.81,.17,1.16-.05,.17-.1,.37-.17,.54-.2,.62-.2,1.21-.07,1.65,.05,0,.2-.02,.39-.05,.64-.1,.47-.32,.98-.76,1.4-.25,.2-.39,.49-.42,.79,0,.1,0,.2,.02,.3,.05,.39,.3,.74,.66,.91,.98,.52,1.6,1.28,1.97,1.9-.52,.2-1.23,.27-2.17-.1Zm-2,40.22c.53-1.22,1.47-2.69,2.75-4.26,.49-.61,1.22-.96,2-.96h0c.79,0,1.54,.35,2.04,.96,1.49,1.86,2.31,3.25,2.75,4.26h-9.56Zm12.16,.02c-.51-1.65-1.62-3.56-3.44-5.83-.98-1.19-2.41-1.88-3.95-1.88h-.02c-1.53,0-2.95,.69-3.91,1.88-1.79,2.2-2.92,4.15-3.44,5.83H21.8c-.52-1.69-1.64-3.63-3.43-5.83-.96-1.19-2.39-1.88-3.91-1.88-1.59,.05-2.99,.68-3.97,1.88-1.79,2.23-2.92,4.17-3.43,5.82H2.46v-9.92H24.63c.51,1.67,1.64,3.6,3.44,5.81,.96,1.2,2.4,1.88,3.93,1.88s2.97-.69,3.93-1.88c1.8-2.21,2.93-4.15,3.44-5.82h22.17v9.92h-4.59Zm-47.3-.02c.44-1.02,1.26-2.41,2.74-4.25,.51-.62,1.25-.97,2.04-.97,.87-.08,1.52,.35,2.02,.97,1.28,1.57,2.22,3.03,2.75,4.25H9.65Zm27.13-9.9c-.52,1.2-1.45,2.65-2.77,4.26-.99,1.23-3.03,1.23-4.03,0-1.31-1.61-2.25-3.05-2.76-4.26h9.56ZM2.46,39.72v-6.87H61.54v6.87H2.46Zm58.19,21.71H3.35c-.49,0-.89-.39-.89-.89v-5.98H61.54v5.98c0,.49-.39,.89-.89,.89ZM29.58,20.31c-.38,0-.76-.18-1-.51-.4-.55-.28-1.32,.27-1.72l1.09-.79c.55-.4,1.32-.28,1.72,.27,.4,.55,.28,1.32-.27,1.72l-1.09,.79c-.22,.16-.47,.24-.72,.24Zm5.24-11.04l1.09-.79c.55-.4,.67-1.17,.27-1.72-.4-.55-1.17-.67-1.72-.27l-1.09,.79c-.55,.4-.67,1.17-.27,1.72,.24,.33,.62,.51,1,.51,.25,0,.5-.08,.72-.24Zm3.57,4.92l1.09-.8c.55-.4,.67-1.17,.27-1.72-.4-.55-1.17-.67-1.72-.27l-1.09,.8c-.55,.4-.67,1.17-.27,1.72,.24,.33,.62,.51,1,.51,.25,0,.5-.08,.72-.24Zm3.57,4.92l1.09-.8c.55-.4,.67-1.17,.27-1.72-.4-.55-1.17-.67-1.72-.27l-1.09,.8c-.55,.4-.67,1.17-.27,1.72,.24,.33,.62,.51,1,.51,.25,0,.5-.08,.72-.24Zm-9.41-4.44l1.09-.79c.55-.4,.67-1.17,.27-1.72-.4-.55-1.17-.67-1.72-.27l-1.09,.79c-.55,.4-.67,1.17-.27,1.72,.24,.33,.62,.51,1,.51,.25,0,.5-.08,.72-.24Zm3.57,4.92l1.09-.79c.55-.4,.67-1.17,.27-1.72-.4-.55-1.17-.67-1.72-.27l-1.09,.79c-.55,.4-.67,1.17-.27,1.72,.24,.33,.62,.51,1,.51,.25,0,.5-.08,.72-.24Z" />
    </g>
</svg>