<svg xmlns="http://www.w3.org/2000/svg" viewBox="0 0 18 18">

    <path fill="currentColor"
        d="M9.09,16.1l6.19-5.96c1.41-1.41,2.12-2.79,2.12-4.12s-.36-2.33-1.11-3.07c-.75-.73-1.78-1.09-3.14-1.09-.35,0-.73,.06-1.1,.19-.38,.13-.75,.3-1.08,.52-.35,.23-.66,.45-.91,.66-.25,.2-.49,.41-.71,.64l-.35,.35-.35-.35c-.22-.23-.46-.44-.71-.64-.25-.2-.56-.42-.91-.65-.33-.22-.69-.39-1.08-.52-.37-.12-.75-.19-1.1-.19-1.36,0-2.39,.36-3.14,1.09-.75,.73-1.11,1.74-1.11,3.07,0,.39,.07,.8,.21,1.22,.14,.43,.31,.8,.49,1.1,.19,.31,.4,.62,.64,.91,.24,.3,.41,.5,.52,.62,.09,.1,.17,.17,.22,.21l6.33,6.06,.09-.04Z" />
    <path
        d="M16.65,2.53c-.89-.87-2.13-1.31-3.67-1.31-.44,0-.9,.08-1.35,.23-.45,.15-.87,.35-1.25,.61-.37,.24-.68,.47-.95,.68-.15,.12-.29,.24-.43,.36-.14-.12-.28-.25-.43-.36-.26-.21-.58-.44-.94-.68-.38-.25-.81-.46-1.25-.61-.46-.15-.91-.23-1.35-.23-1.54,0-2.78,.44-3.67,1.31-.9,.88-1.35,2.09-1.35,3.61,0,.47,.08,.96,.25,1.46,.16,.48,.35,.9,.55,1.25,.2,.34,.43,.67,.68,.98,.26,.32,.44,.54,.56,.66,.13,.13,.23,.23,.27,.26l5.93,5.72c.2,.2,.46,.31,.75,.31s.55-.11,.75-.3l5.93-5.72c1.54-1.54,2.32-3.09,2.32-4.62s-.45-2.74-1.35-3.61ZM2.72,9.83c-.11-.11-.27-.31-.5-.59-.22-.28-.43-.57-.61-.88-.17-.29-.33-.64-.47-1.06-.13-.4-.2-.79-.2-1.16,0-1.27,.35-2.23,1.07-2.94,.72-.7,1.7-1.04,3.01-1.04,.34,0,.69,.06,1.05,.18,.37,.12,.72,.29,1.03,.5,.34,.22,.63,.43,.87,.62,.24,.19,.47,.4,.68,.61l.33,.34,.34-.34c.22-.22,.45-.42,.68-.61,.24-.2,.54-.4,.88-.63,.32-.21,.66-.38,1.03-.5,.36-.12,.71-.18,1.05-.18,1.3,0,2.29,.34,3.01,1.04,.72,.7,1.07,1.66,1.07,2.94s-.69,2.59-2.03,3.94l-5.93,5.71-.09,.04L2.94,10.03c-.05-.04-.12-.11-.21-.2Z" />
</svg>