<svg width="18" height="18" viewBox="0 0 18 18" fill="none" xmlns="http://www.w3.org/2000/svg">
    <g clip-path="url(#clip0_1591_5078)">
        <path
            d="M10.0385 13.5C10.0385 13.7054 9.97756 13.9062 9.86345 14.0769C9.74935 14.2477 9.58716 14.3808 9.39741 14.4594C9.20765 14.538 8.99885 14.5586 8.79741 14.5185C8.59597 14.4784 8.41093 14.3795 8.2657 14.2343C8.12047 14.0891 8.02157 13.904 7.9815 13.7026C7.94143 13.5012 7.96199 13.2924 8.04059 13.1026C8.11919 12.9128 8.25229 12.7507 8.42307 12.6366C8.59384 12.5224 8.79462 12.4615 9 12.4615C9.27542 12.4615 9.53956 12.5709 9.73431 12.7657C9.92906 12.9604 10.0385 13.2246 10.0385 13.5ZM9 4.15385C7.09097 4.15385 5.53847 5.55144 5.53847 7.26923V7.61539C5.53847 7.799 5.61141 7.97509 5.74124 8.10492C5.87107 8.23475 6.04716 8.30769 6.23077 8.30769C6.41438 8.30769 6.59048 8.23475 6.72031 8.10492C6.85014 7.97509 6.92308 7.799 6.92308 7.61539V7.26923C6.92308 6.31731 7.8551 5.53846 9 5.53846C10.1449 5.53846 11.0769 6.31731 11.0769 7.26923C11.0769 8.22115 10.1449 9 9 9C8.81639 9 8.6403 9.07294 8.51047 9.20277C8.38064 9.3326 8.3077 9.5087 8.3077 9.69231V10.3846C8.3077 10.5682 8.38064 10.7443 8.51047 10.8742C8.6403 11.004 8.81639 11.0769 9 11.0769C9.18362 11.0769 9.35971 11.004 9.48954 10.8742C9.61937 10.7443 9.69231 10.5682 9.69231 10.3846V10.3223C11.2708 10.0324 12.4615 8.77327 12.4615 7.26923C12.4615 5.55144 10.909 4.15385 9 4.15385ZM18 9C18 10.78 17.4722 12.5201 16.4832 14.0001C15.4943 15.4802 14.0887 16.6337 12.4442 17.3149C10.7996 17.9961 8.99002 18.1743 7.24419 17.8271C5.49836 17.4798 3.89472 16.6226 2.63604 15.364C1.37737 14.1053 0.520204 12.5016 0.172937 10.7558C-0.17433 9.00998 0.00389956 7.20038 0.685088 5.55585C1.36628 3.91131 2.51983 2.50571 3.99987 1.51677C5.47991 0.527841 7.21997 0 9 0C11.3862 0.00251984 13.6739 0.95154 15.3612 2.63882C17.0485 4.3261 17.9975 6.61383 18 9ZM16.6154 9C16.6154 7.49382 16.1688 6.02146 15.332 4.76912C14.4952 3.51678 13.3058 2.54069 11.9143 1.9643C10.5228 1.38791 8.99156 1.2371 7.51432 1.53094C6.03708 1.82478 4.68014 2.55008 3.61511 3.61511C2.55008 4.68014 1.82479 6.03707 1.53095 7.51431C1.23711 8.99155 1.38792 10.5228 1.96431 11.9143C2.5407 13.3058 3.51678 14.4952 4.76912 15.332C6.02147 16.1688 7.49382 16.6154 9 16.6154C11.019 16.6131 12.9547 15.81 14.3824 14.3824C15.81 12.9547 16.6131 11.019 16.6154 9Z"
            fill="#007C0C" />
        <path
            d="M10.0385 13.5C10.0385 13.7054 9.97756 13.9062 9.86345 14.0769C9.74935 14.2477 9.58716 14.3808 9.39741 14.4594C9.20765 14.538 8.99885 14.5586 8.79741 14.5185C8.59597 14.4784 8.41093 14.3795 8.2657 14.2343C8.12047 14.0891 8.02157 13.904 7.9815 13.7026C7.94143 13.5012 7.96199 13.2924 8.04059 13.1026C8.11919 12.9128 8.25229 12.7507 8.42307 12.6366C8.59384 12.5224 8.79462 12.4615 9 12.4615C9.27542 12.4615 9.53956 12.5709 9.73431 12.7657C9.92906 12.9604 10.0385 13.2246 10.0385 13.5ZM9 4.15385C7.09097 4.15385 5.53847 5.55144 5.53847 7.26923V7.61539C5.53847 7.799 5.61141 7.97509 5.74124 8.10492C5.87107 8.23475 6.04716 8.30769 6.23077 8.30769C6.41438 8.30769 6.59048 8.23475 6.72031 8.10492C6.85014 7.97509 6.92308 7.799 6.92308 7.61539V7.26923C6.92308 6.31731 7.8551 5.53846 9 5.53846C10.1449 5.53846 11.0769 6.31731 11.0769 7.26923C11.0769 8.22115 10.1449 9 9 9C8.81639 9 8.6403 9.07294 8.51047 9.20277C8.38064 9.3326 8.3077 9.5087 8.3077 9.69231V10.3846C8.3077 10.5682 8.38064 10.7443 8.51047 10.8742C8.6403 11.004 8.81639 11.0769 9 11.0769C9.18362 11.0769 9.35971 11.004 9.48954 10.8742C9.61937 10.7443 9.69231 10.5682 9.69231 10.3846V10.3223C11.2708 10.0324 12.4615 8.77327 12.4615 7.26923C12.4615 5.55144 10.909 4.15385 9 4.15385ZM18 9C18 10.78 17.4722 12.5201 16.4832 14.0001C15.4943 15.4802 14.0887 16.6337 12.4442 17.3149C10.7996 17.9961 8.99002 18.1743 7.24419 17.8271C5.49836 17.4798 3.89472 16.6226 2.63604 15.364C1.37737 14.1053 0.520204 12.5016 0.172937 10.7558C-0.17433 9.00998 0.00389956 7.20038 0.685088 5.55585C1.36628 3.91131 2.51983 2.50571 3.99987 1.51677C5.47991 0.527841 7.21997 0 9 0C11.3862 0.00251984 13.6739 0.95154 15.3612 2.63882C17.0485 4.3261 17.9975 6.61383 18 9ZM16.6154 9C16.6154 7.49382 16.1688 6.02146 15.332 4.76912C14.4952 3.51678 13.3058 2.54069 11.9143 1.9643C10.5228 1.38791 8.99156 1.2371 7.51432 1.53094C6.03708 1.82478 4.68014 2.55008 3.61511 3.61511C2.55008 4.68014 1.82479 6.03707 1.53095 7.51431C1.23711 8.99155 1.38792 10.5228 1.96431 11.9143C2.5407 13.3058 3.51678 14.4952 4.76912 15.332C6.02147 16.1688 7.49382 16.6154 9 16.6154C11.019 16.6131 12.9547 15.81 14.3824 14.3824C15.81 12.9547 16.6131 11.019 16.6154 9Z"
            fill="black" fill-opacity="0.2" />
    </g>
    <defs>
        <clipPath id="clip0_1591_5078">
            <rect width="18" height="18" fill="white" />
        </clipPath>
    </defs>
</svg>