<svg width="24" height="24" viewBox="0 0 24 24" xmlns="http://www.w3.org/2000/svg">

    <path
        d="M3.51439 3.51391C-1.16561 8.19391 -1.16561 15.8053 3.51439 20.4853C5.85154 22.8225 8.92582 23.9939 12.0001 23.9939C15.0744 23.9939 18.1487 22.8225 20.4858 20.4853C25.1658 15.8053 25.1658 8.19391 20.4858 3.51391C15.8058 -1.16609 8.19439 -1.16609 3.51439 3.51391ZM19.6801 19.6796C15.4458 23.9139 8.56011 23.9139 4.32582 19.6796C0.0915375 15.4453 0.0915375 8.55962 4.32582 4.32534C6.44011 2.21105 9.22297 1.14819 12.0058 1.14819C14.7887 1.14819 17.5658 2.20533 19.6858 4.32534C23.9087 8.55391 23.9087 15.4453 19.6801 19.6796Z" />
    <path
        d="M17.458 6.54263C17.2352 6.31977 16.8752 6.31977 16.6523 6.54263L12.0009 11.1941L7.35518 6.54835C7.13232 6.32549 6.77232 6.32549 6.54947 6.54835C6.32661 6.7712 6.32661 7.1312 6.54947 7.35406L11.1952 11.9998L6.54947 16.6455C6.32661 16.8683 6.32661 17.2283 6.54947 17.4512C6.66375 17.5655 6.80661 17.6169 6.95518 17.6169C7.10375 17.6169 7.24661 17.5598 7.3609 17.4512L12.0009 12.8055L16.6466 17.4512C16.7609 17.5655 16.9038 17.6169 17.0523 17.6169C17.2009 17.6169 17.3438 17.5598 17.458 17.4512C17.6809 17.2283 17.6809 16.8683 17.458 16.6455L12.8066 11.9998L17.4523 7.35406C17.6809 7.1312 17.6809 6.76549 17.458 6.54263Z" />

</svg>