<svg width="22" height="24" viewBox="0 0 22 24" xmlns="http://www.w3.org/2000/svg">
    <path
        d="M14.6443 0.857178H7.32428C6.03247 0.858662 4.98566 1.91907 4.98438 3.22766V20.7725C4.98566 22.0811 6.03247 23.1415 7.32428 23.1428H14.6443C15.9361 23.1415 16.9829 22.0811 16.9844 20.7725V3.22766C16.9829 1.91907 15.9361 0.858662 14.6443 0.857178ZM15.9843 20.7725C15.9835 21.5219 15.384 22.1292 14.6443 22.1299H7.32428C6.58453 22.1292 5.98505 21.5219 5.98431 20.7725V3.22766C5.98505 2.47812 6.58453 1.87084 7.32428 1.8701H14.6443C15.384 1.87084 15.9835 2.47812 15.9843 3.22766V20.7725Z" />

    <path fill-rule="evenodd" clip-rule="evenodd"
        d="M7.32423 0.557129L14.6442 0.557129C16.1051 0.558807 17.2827 1.75692 17.2843 3.22727L17.2843 20.7725C17.2827 22.2428 16.1054 23.4413 14.6445 23.4428H7.32423C5.86334 23.4413 4.68577 22.2432 4.68433 20.7728L4.68433 3.22761C4.68577 1.75721 5.86338 0.558807 7.32423 0.557129ZM7.3244 1.15713C6.20176 1.15851 5.28553 2.08111 5.28433 3.22775V20.7723C5.28553 21.9191 6.20185 22.8417 7.32453 22.8428H14.6439C15.7667 22.8417 16.683 21.919 16.6843 20.7722V3.22794C16.683 2.08119 15.7668 1.15851 14.6441 1.15713H7.3244ZM7.32423 1.57005L14.6442 1.57005C15.5531 1.57097 16.2833 2.316 16.2842 3.22731V20.7725C16.2833 21.6836 15.5534 22.4289 14.6445 22.4299H7.32423C6.4154 22.4289 5.68516 21.6839 5.68427 20.7728L5.68427 3.22761C5.68516 2.31629 6.41538 1.57097 7.32423 1.57005ZM14.6439 2.17005H7.32453C7.32449 2.17005 7.32457 2.17005 7.32453 2.17005C6.75398 2.17069 6.2849 2.64012 6.28427 3.22779C6.28427 3.22782 6.28427 3.22775 6.28427 3.22779L6.28427 20.7722C6.28427 20.7722 6.28427 20.7722 6.28427 20.7722C6.2849 21.3597 6.7539 21.8293 7.32453 21.8299H14.6439C15.2146 21.8293 15.6836 21.3597 15.6842 20.7722V3.2279C15.6836 2.64018 15.2145 2.17069 14.6439 2.17005C14.6439 2.17005 14.644 2.17005 14.6439 2.17005Z" />

    <path
        d="M12.4844 2.8833H9.48444C9.20831 2.8833 8.98438 3.10996 8.98438 3.38967C8.98438 3.66938 9.20831 3.89623 9.48444 3.89623H12.4844C12.7606 3.89623 12.9843 3.66938 12.9843 3.38967C12.9843 3.10996 12.7606 2.8833 12.4844 2.8833Z" />

    <path
        d="M11.9844 20.1037C11.9844 20.6633 11.5367 21.1169 10.9845 21.1169C10.4321 21.1169 9.98438 20.6633 9.98438 20.1037C9.98438 19.5443 10.4321 19.0908 10.9845 19.0908C11.5367 19.0908 11.9844 19.5443 11.9844 20.1037Z" />

</svg>