<svg width="18" height="18" viewBox="0 0 18 18" xmlns="http://www.w3.org/2000/svg">
    <path
        d="M6.87128 13.7453C5.51152 13.7456 4.18223 13.3425 3.05157 12.5872C1.92091 11.8318 1.03966 10.7581 0.519319 9.50187C-0.00102661 8.24561 -0.137098 6.86325 0.128318 5.52964C0.393735 4.19604 1.04871 2.97111 2.0104 2.00981C4.68979 -0.669935 9.0496 -0.669935 11.7293 2.00981C14.4091 4.68955 14.4087 9.04901 11.7293 11.7287C11.0919 12.3677 10.3347 12.8748 9.50112 13.2208C8.66751 13.5668 7.77385 13.7451 6.87128 13.7453ZM6.87128 1.75839C5.77365 1.75945 4.70546 2.11355 3.82456 2.76839C2.94366 3.42323 2.29677 4.34406 1.97947 5.39483C1.66217 6.44561 1.69129 7.57057 2.06253 8.60352C2.43377 9.63647 3.12744 10.5226 4.04104 11.131C4.32745 11.3218 4.6326 11.4829 4.95175 11.6117C5.88271 11.9891 6.90428 12.0836 7.88869 11.8835C8.8731 11.6833 9.77665 11.1974 10.4863 10.4865C12.4804 8.49238 12.4804 5.24723 10.4863 3.25386C10.0118 2.7785 9.44806 2.40158 8.82743 2.14476C8.2068 1.88794 7.54154 1.75628 6.86987 1.75734L6.87128 1.75839Z" />
    <path
        d="M17.1225 18.0001C17.007 18.0002 16.8926 17.9776 16.7859 17.9334C16.6793 17.8892 16.5823 17.8244 16.5008 17.7427L10.488 11.7299C10.3231 11.565 10.2305 11.3414 10.2305 11.1082C10.2305 10.875 10.3231 10.6514 10.488 10.4865C10.6529 10.3216 10.8765 10.229 11.1096 10.229C11.3428 10.229 11.5664 10.3216 11.7313 10.4865L17.7441 16.4993C17.8671 16.6223 17.9509 16.7789 17.9848 16.9494C18.0187 17.12 18.0013 17.2968 17.9348 17.4574C17.8682 17.6181 17.7555 17.7554 17.6109 17.852C17.4663 17.9485 17.2963 18.0001 17.1225 18.0001Z" />
</svg>