<svg width="50" height="50" viewBox="0 0 50 50" xmlns="http://www.w3.org/2000/svg">
    <path
        d="M26.0161 14.1484C25.5921 13.724 24.904 13.724 24.4793 14.1484C24.0549 14.5725 24.0549 15.2608 24.4793 15.6853L32.7103 23.9163H10.8407C10.2388 23.9163 9.75049 24.4045 9.75049 25.0065C9.75049 25.6088 10.2388 26.0968 10.8407 26.0968H32.6993L24.4683 34.3277C24.2642 34.5313 24.1494 34.8082 24.1494 35.0964C24.1494 35.3849 24.2642 35.6611 24.4683 35.865C24.6725 36.0709 24.9522 36.1849 25.2424 36.1811C25.5316 36.1798 25.8092 36.0664 26.0161 35.865L36.1005 25.7809C36.3057 25.5754 36.4201 25.2964 36.4171 25.0065C36.415 24.7173 36.3016 24.4407 36.1005 24.2328L26.0161 14.1484Z" />

</svg>