<svg width="50" height="51" viewBox="0 0 50 51" xmlns="http://www.w3.org/2000/svg">
    <path
        d="M23.9839 14.59C24.4079 14.1656 25.096 14.1656 25.5207 14.59C25.9451 15.0141 25.9451 15.7024 25.5207 16.1269L17.2897 24.3578H39.1593C39.7612 24.3578 40.2495 24.8461 40.2495 25.4481C40.2495 26.0504 39.7612 26.5383 39.1593 26.5383H17.3007L25.5317 34.7693C25.7358 34.9728 25.8506 35.2498 25.8506 35.5379C25.8506 35.8265 25.7358 36.1027 25.5317 36.3065C25.3275 36.5124 25.0478 36.6265 24.7576 36.6227C24.4684 36.6214 24.1908 36.508 23.9839 36.3065L13.8995 26.2225C13.6943 26.0169 13.5799 25.738 13.5829 25.4481C13.585 25.1589 13.6984 24.8823 13.8995 24.6744L23.9839 14.59Z" />

</svg>