<svg width="24" height="24" viewBox="0 0 24 24" xmlns="http://www.w3.org/2000/svg">
    <path
        d="M15.2598 14.9595C14.4577 14.9595 13.735 15.3142 13.2334 15.8785L8.72192 13.0173C8.84237 12.7016 8.90917 12.3587 8.90917 11.9999C8.90917 11.641 8.84237 11.2981 8.72192 10.9825L13.2334 8.1212C13.735 8.68542 14.4577 9.04026 15.2598 9.04026C16.7709 9.04026 18.0001 7.78154 18.0001 6.2343C18.0001 4.68706 16.7709 3.42847 15.2598 3.42847C13.7488 3.42847 12.5196 4.68719 12.5196 6.23443C12.5196 6.59318 12.5865 6.93611 12.7068 7.25184L8.19542 10.113C7.69383 9.54877 6.97114 9.19393 6.169 9.19393C4.65797 9.19393 3.42871 10.4528 3.42871 11.9999C3.42871 13.5471 4.65797 14.8059 6.169 14.8059C6.97114 14.8059 7.69383 14.4512 8.19542 13.8868L12.7068 16.748C12.5865 17.0637 12.5196 17.4066 12.5196 17.7655C12.5196 19.3126 13.7488 20.5713 15.2598 20.5713C16.7709 20.5713 18.0001 19.3126 18.0001 17.7655C18.0001 16.2183 16.7709 14.9595 15.2598 14.9595ZM13.5188 6.23443C13.5188 5.25141 14.2998 4.45163 15.2598 4.45163C16.2199 4.45163 17.0009 5.25141 17.0009 6.23443C17.0009 7.21744 16.2199 8.01722 15.2598 8.01722C14.2998 8.01722 13.5188 7.21744 13.5188 6.23443ZM6.169 13.7827C5.20887 13.7827 4.42781 12.9829 4.42781 11.9999C4.42781 11.0169 5.20887 10.2171 6.169 10.2171C7.12901 10.2171 7.90995 11.0169 7.90995 11.9999C7.90995 12.9829 7.12901 13.7827 6.169 13.7827ZM13.5188 17.7654C13.5188 16.7823 14.2998 15.9826 15.2598 15.9826C16.2199 15.9826 17.0009 16.7823 17.0009 17.7654C17.0009 18.7484 16.2199 19.5482 15.2598 19.5482C14.2998 19.5482 13.5188 18.7484 13.5188 17.7654Z" />
</svg>