<svg width="14" height="14" viewBox="0 0 14 14" xmlns="http://www.w3.org/2000/svg">
    <path
        d="M4.03798 8.97082C6.44586 17.9899 9.96442 11.8391 10.3399 6.52434C10.34 5.35746 9.73941 4.32937 8.83196 3.72954C9.02239 3.61741 9.2139 3.476 9.40013 3.28966C10.4774 2.21285 10.1505 0.879761 10.1362 0.823337C10.0975 0.672583 9.98204 0.553272 9.83258 0.509772C9.4055 0.333288 7.68254 0.376667 6.88459 1.85558C6.85485 1.82242 6.82705 1.78869 6.79404 1.75629C5.90826 0.86986 4.85966 1.16318 4.81508 1.1761C4.66562 1.21961 4.55019 1.33892 4.51142 1.48967C4.50001 1.53446 4.2392 2.59878 5.09526 3.45506C5.16294 3.52273 5.23159 3.58303 5.30064 3.6376C3.36915 4.85013 3.42806 6.69754 4.03798 8.97082ZM7.97616 1.86568C8.4646 1.37681 9.00387 1.3135 9.3127 1.32082C9.32175 1.64472 9.25154 2.19131 8.77645 2.66597C8.28201 3.15407 7.75772 3.22331 7.43213 3.20764C7.41924 2.89288 7.48562 2.35579 7.97616 1.86568ZM5.71895 2.83137C5.43597 2.54838 5.35995 2.22749 5.34724 2.00179C5.56765 2.01282 5.88079 2.09047 6.17035 2.37997C6.45633 2.66976 6.55401 3.00077 6.54227 3.20868C6.32261 3.19721 6.00861 3.12103 5.71895 2.83137ZM6.60029 4.09118C8.06843 3.85297 9.46783 5.00538 9.45784 6.52442C9.45785 8.2671 8.11399 12.6936 6.99066 12.6936C6.65809 12.6936 6.30643 12.3041 5.97585 11.7129C6.26818 11.751 6.56741 11.5953 6.56725 11.2718C6.56726 11.028 6.36978 10.8308 6.1262 10.8308H5.55544C5.35467 10.3456 5.17083 9.80809 5.01585 9.2694H6.1262C6.36978 9.2694 6.56726 9.07212 6.56726 8.82834C6.56726 8.58455 6.36978 8.38727 6.1262 8.38727H4.78802C4.65455 7.80437 4.56499 7.25859 4.53519 6.82159H6.1262C6.70295 6.8198 6.70285 5.9414 6.12618 5.93947H4.59646C4.82986 4.98504 5.61846 4.24834 6.60029 4.09118Z" />
</svg>