<svg width="14" height="14" viewBox="0 0 14 14" xmlns="http://www.w3.org/2000/svg">

    <path
        d="M7 4.12891C5.41688 4.12891 4.12891 5.41688 4.12891 7C4.12891 8.58312 5.41688 9.87109 7 9.87109C8.58312 9.87109 9.87109 8.58312 9.87109 7C9.87109 5.41688 8.58312 4.12891 7 4.12891ZM7 9.05078C5.8692 9.05078 4.94922 8.1308 4.94922 7C4.94922 5.8692 5.8692 4.94922 7 4.94922C8.1308 4.94922 9.05078 5.8692 9.05078 7C9.05078 8.1308 8.1308 9.05078 7 9.05078Z" />
    <path
        d="M13.5898 0.820312C12.3329 0.820312 11.2639 1.64016 10.8892 2.77315C9.01515 1.04483 6.2294 0.768195 4.04688 2.07416V1.24772C4.04688 1.02121 3.86323 0.837566 3.63672 0.837566C3.4102 0.837566 3.22656 1.02121 3.22656 1.24772V4.12891H2.43359V1.24772C2.43359 1.02121 2.24995 0.837566 2.02344 0.837566C1.79692 0.837566 1.61328 1.02121 1.61328 1.24772V4.12891H0.820312V1.24772C0.820312 1.02121 0.636672 0.837566 0.410156 0.837566C0.183641 0.837566 0 1.02121 0 1.24772V4.53906C0 5.26591 0.385383 5.90423 0.962391 6.26106L0.70082 11.813C0.665902 12.5549 1.25609 13.1797 2.00471 13.1797C2.75431 13.1797 3.35111 12.5475 3.3078 11.799L3.28352 11.3792C5.86912 13.578 9.79986 13.058 11.73 10.2578L11.606 11.8611C11.5522 12.5569 12.1034 13.1523 12.8012 13.1523C13.4622 13.1523 14 12.6146 14 11.9535V1.23047C14 1.00395 13.8164 0.820312 13.5898 0.820312ZM0.892391 4.94922H3.15448C2.77058 6.00458 1.27586 6.00343 0.892391 4.94922ZM2.00468 12.3594C1.7287 12.3594 1.50713 12.1294 1.52023 11.8516L1.77021 6.54609C1.9308 6.56625 2.0548 6.56567 2.18282 6.55564L2.48891 11.8464C2.50491 12.124 2.28493 12.3594 2.00468 12.3594ZM3.2121 10.1447L2.99059 6.31591C3.61938 5.97228 4.04688 5.30469 4.04688 4.53906V3.06067C6.10302 1.51397 9.04299 1.8092 10.7461 3.8057V7.79297C10.7461 8.01948 10.9297 8.20312 11.1562 8.20312H11.7753C10.7995 12.1143 5.77804 13.2321 3.2121 10.1447ZM13.1797 11.9535C13.1797 12.1623 13.0099 12.332 12.8012 12.332C12.5817 12.332 12.4067 12.1458 12.4239 11.9244L12.741 7.82458C12.7594 7.58661 12.5711 7.38281 12.332 7.38281H11.5664V3.66406C11.5664 2.68882 12.2599 1.8725 13.1797 1.68238V11.9535Z" />

</svg>