<svg width="14" height="14" viewBox="0 0 14 14" xmlns="http://www.w3.org/2000/svg">
    <path fill-rule="evenodd" clip-rule="evenodd"
        d="M7 0C6.54292 0 6.19858 0.240936 5.98615 0.522575C5.85129 0.701365 5.75021 0.894039 5.65498 1.07792C5.51506 0.974583 5.363 0.878749 5.18473 0.814721C4.93175 0.723861 4.62149 0.718724 4.31646 0.851844C4.01144 0.984965 3.80423 1.21595 3.69882 1.46322C3.64983 1.57813 3.61864 1.69434 3.59748 1.80984C3.37441 1.74167 3.13829 1.68304 2.88284 1.68864L2.88103 1.68789V1.68853C2.87961 1.68856 2.87825 1.68841 2.87688 1.68826C2.87549 1.68811 2.8741 1.68795 2.87264 1.688H2.87253H2.87226L2.8721 1.68805C2.59366 1.69596 2.29425 1.80733 2.05078 2.05078C1.72761 2.37395 1.65425 2.7876 1.703 3.13695C1.73393 3.35856 1.79854 3.56612 1.86114 3.76337C1.6893 3.78964 1.51416 3.83007 1.34305 3.91074C1.09992 4.02538 0.876421 4.24 0.754868 4.54981C0.633316 4.85963 0.651242 5.16897 0.751554 5.41835C0.79835 5.53469 0.85847 5.63926 0.925182 5.73619C0.764086 5.82204 0.601112 5.91758 0.451386 6.04302C0.20073 6.25303 0 6.58205 0 7C0 7.45708 0.240936 7.80137 0.522575 8.0138C0.701166 8.14851 0.893609 8.24951 1.0773 8.34464C0.974113 8.48464 0.878354 8.63698 0.814477 8.81483C0.723617 9.06781 0.71848 9.37807 0.8516 9.68309C0.98472 9.98812 1.21616 10.1942 1.46343 10.2996C1.57877 10.3487 1.69506 10.3801 1.8106 10.4015C1.7574 10.5764 1.70978 10.7594 1.6928 10.9543C1.66444 11.2798 1.75548 11.654 2.05073 11.9492C2.3739 12.2724 2.78755 12.3457 3.13689 12.297C3.35846 12.2661 3.56598 12.2015 3.7632 12.1389C3.78947 12.3106 3.8299 12.4856 3.9105 12.6565C4.02514 12.8996 4.23976 13.1231 4.54957 13.2447C4.85938 13.3662 5.16872 13.3483 5.4181 13.248C5.53444 13.2012 5.63902 13.1411 5.73595 13.0744C5.82186 13.2356 5.91746 13.3988 6.04302 13.5486C6.25303 13.7993 6.58206 14 7 14C7.45708 14 7.80136 13.7591 8.0138 13.4774C8.14861 13.2987 8.24966 13.1061 8.34486 12.9223C8.48489 13.025 8.63734 13.1201 8.81504 13.1839C9.06802 13.2748 9.37783 13.2811 9.68285 13.148C9.98787 13.0148 10.1939 12.7834 10.2993 12.5361C10.3484 12.4211 10.3798 12.3049 10.4013 12.1893C10.5762 12.2426 10.7593 12.2902 10.9543 12.3072C11.2798 12.3356 11.6539 12.2445 11.9492 11.9493C12.2724 11.6261 12.3457 11.2124 12.297 10.8631C12.2661 10.6414 12.2014 10.4337 12.1388 10.2363C12.3104 10.2101 12.4854 10.1696 12.6563 10.0891C12.8994 9.97442 13.1229 9.7598 13.2444 9.44999C13.366 9.14018 13.3481 8.83084 13.2478 8.58146C13.201 8.46528 13.141 8.36084 13.0744 8.26402C13.2356 8.17812 13.3988 8.08253 13.5486 7.95698C13.7993 7.74697 14 7.41795 14 7C14 6.54292 13.7591 6.19864 13.4774 5.9862C13.2986 5.85129 13.1058 5.75017 12.9219 5.6549C13.0247 5.51482 13.1198 5.3623 13.1837 5.18452C13.2745 4.93154 13.2808 4.62173 13.1477 4.31671C13.0146 4.01169 12.7836 3.80447 12.5363 3.69906C12.4214 3.65007 12.3052 3.61887 12.1896 3.59771C12.2428 3.42308 12.2903 3.24028 12.3072 3.04573C12.3356 2.72016 12.2445 2.34605 11.9493 2.05078C11.7056 1.80707 11.4059 1.69608 11.1277 1.688C10.8036 1.67856 10.51 1.77118 10.236 1.8599C10.2097 1.68853 10.1693 1.51391 10.0888 1.34329C9.97418 1.10016 9.75956 0.876665 9.44975 0.755112C9.13993 0.63356 8.8306 0.651486 8.58121 0.751798C8.46504 0.798527 8.3606 0.858542 8.26378 0.925139C8.17794 0.764058 8.08241 0.601099 7.95698 0.451385C7.74697 0.20073 7.41795 0 7 0ZM6.90063 1.76623C7.03265 1.76375 7.15325 1.73154 7.26882 1.67814C7.37609 1.62847 7.47908 1.56058 7.58263 1.48153C7.64975 1.43023 7.7172 1.37413 7.78635 1.31508C7.6867 1.1269 7.59276 0.95336 7.49587 0.837723C7.36222 0.678194 7.25188 0.601562 7 0.601562C6.72441 0.601562 6.61171 0.692216 6.46642 0.884827C6.37322 1.00839 6.28145 1.18122 6.18193 1.36864L6.13664 1.45376C6.25023 1.53891 6.36069 1.6127 6.47422 1.6672C6.60879 1.73156 6.74777 1.76911 6.90063 1.76623ZM5.54824 1.75993C5.84754 2.00289 6.21488 2.30108 6.7127 2.3582C6.77717 2.36574 6.84381 2.3692 6.91273 2.3679C7.51532 2.3566 7.92744 1.99516 8.25554 1.70741C8.29183 1.67558 8.32709 1.64466 8.36147 1.6152C8.36715 1.61034 8.37262 1.60528 8.37789 1.60004C8.53667 1.46528 8.67918 1.3594 8.80499 1.3088C8.93893 1.25492 9.04808 1.24284 9.23034 1.31435C9.41259 1.38586 9.48324 1.46848 9.54481 1.59906C9.60638 1.72964 9.64039 1.91948 9.66578 2.14396C9.67032 2.18403 9.67462 2.2254 9.67903 2.26785L9.67905 2.26805C9.72406 2.70111 9.78068 3.24588 10.2139 3.66307C10.647 4.08022 11.1928 4.11624 11.6271 4.14491C11.6698 4.14772 11.7114 4.15047 11.7517 4.1535C11.977 4.17043 12.1674 4.19645 12.3002 4.25306C12.433 4.30968 12.5179 4.37798 12.5962 4.55742C12.6745 4.73686 12.6668 4.84555 12.618 4.98142C12.5692 5.11728 12.4589 5.27456 12.3181 5.45125C12.2929 5.48288 12.2666 5.51526 12.2396 5.54848C11.9653 5.8864 11.6206 6.31105 11.6319 6.9123C11.6338 7.00995 11.6448 7.10262 11.6633 7.19074C11.7584 7.64649 12.0514 7.98053 12.2926 8.25554C12.3244 8.29183 12.3553 8.3271 12.3848 8.36147C12.388 8.36521 12.3913 8.36886 12.3947 8.37242C12.5317 8.5336 12.6391 8.67908 12.6903 8.8064C12.7442 8.94034 12.7556 9.04786 12.684 9.23012C12.6125 9.41238 12.5311 9.48349 12.4005 9.54506C12.2699 9.60662 12.0801 9.64064 11.8556 9.66603C11.8155 9.67056 11.7741 9.67486 11.7317 9.67928L11.7315 9.6793C11.2984 9.7243 10.7537 9.78092 10.3365 10.2141C9.91934 10.6473 9.88332 11.193 9.85465 11.6273C9.85184 11.67 9.84909 11.7116 9.84606 11.752C9.82913 11.9772 9.80311 12.1676 9.7465 12.3004C9.68985 12.4332 9.62158 12.5181 9.44214 12.5964C9.2627 12.6747 9.15401 12.6671 9.01814 12.6183C8.88228 12.5695 8.725 12.4591 8.54832 12.3183C8.51672 12.2932 8.48437 12.2669 8.45118 12.24L8.45108 12.2399C8.1361 11.9842 7.74578 11.6674 7.20733 11.6347C7.1681 11.6322 7.12808 11.6313 7.08727 11.6321H7.08721C6.48462 11.6434 6.07246 12.0049 5.74435 12.2926C5.70808 12.3244 5.67284 12.3554 5.63847 12.3848L5.62851 12.3937C5.46679 12.5313 5.32085 12.6392 5.19316 12.6906C5.05922 12.7444 4.95124 12.757 4.76898 12.6855C4.58672 12.6139 4.51491 12.5309 4.45334 12.4003C4.39177 12.2697 4.35892 12.0803 4.33353 11.8558C4.32899 11.8157 4.32469 11.7743 4.32027 11.7318L4.32026 11.7318C4.27526 11.2987 4.21864 10.7539 3.78545 10.3367C3.3523 9.91959 2.80654 9.88356 2.37224 9.8549L2.3721 9.85489C2.32945 9.85207 2.28788 9.84933 2.2476 9.8463C2.02233 9.82937 1.83196 9.80336 1.69915 9.74674C1.56635 9.69013 1.48145 9.62183 1.40314 9.44239C1.32483 9.26295 1.33248 9.15426 1.38128 9.01838C1.43008 8.88251 1.54046 8.72524 1.68123 8.54856C1.70643 8.51693 1.73271 8.48455 1.75968 8.45133L1.75968 8.45133C1.98237 8.17699 2.25146 7.8455 2.33879 7.40877C2.35934 7.30742 2.37003 7.20043 2.3679 7.08727C2.3566 6.48465 1.99512 6.07247 1.70736 5.74435L1.70732 5.7443C1.67552 5.70805 1.64463 5.67282 1.6152 5.63847C1.61056 5.63305 1.60574 5.62781 1.60074 5.62277C1.46558 5.46343 1.35973 5.31951 1.30901 5.19341C1.25513 5.05946 1.2426 4.95148 1.3141 4.76922C1.38561 4.58697 1.46823 4.51632 1.59881 4.45475C1.7294 4.39318 1.91924 4.35917 2.14371 4.33378C2.18385 4.32923 2.22529 4.32493 2.26781 4.32051H2.26781C2.66106 4.27964 3.14641 4.2292 3.54471 3.89591C3.58509 3.8622 3.62455 3.82558 3.66289 3.78577C3.98254 3.45387 4.07841 3.05625 4.11853 2.69291C4.13084 2.58192 4.13795 2.47415 4.14466 2.3725L4.14466 2.37249C4.14748 2.32979 4.15023 2.28817 4.15326 2.24785C4.17019 2.02257 4.1962 1.8322 4.25282 1.6994C4.30943 1.56659 4.37773 1.4817 4.55717 1.40338C4.73661 1.32507 4.8453 1.33272 4.98118 1.38152C5.11705 1.43032 5.27432 1.5407 5.451 1.68147C5.48263 1.70667 5.51501 1.73296 5.54823 1.75992L5.54823 1.75993L5.54824 1.75993ZM3.53557 2.42542C3.50747 2.77882 3.46637 3.08475 3.27393 3.3187C3.25998 3.33562 3.24523 3.35218 3.22964 3.36836C3.03365 3.57188 2.77341 3.64451 2.46761 3.68894L2.43951 3.59687L2.43951 3.59686C2.37743 3.39404 2.32018 3.20701 2.2988 3.0538C2.26547 2.81495 2.28113 2.67113 2.4761 2.47616V2.4761C2.62325 2.32896 2.73624 2.29362 2.88941 2.28934L2.88973 2.28918V2.28935C3.05704 2.28448 3.28509 2.34978 3.53557 2.42542ZM0.837723 6.50413C0.953379 6.40723 1.12696 6.31327 1.31517 6.2136C1.34554 6.24917 1.37512 6.28428 1.40367 6.31913C1.50823 6.44694 1.59938 6.57164 1.66417 6.70209C1.72575 6.82639 1.7633 6.95596 1.76599 7.09893C1.77088 7.3588 1.65913 7.57806 1.49739 7.80391C1.48322 7.82364 1.46866 7.84342 1.45376 7.86331L1.36804 7.8177L1.36802 7.81769C1.18084 7.71831 1.00825 7.62668 0.884827 7.53358C0.692216 7.38829 0.601562 7.27559 0.601562 7C0.601562 6.74812 0.678194 6.63779 0.837723 6.50413ZM3.36846 10.7704C3.39003 10.7912 3.41013 10.8126 3.42887 10.8348C3.58689 11.022 3.64907 11.259 3.68877 11.5324L3.59704 11.5604C3.39413 11.6225 3.20701 11.6798 3.05374 11.7012C2.81489 11.7345 2.67107 11.7188 2.47611 11.5238C2.29812 11.3458 2.27403 11.2136 2.29207 11.0065C2.30514 10.8564 2.36123 10.6675 2.42366 10.4643C2.80342 10.4944 3.12847 10.5393 3.36841 10.7704H3.36846ZM6.21355 12.6847C6.48378 12.4545 6.73018 12.2668 7.03205 12.2374C7.05395 12.2353 7.07615 12.234 7.09868 12.2336C7.31921 12.2294 7.51049 12.3093 7.70137 12.4324C7.75511 12.4671 7.80887 12.5053 7.86336 12.5462L7.81786 12.6317L7.81786 12.6317C7.71842 12.819 7.62672 12.9917 7.53358 13.1152C7.38829 13.3078 7.27559 13.3984 7 13.3984C6.74815 13.3984 6.63779 13.3218 6.50413 13.1623C6.40721 13.0466 6.31322 12.873 6.21355 12.6847ZM10.7704 10.6315C10.8611 10.5373 10.9651 10.4712 11.0809 10.4229C11.158 10.3909 11.2403 10.3667 11.3272 10.3475C11.3929 10.3329 11.4613 10.3212 11.5324 10.311L11.5604 10.4029C11.6225 10.6058 11.6798 10.7929 11.7012 10.9462C11.7345 11.1851 11.7188 11.3289 11.5238 11.5239C11.3458 11.7019 11.2135 11.7259 11.0064 11.7079C10.8563 11.6948 10.6675 11.6388 10.4642 11.5763C10.4944 11.1966 10.5393 10.8715 10.7704 10.6315ZM11.1102 2.28935H11.1103C11.2639 2.29381 11.3768 2.32906 11.5239 2.47611C11.7019 2.65414 11.7259 2.78643 11.7079 2.9935C11.6948 3.14361 11.6388 3.33254 11.5763 3.53578C11.1966 3.50564 10.8715 3.4607 10.6315 3.22961C10.4278 3.03338 10.3554 2.77546 10.3112 2.46906L10.4073 2.44043C10.6839 2.3578 10.9306 2.28412 11.1102 2.28935ZM12.5462 6.13664L12.6317 6.18214L12.6317 6.18215C12.819 6.28159 12.9917 6.37328 13.1152 6.46642C13.3078 6.61171 13.3984 6.72442 13.3984 7C13.3984 7.25188 13.3218 7.36222 13.1623 7.49587C13.0466 7.59279 12.873 7.68677 12.6847 7.78645C12.4378 7.49665 12.2398 7.23425 12.2336 6.90147C12.2282 6.61837 12.3601 6.38494 12.5462 6.13664ZM6.38918 3.6453C6.53315 3.48719 6.74659 3.34961 7.00021 3.34961C7.25383 3.34961 7.46727 3.48719 7.61124 3.6453C7.75521 3.8034 7.85675 3.98766 7.95144 4.17125L7.95734 4.18271C8.14467 4.54595 8.3286 4.9026 8.45649 4.99551C8.58572 5.08939 8.98819 5.15523 9.39594 5.22185C9.59981 5.25516 9.80687 5.29472 10.0017 5.38278C10.1966 5.47084 10.3931 5.63091 10.4715 5.8721C10.5498 6.11329 10.4858 6.35882 10.3799 6.54459C10.274 6.73036 10.1288 6.88321 9.98342 7.02999C9.69271 7.32354 9.40604 7.61337 9.35669 7.76528C9.30776 7.91583 9.36884 8.31399 9.4309 8.71861L9.43257 8.72953C9.46391 8.9337 9.49013 9.14239 9.46659 9.35492C9.44306 9.56745 9.35121 9.80377 9.14603 9.95283C8.94084 10.1019 8.68684 10.1165 8.47742 10.0732C8.26801 10.0299 8.07707 9.93973 7.89256 9.84686L7.88984 9.84549C7.52174 9.6602 7.15956 9.4779 7.00021 9.4779C6.84047 9.4779 6.47559 9.6611 6.10656 9.84686C5.92204 9.93973 5.73241 10.0299 5.523 10.0732C5.31358 10.1165 5.05958 10.1019 4.85439 9.95283C4.64921 9.80377 4.55736 9.56745 4.53383 9.35492C4.51029 9.14239 4.53653 8.9337 4.56785 8.72953L4.56951 8.71871C4.63158 8.31406 4.69266 7.91585 4.64374 7.76528C4.59437 7.61337 4.30771 7.32354 4.017 7.02999C3.87165 6.88321 3.72644 6.73036 3.62055 6.54459C3.51466 6.35882 3.45059 6.11329 3.52896 5.8721C3.60733 5.63091 3.80382 5.47084 3.99868 5.38278C4.19355 5.29472 4.40061 5.25516 4.60448 5.22185C5.01223 5.15523 5.4147 5.08939 5.54393 4.99551C5.67182 4.9026 5.85574 4.54596 6.04307 4.18272L6.04899 4.17125C6.14367 3.98766 6.24521 3.8034 6.38918 3.6453ZM7.16638 4.05088C7.09038 3.96742 7.05254 3.95145 7.00021 3.95145C6.94789 3.95145 6.91004 3.96742 6.83404 4.05088C6.75804 4.13435 6.67102 4.27883 6.58413 4.44731C6.5504 4.51271 6.51767 4.58169 6.48415 4.65235C6.34493 4.94576 6.19201 5.26804 5.89721 5.48221C5.60224 5.6965 5.24868 5.74238 4.92662 5.78417C4.84928 5.7942 4.77376 5.804 4.70131 5.81584C4.51421 5.84641 4.34884 5.88449 4.24598 5.93098C4.14311 5.97746 4.11691 6.00813 4.10074 6.05789C4.08457 6.10765 4.08802 6.14822 4.14392 6.24629C4.19982 6.34435 4.31016 6.4727 4.44355 6.60739C4.49562 6.65998 4.55146 6.71269 4.60864 6.76667C4.84441 6.98924 5.10307 7.23343 5.21552 7.57949C5.32816 7.92614 5.26253 8.27641 5.20274 8.59551C5.18836 8.67224 5.17432 8.74716 5.16318 8.8198C5.13445 9.00718 5.11936 9.176 5.13178 9.28819C5.1442 9.40039 5.16534 9.43537 5.20767 9.46613C5.25 9.49688 5.29077 9.50599 5.40131 9.48314C5.51186 9.46028 5.66769 9.39436 5.83702 9.30913C5.90276 9.27604 5.96977 9.23947 6.03839 9.20203C6.32326 9.04661 6.63583 8.87606 7.00021 8.87606C7.36459 8.87606 7.67716 9.04661 7.96203 9.20203C8.03065 9.23947 8.09766 9.27604 8.1634 9.30913C8.33273 9.39436 8.48856 9.46028 8.59911 9.48314C8.70965 9.50599 8.75042 9.49688 8.79276 9.46613C8.83509 9.43537 8.85622 9.40038 8.86864 9.28819C8.88107 9.176 8.86598 9.00718 8.83724 8.8198C8.8261 8.74719 8.81207 8.6723 8.7977 8.5956C8.7379 8.27647 8.67225 7.92617 8.7849 7.57949C8.89735 7.23343 9.15602 6.98924 9.39178 6.76667C9.44896 6.71269 9.5048 6.65998 9.55688 6.60739C9.69027 6.4727 9.80061 6.34435 9.8565 6.24629C9.9124 6.14822 9.91585 6.10764 9.89968 6.05789C9.88351 6.00813 9.85731 5.97746 9.75444 5.93098C9.65158 5.88449 9.48621 5.84641 9.29911 5.81584C9.22666 5.804 9.15113 5.7942 9.0738 5.78417C8.75174 5.74238 8.39818 5.6965 8.10321 5.48221C7.80841 5.26804 7.65549 4.94576 7.51627 4.65235C7.48275 4.58169 7.45002 4.51271 7.41629 4.44731C7.3294 4.27883 7.24238 4.13435 7.16638 4.05088Z" />
</svg>