<svg width="14" height="14" viewBox="0 0 14 14" xmlns="http://www.w3.org/2000/svg">

    <path
        d="M10.5784 3.76354C11.3638 3.03111 11.8098 1.70108 11.8098 0.410156C11.8098 0.183641 11.6261 0 11.3996 0C9.13868 0 7.71035 1.1188 7.04248 2.58453C6.79893 1.99896 6.44045 1.46103 5.9785 0.99884C5.81838 0.838633 5.55867 0.838551 5.39846 0.998703C5.23825 1.15883 5.23817 1.41854 5.39832 1.57875C6.0414 2.22214 6.44368 3.04175 6.56052 3.92823C4.00809 2.61291 0.850484 4.56531 0.885047 7.43939C0.88502 11.1794 4.00007 14 5.68839 14C6.14516 14 6.59634 13.8969 7.00636 13.7001C10.9861 15.7709 16.3658 6.06063 10.5784 3.76354ZM10.971 0.836527C10.8434 2.31588 10.0935 3.51457 9.20299 3.51457C8.60575 3.51457 8.01663 3.65263 7.48419 3.91174C7.7847 2.2062 9.00327 0.988477 10.971 0.836527ZM8.32435 13.1797C7.93391 13.1797 7.54913 13.0766 7.21163 12.8815C7.08461 12.8081 6.92815 12.8081 6.80114 12.8815C6.46361 13.0766 6.07883 13.1797 5.68839 13.1797C4.51121 13.1797 1.70533 10.7795 1.70533 7.43933C1.68379 4.86631 4.75892 3.38674 6.74971 5.01635C6.89966 5.13663 7.11305 5.13663 7.263 5.01635C7.81874 4.57054 8.48956 4.33489 9.20296 4.33489C10.9148 4.33489 12.3074 5.72753 12.3074 7.43933C12.3074 10.7857 9.49767 13.1797 8.32435 13.1797Z" />

    <path
        d="M4.81003 5.27197C3.63745 5.27197 2.64258 6.21684 2.64258 7.43943C2.64258 7.66594 2.82622 7.84937 3.05273 7.84937C3.27925 7.84937 3.46289 7.66551 3.46289 7.43899C3.46289 6.67493 4.08575 6.09229 4.81003 6.09229C5.35284 6.07262 5.35393 5.29212 4.81003 5.27197Z" />


</svg>