<svg width="14" height="14" viewBox="0 0 14 14" xmlns="http://www.w3.org/2000/svg">

    <path
        d="M12.8932 8.8134C13.4378 8.44426 13.7812 7.81981 13.7812 7.14499C13.7812 6.5291 13.4947 5.9472 13.0187 5.5684C13.3377 5.01699 13.5052 4.39371 13.5052 3.74996C13.5052 1.74382 11.873 0.111672 9.86689 0.111672C9.24312 0.111672 8.63587 0.269883 8.0961 0.571185C7.76043 0.209782 7.28719 0 6.78699 0C6.26743 0 5.77595 0.229114 5.43984 0.614005C4.97019 0.220665 4.37174 0 3.75434 0C2.30799 0 1.13128 1.17669 1.13128 2.62306C1.13128 3.43676 1.5037 4.16512 2.08706 4.64659C2.05135 5.13826 2.1756 5.63069 2.44444 6.04864C2.69168 6.43299 3.04696 6.73218 3.46188 6.91115C3.01387 7.72468 2.45128 8.47694 1.7971 9.13111L0.474237 10.4539C0.133588 10.7946 0.133588 11.3489 0.474237 11.6896L2.5288 13.7441C2.69382 13.9091 2.91325 14 3.14663 14C3.37998 14 3.59941 13.9091 3.76443 13.7441L4.49722 13.0113C5.5916 11.9169 7.01638 11.1766 8.53806 10.9057C8.603 12.2947 9.7533 13.4048 11.1581 13.4048C12.6045 13.4048 13.7812 12.2281 13.7812 10.7817C13.7811 10.0149 13.4559 9.30674 12.8932 8.8134ZM2.63812 4.9964C2.97702 5.15644 3.35537 5.24613 3.75434 5.24613C3.90785 5.24613 4.0589 5.23259 4.20716 5.20678L4.08444 5.54327C3.97542 5.84217 3.85125 6.13611 3.71303 6.42372C3.11756 6.18159 2.70689 5.62421 2.63812 4.9964ZM8.57126 10.3456C7.70558 10.4852 6.86716 10.7663 6.09301 11.1711C6.06563 11.0446 6.00277 10.9285 5.90912 10.8348L5.57566 10.5014C5.44698 10.3727 5.27589 10.3018 5.09392 10.3018C4.91194 10.3018 4.74085 10.3727 4.61217 10.5014L3.82027 11.2932C3.71349 11.4 3.71349 11.5732 3.82027 11.68C3.92705 11.7867 4.10013 11.7867 4.20699 11.68L4.9989 10.8881C5.03316 10.8538 5.07314 10.8487 5.09395 10.8487C5.11475 10.8487 5.15473 10.8538 5.18899 10.8881L5.52245 11.2215C5.57487 11.2739 5.57487 11.3592 5.52245 11.4116L5.32388 11.6102C5.31125 11.6229 5.3002 11.6365 5.29055 11.6508C4.86844 11.937 4.4725 12.2626 4.11047 12.6246L3.37768 13.3574C3.25026 13.4848 3.04291 13.4849 2.91549 13.3574L1.46285 11.9048L2.84336 10.5242C2.95014 10.4175 2.95014 10.2443 2.84336 10.1375C2.73655 10.0308 2.56347 10.0308 2.45664 10.1375L1.07613 11.5181L0.860933 11.3029C0.733511 11.1754 0.733511 10.9681 0.860933 10.8407L2.1838 9.51783C3.24775 8.45383 4.08263 7.14423 4.5982 5.73063L4.79962 5.17837C5.00655 5.41941 5.25273 5.61806 5.52562 5.76779L4.91129 7.91513C4.877 8.03495 4.92808 8.16278 5.03546 8.226C5.07863 8.2514 5.12654 8.26379 5.17409 8.26379C5.24483 8.26379 5.3148 8.23639 5.36752 8.1837L7.26152 6.28973C7.46102 6.49476 7.68321 6.67473 7.92619 6.82786C7.88113 7.02205 7.85835 7.22079 7.85835 7.42114C7.85835 7.62791 7.88219 7.83055 7.92797 8.02598L6.59362 9.36033C6.51544 9.43853 6.49203 9.55614 6.53433 9.65832C6.57666 9.76048 6.67636 9.82712 6.78696 9.82712H8.12099C8.27198 9.82712 8.39442 9.70467 8.39442 9.55368C8.39442 9.40269 8.27198 9.28024 8.12099 9.28024H7.4471L8.13318 8.59416C8.30665 8.94167 8.55761 9.24934 8.87321 9.49347C8.72296 9.75873 8.62135 10.0462 8.57126 10.3456ZM5.72753 7.05035L6.03367 5.98028C6.2443 6.04309 6.46453 6.07965 6.69003 6.08785L5.72753 7.05035ZM11.1153 12.8575C10.0057 12.8351 9.1011 11.9277 9.08223 10.818C9.07466 10.3728 9.20689 9.94511 9.46348 9.58313C9.48788 9.5487 9.50655 9.51004 9.51388 9.46848C9.53414 9.35358 9.48178 9.24415 9.38889 9.18656C8.95382 8.91662 8.64282 8.50797 8.49757 8.03637C8.49579 8.02973 8.49371 8.02316 8.49141 8.01663C8.43495 7.82651 8.40525 7.62641 8.40525 7.42119C8.40525 7.20548 8.43858 6.99211 8.50432 6.78703C8.54468 6.66114 8.49319 6.52319 8.37742 6.45937C8.00059 6.25172 7.66358 5.9604 7.40283 5.6168C7.35063 5.548 7.26966 5.50868 7.18504 5.50868C7.16975 5.50868 7.15436 5.50997 7.13896 5.51259C7.02103 5.53275 6.9026 5.54294 6.78699 5.54294C6.07329 5.54294 5.41802 5.18247 5.03412 4.57869C4.95892 4.4604 4.80651 4.41818 4.68108 4.48083C4.39124 4.62575 4.07946 4.69922 3.75434 4.69922C2.60954 4.69922 1.67816 3.76784 1.67816 2.62304C1.67816 1.47823 2.60954 0.546876 3.75434 0.546876C4.32143 0.546876 4.86833 0.78217 5.25929 1.19339C5.27753 1.21193 5.29678 1.22987 5.31401 1.24937C5.64812 1.62739 5.83256 2.1105 5.83409 2.61667C5.83455 2.76525 5.95134 2.89235 6.0999 2.89639C6.25439 2.9006 6.38099 2.7766 6.38099 2.62306C6.38099 2.03318 6.18436 1.46754 5.82403 1.00754C6.05754 0.71988 6.41151 0.546876 6.78699 0.546876C7.19439 0.546876 7.57608 0.74758 7.80804 1.08377C7.8922 1.20572 8.05815 1.23854 8.18232 1.15763C8.71984 0.807545 9.35072 0.634458 9.99732 0.661283C11.64 0.729451 12.9511 2.09229 12.9582 3.73634C12.9609 4.36016 12.7785 4.96159 12.4314 5.47617C12.422 5.48588 12.413 5.49616 12.4049 5.50748C11.8212 6.32867 10.8927 6.82668 9.91939 6.84126C9.77433 6.84342 9.64822 6.95194 9.63895 7.0967C9.62872 7.25636 9.75516 7.38824 9.91176 7.38824C9.9128 7.38824 9.91387 7.38824 9.9149 7.38821C10.9876 7.37607 12.0132 6.86772 12.7038 6.0172C13.0356 6.2934 13.2343 6.70744 13.2343 7.14502C13.2343 7.75279 12.8519 8.30442 12.2828 8.51773C12.1848 8.55448 12.1164 8.64387 12.1065 8.74805C12.0967 8.85223 12.1471 8.95285 12.2365 9.00729C12.8613 9.38792 13.2343 10.0513 13.2343 10.7818C13.2343 11.9408 12.2796 12.8811 11.1153 12.8575Z" />
    <path
        d="M9.88001 1.42752L9.86719 1.42749C9.7162 1.42749 9.59375 1.54994 9.59375 1.70093C9.59375 1.85192 9.71622 1.97437 9.86721 1.97437L9.87597 1.97439C9.87665 1.97439 9.87736 1.97439 9.87804 1.97439C10.0281 1.97439 10.1503 1.85329 10.1514 1.70298C10.1525 1.55199 10.031 1.42864 9.88001 1.42752Z" />
    <path
        d="M11.054 1.75336C10.9244 1.67614 10.7565 1.71866 10.6792 1.84838C10.6019 1.97813 10.6444 2.14594 10.7742 2.22324C11.3099 2.54229 11.6426 3.12731 11.6426 3.74998C11.6426 3.90097 11.7651 4.02342 11.9161 4.02342C12.0671 4.02342 12.1895 3.90097 12.1895 3.74998C12.1895 2.9356 11.7544 2.17055 11.054 1.75336Z" />
    <path
        d="M3.6025 9.37873C3.55164 9.32784 3.48137 9.29858 3.40918 9.29858C3.33727 9.29858 3.26672 9.32784 3.21586 9.37873C3.16503 9.42956 3.13574 9.50011 3.13574 9.5723C3.13574 9.64424 3.165 9.71478 3.21586 9.76562C3.26672 9.81648 3.33727 9.84546 3.40918 9.84546C3.48137 9.84546 3.55164 9.81648 3.6025 9.76562C3.65361 9.71448 3.68262 9.64424 3.68262 9.5723C3.68262 9.50011 3.65361 9.42983 3.6025 9.37873Z" />

</svg>