<svg width="14" height="14" viewBox="0 0 14 14" xmlns="http://www.w3.org/2000/svg">

    <path
        d="M13.9227 9.2315C13.8456 9.12447 13.7217 9.06106 13.5899 9.06106H12.337C12.1586 6.71713 10.4637 4.79062 8.23394 4.26248V3.70508C8.23394 3.02471 7.68042 2.47119 7.00005 2.47119C6.31968 2.47119 5.76616 3.02471 5.76616 3.70508V4.26245C3.53644 4.79057 1.84154 6.7171 1.66307 9.06104H0.410149C0.27827 9.06104 0.154403 9.12445 0.0773485 9.23147C0.000266477 9.33846 -0.0206515 9.47603 0.0211298 9.60113C0.406267 10.7541 1.48178 11.5288 2.6974 11.5288H11.3026C12.5183 11.5288 13.5938 10.7541 13.9789 9.60113C14.0206 9.47606 13.9997 9.33849 13.9227 9.2315ZM6.99999 4.93896C9.36088 4.93896 11.3059 6.75333 11.5138 9.06104H2.48617C2.69406 6.75336 4.63911 4.93896 6.99999 4.93896ZM6.58642 3.70508C6.58642 3.47703 6.77195 3.2915 6.99999 3.2915C7.22804 3.2915 7.41357 3.47703 7.41357 3.70508V4.13451C7.27707 4.12404 7.13915 4.11865 6.99999 4.11865C6.86084 4.11865 6.72292 4.12401 6.58642 4.13451V3.70508ZM11.3026 10.7085H2.69737C2.04279 10.7085 1.44544 10.3917 1.07619 9.88135H12.9238C12.5545 10.3917 11.9572 10.7085 11.3026 10.7085Z" />


</svg>