<svg width="20" height="20" viewBox="0 0 20 20" xmlns="http://www.w3.org/2000/svg">

    <path
        d="M14 20H6C4.40921 19.9983 2.88405 19.3657 1.75919 18.2408C0.634327 17.116 0.00165449 15.5908 0 14V6C0.00165449 4.40921 0.634327 2.88405 1.75919 1.75919C2.88405 0.634327 4.40921 0.00165449 6 0L14 0C15.5908 0.00165449 17.116 0.634327 18.2408 1.75919C19.3657 2.88405 19.9983 4.40921 20 6V14C19.9983 15.5908 19.3657 17.116 18.2408 18.2408C17.116 19.3657 15.5908 19.9983 14 20ZM6 1.33125C4.76228 1.3329 3.57572 1.82532 2.70052 2.70052C1.82532 3.57572 1.3329 4.76228 1.33125 6V14C1.3329 15.2377 1.82532 16.4243 2.70052 17.2995C3.57572 18.1747 4.76228 18.6671 6 18.6688H14C15.2377 18.6671 16.4243 18.1747 17.2995 17.2995C18.1747 16.4243 18.6671 15.2377 18.6688 14V6C18.6671 4.76228 18.1747 3.57572 17.2995 2.70052C16.4243 1.82532 15.2377 1.3329 14 1.33125H6Z" />

    <path
        d="M10 11.3313C9.20888 11.3313 8.43552 11.0967 7.77772 10.6572C7.11992 10.2177 6.60723 9.59294 6.30448 8.86203C6.00173 8.13113 5.92252 7.32686 6.07686 6.55094C6.2312 5.77502 6.61217 5.06228 7.17158 4.50287C7.73099 3.94346 8.44372 3.5625 9.21964 3.40816C9.99556 3.25382 10.7998 3.33303 11.5307 3.63578C12.2616 3.93853 12.8864 4.45122 13.3259 5.10902C13.7654 5.76682 14 6.54017 14 7.3313C13.9983 8.39166 13.5764 9.40811 12.8266 10.1579C12.0768 10.9077 11.0604 11.3296 10 11.3313ZM10 4.6688C9.47217 4.6688 8.9562 4.82532 8.51732 5.11857C8.07845 5.41181 7.73639 5.82861 7.5344 6.31626C7.33241 6.80391 7.27956 7.34051 7.38253 7.8582C7.48551 8.37588 7.73968 8.85141 8.11291 9.22464C8.48614 9.59787 8.96167 9.85205 9.47935 9.95502C9.99704 10.058 10.5336 10.0051 11.0213 9.80315C11.5089 9.60116 11.9257 9.2591 12.219 8.82023C12.5122 8.38135 12.6688 7.86538 12.6688 7.33755C12.6688 6.62975 12.3876 5.95095 11.8871 5.45046C11.3866 4.94997 10.7078 4.6688 10 4.6688Z" />

    <path
        d="M14.675 15.4125C14.5083 15.4128 14.3477 15.3503 14.225 15.2375C13.3661 14.437 12.2366 13.9905 11.0625 13.9875H8.94377C7.76971 13.9905 6.64015 14.437 5.78127 15.2375C5.71732 15.3013 5.64107 15.3516 5.55715 15.3852C5.47322 15.4188 5.38335 15.435 5.29298 15.4329C5.2026 15.4308 5.1136 15.4104 5.03134 15.3729C4.94907 15.3354 4.87527 15.2816 4.81437 15.2148C4.75348 15.148 4.70677 15.0695 4.67705 14.9841C4.64734 14.8988 4.63524 14.8083 4.64149 14.7181C4.64775 14.6279 4.67222 14.5399 4.71343 14.4595C4.75464 14.379 4.81174 14.3077 4.88127 14.25C5.98863 13.2311 7.43902 12.6666 8.94377 12.6687H11.0563C12.5649 12.6684 14.018 13.2376 15.125 14.2625C15.2223 14.3538 15.29 14.4721 15.3195 14.6022C15.349 14.7323 15.3389 14.8682 15.2905 14.9926C15.2421 15.1169 15.1577 15.2239 15.048 15.2998C14.9383 15.3758 14.8084 15.4172 14.675 15.4187V15.4125Z" />


</svg>