<svg width="50" height="50" viewBox="0 0 50 50" fill="none" xmlns="http://www.w3.org/2000/svg">
<g clip-path="url(#clip0_201_367)">
<path fill-rule="evenodd" clip-rule="evenodd" d="M23.5351 26.338C21.917 26.338 20.6054 27.9776 20.6054 30.0001C20.6054 32.0227 21.917 33.6622 23.5351 33.6622C25.1531 33.6622 26.4647 32.0227 26.4647 30.0001C26.4647 27.9776 25.1531 26.338 23.5351 26.338ZM17.6758 30.7325H14.7461H11.8164C11.8164 32.3439 13.1348 33.6622 14.7461 33.6622C16.3574 33.6622 17.6758 32.3439 17.6758 30.7325Z" fill="white"/>
<path d="M32.0715 12.4512H33.5364M29.1418 12.4512H30.6067" stroke="white" stroke-width="1.7" stroke-miterlimit="2.6131"/>
<path d="M32.1777 49.2675V19.5218L38.0372 9.52148" stroke="#8CC842" stroke-width="1.7" stroke-miterlimit="22.9256"/>
<path d="M32.1777 49.2676L38.0372 43.4082L43.8966 49.2676" stroke="#8CC842" stroke-width="1.7" stroke-miterlimit="22.9256"/>
<path d="M11.963 9.52148H38.0372M32.1777 19.5218H6.10352" stroke="#8CC842" stroke-width="1.7" stroke-miterlimit="22.9256"/>
<path d="M38.0371 43.4081V2.19727C38.0371 1.3916 37.3779 0.732422 36.5723 0.732422H13.4277C12.6221 0.732422 11.9629 1.3916 11.9629 2.19727V4.39453M11.9629 5.85938V9.52148L6.10352 19.5218V49.2675H24.1211M25.5859 49.2675H27.0508M28.5156 49.2675H43.8965V19.5218L38.0371 9.52148" stroke="#8CC842" stroke-width="1.7" stroke-miterlimit="22.9256"/>
<path fill-rule="evenodd" clip-rule="evenodd" d="M18.5547 3.66211H31.4453C32.251 3.66211 32.9102 4.32129 32.9102 5.12695C32.9102 5.93262 32.2508 6.5918 31.4453 6.5918H18.5547C17.7491 6.5918 17.0898 5.93262 17.0898 5.12695C17.0898 4.32129 17.749 3.66211 18.5547 3.66211Z" stroke="#007C0C" stroke-width="1.7" stroke-miterlimit="22.9256"/>
<path fill-rule="evenodd" clip-rule="evenodd" d="M18.5547 3.66211H31.4453C32.251 3.66211 32.9102 4.32129 32.9102 5.12695C32.9102 5.93262 32.2508 6.5918 31.4453 6.5918H18.5547C17.7491 6.5918 17.0898 5.93262 17.0898 5.12695C17.0898 4.32129 17.749 3.66211 18.5547 3.66211Z" stroke="black" stroke-opacity="0.2" stroke-width="1.7" stroke-miterlimit="22.9256"/>
<path d="M11.8164 30.7325H17.6758M17.6758 26.338V30.7325C17.6758 32.3439 16.3574 33.6622 14.7461 33.6622C13.1348 33.6622 11.8164 32.3439 11.8164 30.7325V26.338" stroke="#007C0C" stroke-width="1.7" stroke-miterlimit="22.9256"/>
<path d="M11.8164 30.7325H17.6758M17.6758 26.338V30.7325C17.6758 32.3439 16.3574 33.6622 14.7461 33.6622C13.1348 33.6622 11.8164 32.3439 11.8164 30.7325V26.338" stroke="black" stroke-opacity="0.2" stroke-width="1.7" stroke-miterlimit="22.9256"/>
<path d="M14.7463 30.7325V26.338" stroke="#007C0C" stroke-width="1.7" stroke-miterlimit="22.9256"/>
<path d="M14.7463 30.7325V26.338" stroke="black" stroke-opacity="0.2" stroke-width="1.7" stroke-miterlimit="22.9256"/>
<path d="M14.7463 33.6622V43.9161" stroke="#007C0C" stroke-width="1.7" stroke-miterlimit="22.9256"/>
<path d="M14.7463 33.6622V43.9161" stroke="black" stroke-opacity="0.2" stroke-width="1.7" stroke-miterlimit="22.9256"/>
<path d="M23.5352 33.6622C25.1532 33.6622 26.4648 32.0226 26.4648 30.0001C26.4648 27.9776 25.1532 26.338 23.5352 26.338C21.9171 26.338 20.6055 27.9776 20.6055 30.0001C20.6055 32.0226 21.9171 33.6622 23.5352 33.6622Z" stroke="#007C0C" stroke-width="1.7" stroke-miterlimit="22.9256"/>
<path d="M23.5352 33.6622C25.1532 33.6622 26.4648 32.0226 26.4648 30.0001C26.4648 27.9776 25.1532 26.338 23.5352 26.338C21.9171 26.338 20.6055 27.9776 20.6055 30.0001C20.6055 32.0226 21.9171 33.6622 23.5352 33.6622Z" stroke="black" stroke-opacity="0.2" stroke-width="1.7" stroke-miterlimit="22.9256"/>
<path d="M23.5352 33.6622V43.9161" stroke="#007C0C" stroke-width="1.7" stroke-miterlimit="22.9256"/>
<path d="M23.5352 33.6622V43.9161" stroke="black" stroke-opacity="0.2" stroke-width="1.7" stroke-miterlimit="22.9256"/>
</g>
<defs>
<clipPath id="clip0_201_367">
<rect width="50" height="50" fill="white"/>
</clipPath>
</defs>
</svg>
