<svg width="20" height="20" viewBox="0 0 20 20" fill="none" xmlns="http://www.w3.org/2000/svg">
    <rect width="20" height="20" rx="10" fill="#F00311" />
    <path
        d="M15.4784 5.73913H13.8632C14.0191 5.47029 14.1089 5.1586 14.1089 4.8261C14.1089 3.81919 13.2897 3 12.2828 3C11.3311 3 10.4913 3.488 10.0002 4.22683C9.50905 3.488 8.6693 3 7.71757 3C6.71067 3 5.89148 3.81919 5.89148 4.8261C5.89148 5.1586 5.98122 5.47032 6.13713 5.73913H4.52191C3.76673 5.73913 3.15234 6.35352 3.15234 7.1087V9.23913C3.15234 9.49124 3.35674 9.69566 3.60887 9.69566H4.06541V15.6304C4.06541 16.3856 4.67979 17 5.43497 17C5.81694 17 14.1448 17 14.5654 17C15.3206 17 15.935 16.3856 15.935 15.6304V9.69566H16.3915C16.6436 9.69566 16.848 9.49127 16.848 9.23913V7.1087C16.848 6.35352 16.2336 5.73913 15.4784 5.73913ZM7.71757 3.91304C8.72448 3.91304 9.54367 4.73223 9.54367 5.73913C9.34373 5.73913 7.94991 5.73913 7.71757 5.73913C7.21412 5.73913 6.80454 5.32955 6.80454 4.8261C6.80451 4.32264 7.21412 3.91304 7.71757 3.91304ZM8.63061 16.087H5.43497C5.18325 16.087 4.97844 15.8822 4.97844 15.6304V9.69566H8.63061V16.087ZM8.63061 8.7826C8.44021 8.7826 4.25722 8.7826 4.06541 8.7826V7.1087C4.06541 6.85697 4.27021 6.65217 4.52194 6.65217C4.60443 6.65217 8.54054 6.65217 8.63064 6.65217V8.7826H8.63061ZM10.4567 16.087H9.54367V9.69566H10.4567V16.087ZM10.4567 8.7826H9.54367V6.65217C9.87407 6.65217 10.1263 6.65217 10.4567 6.65217V8.7826ZM12.2828 3.91304C12.7862 3.91304 13.1958 4.32262 13.1958 4.82607C13.1958 5.32952 12.7862 5.73911 12.2828 5.73911C12.073 5.73911 10.6535 5.73911 10.4567 5.73911C10.4567 4.73223 11.2759 3.91304 12.2828 3.91304ZM15.0219 15.6304C15.0219 15.8822 14.8171 16.087 14.5654 16.087H11.3697V9.69566H15.0219V15.6304H15.0219ZM15.9349 8.7826C15.743 8.7826 11.56 8.7826 11.3697 8.7826V6.65217C11.4599 6.65217 15.396 6.65217 15.4784 6.65217C15.7302 6.65217 15.935 6.85697 15.935 7.1087V8.7826H15.9349Z"
        fill="white" />
</svg>