<svg width="197" height="38" viewBox="0 0 197 38" fill="none" xmlns="http://www.w3.org/2000/svg">
<g clip-path="url(#clip0_1831_17676)">
<path d="M25.8185 23.5588H21.657C21.9071 23.4785 22.1567 23.3914 22.4002 23.2974C23.9927 22.6833 24.8002 21.9614 24.8002 21.1517C24.8002 19.9071 23.7552 19.4889 22.8332 19.1203C22.4381 18.9622 22.0298 18.7987 21.6953 18.5767C21.5153 18.4574 21.2689 18.5013 21.1453 18.6748C21.0215 18.8486 21.067 19.0861 21.247 19.2055C21.65 19.473 22.0976 19.6521 22.5302 19.8252C23.4749 20.2031 24.0092 20.4509 24.0092 21.1517C24.0092 21.5987 23.3158 22.1224 22.1067 22.5889C20.6579 23.1476 18.9766 23.4503 18.2884 23.5588H16.9931C17.8803 22.8912 18.509 21.9767 18.9113 20.7663C19.4011 19.2932 20.0995 18.2112 21.176 17.2581C21.4747 16.9936 21.6075 16.6201 21.561 16.2658L23.8166 14.6467C23.878 14.6028 23.9625 14.6012 24.0269 14.643C24.5156 14.9596 25.0182 15.0462 25.4802 14.8934C25.8446 14.7729 26.1301 14.5209 26.2844 14.1836C26.4445 13.8334 26.4428 13.4244 26.2795 13.0613C26.0655 12.5855 25.6098 12.2617 25.0901 12.2035C25.1881 11.7076 25.0042 11.191 24.5977 10.8516C24.2877 10.5926 23.8838 10.4684 23.4893 10.5109C23.1099 10.5518 22.7751 10.7395 22.5467 11.0388C22.2572 11.4184 22.1924 11.9069 22.3592 12.4515C22.3813 12.5233 22.3545 12.6006 22.2933 12.6435L20.016 14.2355C19.6794 14.0866 19.2703 14.097 18.9193 14.2928C17.6545 14.9983 16.3755 15.3171 14.772 15.3269C13.395 15.3352 12.2628 15.6669 11.3109 16.3415C10.2484 17.094 9.53629 18.1802 9.30558 19.3995C9.07342 20.6272 9.35584 21.8426 10.1009 22.8216C10.3088 23.0947 10.5485 23.3414 10.8143 23.5588H5.80471C2.76135 22.9673 1.2819 21.5031 1.2819 19.0833C1.2819 17.2422 2.13451 15.3445 3.62138 13.8768C5.22833 12.2901 7.37479 11.4164 9.66483 11.4164C12.2884 11.4164 15.0157 12.3398 17.1478 13.9499C17.3198 14.0799 17.5684 14.0505 17.7029 13.8845C17.8376 13.7186 17.8074 13.4789 17.6354 13.3489C15.367 11.6358 12.4618 10.6532 9.66483 10.6532C7.15994 10.6532 4.81284 11.6086 3.05572 13.3433C1.42568 14.9524 0.490884 17.0447 0.490884 19.0833C0.490884 21.1501 1.43701 22.6479 3.30723 23.5588H1.07611C0.453599 23.5588 -0.0527344 24.0473 -0.0527344 24.648C-0.0527344 25.2486 0.453599 25.7373 1.07611 25.7373H2.51024C2.53249 25.7373 2.55227 25.75 2.56071 25.7699L2.81182 26.363C3.10866 27.0642 3.80759 27.5171 4.59264 27.5171H22.3019C23.087 27.5171 23.7859 27.0642 24.0828 26.363L24.3339 25.7701C24.3423 25.7502 24.3621 25.7373 24.3843 25.7373H25.8185C26.4408 25.7373 26.9473 25.2486 26.9473 24.648C26.9473 24.0475 26.441 23.5588 25.8185 23.5588ZM22.758 13.261C23.0897 13.0281 23.2343 12.6159 23.1177 12.2351C23.0522 12.0212 23.0104 11.7183 23.1838 11.4909C23.3068 11.3296 23.4656 11.2815 23.5773 11.2693C23.7534 11.2504 23.9363 11.3085 24.0801 11.4285C24.337 11.6432 24.359 11.9334 24.2939 12.1333C24.2317 12.3245 24.2688 12.535 24.3932 12.6972C24.5162 12.8599 24.7131 12.9569 24.9205 12.9569H24.9207C25.1381 12.9569 25.4184 13.0643 25.5538 13.3652C25.6294 13.5333 25.632 13.7195 25.5606 13.8756C25.5152 13.9745 25.4199 14.1063 25.2236 14.1713C24.9469 14.2627 24.6598 14.1337 24.4678 14.0093C24.1264 13.7881 23.6755 13.7977 23.3451 14.0338L21.2065 15.5687L20.5988 14.7704L22.758 13.261ZM10.7387 22.3701C10.1236 21.5617 9.89101 20.5554 10.0838 19.5366C10.2781 18.5097 10.8802 17.5932 11.7789 16.9566C12.5918 16.3806 13.5725 16.0972 14.777 16.0901C16.5255 16.0793 17.925 15.7289 19.3152 14.9534C19.4683 14.8681 19.6492 14.8807 19.7643 14.9767C19.766 14.9781 19.7676 14.9792 19.7692 14.9806C19.7851 14.9945 19.7999 15.01 19.8129 15.0271L20.7172 16.2157C20.7298 16.2322 20.7411 16.2507 20.7504 16.2707C20.7508 16.2715 20.7512 16.2721 20.7516 16.2727C20.8138 16.4081 20.7722 16.5798 20.641 16.6959C19.458 17.7433 18.6921 18.9269 18.1582 20.5332C17.7903 21.6398 17.2162 22.4577 16.4033 23.0335C16.1001 23.2483 15.7695 23.425 15.4203 23.5588H12.3133C11.6819 23.3056 11.1387 22.8958 10.7387 22.3701ZM25.8185 24.9741H8.3819C8.16354 24.9741 7.98639 25.1448 7.98639 25.3557C7.98639 25.5664 8.16354 25.7373 8.3819 25.7373H23.4932L23.3507 26.0744C23.1758 26.4872 22.7642 26.7539 22.3019 26.7539H4.59264C4.13039 26.7539 3.71881 26.4872 3.54392 26.0744L3.40137 25.7373H6.54175C6.76011 25.7373 6.93726 25.5664 6.93726 25.3557C6.93726 25.1448 6.76011 24.9741 6.54175 24.9741H1.07611C0.889688 24.9741 0.738283 24.8278 0.738283 24.648C0.738283 24.4683 0.889688 24.322 1.07611 24.322H25.8185C26.0047 24.322 26.1563 24.4683 26.1563 24.648C26.1563 24.8278 26.0047 24.9741 25.8185 24.9741Z" fill="#F00311"/>
</g>
<path d="M21.5 18.9998C23.5 16.5 30 12.9999 31 13.9998C32.4839 15.4835 24.7041 19.1671 29 23.9999C31.5 26.8124 33.5 26.4999 34.5 26.4999" stroke="#F00311"/>
<path d="M33.5386 28.4688C33.2611 28.4688 33.1061 28.3056 33.0734 27.9792C33.1061 27.6528 33.1632 27.3264 33.2448 27L32.5349 26.8531C31.5557 26.6573 31.0498 26.3962 31.0171 26.0698C31.0008 26.0371 30.9926 25.9718 30.9926 25.8739C30.9926 25.776 31.0416 25.6781 31.1395 25.5802C31.2374 25.4659 31.3272 25.4088 31.4088 25.4088C31.4741 25.4088 31.5557 25.4251 31.6536 25.4578C31.7842 25.4904 31.9718 25.5638 32.2166 25.6781C32.4614 25.8086 32.8858 25.8739 33.4896 25.8739L34.1261 23.2056C34.4035 21.7694 34.681 20.5046 34.9584 19.4112L35.8642 15.5434L35.1298 15.5189C34.885 15.5189 34.7626 15.3802 34.7626 15.1027C34.7626 14.711 35.2032 14.5152 36.0845 14.5152C36.4435 13.0301 36.7618 11.3818 37.0392 9.57024C37.3003 7.84032 37.6594 6.24912 38.1163 4.79664C37.8226 4.9272 37.5533 5.09856 37.3085 5.31072C37.1616 5.60448 36.9494 5.75136 36.672 5.75136C36.5741 5.75136 36.4762 5.71056 36.3782 5.62896C36.2966 5.54736 36.2558 5.42496 36.2558 5.26176C36.2558 4.90272 36.4843 4.57632 36.9413 4.28256C37.3982 3.9888 37.9531 3.77664 38.6059 3.64608C38.7038 3.48288 38.8344 3.40128 38.9976 3.40128C39.1118 3.40128 39.2342 3.46656 39.3648 3.59712C40.8826 3.64608 42.0984 4.16832 43.0123 5.16384C43.9262 6.15936 44.3832 7.48128 44.3832 9.1296C44.3832 10.0109 44.1466 10.8758 43.6733 11.7245C43.2163 12.5568 42.6125 13.2586 41.8618 13.8298C41.111 14.401 40.3277 14.7437 39.5117 14.8579C40.4093 14.9069 41.2579 15.2088 42.0576 15.7637C42.8573 16.3022 43.5019 16.9795 43.9915 17.7955C44.4811 18.5952 44.7259 19.3949 44.7259 20.1946C44.7259 22.4794 43.8528 24.2174 42.1066 25.4088C40.3603 26.6002 37.9286 27.1958 34.8115 27.1958L34.2974 27.1714C34.2485 27.3998 34.224 27.5957 34.224 27.7589C34.175 27.9547 34.0853 28.1179 33.9547 28.2485C33.8242 28.3954 33.6854 28.4688 33.5386 28.4688ZM37.1616 14.4907C38.2714 14.4091 39.2832 14.1317 40.1971 13.6584C41.1274 13.1688 41.8536 12.5323 42.3758 11.749C42.9144 10.9656 43.1837 10.1006 43.1837 9.15408C43.1837 7.71792 42.8165 6.61632 42.0821 5.84928C41.3477 5.08224 40.3603 4.6824 39.12 4.64976C38.712 6.05328 38.3285 7.83216 37.9694 9.9864C37.5941 12.2712 37.3248 13.7726 37.1616 14.4907ZM35.4725 26.0942C37.1861 26.0942 38.6467 25.8658 39.8544 25.4088C41.0784 24.9355 42.0086 24.2664 42.6451 23.4014C43.2816 22.5365 43.5998 21.5165 43.5998 20.3414C43.5998 19.5418 43.3387 18.7829 42.8165 18.0648C42.3106 17.3304 41.6414 16.7429 40.8091 16.3022C39.9768 15.8616 39.1118 15.6413 38.2142 15.6413C37.692 15.6413 37.2595 15.625 36.9168 15.5923C36.2803 18.3178 35.7989 20.4557 35.4725 22.0061C35.2603 22.9853 35.1298 23.5483 35.0808 23.6952L34.9094 24.4051L34.7136 25.213C34.632 25.5394 34.5667 25.8168 34.5178 26.0453C34.8115 26.0779 35.1298 26.0942 35.4725 26.0942ZM47.1904 27.2448C46.9292 27.2448 46.7824 27.0734 46.7497 26.7307L47.019 25.1885C47.1822 24.144 47.378 23.0098 47.6065 21.7858L47.7534 20.9045C48.1124 18.8318 48.3328 17.6242 48.4144 17.2814C48.5939 16.4491 48.7163 15.7474 48.7816 15.1762C48.8305 15.013 48.9203 14.8742 49.0508 14.76C49.1977 14.6458 49.3446 14.5886 49.4915 14.5886C49.6873 14.5886 49.826 14.7274 49.9076 15.0048C49.9076 15.2659 49.875 15.5597 49.8097 15.8861C49.7444 16.0982 49.6628 16.547 49.5649 17.2325L49.1488 19.4112C50.9766 16.8653 52.527 15.2904 53.8 14.6866C54.0937 14.5397 54.3875 14.4662 54.6812 14.4662C54.9587 14.4662 55.2606 14.6702 55.587 15.0782C55.9297 15.4862 56.1011 15.8453 56.1011 16.1554C56.1011 16.4165 56.0358 16.6205 55.9052 16.7674C55.7747 16.9142 55.6196 16.9877 55.4401 16.9877C55.1953 16.9877 54.975 16.7592 54.7792 16.3022C54.7628 16.2696 54.722 16.188 54.6568 16.0574C54.6078 15.9106 54.5507 15.8045 54.4854 15.7392C54.4364 15.6576 54.3793 15.6168 54.314 15.6168C54.1998 15.6168 53.9713 15.7147 53.6286 15.9106C53.3022 16.0901 52.7718 16.5715 52.0374 17.3549C51.3193 18.1219 50.7644 18.7747 50.3728 19.3133C50.5196 20.8474 50.8297 22.2019 51.303 23.377C51.7763 24.552 52.2904 25.3517 52.8452 25.776C53.139 25.9882 53.4164 26.0942 53.6776 26.0942C53.955 26.0942 54.1753 26.0208 54.3385 25.8739C54.518 25.727 54.6568 25.4904 54.7547 25.164C54.8852 24.8376 54.9913 24.6662 55.0729 24.6499C55.1219 24.6173 55.2116 24.601 55.3422 24.601C55.4401 24.601 55.5544 24.6581 55.6849 24.7723C55.7992 24.8866 55.8563 25.0987 55.8563 25.4088C55.8563 25.7352 55.7176 26.0453 55.4401 26.339C54.9016 26.9429 54.363 27.2448 53.8244 27.2448C52.2577 27.2448 51.0419 25.9555 50.1769 23.377C49.8016 22.2998 49.5649 21.3778 49.467 20.6107C49.418 20.676 49.2385 20.9861 48.9284 21.541L48.6347 22.0795C48.3736 23.4994 48.1206 24.9926 47.8758 26.5594C47.8595 26.7389 47.7779 26.8939 47.631 27.0245C47.4841 27.1714 47.3372 27.2448 47.1904 27.2448ZM58.6717 37.2082C58.1331 37.2082 57.6598 37.0694 57.2518 36.792C56.8602 36.5146 56.5582 36.1637 56.3461 35.7394C56.1339 35.3314 56.0278 34.9234 56.0278 34.5154C56.0278 33.5525 56.2808 32.6467 56.7867 31.7981C57.2926 30.9658 58.0189 30.1498 58.9654 29.3501C59.3245 29.0237 60.1486 28.379 61.4379 27.4162L62.6374 26.5104L62.7598 25.9474L62.9312 25.1885C63.0128 24.7968 63.0699 24.5357 63.1026 24.4051L63.2494 23.7442C62.9557 24.6418 62.4661 25.4414 61.7806 26.1432C61.1115 26.845 60.4669 27.1958 59.8467 27.1958C59.1939 27.1958 58.6717 26.951 58.28 26.4614C57.8883 25.9555 57.6925 25.2701 57.6925 24.4051C57.6925 23.0342 58.0842 20.8718 58.8675 17.9179C59.2592 16.4491 59.455 15.6576 59.455 15.5434L59.4061 15.2496C59.3898 15.1354 59.4958 14.9966 59.7243 14.8334C59.9528 14.6702 60.1405 14.5886 60.2874 14.5886C60.6138 14.5886 60.777 14.7518 60.777 15.0782C60.777 15.4046 60.475 16.7755 59.8712 19.1909C59.2674 21.6062 58.9654 23.2464 58.9654 24.1114C58.9654 24.96 59.0715 25.4904 59.2837 25.7026C59.4795 25.9147 59.7243 26.0208 60.0181 26.0208C60.6382 26.0208 61.2992 25.4986 62.001 24.4541C62.5558 23.6381 63.0454 22.5446 63.4698 21.1738C63.9104 19.7866 64.3184 18.3259 64.6938 16.7918L64.8162 16.3022C64.9957 15.5678 65.1507 15.1109 65.2813 14.9314C65.4118 14.7355 65.5914 14.6376 65.8198 14.6376C65.9994 14.6376 66.1218 14.6866 66.187 14.7845C66.2686 14.8661 66.2931 14.9558 66.2605 15.0538C66.0157 16.2614 65.6158 18.0322 65.061 20.3659C64.555 22.4875 64.196 24.193 63.9838 25.4822C63.9349 25.5149 64.2205 25.2538 64.8406 24.6989C65.167 24.3725 65.4118 24.144 65.575 24.0134C65.7382 23.8829 65.8933 23.8176 66.0402 23.8176C66.3176 23.8176 66.4563 23.9563 66.4563 24.2338C66.4563 24.4296 66.391 24.5928 66.2605 24.7234C65.6077 25.3109 64.759 26.0126 63.7146 26.8286C62.8986 31.1045 62.1642 33.887 61.5114 35.1763C61.1523 35.8944 60.6219 36.4656 59.9202 36.8899C59.5611 37.1021 59.145 37.2082 58.6717 37.2082ZM58.6717 36.0331C59.2429 36.0331 59.757 35.6659 60.2139 34.9315C60.524 34.4419 60.8586 33.6586 61.2176 32.5814L61.5358 31.3819L61.7806 30.4272L62.3437 27.9302L61.9275 28.2974C61.3563 28.787 60.7933 29.2522 60.2384 29.6928C58.2637 31.2922 57.2763 32.8181 57.2763 34.2706C57.2763 34.9397 57.4966 35.4538 57.9373 35.8128C58.1005 35.9597 58.3453 36.0331 58.6717 36.0331ZM70.3222 27.2938C69.5389 27.2938 68.9187 27.0082 68.4618 26.437C68.0211 25.8494 67.8008 25.1477 67.8008 24.3317C67.8008 22.8955 68.0619 21.4104 68.5842 19.8763C69.1227 18.3422 69.8245 17.0611 70.6894 16.033C71.5544 15.0048 72.4683 14.4907 73.4312 14.4907C74.133 14.4907 74.5899 14.7437 74.8021 15.2496C74.851 15.3312 74.8918 15.421 74.9245 15.5189C74.9571 15.6005 74.9898 15.6821 75.0224 15.7637C75.104 15.9922 75.1856 16.1227 75.2672 16.1554C75.3325 16.3186 75.3651 16.441 75.3651 16.5226C75.3651 16.6694 75.2917 16.8082 75.1448 16.9387C75.0142 17.0693 74.8674 17.1346 74.7042 17.1346C74.3614 17.1346 74.1411 16.8816 74.0432 16.3757C73.9453 15.8698 73.676 15.6168 73.2354 15.6168C72.6478 15.6168 72.0277 16.0738 71.3749 16.9877C70.7221 17.8853 70.159 19.0277 69.6858 20.4149C69.2288 21.7205 69.0003 22.8874 69.0003 23.9155C69.0003 25.368 69.5307 26.0942 70.5915 26.0942C71.1301 26.0942 71.6278 25.8413 72.0848 25.3354C72.1338 25.2701 72.2235 25.164 72.3541 25.0171C72.4846 24.8539 72.607 24.7397 72.7213 24.6744C72.8355 24.5928 72.9416 24.552 73.0395 24.552C73.3496 24.552 73.5046 24.6907 73.5046 24.9682C73.5046 25.2946 73.3496 25.6454 73.0395 26.0208C72.7294 26.3798 72.3296 26.6818 71.84 26.9266C71.3504 27.1714 70.8445 27.2938 70.3222 27.2938ZM84.0278 27.2693C83.5708 27.2693 83.22 27.1469 82.9752 26.9021C82.7467 26.6573 82.6324 26.339 82.6324 25.9474C82.6324 25.5394 82.7385 24.8376 82.9507 23.8421L83.5137 20.88C82.3224 21.7776 81.2208 22.2264 80.2089 22.2264C79.4745 22.2264 78.9115 22.0306 78.5198 21.6389C78.4872 21.8021 78.4545 21.9653 78.4219 22.1285C78.4056 22.2917 78.3811 22.4549 78.3484 22.6181C78.2832 23.1566 78.2016 23.7034 78.1036 24.2582C77.8099 26.2003 77.3692 27.1714 76.7817 27.1714C76.5369 27.1714 76.39 27 76.3411 26.6573C76.488 25.3843 76.847 23.4096 77.4182 20.7331C78.0057 18.0403 78.4219 16.2206 78.6667 15.2741C78.7156 15.1109 78.8054 14.9722 78.936 14.8579C79.0828 14.7437 79.2297 14.6866 79.3766 14.6866C79.5724 14.6866 79.7112 14.8253 79.7928 15.1027C79.7928 15.3638 79.6459 16.2125 79.3521 17.6486C79.1236 18.7421 78.9441 19.6805 78.8136 20.4638C79.1726 20.8718 79.7356 21.0758 80.5027 21.0758C81.2534 21.0758 82.0776 20.7005 82.9752 19.9498C83.2526 19.705 83.5137 19.4438 83.7585 19.1664L84.1257 17.5262C84.4032 16.3349 84.7051 15.5107 85.0315 15.0538C85.1947 14.7926 85.415 14.6621 85.6924 14.6621C85.9699 14.6621 86.1086 14.8171 86.1086 15.1272V15.2496C85.211 18.3341 84.648 20.5699 84.4195 21.9571C84.2073 23.1485 84.0686 24.0869 84.0033 24.7723C83.9544 25.3109 83.9217 25.6046 83.9054 25.6536L83.8809 25.9718C83.8809 26.0698 83.9217 26.1187 84.0033 26.1187C84.0686 26.1187 84.1257 26.0942 84.1747 26.0453C84.2563 25.9963 84.3868 25.9718 84.5664 25.9718C84.8438 25.9718 84.9825 26.1187 84.9825 26.4125C84.9825 26.9837 84.6643 27.2693 84.0278 27.2693ZM90.3079 27.2203C89.4592 27.2203 88.8227 26.8858 88.3984 26.2166C87.9904 25.5475 87.7864 24.7478 87.7864 23.8176C87.7864 22.3325 88.0312 20.8963 88.5208 19.5091C89.0267 18.1056 89.7122 16.9469 90.5771 16.033C91.4095 15.1027 92.3479 14.6376 93.3923 14.6376C94.8938 14.6376 95.6445 15.78 95.6445 18.0648C95.6445 19.2072 95.4568 20.3741 95.0815 21.5654C94.7061 22.7568 94.2165 23.8176 93.6127 24.7478C93.0251 25.6781 92.4131 26.3472 91.7767 26.7552C91.2871 27.0653 90.7975 27.2203 90.3079 27.2203ZM90.5037 26.1187C91.0096 26.1187 91.5727 25.6781 92.1928 24.7968C92.8293 23.9155 93.3597 22.8221 93.784 21.5165C94.2247 20.2109 94.445 19.1011 94.445 18.1872C94.445 17.2406 94.3879 16.6531 94.2736 16.4246C94.1757 16.1798 94.0533 16.0085 93.9064 15.9106C93.7595 15.8126 93.5311 15.7637 93.221 15.7637C92.8783 15.7637 92.5192 15.8942 92.1439 16.1554C91.3931 16.6286 90.7403 17.4446 90.1855 18.6034C89.3205 20.3333 88.888 22.0142 88.888 23.6462C88.888 24.756 89.2063 25.523 89.8427 25.9474C90.0712 26.0616 90.2915 26.1187 90.5037 26.1187ZM104.35 27.2448C104.089 27.2448 103.942 27.0734 103.91 26.7307L104.179 25.1885C104.342 24.144 104.538 23.0098 104.766 21.7858L104.913 20.9045C105.272 18.8318 105.493 17.6242 105.574 17.2814C105.754 16.4491 105.876 15.7474 105.941 15.1762C105.99 15.013 106.08 14.8742 106.211 14.76C106.358 14.6458 106.504 14.5886 106.651 14.5886C106.847 14.5886 106.986 14.7274 107.067 15.0048C107.067 15.2659 107.035 15.5597 106.97 15.8861C106.904 16.0982 106.823 16.547 106.725 17.2325L106.309 19.4112C108.136 16.8653 109.687 15.2904 110.96 14.6866C111.254 14.5397 111.547 14.4662 111.841 14.4662C112.119 14.4662 112.42 14.6702 112.747 15.0782C113.09 15.4862 113.261 15.8453 113.261 16.1554C113.261 16.4165 113.196 16.6205 113.065 16.7674C112.935 16.9142 112.779 16.9877 112.6 16.9877C112.355 16.9877 112.135 16.7592 111.939 16.3022C111.923 16.2696 111.882 16.188 111.817 16.0574C111.768 15.9106 111.711 15.8045 111.645 15.7392C111.596 15.6576 111.539 15.6168 111.474 15.6168C111.36 15.6168 111.131 15.7147 110.788 15.9106C110.462 16.0901 109.932 16.5715 109.197 17.3549C108.479 18.1219 107.924 18.7747 107.533 19.3133C107.679 20.8474 107.99 22.2019 108.463 23.377C108.936 24.552 109.45 25.3517 110.005 25.776C110.299 25.9882 110.576 26.0942 110.837 26.0942C111.115 26.0942 111.335 26.0208 111.498 25.8739C111.678 25.727 111.817 25.4904 111.915 25.164C112.045 24.8376 112.151 24.6662 112.233 24.6499C112.282 24.6173 112.371 24.601 112.502 24.601C112.6 24.601 112.714 24.6581 112.845 24.7723C112.959 24.8866 113.016 25.0987 113.016 25.4088C113.016 25.7352 112.877 26.0453 112.6 26.339C112.061 26.9429 111.523 27.2448 110.984 27.2448C109.418 27.2448 108.202 25.9555 107.337 23.377C106.961 22.2998 106.725 21.3778 106.627 20.6107C106.578 20.676 106.398 20.9861 106.088 21.541L105.795 22.0795C105.533 23.4994 105.28 24.9926 105.036 26.5594C105.019 26.7389 104.938 26.8939 104.791 27.0245C104.644 27.1714 104.497 27.2448 104.35 27.2448ZM122.637 27.049C122.262 27.049 121.911 26.8531 121.584 26.4614C121.274 26.0534 121.119 25.621 121.119 25.164C121.119 24.1522 121.388 22.4386 121.927 20.0232C121.519 20.9045 120.989 21.8102 120.336 22.7405C119.699 23.6544 119.071 24.4622 118.451 25.164C117.831 25.8658 117.374 26.3227 117.08 26.5349C116.672 26.845 116.223 27 115.734 27C114.803 27 114.338 26.4125 114.338 25.2374C114.338 24.095 114.771 22.6752 115.636 20.9779C116.501 19.2643 117.529 17.7792 118.72 16.5226C119.912 15.2822 120.874 14.6621 121.609 14.6621C122.36 14.6621 122.784 14.9885 122.882 15.6413C122.931 15.8371 122.955 16.0493 122.955 16.2778C123.037 16.2288 123.127 16.2043 123.224 16.2043C123.6 16.2043 123.788 16.3838 123.788 16.7429V16.8408L123.494 17.9179C123.265 18.7339 123.029 19.9416 122.784 21.541C122.539 23.1403 122.417 24.4704 122.417 25.5312L122.661 25.6781C123.053 25.9229 123.249 26.1677 123.249 26.4125C123.249 26.5757 123.192 26.7226 123.078 26.8531C122.963 26.9837 122.816 27.049 122.637 27.049ZM115.929 25.727C116.109 25.727 116.256 25.6699 116.37 25.5557C118.035 24.1358 119.512 22.1693 120.801 19.656C121.535 18.2688 121.935 17.4446 122 17.1835C122.033 16.8898 122.049 16.7102 122.049 16.645C122.049 16.4818 122.009 16.3349 121.927 16.2043C121.845 16.0738 121.739 16.0085 121.609 16.0085C121.446 16.0085 121.233 16.0819 120.972 16.2288C120.32 16.5715 119.544 17.2978 118.647 18.4075C117.765 19.5173 117.039 20.6923 116.468 21.9326C115.864 23.1893 115.562 24.3072 115.562 25.2864C115.562 25.5802 115.685 25.727 115.929 25.727ZM126.559 27.2448C126.298 27.2448 126.151 27.0734 126.118 26.7307L126.388 25.1885C126.551 24.144 126.747 23.0098 126.975 21.7858L127.122 20.9045C127.481 18.8318 127.702 17.6242 127.783 17.2814C127.963 16.4491 128.085 15.7474 128.15 15.1762C128.199 15.013 128.289 14.8742 128.42 14.76C128.566 14.6458 128.713 14.5886 128.86 14.5886C129.056 14.5886 129.195 14.7274 129.276 15.0048C129.276 15.2659 129.244 15.5597 129.178 15.8861C129.113 16.0982 129.032 16.547 128.934 17.2325L128.518 19.4112C130.345 16.8653 131.896 15.2904 133.169 14.6866C133.462 14.5397 133.756 14.4662 134.05 14.4662C134.327 14.4662 134.629 14.6702 134.956 15.0782C135.298 15.4862 135.47 15.8453 135.47 16.1554C135.47 16.4165 135.405 16.6205 135.274 16.7674C135.143 16.9142 134.988 16.9877 134.809 16.9877C134.564 16.9877 134.344 16.7592 134.148 16.3022C134.132 16.2696 134.091 16.188 134.026 16.0574C133.977 15.9106 133.919 15.8045 133.854 15.7392C133.805 15.6576 133.748 15.6168 133.683 15.6168C133.569 15.6168 133.34 15.7147 132.997 15.9106C132.671 16.0901 132.141 16.5715 131.406 17.3549C130.688 18.1219 130.133 18.7747 129.742 19.3133C129.888 20.8474 130.198 22.2019 130.672 23.377C131.145 24.552 131.659 25.3517 132.214 25.776C132.508 25.9882 132.785 26.0942 133.046 26.0942C133.324 26.0942 133.544 26.0208 133.707 25.8739C133.887 25.727 134.026 25.4904 134.123 25.164C134.254 24.8376 134.36 24.6662 134.442 24.6499C134.491 24.6173 134.58 24.601 134.711 24.601C134.809 24.601 134.923 24.6581 135.054 24.7723C135.168 24.8866 135.225 25.0987 135.225 25.4088C135.225 25.7352 135.086 26.0453 134.809 26.339C134.27 26.9429 133.732 27.2448 133.193 27.2448C131.626 27.2448 130.411 25.9555 129.546 23.377C129.17 22.2998 128.934 21.3778 128.836 20.6107C128.787 20.676 128.607 20.9861 128.297 21.541L128.003 22.0795C127.742 23.4994 127.489 24.9926 127.245 26.5594C127.228 26.7389 127.147 26.8939 127 27.0245C126.853 27.1714 126.706 27.2448 126.559 27.2448ZM144.791 37.0368C144.008 37.0368 143.347 36.7675 142.808 36.229C142.286 35.7067 142.025 35.0376 142.025 34.2216C142.025 33.4709 142.196 32.7528 142.539 32.0674C142.898 31.3982 143.412 30.7046 144.081 29.9866C144.652 29.3664 145.338 28.7218 146.138 28.0526L148.439 26.1432C148.553 25.7352 148.651 25.3027 148.732 24.8458C148.912 24.1277 149.051 23.5402 149.149 23.0832C148.528 25.0253 147.729 26.2982 146.75 26.9021C146.439 27.0979 146.138 27.1958 145.844 27.1958C145.273 27.1958 144.799 26.9674 144.424 26.5104C144.065 26.0534 143.885 25.4496 143.885 24.6989C143.885 23.279 144.155 21.7939 144.693 20.2435C145.232 18.6768 145.95 17.3386 146.847 16.2288C147.778 15.1027 148.79 14.5397 149.883 14.5397C150.405 14.5397 150.903 14.6702 151.376 14.9314C151.474 14.8824 151.58 14.8579 151.695 14.8579C151.972 14.8579 152.111 14.9885 152.111 15.2496C152.111 15.527 152.062 15.7882 151.964 16.033C151.507 17.2243 150.74 20.3251 149.663 25.3354C149.924 25.1722 150.226 24.9355 150.568 24.6254C150.65 24.5602 150.797 24.4378 151.009 24.2582C151.221 24.0624 151.393 23.9237 151.523 23.8421C151.654 23.7605 151.768 23.7197 151.866 23.7197C152.143 23.7197 152.282 23.8584 152.282 24.1358C152.282 24.348 152.225 24.5112 152.111 24.6254C151.099 25.3925 150.234 26.029 149.516 26.5349L149.124 28.836L149.002 29.448C148.806 30.4762 148.635 31.333 148.488 32.0184C148.341 32.7202 148.161 33.3893 147.949 34.0258C147.639 34.9234 147.215 35.6496 146.676 36.2045C146.154 36.7594 145.526 37.0368 144.791 37.0368ZM145.917 26.0208C146.244 26.0208 146.619 25.8005 147.043 25.3598C147.468 24.9029 147.876 24.3154 148.267 23.5973C148.675 22.8629 149.002 22.0958 149.247 21.2962C149.622 20.1374 149.94 19.0685 150.201 18.0893C150.364 17.5181 150.568 16.7674 150.813 15.8371C150.585 15.625 150.275 15.5189 149.883 15.5189C149.181 15.5189 148.447 15.984 147.68 16.9142C146.929 17.8445 146.293 19.0195 145.77 20.4394C145.264 21.8429 145.011 23.124 145.011 24.2827C145.011 25.4414 145.313 26.0208 145.917 26.0208ZM144.571 35.8128C144.914 35.8128 145.224 35.7312 145.501 35.568C145.779 35.4211 146.04 35.16 146.284 34.7846C146.529 34.393 146.774 33.8462 147.019 33.1445C147.264 32.4427 147.459 31.7246 147.606 30.9902C147.737 30.4354 147.843 29.9294 147.925 29.4725L148.023 28.9339C148.039 28.8034 148.063 28.6646 148.096 28.5178C148.129 28.3709 148.153 28.2158 148.169 28.0526L148.243 27.4651C146.643 28.787 145.403 29.9866 144.522 31.0637C143.657 32.1408 143.224 33.1037 143.224 33.9523C143.224 34.8499 143.42 35.4211 143.812 35.6659C143.975 35.7638 144.228 35.8128 144.571 35.8128ZM157.006 27.2203C156.158 27.2203 155.521 26.8858 155.097 26.2166C154.689 25.5475 154.485 24.7478 154.485 23.8176C154.485 22.3325 154.73 20.8963 155.219 19.5091C155.725 18.1056 156.411 16.9469 157.276 16.033C158.108 15.1027 159.046 14.6376 160.091 14.6376C161.592 14.6376 162.343 15.78 162.343 18.0648C162.343 19.2072 162.155 20.3741 161.78 21.5654C161.405 22.7568 160.915 23.8176 160.311 24.7478C159.724 25.6781 159.112 26.3472 158.475 26.7552C157.986 27.0653 157.496 27.2203 157.006 27.2203ZM157.202 26.1187C157.708 26.1187 158.271 25.6781 158.891 24.7968C159.528 23.9155 160.058 22.8221 160.482 21.5165C160.923 20.2109 161.143 19.1011 161.143 18.1872C161.143 17.2406 161.086 16.6531 160.972 16.4246C160.874 16.1798 160.752 16.0085 160.605 15.9106C160.458 15.8126 160.23 15.7637 159.919 15.7637C159.577 15.7637 159.218 15.8942 158.842 16.1554C158.092 16.6286 157.439 17.4446 156.884 18.6034C156.019 20.3333 155.586 22.0142 155.586 23.6462C155.586 24.756 155.905 25.523 156.541 25.9474C156.77 26.0616 156.99 26.1187 157.202 26.1187ZM173.098 27.1958C172.837 27.1958 172.69 27.0245 172.657 26.6818C172.82 25.2456 173.179 23.7523 173.734 22.2019C174.256 20.7005 174.722 19.0032 175.13 17.1101L174.199 18.2606L173.269 19.3867C172.241 20.725 171.286 21.7531 170.405 22.4712C170.258 22.5691 170.095 22.6181 169.915 22.6181C169.736 22.6181 169.581 22.5365 169.45 22.3733C169.32 22.2101 169.197 21.949 169.083 21.5899C168.985 21.2146 168.887 20.7494 168.789 20.1946L168.422 18.1382L168.3 17.5997C166.994 20.6026 166.105 22.7242 165.631 23.9645C165.582 24.1114 165.525 24.2582 165.46 24.4051C165.411 24.5357 165.362 24.6744 165.313 24.8213L165.019 25.6291C164.987 25.727 164.97 25.8086 164.97 25.8739C164.938 26.0045 164.905 26.1024 164.872 26.1677C164.938 26.2166 164.97 26.3146 164.97 26.4614C164.97 26.592 164.889 26.7226 164.726 26.8531C164.579 26.9837 164.415 27.049 164.236 27.049C163.958 27.049 163.82 26.8939 163.82 26.5838C163.82 25.2619 165.289 21.443 168.226 15.1272C168.422 14.8334 168.618 14.6866 168.814 14.6866C169.189 14.6866 169.377 14.8824 169.377 15.2741C169.377 15.4373 169.328 15.6658 169.23 15.9595C169.23 16.2533 169.287 16.6205 169.401 17.0611C169.466 17.4038 169.573 18.0485 169.719 18.995C169.801 19.6968 169.956 20.4475 170.185 21.2472L171.335 19.9987C173.065 18.0893 174.11 16.8408 174.469 16.2533C175.154 15.0946 175.701 14.5152 176.109 14.5152C176.386 14.5152 176.566 14.6539 176.647 14.9314C176.468 16.6939 176.003 18.7258 175.252 21.0269C174.485 23.377 173.995 25.2048 173.783 26.5104C173.734 26.7062 173.636 26.8694 173.489 27C173.359 27.1306 173.228 27.1958 173.098 27.1958ZM185.821 27.049C185.446 27.049 185.095 26.8531 184.769 26.4614C184.458 26.0534 184.303 25.621 184.303 25.164C184.303 24.1522 184.573 22.4386 185.111 20.0232C184.703 20.9045 184.173 21.8102 183.52 22.7405C182.884 23.6544 182.255 24.4622 181.635 25.164C181.015 25.8658 180.558 26.3227 180.264 26.5349C179.856 26.845 179.407 27 178.918 27C177.988 27 177.522 26.4125 177.522 25.2374C177.522 24.095 177.955 22.6752 178.82 20.9779C179.685 19.2643 180.713 17.7792 181.904 16.5226C183.096 15.2822 184.059 14.6621 184.793 14.6621C185.544 14.6621 185.968 14.9885 186.066 15.6413C186.115 15.8371 186.139 16.0493 186.139 16.2778C186.221 16.2288 186.311 16.2043 186.409 16.2043C186.784 16.2043 186.972 16.3838 186.972 16.7429V16.8408L186.678 17.9179C186.45 18.7339 186.213 19.9416 185.968 21.541C185.723 23.1403 185.601 24.4704 185.601 25.5312L185.846 25.6781C186.237 25.9229 186.433 26.1677 186.433 26.4125C186.433 26.5757 186.376 26.7226 186.262 26.8531C186.148 26.9837 186.001 27.049 185.821 27.049ZM179.114 25.727C179.293 25.727 179.44 25.6699 179.554 25.5557C181.219 24.1358 182.696 22.1693 183.985 19.656C184.72 18.2688 185.119 17.4446 185.185 17.1835C185.217 16.8898 185.234 16.7102 185.234 16.645C185.234 16.4818 185.193 16.3349 185.111 16.2043C185.03 16.0738 184.924 16.0085 184.793 16.0085C184.63 16.0085 184.418 16.0819 184.157 16.2288C183.504 16.5715 182.729 17.2978 181.831 18.4075C180.95 19.5173 180.223 20.6923 179.652 21.9326C179.048 23.1893 178.746 24.3072 178.746 25.2864C178.746 25.5802 178.869 25.727 179.114 25.727ZM190.723 23.0832C190.478 23.0832 190.339 22.92 190.306 22.5936C191.808 16.1146 192.844 10.4189 193.415 5.50656C193.513 4.73952 193.636 3.93168 193.783 3.08304C193.962 2.26704 194.06 1.4592 194.076 0.659518C194.125 0.496318 194.215 0.357599 194.346 0.243359C194.492 0.12912 194.639 0.0719999 194.786 0.0719999C194.982 0.0719999 195.121 0.21072 195.202 0.488159C195.17 1.18992 195.064 2.05488 194.884 3.08304C194.672 4.40496 194.484 5.77584 194.321 7.19568C194.142 8.86032 193.774 11.137 193.219 14.0256C192.681 16.8979 192.077 19.7539 191.408 22.5936C191.228 22.92 191 23.0832 190.723 23.0832ZM190.331 28.1995C190.2 28.1995 190.094 28.1587 190.013 28.0771C189.931 27.9955 189.89 27.8976 189.89 27.7834C189.89 27.6691 189.898 27.5957 189.915 27.563C189.588 27.4325 189.425 27.1958 189.425 26.8531C189.425 26.5104 189.564 26.2166 189.841 25.9718C190.135 25.727 190.429 25.6046 190.723 25.6046C190.984 25.6046 191.188 25.6944 191.335 25.8739C191.481 26.0371 191.555 26.2656 191.555 26.5594C191.555 26.9021 191.432 27.2611 191.188 27.6365C190.959 28.0118 190.674 28.1995 190.331 28.1995Z" fill="#F00311"/>
<defs>
<clipPath id="clip0_1831_17676">
<rect width="27" height="26" fill="white" transform="translate(0 6)"/>
</clipPath>
</defs>
</svg>
