<svg width="124" height="63" viewBox="0 0 124 63" fill="none" xmlns="http://www.w3.org/2000/svg">
<path fill-rule="evenodd" clip-rule="evenodd" d="M62.0221 55.3468C74.737 55.3468 85.0444 45.0393 85.0444 32.3244C85.0444 19.6095 74.737 9.30206 62.0221 9.30206C49.3072 9.30206 38.9997 19.6095 38.9997 32.3244C38.9997 45.0393 49.3072 55.3468 62.0221 55.3468ZM62.0221 62.0112C78.4176 62.0112 91.7088 48.72 91.7088 32.3244C91.7088 15.9289 78.4176 2.6377 62.0221 2.6377C45.6265 2.6377 32.3353 15.9289 32.3353 32.3244C32.3353 48.72 45.6265 62.0112 62.0221 62.0112Z" fill="#8CC842"/>
<path d="M40.3605 49.5886C40.2235 49.5362 40.0659 49.4256 39.8876 49.2568C39.7094 49.0879 39.5629 48.9072 39.4481 48.7147C39.2558 48.392 39.1539 48.0613 39.1424 47.7226C39.1361 47.3807 39.2171 47.0609 39.3852 46.7632C39.5534 46.4655 39.7988 46.2205 40.1214 46.0281C40.4597 45.8265 40.793 45.7231 41.1214 45.7178C41.4528 45.7177 41.7596 45.8064 42.0417 45.9838C42.329 46.1582 42.5735 46.4145 42.7751 46.7528C42.8589 46.8933 42.9296 47.0415 42.9873 47.1976C43.0482 47.3588 43.0856 47.5163 43.0997 47.6701C43.1057 47.7512 43.0905 47.8202 43.0539 47.8773C43.0257 47.9364 42.983 47.9831 42.9257 48.0172C42.8425 48.0668 42.7458 48.0821 42.6357 48.0631C42.5339 48.0462 42.4536 47.9883 42.3946 47.8894C42.3698 47.8478 42.3513 47.7989 42.339 47.7427C42.3195 47.6274 42.2877 47.5088 42.2434 47.3871C42.2042 47.2623 42.1599 47.1583 42.1102 47.075C41.9489 46.8044 41.7229 46.6323 41.4322 46.5587C41.1446 46.4904 40.8473 46.5477 40.5402 46.7307C40.2123 46.9261 40.009 47.1708 39.9302 47.4646C39.8546 47.7636 39.9036 48.0588 40.0773 48.3502C40.1486 48.4699 40.2455 48.585 40.3677 48.6955C40.49 48.806 40.6072 48.8843 40.7193 48.9303C40.7898 48.9659 40.8453 49.0175 40.8856 49.0851C40.9383 49.1736 40.949 49.2624 40.9176 49.3517C40.8944 49.4431 40.8386 49.5151 40.7502 49.5679C40.6357 49.6361 40.5058 49.643 40.3605 49.5886Z" fill="#007C0C"/>
<path d="M40.6684 50.6104C40.6087 50.534 40.5794 50.4377 40.5806 50.3213C40.5856 50.2097 40.6334 50.1184 40.724 50.0475C40.7622 50.0176 40.8083 49.993 40.8625 49.9737L43.9225 49.0321C44.0345 48.9983 44.1419 49.0027 44.2446 49.0454C44.3473 49.0881 44.4304 49.15 44.4939 49.2311C44.5611 49.317 44.6031 49.4149 44.6199 49.5248C44.6405 49.6395 44.6209 49.7472 44.5612 49.8478L42.9777 52.6458C42.9661 52.6703 42.9507 52.69 42.9317 52.7049C42.9126 52.7199 42.8935 52.7348 42.8744 52.7497C42.7742 52.8282 42.6694 52.8564 42.5598 52.8344C42.4503 52.8125 42.3638 52.7609 42.3003 52.6798C42.2555 52.6226 42.2274 52.5523 42.2159 52.4689C42.2035 52.394 42.2213 52.3185 42.2694 52.2424L42.6651 51.5979C42.6899 51.5707 42.6893 51.5404 42.6632 51.507L41.9068 50.541C41.8807 50.5076 41.8496 50.4974 41.8135 50.5102L41.0913 50.7525C41.0032 50.7676 40.9219 50.7621 40.8474 50.7357C40.7729 50.7094 40.7133 50.6676 40.6684 50.6104ZM42.6667 50.3616L42.9972 50.7838C43.0196 50.8124 43.046 50.8264 43.0762 50.8258C43.115 50.8262 43.1474 50.8086 43.1733 50.7729L43.5357 50.1891C43.5896 50.1007 43.5998 50.035 43.5661 49.9921C43.5325 49.9492 43.464 49.9451 43.3605 49.98L42.7124 50.1989C42.6763 50.2118 42.6519 50.2347 42.6393 50.2677C42.6314 50.2969 42.6405 50.3282 42.6667 50.3616Z" fill="#007C0C"/>
<path d="M43.9694 53.8816C43.8823 53.8062 43.8308 53.7176 43.8149 53.6157C43.8029 53.5092 43.8345 53.4124 43.9098 53.3253L45.4617 51.5315C45.5806 51.3941 45.5713 51.2659 45.4339 51.147L45.0971 50.8556C45.0146 50.7843 44.9677 50.6996 44.9563 50.6017C44.9535 50.5031 44.9877 50.4125 45.0591 50.3301C45.1304 50.2476 45.2131 50.203 45.3071 50.1962C45.4096 50.1887 45.5022 50.2207 45.5846 50.2921L47.2822 51.7606C47.3693 51.836 47.4142 51.9229 47.4171 52.0215C47.4284 52.1195 47.3985 52.2097 47.3271 52.2922C47.2558 52.3746 47.1688 52.4196 47.0663 52.427C46.9723 52.4338 46.8817 52.3995 46.7947 52.3242L46.4648 52.0388C46.3273 51.9199 46.1991 51.9292 46.0802 52.0666L44.5284 53.8604C44.4531 53.9475 44.3619 53.9928 44.2547 53.9962C44.1561 53.999 44.061 53.9608 43.9694 53.8816Z" fill="#007C0C"/>
<path d="M46.1595 55.5011C46.0149 55.4012 45.9288 55.2754 45.901 55.1237C45.8733 54.972 45.9093 54.8239 46.0092 54.6793L47.4449 52.6006C47.5448 52.456 47.6646 52.3731 47.8044 52.3519C47.9477 52.3257 48.0892 52.3608 48.2287 52.4572L49.3579 53.237C49.5672 53.3816 49.603 53.5536 49.4653 53.753C49.4068 53.8378 49.327 53.8894 49.2258 53.9079C49.1281 53.9214 49.0344 53.8972 48.9447 53.8352L48.1745 53.3033C48.0748 53.2344 47.9905 53.2498 47.9216 53.3495L47.7151 53.6486C47.6462 53.7483 47.6616 53.8326 47.7613 53.9015L48.4193 54.356C48.519 54.4248 48.5774 54.5056 48.5943 54.5983C48.6113 54.691 48.5888 54.7823 48.5268 54.872C48.4717 54.9517 48.3911 54.9992 48.285 55.0142C48.1839 55.0327 48.0909 55.0127 48.0062 54.9542L47.3482 54.4997C47.2484 54.4308 47.1642 54.4462 47.0953 54.5459L46.8681 54.875C46.7992 54.9747 46.8146 55.0589 46.9143 55.1278L47.7593 55.7114C47.854 55.7768 47.9098 55.8559 47.9268 55.9486C47.9488 56.0447 47.927 56.1402 47.8616 56.2349C47.8031 56.3196 47.7232 56.3713 47.6221 56.3898C47.5244 56.4033 47.4307 56.3791 47.341 56.3171L46.1595 55.5011Z" fill="#007C0C"/>
<path d="M48.6684 57.0548C48.5701 57.0076 48.5011 56.9342 48.4616 56.8346C48.4247 56.7295 48.4285 56.6305 48.4731 56.5377L49.6845 54.0144C49.7606 53.856 49.8713 53.7513 50.0168 53.7001C50.1678 53.6517 50.328 53.6681 50.4973 53.7493L51.3165 54.1427C51.6497 54.3026 51.8701 54.5294 51.9778 54.823C52.091 55.1193 52.0767 55.4149 51.9351 55.7098C51.8512 55.8846 51.7261 56.0262 51.5599 56.1345C51.3936 56.2429 51.2008 56.3015 50.9814 56.3105C51.0395 56.3854 51.0829 56.4701 51.1115 56.5644C51.1456 56.6615 51.1595 56.7656 51.1531 56.8768L51.1245 57.6292C51.1204 57.7078 51.1078 57.769 51.0868 57.8127C51.0397 57.911 50.9621 57.9746 50.8542 58.0034C50.7489 58.0268 50.6498 58.0162 50.5569 57.9716C50.4968 57.9428 50.4446 57.8975 50.4003 57.8359C50.3614 57.7769 50.3426 57.7041 50.3439 57.6173L50.3905 56.7223C50.3989 56.565 50.3697 56.4368 50.3031 56.3376C50.2445 56.2356 50.1552 56.1557 50.035 56.098L49.822 55.9958C49.7128 55.9433 49.6319 55.9717 49.5795 56.081L49.194 56.8838C49.1495 56.9767 49.0746 57.0416 48.9695 57.0785C48.8671 57.1099 48.7667 57.102 48.6684 57.0548ZM50.076 55.3617L50.5758 55.6016C50.7123 55.6671 50.8372 55.68 50.9504 55.6403C51.069 55.6031 51.1572 55.5245 51.2148 55.4043C51.2751 55.2787 51.2814 55.1608 51.2335 55.0504C51.1938 54.9372 51.1056 54.8479 50.9691 54.7823L50.4694 54.5424C50.3874 54.5031 50.3268 54.5244 50.2875 54.6063L50.0121 55.1798C49.9728 55.2617 49.9941 55.3223 50.076 55.3617Z" fill="#007C0C"/>
<path d="M52.0134 58.8225C51.9056 58.782 51.8277 58.7138 51.7795 58.6181C51.7314 58.5223 51.7265 58.4234 51.7649 58.3213L52.8362 55.4716C52.8767 55.3639 52.9466 55.2898 53.0459 55.2495C53.1452 55.2092 53.2488 55.2092 53.3565 55.2498C53.4699 55.2924 53.5479 55.3605 53.5903 55.4542C53.6385 55.5499 53.6423 55.6517 53.6018 55.7594L52.5305 58.6091C52.49 58.7169 52.4201 58.7909 52.3208 58.8313C52.2292 58.8681 52.1268 58.8651 52.0134 58.8225Z" fill="#007C0C"/>
<path d="M53.7337 59.4318C53.6166 59.4005 53.5286 59.3425 53.4698 59.2578C53.4183 59.1688 53.4074 59.0687 53.4372 58.9574L54.1999 56.1041C54.2406 55.9519 54.3179 55.8503 54.4319 55.7992C54.5474 55.7423 54.6637 55.7295 54.7808 55.7608C54.8627 55.7827 54.9363 55.8243 55.0014 55.8856C55.0681 55.9411 55.1169 56.0168 55.1476 56.1129L55.9026 58.356C55.9151 58.4032 55.9447 58.4331 55.9915 58.4456C56.0501 58.4612 56.0887 58.4339 56.1075 58.3637L56.5084 56.6177C56.5338 56.4991 56.5932 56.4177 56.6865 56.3737C56.7798 56.3297 56.885 56.3233 57.002 56.3546C57.1191 56.3859 57.2041 56.4431 57.2571 56.5262C57.316 56.611 57.3298 56.7119 57.2985 56.8289L56.5382 59.6735C56.499 59.8198 56.4217 59.9214 56.3062 59.9783C56.1906 60.0352 56.0743 60.0481 55.9572 60.0168C55.8811 59.9964 55.8105 59.9556 55.7454 59.8943C55.6787 59.8388 55.63 59.7631 55.5992 59.6671L54.8694 57.3649C54.8569 57.3176 54.8273 57.2878 54.7805 57.2752C54.7161 57.258 54.6737 57.2875 54.6534 57.3636L54.2273 59.1687C54.2034 59.2814 54.1441 59.3628 54.0492 59.4127C53.9559 59.4567 53.8507 59.4631 53.7337 59.4318Z" fill="#007C0C"/>
<path d="M59.1888 60.5627C58.834 60.5188 58.5228 60.3948 58.255 60.1907C57.9872 59.9867 57.787 59.7299 57.6544 59.4205C57.5217 59.1111 57.4781 58.773 57.5234 58.4062C57.5688 58.0394 57.6902 57.7248 57.8875 57.4623C58.0915 57.1945 58.3513 56.9946 58.6667 56.8627C58.9822 56.7308 59.3263 56.6879 59.6991 56.734C59.9636 56.7668 60.197 56.8292 60.3993 56.9214C60.6076 57.0143 60.793 57.1441 60.9555 57.3107C61.042 57.4008 61.0775 57.5089 61.0619 57.6352C61.0492 57.7374 61.0024 57.8201 60.9213 57.8834C60.8402 57.9466 60.7486 57.9719 60.6463 57.9592C60.5802 57.9511 60.5084 57.9147 60.4309 57.8502C60.309 57.7496 60.1819 57.6668 60.0496 57.6015C59.918 57.5303 59.774 57.485 59.6177 57.4657C59.287 57.4248 58.9997 57.5022 58.7557 57.6979C58.5185 57.8883 58.3783 58.1579 58.3352 58.5066C58.2905 58.8674 58.357 59.1686 58.5347 59.4104C58.7123 59.6521 58.9605 59.7927 59.2792 59.8321C59.5738 59.8686 59.8214 59.8412 60.0219 59.75C60.2292 59.6536 60.3443 59.5122 60.3674 59.3258C60.3734 59.2777 60.3553 59.251 60.3132 59.2458L59.7089 59.171C59.5947 59.1569 59.5056 59.1123 59.4416 59.0372C59.3837 58.9629 59.3614 58.8716 59.3748 58.7634C59.3874 58.6612 59.4309 58.5811 59.5052 58.5232C59.5855 58.4659 59.6828 58.4444 59.7971 58.4585L60.7892 58.5813C60.9515 58.6014 61.0639 58.6549 61.1264 58.742C61.1896 58.8231 61.2105 58.9508 61.1889 59.1252C61.1264 59.6303 60.9112 60.0127 60.5433 60.2724C60.1814 60.5329 59.7299 60.6296 59.1888 60.5627Z" fill="#007C0C"/>
<path d="M68.3524 59.9323C68.0789 59.9854 67.8145 59.9904 67.5592 59.9474C67.3029 59.8984 67.0913 59.8098 66.9245 59.6817C66.8452 59.6231 66.7963 59.5462 66.7779 59.451C66.7582 59.3499 66.7796 59.2532 66.8419 59.1608C66.9042 59.0685 66.9889 59.012 67.096 58.9912C67.1971 58.9716 67.2902 58.9905 67.3754 59.048C67.495 59.1236 67.6373 59.1731 67.8023 59.1966C67.9674 59.2201 68.1242 59.2175 68.2729 59.1886C68.4276 59.1586 68.555 59.0999 68.6553 59.0126C68.7545 58.9193 68.7896 58.7983 68.7608 58.6496C68.7365 58.5247 68.6645 58.4399 68.5448 58.3953C68.4298 58.3435 68.2464 58.3205 67.9945 58.3262C67.5464 58.3391 67.1962 58.2836 66.9438 58.1598C66.6903 58.03 66.5335 57.8105 66.4735 57.5012C66.4089 57.1682 66.4854 56.8787 66.703 56.6328C66.9195 56.3809 67.2359 56.2146 67.6523 56.1338C68.0805 56.0507 68.4438 56.0943 68.7423 56.2648C68.8596 56.3284 68.9292 56.4167 68.9511 56.5297C68.9696 56.6249 68.9471 56.7157 68.8836 56.802C68.8249 56.8813 68.745 56.9308 68.6439 56.9504C68.5666 56.9654 68.4912 56.9584 68.4177 56.9295C68.164 56.8306 67.9122 56.8054 67.6624 56.8539C67.5137 56.8827 67.3946 56.9367 67.305 57.0158C67.2155 57.0949 67.1822 57.194 67.2053 57.3129C67.2296 57.4378 67.3259 57.5209 67.4944 57.5623C67.6689 57.6025 67.9135 57.6229 68.2284 57.6235C68.4007 57.6209 68.5746 57.6427 68.7502 57.6889C68.9306 57.7279 69.0887 57.8114 69.2247 57.9393C69.3665 58.0661 69.4623 58.2573 69.5119 58.513C69.5777 58.8521 69.5005 59.154 69.2804 59.4189C69.0662 59.6827 68.7569 59.8538 68.3524 59.9323Z" fill="#007C0C"/>
<path d="M70.9554 59.2069C70.7878 59.2596 70.6356 59.2502 70.4989 59.1789C70.3622 59.1075 70.2675 58.988 70.2148 58.8204L69.4578 56.4101C69.4051 56.2424 69.4134 56.097 69.4826 55.9736C69.55 55.8445 69.6647 55.7545 69.8265 55.7037L71.1357 55.2925C71.3785 55.2162 71.5362 55.2937 71.6088 55.5249C71.6396 55.6232 71.6313 55.7179 71.5837 55.809C71.5343 55.8944 71.4576 55.9534 71.3536 55.9861L70.4605 56.2666C70.3449 56.3029 70.3053 56.3789 70.3416 56.4945L70.4505 56.8413C70.4868 56.9569 70.5628 56.9965 70.6784 56.9602L71.4414 56.7206C71.557 56.6843 71.6565 56.6879 71.7401 56.7315C71.8236 56.7751 71.8818 56.849 71.9144 56.953C71.9435 57.0455 71.9313 57.1382 71.878 57.2312C71.8304 57.3223 71.7575 57.3833 71.6592 57.4142L70.8962 57.6538C70.7806 57.6901 70.741 57.7661 70.7773 57.8817L70.8971 58.2632C70.9334 58.3788 71.0094 58.4184 71.125 58.3821L72.1047 58.0744C72.2145 58.0399 72.3112 58.0445 72.3948 58.0881C72.4841 58.1299 72.546 58.2057 72.5805 58.3155C72.6114 58.4138 72.603 58.5085 72.5554 58.5996C72.506 58.685 72.4293 58.744 72.3253 58.7767L70.9554 59.2069Z" fill="#007C0C"/>
<path d="M73.9447 58.042C73.8476 58.0916 73.7475 58.102 73.6443 58.0731C73.5383 58.0388 73.4619 57.9758 73.415 57.8841L72.141 55.3918C72.061 55.2354 72.0448 55.0838 72.0923 54.9371C72.1451 54.7876 72.2552 54.6701 72.4224 54.5846L73.2316 54.171C73.5607 54.0028 73.8746 53.9647 74.1735 54.0569C74.4778 54.1463 74.7044 54.3367 74.8533 54.628C74.9415 54.8006 74.9784 54.9859 74.9639 55.1838C74.9494 55.3818 74.8793 55.5707 74.7535 55.7507C74.8483 55.7498 74.942 55.7666 75.0344 55.801C75.1322 55.8326 75.2235 55.8847 75.3081 55.9571L75.8895 56.4356C75.9495 56.4865 75.9906 56.5336 76.0127 56.5767C76.0623 56.6738 76.0659 56.774 76.0235 56.8774C75.9783 56.9753 75.9098 57.0477 75.8181 57.0946C75.7588 57.125 75.6912 57.1391 75.6153 57.1371C75.5448 57.1323 75.4754 57.1031 75.4072 57.0495L74.7233 56.4703C74.6032 56.3684 74.4835 56.3139 74.3642 56.3069C74.2476 56.2916 74.1299 56.3144 74.0112 56.375L73.8008 56.4826C73.6929 56.5377 73.6666 56.6192 73.7217 56.7271L74.1271 57.5201C74.1739 57.6119 74.1802 57.7107 74.146 57.8167C74.1089 57.9173 74.0419 57.9924 73.9447 58.042ZM73.4501 55.8964L73.9438 55.6441C74.0786 55.5751 74.1645 55.4836 74.2014 55.3695C74.2438 55.2526 74.2346 55.1348 74.1739 55.0161C74.1105 54.892 74.0204 54.8156 73.9036 54.7868C73.7895 54.7499 73.665 54.7659 73.5301 54.8349L73.0365 55.0872C72.9556 55.1285 72.9358 55.1897 72.9772 55.2706L73.2667 55.837C73.3081 55.9179 73.3692 55.9377 73.4501 55.8964Z" fill="#007C0C"/>
<path d="M77.9713 55.727C77.886 55.7848 77.788 55.8183 77.6771 55.8275C77.5663 55.8368 77.4627 55.8081 77.3665 55.7416L74.8046 53.9207C74.759 53.8858 74.7226 53.8482 74.6954 53.8081C74.6308 53.7128 74.6132 53.6113 74.6427 53.5035C74.6721 53.3957 74.732 53.3113 74.8223 53.2501C74.8825 53.2093 74.9546 53.1861 75.0385 53.1804C75.1241 53.1663 75.2007 53.1876 75.2684 53.2443L77.096 54.6296C77.1839 54.6944 77.2504 54.7116 77.2955 54.681C77.3407 54.6504 77.3511 54.5848 77.3268 54.4842L76.7556 52.2476C76.7332 52.1604 76.7393 52.0831 76.7741 52.0156C76.8105 51.9397 76.8588 51.8814 76.919 51.8406C77.0293 51.7658 77.1401 51.7457 77.2512 51.7802C77.3624 51.8146 77.4469 51.8745 77.5046 51.9597C77.5148 51.9748 77.5267 51.9924 77.5403 52.0124C77.5505 52.0275 77.5574 52.0484 77.5609 52.0753L78.2242 55.1605C78.2502 55.2746 78.2359 55.3831 78.1812 55.486C78.1315 55.5855 78.0616 55.6659 77.9713 55.727Z" fill="#007C0C"/>
<path d="M80.4171 53.8912C80.3285 53.9646 80.2306 53.9985 80.1236 53.9927C80.0166 53.987 79.9282 53.9421 79.8587 53.8582L77.9163 51.5139C77.8428 51.4253 77.8133 51.3278 77.8275 51.2216C77.8418 51.1154 77.8932 51.0255 77.9819 50.9521C78.0752 50.8748 78.173 50.8409 78.2754 50.8505C78.3824 50.8562 78.4726 50.9034 78.5461 50.9921L80.4885 53.3363C80.5619 53.425 80.5915 53.5224 80.5772 53.6286C80.5638 53.7263 80.5104 53.8138 80.4171 53.8912Z" fill="#007C0C"/>
<path d="M83.3956 50.3147C83.3842 50.4609 83.3228 50.6434 83.2114 50.8621C83.1 51.0809 82.9682 51.2726 82.8161 51.4372C82.5612 51.7131 82.2729 51.9046 81.9513 52.0116C81.6252 52.1145 81.2956 52.1275 80.9624 52.0506C80.6293 51.9737 80.3248 51.8078 80.0489 51.5529C79.7597 51.2856 79.566 50.9953 79.4679 50.6819C79.3739 50.364 79.372 50.0447 79.4622 49.7239C79.548 49.3989 79.7246 49.0918 79.9918 48.8026C80.1028 48.6825 80.225 48.5726 80.3583 48.473C80.4956 48.369 80.6361 48.2884 80.7796 48.2313C80.8556 48.2026 80.9262 48.1977 80.9912 48.2166C81.056 48.2269 81.1128 48.2546 81.1617 48.2999C81.2329 48.3656 81.275 48.454 81.2879 48.565C81.3006 48.6674 81.2678 48.7609 81.1897 48.8454C81.1568 48.881 81.1152 48.9126 81.0648 48.9404C80.9597 48.9917 80.855 49.0558 80.7509 49.1328C80.6423 49.2057 80.5551 49.2777 80.4893 49.3489C80.2755 49.5803 80.1745 49.8458 80.1863 50.1455C80.2022 50.4407 80.3415 50.7096 80.604 50.9522C80.8843 51.2112 81.1765 51.3369 81.4806 51.3292C81.7888 51.317 82.0581 51.1863 82.2883 50.9371C82.3829 50.8348 82.4658 50.7093 82.5371 50.5608C82.6085 50.4122 82.6503 50.2776 82.6627 50.1571C82.6768 50.0794 82.7105 50.0116 82.764 49.9537C82.8339 49.8781 82.9161 49.8427 83.0106 49.8475C83.1048 49.8438 83.1897 49.8769 83.2653 49.9468C83.3632 50.0373 83.4067 50.1599 83.3956 50.3147Z" fill="#007C0C"/>
<path d="M84.4803 49.277C84.3771 49.4192 84.2494 49.5025 84.0971 49.5267C83.9448 49.551 83.7975 49.5115 83.6553 49.4084L81.6101 47.9251C81.4679 47.822 81.3878 47.7003 81.3698 47.56C81.3469 47.4161 81.3852 47.2755 81.4848 47.1382L82.2905 46.0274C82.4399 45.8214 82.6126 45.7895 82.8088 45.9318C82.8922 45.9923 82.942 46.0733 82.9581 46.1748C82.9694 46.2728 82.943 46.3659 82.879 46.4542L82.3294 47.2119C82.2583 47.31 82.2718 47.3946 82.3699 47.4658L82.6641 47.6792C82.7622 47.7503 82.8468 47.7368 82.918 47.6388L83.3875 46.9914C83.4586 46.8933 83.5407 46.8368 83.6338 46.822C83.7269 46.8072 83.8176 46.8318 83.9059 46.8958C83.9843 46.9527 84.0299 47.0344 84.0425 47.1408C84.0587 47.2424 84.0365 47.3348 83.976 47.4182L83.5065 48.0656C83.4354 48.1637 83.4489 48.2483 83.547 48.3194L83.8706 48.5542C83.9687 48.6253 84.0533 48.6119 84.1245 48.5138L84.7274 47.6825C84.795 47.5893 84.8753 47.5353 84.9684 47.5204C85.065 47.5007 85.1599 47.5246 85.2531 47.5922C85.3365 47.6527 85.3862 47.7337 85.4024 47.8352C85.4137 47.9332 85.3873 48.0263 85.3233 48.1146L84.4803 49.277Z" fill="#007C0C"/>
<path d="M56.6905 13.8129C58.5465 12.4772 58.9882 10.0395 58.0926 7.66351C57.0339 4.85618 53.7154 1.07638 50.9082 2.13407C48.1003 3.19149 48.1021 8.22028 49.1602 11.0273C50.0388 13.358 51.9234 14.8857 54.1453 14.7345L60.9735 33.4601L63.8303 32.469L56.6905 13.8129Z" fill="#007C0C"/>
<path d="M73.1037 16.601L59.7178 31.6717C59.4017 32.06 59.9715 33.0478 60.3598 33.3641L60.999 33.8848C61.2897 34.1215 61.9683 34.3809 62.4241 34.3343C62.5775 34.3186 62.7061 34.2671 62.7857 34.1707L75.2536 18.2379C75.7371 18.4172 76.2323 18.4958 76.7247 18.4899C78.2001 18.4742 79.6584 17.6775 80.7584 16.326C84.4872 11.7452 85.139 10.7538 83.6993 9.28283L79.2769 14.4868C79.1786 14.6075 79.0314 14.6902 78.8753 14.7062C78.7356 14.7205 78.6016 14.6805 78.4967 14.5944L78.3522 14.4773C78.2466 14.3913 78.1809 14.2674 78.1666 14.1283C78.1514 13.9734 78.2018 13.8125 78.3042 13.686L82.2204 8.00548C82.1047 7.91125 81.9941 7.82114 81.8698 7.71983C81.6593 7.54844 81.4633 7.38818 81.278 7.23543L76.4939 12.2457C76.4081 12.3526 76.2608 12.4346 76.106 12.4504C75.9663 12.4647 75.8323 12.4247 75.7274 12.3386L75.5829 12.2215C75.4773 12.1355 75.4116 12.0116 75.3973 11.8726C75.3821 11.7177 75.4325 11.5567 75.5349 11.4303L79.7113 6.06983C78.0898 5.12725 77.2668 6.13551 73.6698 10.5544C72.4734 12.0244 72.0056 13.7766 72.4628 15.3201C72.5977 15.7697 72.8087 16.1996 73.1037 16.601Z" fill="#007C0C"/>
<path d="M112.276 41.2368L112.276 41.2368L112.282 41.2394C113.493 41.8547 114.875 42.1557 116.416 42.1557C117.639 42.1557 118.747 41.9583 119.731 41.5531C120.173 41.3745 120.587 41.1577 120.971 40.9023C122.046 40.1891 121.899 38.7648 121.112 37.9773L121.002 37.867C120.147 37.012 118.842 37.1868 117.945 37.5714L117.945 37.5714L117.939 37.5738C117.521 37.7598 117.017 37.8598 116.416 37.8598C115.789 37.8598 115.294 37.736 114.909 37.5142C114.594 37.3323 114.335 37.0805 114.133 36.7491L121.769 36.7137C122.508 36.7103 123.28 36.2032 123.345 35.3507C123.382 35.0486 123.401 34.7538 123.401 34.4664C123.401 33.1123 123.086 31.8931 122.445 30.8226C121.824 29.7385 120.95 28.8948 119.832 28.2962C118.727 27.6768 117.467 27.3732 116.064 27.3732C114.621 27.3732 113.307 27.6967 112.132 28.3514C110.98 28.9853 110.063 29.8626 109.389 30.9785C108.709 32.0868 108.375 33.3536 108.375 34.7645C108.375 36.1954 108.719 37.4813 109.419 38.608C110.114 39.7277 111.07 40.6046 112.276 41.2368ZM117.951 32.7626L114.118 32.7943C114.305 32.4686 114.542 32.2157 114.826 32.0264C115.174 31.794 115.599 31.6692 116.118 31.6692C116.631 31.6692 117.015 31.7809 117.302 31.9722C117.567 32.1489 117.786 32.4056 117.951 32.7626Z" fill="#F00311" stroke="white" stroke-width="0.908778"/>
<path d="M94.005 32.7643L94.0049 32.7644L94.0145 32.773C94.2409 32.9756 94.378 33.274 94.378 33.7351V39.0461C94.378 40.599 95.6369 41.8579 97.1898 41.8579C98.7427 41.8579 100.002 40.599 100.002 39.0461V32.9763C100.002 32.8429 99.9982 32.7113 99.9913 32.5815C99.9998 32.5766 100.008 32.5718 100.017 32.5671C100.238 32.4579 100.482 32.401 100.757 32.401C101.155 32.401 101.465 32.525 101.718 32.7643L101.718 32.7644L101.727 32.773C101.954 32.9756 102.091 33.274 102.091 33.7351V39.0461C102.091 40.599 103.35 41.8579 104.903 41.8579C106.456 41.8579 107.715 40.599 107.715 39.0461V33.3557C107.715 32.157 107.467 31.1012 106.952 30.207C106.459 29.3026 105.765 28.6071 104.873 28.1315C103.987 27.6589 102.99 27.4277 101.895 27.4277C100.744 27.4277 99.6932 27.6776 98.7536 28.1862C98.5118 28.3149 98.2834 28.4586 98.0684 28.617C97.8496 28.4399 97.6147 28.2806 97.3637 28.1394C96.5668 27.6627 95.674 27.4277 94.6969 27.4277C93.6214 27.4277 92.6444 27.649 91.7767 28.1026C91.6145 28.1874 91.4584 28.2788 91.3084 28.3769C90.8163 27.9542 90.1764 27.6987 89.4768 27.6987C87.9239 27.6987 86.665 28.9576 86.665 30.5105V39.0461C86.665 40.599 87.9239 41.8579 89.4768 41.8579C91.0298 41.8579 92.2887 40.599 92.2887 39.0461V32.5756C92.2955 32.5718 92.3024 32.5681 92.3094 32.5644C92.5038 32.4606 92.7441 32.401 93.0439 32.401C93.4424 32.401 93.7524 32.525 94.005 32.7643Z" fill="#F00311" stroke="white" stroke-width="0.908778"/>
<path d="M80.8076 26.2191L80.8076 26.2191L80.8136 26.2252C81.3741 26.7857 82.0793 27.0628 82.8963 27.0628C83.742 27.0628 84.4629 26.7901 85.0122 26.2188C85.5691 25.6404 85.8436 24.9197 85.8436 24.0884C85.8436 23.2731 85.5678 22.5636 85.015 21.988C84.4675 21.3984 83.7459 21.114 82.8963 21.114C82.0739 21.114 81.3668 21.4041 80.8076 21.9848C80.2528 22.5609 79.976 23.2716 79.976 24.0884C79.976 24.9198 80.2506 25.6406 80.8076 26.2191ZM80.0844 39.0324C80.0844 40.5929 81.3494 41.8578 82.9098 41.8578C84.4702 41.8578 85.7352 40.5929 85.7352 39.0324V30.5239C85.7352 28.9635 84.4702 27.6986 82.9098 27.6986C81.3494 27.6986 80.0844 28.9635 80.0844 30.5239V39.0324Z" fill="#F00311" stroke="white" stroke-width="0.908778"/>
<path d="M71.4188 25.0374V27.6992H70.9112C69.5753 27.6992 68.4923 28.7821 68.4923 30.1181C68.4923 31.454 69.5753 32.537 70.9112 32.537H71.4188V39.0466C71.4188 40.5995 72.6777 41.8584 74.2306 41.8584C75.7835 41.8584 77.0424 40.5995 77.0424 39.0466V32.537H77.55C78.8859 32.537 79.9689 31.454 79.9689 30.1181C79.9689 28.7821 78.8859 27.6992 77.55 27.6992H77.0424V25.0374C77.0424 23.4844 75.7835 22.2255 74.2306 22.2255C72.6777 22.2255 71.4188 23.4844 71.4188 25.0374Z" fill="#F00311" stroke="white" stroke-width="0.908778"/>
<path d="M58.1968 32.8096L58.1967 32.8097L58.2051 32.8177C58.4559 33.0559 58.6057 33.4038 58.6057 33.9244V39.0458C58.6057 40.5987 59.8646 41.8576 61.4175 41.8576C62.9704 41.8576 64.2293 40.5987 64.2293 39.0458V32.8405C64.2293 31.7971 63.9971 30.8589 63.5189 30.0403C63.0588 29.2219 62.3895 28.5853 61.5251 28.1323C60.6696 27.6562 59.6708 27.4274 58.5452 27.4274C57.588 27.4274 56.7173 27.6039 55.9425 27.967V24.0069C55.9425 22.4539 54.6836 21.195 53.1306 21.195C51.5777 21.195 50.3188 22.4539 50.3188 24.0069V39.0457C50.3188 40.5987 51.5777 41.8576 53.1306 41.8576C54.6836 41.8576 55.9425 40.5987 55.9425 39.0457V32.9144C56.0463 32.7827 56.1728 32.675 56.3242 32.5891C56.5587 32.466 56.8262 32.4007 57.1362 32.4007C57.5884 32.4007 57.9293 32.5421 58.1968 32.8096Z" fill="#F00311" stroke="white" stroke-width="0.908778"/>
<path d="M40.6303 41.2083L40.6329 41.2097C41.8422 41.8431 43.1892 42.1557 44.6645 42.1557C45.7983 42.1557 46.8264 41.9668 47.7403 41.5782C48.0175 41.4626 48.2883 41.3298 48.5528 41.1799C49.199 40.8137 49.5185 40.1853 49.545 39.5378C49.571 38.8993 49.315 38.2393 48.8223 37.7511L48.1332 37.0682C47.4718 36.4128 46.4835 36.5503 45.8329 36.8431C45.544 36.973 45.1773 37.0469 44.7187 37.0469C44.288 37.0469 43.9063 36.9482 43.5641 36.7556C43.2347 36.5602 42.9645 36.299 42.751 35.9668C42.5634 35.6305 42.4633 35.2341 42.4633 34.7645C42.4633 34.2718 42.5656 33.8787 42.7487 33.5659C42.9614 33.2338 43.2292 32.9833 43.5543 32.806L43.5543 32.806L43.5603 32.8026C43.9035 32.6087 44.2863 32.5092 44.7187 32.5092C45.143 32.5092 45.4868 32.5746 45.7617 32.6903L45.7747 32.6958L45.7879 32.7004C46.4242 32.9232 47.3734 33.0233 48.0066 32.3901L48.6884 31.7083C49.1882 31.2085 49.4472 30.5334 49.4159 29.8839C49.3841 29.2242 49.0493 28.5882 48.3765 28.2326C48.1583 28.1172 47.9352 28.0134 47.7071 27.9212C46.7976 27.5536 45.7995 27.3732 44.7187 27.3732C43.2246 27.3732 41.867 27.6953 40.6562 28.3484C39.4692 28.9805 38.5163 29.8556 37.8052 30.9704L37.8052 30.9704L37.8022 30.9751C37.1035 32.1009 36.7584 33.3775 36.7584 34.7916C36.7584 36.1889 37.1041 37.4562 37.8022 38.5809C38.4961 39.6988 39.4417 40.5756 40.6303 41.2083Z" fill="#F00311" stroke="white" stroke-width="0.908778"/>
<path d="M30.3386 32.8099L30.3385 32.81L30.3469 32.818C30.5977 33.0562 30.7475 33.4041 30.7475 33.9247V39.0461C30.7475 40.599 32.0064 41.8579 33.5593 41.8579C35.1122 41.8579 36.3711 40.599 36.3711 39.0461V32.8408C36.3711 31.8287 36.1367 30.908 35.6585 30.0913C35.1851 29.2825 34.5328 28.6401 33.709 28.1682C32.8912 27.671 31.9605 27.4277 30.9309 27.4277C29.8194 27.4277 28.8071 27.658 27.9043 28.1287C27.6083 28.2801 27.3326 28.4539 27.0777 28.6498C26.5624 28.0665 25.8089 27.6987 24.9695 27.6987C23.4166 27.6987 22.1577 28.9576 22.1577 30.5105V39.0461C22.1577 40.599 23.4166 41.8579 24.9695 41.8579C26.5224 41.8579 27.7813 40.599 27.7813 39.0461V33.3625C27.8519 33.2759 27.9142 33.1844 27.9669 33.0907C28.0877 32.8759 28.252 32.7109 28.466 32.5894C28.7005 32.4663 28.968 32.401 29.2779 32.401C29.7302 32.401 30.0711 32.5424 30.3386 32.8099Z" fill="#F00311" stroke="white" stroke-width="0.908778"/>
<path d="M10.8443 41.3715L10.8443 41.3716L10.8534 41.3762C11.9004 41.8997 13.0827 42.1558 14.3895 42.1558C15.7131 42.1558 16.897 41.9002 17.9287 41.3746L17.9288 41.3746L17.9316 41.3731C18.9761 40.8316 19.7984 40.0805 20.3862 39.1205C20.9767 38.156 21.2659 37.0514 21.2659 35.8213V30.5103C21.2659 28.9573 20.007 27.6984 18.4541 27.6984C16.9012 27.6984 15.6423 28.9573 15.6423 30.5103V35.8213C15.6423 36.2659 15.5125 36.5758 15.2876 36.8007L15.2875 36.8005L15.2786 36.81C15.0689 37.0319 14.7883 37.1553 14.3895 37.1553C14.1112 37.1553 13.8937 37.0972 13.7208 36.9984C13.5463 36.8987 13.4066 36.7556 13.3001 36.5559C13.1964 36.3614 13.1368 36.1212 13.1368 35.8213V30.5103C13.1368 28.9573 11.8779 27.6984 10.325 27.6984C8.77204 27.6984 7.51314 28.9573 7.51314 30.5103V35.8213C7.51314 37.0349 7.8031 38.1375 8.39081 39.1171L8.3907 39.1171L8.39645 39.1262C9.00033 40.0807 9.81926 40.83 10.8443 41.3715Z" fill="#F00311" stroke="white" stroke-width="0.908778"/>
<path d="M0.679522 39.0465C0.679522 40.5994 1.93842 41.8583 3.49136 41.8583C5.04429 41.8583 6.30319 40.5994 6.30319 39.0465V24.0076C6.30319 22.4547 5.04429 21.1958 3.49136 21.1958C1.93842 21.1958 0.679522 22.4547 0.679522 24.0076V39.0465Z" fill="#F00311" stroke="white" stroke-width="0.908778"/>
</svg>
