<svg width="24" height="24" viewBox="0 0 24 24" fill="none" xmlns="http://www.w3.org/2000/svg">
    <path fill-rule="evenodd" clip-rule="evenodd"
        d="M12 24C18.6274 24 24 18.6274 24 12C24 5.37258 18.6274 0 12 0C5.37258 0 0 5.37258 0 12C0 18.6274 5.37258 24 12 24Z"
        fill="#00AEF3" />
    <path fill-rule="evenodd" clip-rule="evenodd"
        d="M18.0321 13.3589C18.1247 12.9419 18.1728 12.5102 18.1728 12.0665C18.1728 8.74279 15.4402 6.04746 12.0678 6.04746C11.7126 6.04746 11.3642 6.07788 11.024 6.13575C10.4784 5.7967 9.83265 5.6001 9.14102 5.6001C7.18505 5.6001 5.6001 7.16254 5.6001 9.09148C5.6001 9.73545 5.77771 10.3379 6.08627 10.8572C6.00574 11.2474 5.96284 11.6525 5.96284 12.0665C5.96284 15.3917 8.69624 18.0863 12.0678 18.0863C12.4501 18.0863 12.8234 18.0514 13.1862 17.9854C13.6851 18.2495 14.2541 18.4001 14.8599 18.4001C16.8151 18.4001 18.4001 16.8369 18.4001 14.9095C18.4001 14.3523 18.2676 13.8263 18.0321 13.3589Z"
        fill="white" />
    <path fill-rule="evenodd" clip-rule="evenodd"
        d="M15.1994 14.9434C14.9171 15.3381 14.5002 15.6497 13.9583 15.8708C13.4233 16.0904 12.7821 16.2024 12.0513 16.2024C11.1745 16.2024 10.4392 16.0503 9.86502 15.7498C9.45486 15.5317 9.11695 15.2364 8.86032 14.8699C8.60068 14.502 8.46973 14.1362 8.46973 13.7823C8.46973 13.5627 8.55552 13.3713 8.7241 13.2148C8.89118 13.059 9.10566 12.9811 9.36154 12.9811C9.57076 12.9811 9.75213 13.0426 9.89889 13.1651C10.0396 13.283 10.16 13.4574 10.2571 13.6807C10.3655 13.9255 10.4829 14.1318 10.6071 14.2927C10.7275 14.45 10.8998 14.5813 11.1196 14.6845C11.3408 14.7869 11.6396 14.8403 12.0061 14.8403C12.5111 14.8403 12.925 14.7334 13.2359 14.5242C13.5407 14.3202 13.6882 14.0739 13.6882 13.7727C13.6882 13.536 13.6106 13.3491 13.4526 13.2022C13.2855 13.0493 13.0665 12.9306 12.8009 12.8475C12.5232 12.763 12.1469 12.6702 11.681 12.5738C11.0466 12.4402 10.5085 12.2822 10.081 12.1019C9.64301 11.9187 9.29005 11.6642 9.03191 11.3459C8.77001 11.0217 8.6368 10.6159 8.6368 10.1389C8.6368 9.68481 8.77603 9.27454 9.05148 8.92139C9.32391 8.57048 9.72278 8.29597 10.2368 8.10976C10.7433 7.92502 11.3454 7.83154 12.028 7.83154C12.5728 7.83154 13.0522 7.89386 13.4526 8.01702C13.8552 8.14017 14.1939 8.30636 14.4603 8.51187C14.729 8.7196 14.9292 8.93994 15.0541 9.16993C15.1805 9.40215 15.2453 9.63288 15.2453 9.85619C15.2453 10.0713 15.161 10.2672 14.9947 10.4371C14.8276 10.6092 14.6161 10.696 14.3678 10.696C14.142 10.696 13.9644 10.6411 13.8424 10.5343C13.7281 10.4341 13.6091 10.2783 13.4774 10.0558C13.3254 9.77087 13.141 9.54607 12.9296 9.38731C12.7241 9.23299 12.3817 9.15583 11.9098 9.15583C11.4733 9.15583 11.1166 9.24189 10.8524 9.41327C10.598 9.57723 10.4739 9.76642 10.4739 9.99047C10.4739 10.127 10.5138 10.242 10.5965 10.3399C10.6823 10.4453 10.805 10.5358 10.96 10.6129C11.1203 10.6923 11.2859 10.7561 11.4515 10.8006C11.6208 10.8474 11.9053 10.9164 12.2959 11.0054C12.7903 11.1093 13.2441 11.2272 13.6453 11.3541C14.0524 11.4817 14.4031 11.639 14.6906 11.8237C14.9826 12.0114 15.2137 12.2518 15.3785 12.5396C15.5433 12.8297 15.6268 13.1858 15.6268 13.6006C15.6268 14.0961 15.4823 14.548 15.1994 14.9434Z"
        fill="#00AEF3" />
</svg>