<svg width="17" height="18" viewBox="0 0 17 18" fill="none" xmlns="http://www.w3.org/2000/svg">
    <g clip-path="url(#clip0_548_1135)">
        <path
            d="M17.4375 15.1877H9.5625C9.252 15.1877 9 14.9357 9 14.6252C9 14.3147 9 3.68574 9 3.37524C9 3.06474 9.252 2.81274 9.5625 2.81274H17.4375C17.748 2.81274 18 3.06474 18 3.37524V14.6252C18 14.9357 17.748 15.1877 17.4375 15.1877Z"
            fill="#CBD3D9" />
        <path
            d="M11.8125 6.18774H9.5625C9.252 6.18774 9 5.93574 9 5.62524C9 5.31474 9.252 5.06274 9.5625 5.06274H11.8125C12.123 5.06274 12.375 5.31474 12.375 5.62524C12.375 5.93574 12.123 6.18774 11.8125 6.18774Z"
            fill="#007C0C" />
        <path
            d="M11.8125 6.18774H9.5625C9.252 6.18774 9 5.93574 9 5.62524C9 5.31474 9.252 5.06274 9.5625 5.06274H11.8125C12.123 5.06274 12.375 5.31474 12.375 5.62524C12.375 5.93574 12.123 6.18774 11.8125 6.18774Z"
            fill="black" fill-opacity="0.2" />
        <path
            d="M11.8125 8.43774H9.5625C9.252 8.43774 9 8.18574 9 7.87524C9 7.56474 9.252 7.31274 9.5625 7.31274H11.8125C12.123 7.31274 12.375 7.56474 12.375 7.87524C12.375 8.18574 12.123 8.43774 11.8125 8.43774Z"
            fill="#007C0C" />
        <path
            d="M11.8125 8.43774H9.5625C9.252 8.43774 9 8.18574 9 7.87524C9 7.56474 9.252 7.31274 9.5625 7.31274H11.8125C12.123 7.31274 12.375 7.56474 12.375 7.87524C12.375 8.18574 12.123 8.43774 11.8125 8.43774Z"
            fill="black" fill-opacity="0.2" />
        <path
            d="M11.8125 10.6877H9.5625C9.252 10.6877 9 10.4357 9 10.1252C9 9.81474 9.252 9.56274 9.5625 9.56274H11.8125C12.123 9.56274 12.375 9.81474 12.375 10.1252C12.375 10.4357 12.123 10.6877 11.8125 10.6877Z"
            fill="#007C0C" />
        <path
            d="M11.8125 10.6877H9.5625C9.252 10.6877 9 10.4357 9 10.1252C9 9.81474 9.252 9.56274 9.5625 9.56274H11.8125C12.123 9.56274 12.375 9.81474 12.375 10.1252C12.375 10.4357 12.123 10.6877 11.8125 10.6877Z"
            fill="black" fill-opacity="0.2" />
        <path
            d="M11.8125 12.9377H9.5625C9.252 12.9377 9 12.6857 9 12.3752C9 12.0647 9.252 11.8127 9.5625 11.8127H11.8125C12.123 11.8127 12.375 12.0647 12.375 12.3752C12.375 12.6857 12.123 12.9377 11.8125 12.9377Z"
            fill="#007C0C" />
        <path
            d="M11.8125 12.9377H9.5625C9.252 12.9377 9 12.6857 9 12.3752C9 12.0647 9.252 11.8127 9.5625 11.8127H11.8125C12.123 11.8127 12.375 12.0647 12.375 12.3752C12.375 12.6857 12.123 12.9377 11.8125 12.9377Z"
            fill="black" fill-opacity="0.2" />
        <path
            d="M15.1875 6.18774H14.0625C13.752 6.18774 13.5 5.93574 13.5 5.62524C13.5 5.31474 13.752 5.06274 14.0625 5.06274H15.1875C15.498 5.06274 15.75 5.31474 15.75 5.62524C15.75 5.93574 15.498 6.18774 15.1875 6.18774Z"
            fill="#007C0C" />
        <path
            d="M15.1875 6.18774H14.0625C13.752 6.18774 13.5 5.93574 13.5 5.62524C13.5 5.31474 13.752 5.06274 14.0625 5.06274H15.1875C15.498 5.06274 15.75 5.31474 15.75 5.62524C15.75 5.93574 15.498 6.18774 15.1875 6.18774Z"
            fill="black" fill-opacity="0.2" />
        <path
            d="M15.1875 8.43774H14.0625C13.752 8.43774 13.5 8.18574 13.5 7.87524C13.5 7.56474 13.752 7.31274 14.0625 7.31274H15.1875C15.498 7.31274 15.75 7.56474 15.75 7.87524C15.75 8.18574 15.498 8.43774 15.1875 8.43774Z"
            fill="#007C0C" />
        <path
            d="M15.1875 8.43774H14.0625C13.752 8.43774 13.5 8.18574 13.5 7.87524C13.5 7.56474 13.752 7.31274 14.0625 7.31274H15.1875C15.498 7.31274 15.75 7.56474 15.75 7.87524C15.75 8.18574 15.498 8.43774 15.1875 8.43774Z"
            fill="black" fill-opacity="0.2" />
        <path
            d="M15.1875 10.6877H14.0625C13.752 10.6877 13.5 10.4357 13.5 10.1252C13.5 9.81474 13.752 9.56274 14.0625 9.56274H15.1875C15.498 9.56274 15.75 9.81474 15.75 10.1252C15.75 10.4357 15.498 10.6877 15.1875 10.6877Z"
            fill="#007C0C" />
        <path
            d="M15.1875 10.6877H14.0625C13.752 10.6877 13.5 10.4357 13.5 10.1252C13.5 9.81474 13.752 9.56274 14.0625 9.56274H15.1875C15.498 9.56274 15.75 9.81474 15.75 10.1252C15.75 10.4357 15.498 10.6877 15.1875 10.6877Z"
            fill="black" fill-opacity="0.2" />
        <path
            d="M15.1875 12.9377H14.0625C13.752 12.9377 13.5 12.6857 13.5 12.3752C13.5 12.0647 13.752 11.8127 14.0625 11.8127H15.1875C15.498 11.8127 15.75 12.0647 15.75 12.3752C15.75 12.6857 15.498 12.9377 15.1875 12.9377Z"
            fill="#007C0C" />
        <path
            d="M15.1875 12.9377H14.0625C13.752 12.9377 13.5 12.6857 13.5 12.3752C13.5 12.0647 13.752 11.8127 14.0625 11.8127H15.1875C15.498 11.8127 15.75 12.0647 15.75 12.3752C15.75 12.6857 15.498 12.9377 15.1875 12.9377Z"
            fill="black" fill-opacity="0.2" />
        <path
            d="M9.92138 0.692145C9.79313 0.58527 9.621 0.539145 9.459 0.572895L0.459 2.26039C0.192375 2.30989 0 2.54164 0 2.81277V15.1878C0 15.4578 0.192375 15.6906 0.459 15.7401L9.459 17.4276C9.49275 17.4344 9.52763 17.4378 9.5625 17.4378C9.693 17.4378 9.82013 17.3928 9.92138 17.3084C10.0508 17.2015 10.125 17.0418 10.125 16.8753V1.12527C10.125 0.957645 10.0508 0.79902 9.92138 0.692145Z"
            fill="#669B11" />
        <path
            d="M7.73608 10.8801L5.95745 8.84719L7.75633 6.53419C7.94758 6.28894 7.90258 5.93569 7.65845 5.74444C7.41433 5.55319 7.06108 5.59819 6.8687 5.84231L5.20258 7.98431L3.79858 6.38006C3.5927 6.14381 3.2372 6.12244 3.00545 6.32719C2.77145 6.53194 2.74783 6.88744 2.95258 7.12031L4.49945 8.88881L2.9312 10.9048C2.73995 11.1501 2.78495 11.5033 3.02908 11.6946C3.13258 11.7744 3.2552 11.8127 3.37558 11.8127C3.5432 11.8127 3.70858 11.7384 3.81995 11.5956L5.25433 9.75056L6.89008 11.6192C7.00145 11.7474 7.1567 11.8127 7.31308 11.8127C7.4447 11.8127 7.57633 11.7666 7.6832 11.6732C7.9172 11.4684 7.94083 11.1129 7.73608 10.8801Z"
            fill="white" />
    </g>
    <defs>
        <clipPath id="clip0_548_1135">
            <rect width="16.7143" height="18" fill="white" />
        </clipPath>
    </defs>
</svg>