<svg width="18" height="18" viewBox="0 0 18 18" xmlns="http://www.w3.org/2000/svg">

    <path
        d="M11.6663 7.52835H9.14969V4.67053C9.14969 4.57669 9.07291 4.49991 8.97907 4.49991H7.69945C7.60561 4.49991 7.52884 4.57669 7.52884 4.67053V7.52835H5.01225C4.91841 7.52835 4.84163 7.60513 4.84163 7.69897V8.97859C4.84163 9.07242 4.91841 9.1492 5.01225 9.1492H7.52884V12.007C7.52884 12.1009 7.60561 12.1776 7.69945 12.1776H8.97907C9.07291 12.1776 9.14969 12.1009 9.14969 12.007V9.1492H11.6663C11.7601 9.1492 11.8369 9.07242 11.8369 8.97859V7.69897C11.8369 7.60513 11.7601 7.52835 11.6663 7.52835ZM17.7232 16.571L14.6094 13.4573C17.2134 10.2817 17.0322 5.57693 14.0549 2.60181C10.8985 -0.556723 5.77149 -0.556723 2.6023 2.60181C-0.556234 5.771 -0.556234 10.898 2.6023 14.0544C5.57742 17.0317 10.2822 17.2129 13.4577 14.6089L16.5715 17.7227C16.6397 17.7824 16.7485 17.7824 16.8061 17.7227L17.7232 16.8056C17.7829 16.748 17.7829 16.6392 17.7232 16.571ZM12.9246 12.9241C10.3909 15.4556 6.28761 15.4556 3.75396 12.9241C1.22244 10.3904 1.22244 6.28712 3.75396 3.75347C6.28761 1.22195 10.3909 1.22195 12.9246 3.75347C15.4561 6.28712 15.4561 10.3904 12.9246 12.9241Z"
        fill="white" />

</svg>