<svg width="18" height="18" viewBox="0 0 18 18" fill="none" xmlns="http://www.w3.org/2000/svg">

    <path
        d="M11.6658 7.52844H9.1492V4.67062C9.1492 4.57678 9.07242 4.5 8.97859 4.5H7.69897C7.60513 4.5 7.52835 4.57678 7.52835 4.67062V7.52844H5.01176C4.91792 7.52844 4.84115 7.60522 4.84115 7.69906V8.97868C4.84115 9.07252 4.91792 9.14929 5.01176 9.14929H7.52835V12.0071C7.52835 12.101 7.60513 12.1777 7.69897 12.1777H8.97859C9.07242 12.1777 9.1492 12.101 9.1492 12.0071V9.14929H11.6658C11.7596 9.14929 11.8364 9.07252 11.8364 8.97868V7.69906C11.8364 7.60522 11.7596 7.52844 11.6658 7.52844ZM17.7227 16.5711L14.6089 13.4574C17.2129 10.2818 17.0317 5.57702 14.0544 2.6019C10.898 -0.556631 5.771 -0.556631 2.60181 2.6019C-0.556723 5.77109 -0.556723 10.8981 2.60181 14.0545C5.57693 17.0318 10.2817 17.213 13.4573 14.609L16.571 17.7228C16.6392 17.7825 16.748 17.7825 16.8056 17.7228L17.7227 16.8057C17.7824 16.7481 17.7824 16.6393 17.7227 16.5711ZM12.9241 12.9242C10.3904 15.4557 6.28712 15.4557 3.75347 12.9242C1.22195 10.3905 1.22195 6.28721 3.75347 3.75356C6.28712 1.22204 10.3904 1.22204 12.9241 3.75356C15.4556 6.28721 15.4556 10.3905 12.9241 12.9242Z"
        fill="#CBD3D9" />

</svg>