<svg width="76" height="55" viewBox="0 0 76 55" fill="none" xmlns="http://www.w3.org/2000/svg">
    <path
        d="M37.9992 0C26.9722 0 18 9.08374 18 20.249C18 23.1613 18.5888 25.942 19.7491 28.5143C24.7494 39.5923 34.3365 51.2884 37.1563 54.6088C37.3676 54.857 37.6756 55 37.9997 55C38.3239 55 38.6319 54.857 38.8431 54.6088C41.6619 51.2889 51.2489 39.5935 56.2509 28.5143C57.4118 25.942 58 23.1613 58 20.249C57.9989 9.08374 49.0267 0 37.9992 0Z"
        fill="url(#paint0_linear_1802_25243)" />
    <path fill-rule="evenodd" clip-rule="evenodd"
        d="M38.0458 33.9862C45.7581 33.9862 52.0102 27.7342 52.0102 20.0218C52.0102 12.3095 45.7581 6.05746 38.0458 6.05746C30.3335 6.05746 24.0814 12.3095 24.0814 20.0218C24.0814 27.7342 30.3335 33.9862 38.0458 33.9862ZM38.0458 38.0286C47.9906 38.0286 56.0525 29.9667 56.0525 20.0218C56.0525 10.077 47.9906 2.01514 38.0458 2.01514C28.1009 2.01514 20.0391 10.077 20.0391 20.0218C20.0391 29.9667 28.1009 38.0286 38.0458 38.0286Z"
        fill="#8CC842" />
    <path
        d="M24.9031 30.4934C24.82 30.4616 24.7244 30.3945 24.6163 30.2921C24.5082 30.1897 24.4193 30.0801 24.3497 29.9633C24.233 29.7676 24.1712 29.567 24.1643 29.3615C24.1605 29.1542 24.2095 28.9602 24.3115 28.7796C24.4135 28.599 24.5624 28.4504 24.7581 28.3338C24.9633 28.2115 25.1654 28.1487 25.3646 28.1455C25.5657 28.1455 25.7517 28.1993 25.9228 28.3069C26.0971 28.4126 26.2454 28.5681 26.3677 28.7733C26.4185 28.8585 26.4614 28.9485 26.4964 29.0431C26.5333 29.1409 26.556 29.2364 26.5646 29.3297C26.5682 29.3789 26.559 29.4208 26.5368 29.4554C26.5197 29.4913 26.4938 29.5195 26.4591 29.5402C26.4086 29.5703 26.3499 29.5796 26.2831 29.5681C26.2214 29.5578 26.1727 29.5227 26.1369 29.4627C26.1219 29.4375 26.1106 29.4078 26.1031 29.3738C26.0914 29.3038 26.072 29.2319 26.0452 29.1581C26.0214 29.0824 25.9945 29.0193 25.9644 28.9688C25.8666 28.8046 25.7295 28.7002 25.5531 28.6556C25.3787 28.6141 25.1983 28.6489 25.0121 28.7599C24.8132 28.8784 24.6899 29.0268 24.6421 29.205C24.5962 29.3864 24.626 29.5655 24.7313 29.7423C24.7746 29.8149 24.8333 29.8847 24.9075 29.9517C24.9817 30.0187 25.0527 30.0662 25.1207 30.0941C25.1635 30.1157 25.1971 30.147 25.2216 30.188C25.2536 30.2417 25.2601 30.2956 25.241 30.3497C25.227 30.4051 25.1931 30.4488 25.1395 30.4808C25.07 30.5222 24.9912 30.5264 24.9031 30.4934Z"
        fill="#007C0C" />
    <path
        d="M25.0899 31.1131C25.0536 31.0668 25.0359 31.0084 25.0366 30.9378C25.0396 30.8701 25.0686 30.8148 25.1236 30.7717C25.1467 30.7536 25.1747 30.7387 25.2076 30.727L27.0637 30.1558C27.1316 30.1353 27.1967 30.138 27.259 30.1639C27.3213 30.1898 27.3717 30.2274 27.4102 30.2765C27.451 30.3286 27.4765 30.388 27.4867 30.4547C27.4992 30.5243 27.4873 30.5896 27.4511 30.6506L26.4906 32.3477C26.4835 32.3626 26.4742 32.3745 26.4626 32.3836C26.4511 32.3927 26.4395 32.4017 26.4279 32.4108C26.3672 32.4584 26.3036 32.4755 26.2371 32.4622C26.1707 32.4489 26.1182 32.4176 26.0797 32.3684C26.0525 32.3337 26.0355 32.291 26.0285 32.2405C26.021 32.195 26.0318 32.1492 26.061 32.103L26.3009 31.7121C26.316 31.6956 26.3157 31.6773 26.2998 31.657L25.841 31.0711C25.8252 31.0508 25.8063 31.0446 25.7844 31.0524L25.3464 31.1993C25.2929 31.2085 25.2436 31.2052 25.1984 31.1892C25.1533 31.1732 25.1171 31.1479 25.0899 31.1131ZM26.3019 30.9623L26.5024 31.2183C26.516 31.2357 26.532 31.2442 26.5504 31.2438C26.5739 31.2441 26.5935 31.2334 26.6092 31.2117L26.829 30.8576C26.8617 30.804 26.8679 30.7642 26.8475 30.7381C26.8271 30.7121 26.7855 30.7096 26.7227 30.7308L26.3296 30.8636C26.3077 30.8714 26.293 30.8853 26.2853 30.9053C26.2805 30.923 26.2861 30.942 26.3019 30.9623Z"
        fill="#007C0C" />
    <path
        d="M27.0921 33.0973C27.0393 33.0516 27.008 32.9979 26.9984 32.936C26.9911 32.8714 27.0103 32.8127 27.056 32.7599L27.9972 31.6719C28.0694 31.5885 28.0638 31.5108 27.9804 31.4386L27.7761 31.2619C27.7261 31.2186 27.6976 31.1673 27.6907 31.1079C27.689 31.0481 27.7098 30.9932 27.7531 30.9431C27.7963 30.8931 27.8465 30.866 27.9035 30.8619C27.9657 30.8574 28.0218 30.8768 28.0718 30.9201L29.1015 31.8109C29.1543 31.8565 29.1816 31.9093 29.1833 31.9691C29.1902 32.0285 29.172 32.0832 29.1287 32.1332C29.0855 32.1833 29.0327 32.2105 28.9705 32.215C28.9135 32.2192 28.8586 32.1984 28.8058 32.1527L28.6057 31.9796C28.5223 31.9075 28.4446 31.9131 28.3724 31.9965L27.4312 33.0845C27.3855 33.1373 27.3301 33.1648 27.2652 33.1669C27.2054 33.1686 27.1477 33.1454 27.0921 33.0973Z"
        fill="#007C0C" />
    <path
        d="M28.4205 34.0796C28.3328 34.0191 28.2806 33.9428 28.2637 33.8508C28.2469 33.7587 28.2688 33.6689 28.3293 33.5812L29.2002 32.3203C29.2608 32.2326 29.3335 32.1823 29.4183 32.1695C29.5052 32.1536 29.591 32.1749 29.6756 32.2333L30.3605 32.7064C30.4875 32.7941 30.5092 32.8984 30.4257 33.0194C30.3902 33.0708 30.3418 33.1021 30.2804 33.1133C30.2212 33.1215 30.1643 33.1068 30.1099 33.0692L29.6427 32.7465C29.5823 32.7048 29.5311 32.7141 29.4894 32.7746L29.3641 32.956C29.3223 33.0165 29.3316 33.0676 29.3921 33.1094L29.7913 33.3851C29.8517 33.4268 29.8871 33.4758 29.8974 33.5321C29.9077 33.5883 29.894 33.6436 29.8564 33.6981C29.823 33.7464 29.7741 33.7752 29.7098 33.7843C29.6484 33.7956 29.592 33.7834 29.5406 33.7479L29.1415 33.4722C29.081 33.4305 29.0299 33.4398 28.9881 33.5003L28.8503 33.6999C28.8085 33.7603 28.8179 33.8115 28.8784 33.8532L29.3909 34.2072C29.4483 34.2469 29.4822 34.2949 29.4925 34.3511C29.5058 34.4094 29.4926 34.4673 29.4529 34.5247C29.4174 34.5762 29.369 34.6075 29.3077 34.6187C29.2484 34.6269 29.1916 34.6122 29.1371 34.5746L28.4205 34.0796Z"
        fill="#007C0C" />
    <path
        d="M29.9423 35.0221C29.8827 34.9935 29.8409 34.9489 29.8169 34.8885C29.7945 34.8248 29.7968 34.7647 29.8239 34.7084L30.5587 33.1779C30.6048 33.0818 30.672 33.0183 30.7602 32.9873C30.8518 32.9579 30.9489 32.9678 31.0516 33.0171L31.5486 33.2557C31.7506 33.3527 31.8843 33.4903 31.9497 33.6684C32.0183 33.8481 32.0097 34.0274 31.9238 34.2063C31.8729 34.3123 31.797 34.3981 31.6962 34.4639C31.5953 34.5296 31.4784 34.5652 31.3453 34.5706C31.3806 34.616 31.4069 34.6674 31.4242 34.7246C31.4449 34.7835 31.4533 34.8466 31.4494 34.9141L31.4321 35.3705C31.4296 35.4182 31.422 35.4553 31.4092 35.4818C31.3806 35.5414 31.3336 35.58 31.2681 35.5975C31.2042 35.6116 31.1441 35.6052 31.0878 35.5782C31.0514 35.5607 31.0197 35.5332 30.9928 35.4959C30.9692 35.4601 30.9578 35.4159 30.9586 35.3633L30.9869 34.8204C30.9919 34.725 30.9743 34.6472 30.9338 34.587C30.8983 34.5252 30.8441 34.4767 30.7712 34.4417L30.642 34.3797C30.5758 34.3479 30.5268 34.3651 30.4949 34.4314L30.2612 34.9184C30.2341 34.9747 30.1887 35.014 30.125 35.0364C30.0628 35.0555 30.0019 35.0507 29.9423 35.0221ZM30.7961 33.9951L31.0993 34.1406C31.1821 34.1804 31.2578 34.1882 31.3265 34.1641C31.3984 34.1416 31.4519 34.0939 31.4869 34.021C31.5235 33.9448 31.5272 33.8732 31.4982 33.8063C31.4741 33.7376 31.4206 33.6834 31.3378 33.6437L31.0347 33.4982C30.985 33.4743 30.9482 33.4872 30.9244 33.5369L30.7574 33.8848C30.7335 33.9344 30.7464 33.9712 30.7961 33.9951Z"
        fill="#007C0C" />
    <path
        d="M31.9712 36.0943C31.9059 36.0697 31.8586 36.0284 31.8294 35.9703C31.8002 35.9122 31.7972 35.8522 31.8205 35.7903L32.4703 34.0618C32.4949 33.9964 32.5373 33.9515 32.5975 33.927C32.6578 33.9026 32.7206 33.9026 32.7859 33.9272C32.8547 33.9531 32.902 33.9944 32.9278 34.0512C32.957 34.1093 32.9593 34.171 32.9347 34.2364L32.2849 35.9649C32.2603 36.0302 32.2179 36.0751 32.1577 36.0996C32.1022 36.1219 32.04 36.1201 31.9712 36.0943Z"
        fill="#007C0C" />
    <path
        d="M33.0147 36.4638C32.9437 36.4449 32.8903 36.4097 32.8546 36.3583C32.8234 36.3043 32.8168 36.2436 32.8348 36.1761L33.2975 34.4454C33.3221 34.3531 33.3691 34.2915 33.4382 34.2605C33.5083 34.226 33.5788 34.2182 33.6498 34.2372C33.6995 34.2505 33.7441 34.2757 33.7837 34.3129C33.8241 34.3465 33.8537 34.3925 33.8723 34.4507L34.3303 35.8113C34.3378 35.8399 34.3558 35.8581 34.3842 35.8657C34.4197 35.8751 34.4432 35.8586 34.4546 35.816L34.6977 34.7569C34.7131 34.685 34.7491 34.6357 34.8057 34.6089C34.8623 34.5822 34.9261 34.5784 34.9971 34.5973C35.0681 34.6163 35.1197 34.651 35.1519 34.7015C35.1876 34.7529 35.196 34.8141 35.177 34.8851L34.7158 36.6104C34.692 36.6992 34.6451 36.7608 34.5751 36.7954C34.505 36.8299 34.4344 36.8376 34.3634 36.8187C34.3173 36.8063 34.2744 36.7816 34.2349 36.7444C34.1945 36.7107 34.1649 36.6648 34.1462 36.6066L33.7036 35.2101C33.696 35.1815 33.678 35.1634 33.6496 35.1558C33.6106 35.1453 33.5849 35.1632 33.5726 35.2093L33.3141 36.3042C33.2996 36.3726 33.2636 36.422 33.2061 36.4522C33.1495 36.479 33.0857 36.4828 33.0147 36.4638Z"
        fill="#007C0C" />
    <path
        d="M36.3235 37.1498C36.1084 37.1232 35.9196 37.048 35.7571 36.9242C35.5947 36.8004 35.4733 36.6447 35.3928 36.457C35.3124 36.2693 35.2859 36.0642 35.3134 35.8418C35.3409 35.6193 35.4145 35.4284 35.5342 35.2692C35.658 35.1068 35.8155 34.9856 36.0069 34.9056C36.1982 34.8256 36.4069 34.7995 36.6331 34.8275C36.7935 34.8474 36.9351 34.8852 37.0578 34.9412C37.1841 34.9975 37.2966 35.0762 37.3952 35.1773C37.4476 35.2319 37.4691 35.2975 37.4597 35.3741C37.452 35.4361 37.4236 35.4863 37.3744 35.5246C37.3252 35.563 37.2696 35.5783 37.2076 35.5707C37.1675 35.5657 37.124 35.5436 37.077 35.5045C37.003 35.4435 36.9259 35.3933 36.8457 35.3537C36.7659 35.3105 36.6785 35.283 36.5837 35.2713C36.3831 35.2465 36.2088 35.2934 36.0608 35.4121C35.917 35.5276 35.8319 35.6911 35.8058 35.9027C35.7787 36.1215 35.819 36.3042 35.9268 36.4509C36.0345 36.5975 36.1851 36.6828 36.3784 36.7067C36.5571 36.7288 36.7072 36.7122 36.8289 36.6569C36.9546 36.5984 37.0244 36.5126 37.0384 36.3995C37.042 36.3704 37.0311 36.3542 37.0056 36.351L36.639 36.3057C36.5697 36.2971 36.5157 36.2701 36.4769 36.2245C36.4417 36.1794 36.4282 36.1241 36.4363 36.0584C36.444 35.9964 36.4704 35.9479 36.5155 35.9127C36.5642 35.878 36.6232 35.8649 36.6925 35.8735L37.2943 35.948C37.3927 35.9601 37.4609 35.9926 37.4988 36.0455C37.5372 36.0947 37.5498 36.1721 37.5367 36.2779C37.4988 36.5842 37.3683 36.8162 37.1451 36.9737C36.9256 37.1317 36.6518 37.1904 36.3235 37.1498Z"
        fill="#007C0C" />
    <path
        d="M41.8818 36.7674C41.7159 36.7996 41.5555 36.8027 41.4007 36.7766C41.2452 36.7469 41.1169 36.6932 41.0157 36.6155C40.9676 36.5799 40.938 36.5332 40.9267 36.4755C40.9148 36.4142 40.9278 36.3555 40.9656 36.2995C41.0034 36.2435 41.0547 36.2092 41.1197 36.1966C41.181 36.1847 41.2375 36.1962 41.2892 36.2311C41.3617 36.2769 41.4481 36.3069 41.5482 36.3212C41.6483 36.3355 41.7434 36.3338 41.8336 36.3163C41.9274 36.2981 42.0047 36.2625 42.0655 36.2096C42.1257 36.153 42.147 36.0796 42.1295 35.9894C42.1148 35.9136 42.0711 35.8622 41.9985 35.8351C41.9288 35.8037 41.8175 35.7898 41.6647 35.7932C41.3929 35.801 41.1805 35.7674 41.0274 35.6923C40.8736 35.6136 40.7785 35.4804 40.7421 35.2928C40.7029 35.0908 40.7493 34.9152 40.8814 34.7661C41.0127 34.6133 41.2046 34.5124 41.4571 34.4634C41.7169 34.413 41.9373 34.4395 42.1183 34.5429C42.1894 34.5815 42.2316 34.635 42.2449 34.7036C42.2561 34.7613 42.2425 34.8164 42.204 34.8687C42.1684 34.9168 42.1199 34.9468 42.0586 34.9587C42.0117 34.9678 41.966 34.9636 41.9214 34.9461C41.7675 34.8861 41.6148 34.8708 41.4633 34.9002C41.3731 34.9177 41.3008 34.9504 41.2465 34.9984C41.1922 35.0464 41.172 35.1065 41.186 35.1786C41.2007 35.2544 41.2592 35.3048 41.3614 35.3299C41.4672 35.3543 41.6156 35.3666 41.8066 35.367C41.9111 35.3654 42.0166 35.3787 42.1231 35.4067C42.2325 35.4303 42.3284 35.481 42.4109 35.5586C42.4969 35.6354 42.555 35.7515 42.5851 35.9066C42.625 36.1122 42.5782 36.2954 42.4447 36.456C42.3148 36.616 42.1271 36.7198 41.8818 36.7674Z"
        fill="#007C0C" />
    <path
        d="M43.4607 36.3275C43.359 36.3594 43.2667 36.3537 43.1838 36.3104C43.1008 36.2671 43.0434 36.1947 43.0115 36.093L42.5523 34.631C42.5203 34.5293 42.5254 34.4411 42.5674 34.3663C42.6082 34.2879 42.6778 34.2334 42.7759 34.2025L43.57 33.9531C43.7173 33.9069 43.8129 33.9539 43.857 34.0941C43.8757 34.1537 43.8706 34.2112 43.8418 34.2664C43.8118 34.3182 43.7653 34.354 43.7022 34.3738L43.1605 34.544C43.0904 34.566 43.0663 34.6121 43.0884 34.6822L43.1544 34.8925C43.1764 34.9627 43.2225 34.9867 43.2926 34.9647L43.7554 34.8193C43.8255 34.7973 43.8859 34.7995 43.9366 34.826C43.9873 34.8524 44.0226 34.8972 44.0424 34.9603C44.06 35.0164 44.0526 35.0727 44.0203 35.129C43.9914 35.1843 43.9472 35.2213 43.8876 35.2401L43.4248 35.3854C43.3547 35.4074 43.3306 35.4535 43.3526 35.5236L43.4253 35.755C43.4473 35.8251 43.4934 35.8492 43.5635 35.8272L44.1578 35.6405C44.2244 35.6196 44.283 35.6224 44.3337 35.6488C44.3879 35.6742 44.4255 35.7201 44.4464 35.7868C44.4651 35.8464 44.46 35.9038 44.4312 35.9591C44.4012 36.0109 44.3547 36.0467 44.2916 36.0665L43.4607 36.3275Z"
        fill="#007C0C" />
    <path
        d="M45.2739 35.6209C45.215 35.651 45.1542 35.6573 45.0916 35.6397C45.0273 35.6189 44.981 35.5807 44.9525 35.5251L44.1798 34.0134C44.1313 33.9185 44.1214 33.8265 44.1502 33.7375C44.1823 33.6469 44.2491 33.5756 44.3505 33.5237L44.8413 33.2729C45.0409 33.1708 45.2314 33.1478 45.4126 33.2037C45.5972 33.2579 45.7346 33.3734 45.8249 33.5501C45.8785 33.6548 45.9008 33.7672 45.892 33.8872C45.8832 34.0073 45.8407 34.1219 45.7644 34.231C45.822 34.2305 45.8787 34.2407 45.9348 34.2616C45.9941 34.2808 46.0495 34.3123 46.1008 34.3562L46.4535 34.6465C46.4899 34.6774 46.5148 34.7059 46.5282 34.7321C46.5583 34.791 46.5605 34.8518 46.5347 34.9145C46.5073 34.9739 46.4658 35.0178 46.4102 35.0462C46.3742 35.0646 46.3332 35.0732 46.2871 35.072C46.2444 35.0691 46.2023 35.0514 46.1609 35.0189L45.7461 34.6675C45.6733 34.6057 45.6007 34.5727 45.5283 34.5684C45.4576 34.5592 45.3862 34.573 45.3142 34.6097L45.1866 34.675C45.1211 34.7084 45.1051 34.7579 45.1386 34.8233L45.3845 35.3043C45.4129 35.36 45.4167 35.4199 45.3959 35.4842C45.3735 35.5452 45.3328 35.5908 45.2739 35.6209ZM44.9739 34.3194L45.2733 34.1664C45.3551 34.1246 45.4072 34.069 45.4296 33.9998C45.4552 33.9289 45.4497 33.8575 45.4129 33.7855C45.3744 33.7102 45.3198 33.6639 45.2489 33.6464C45.1797 33.624 45.1042 33.6337 45.0224 33.6755L44.723 33.8286C44.6739 33.8537 44.6619 33.8908 44.687 33.9398L44.8626 34.2834C44.8877 34.3325 44.9248 34.3445 44.9739 34.3194Z"
        fill="#007C0C" />
    <path
        d="M47.7162 34.2167C47.6645 34.2517 47.605 34.2721 47.5378 34.2777C47.4705 34.2833 47.4077 34.2659 47.3493 34.2255L45.7954 33.1211C45.7677 33.0999 45.7457 33.0771 45.7292 33.0527C45.69 32.9949 45.6794 32.9334 45.6972 32.868C45.7151 32.8026 45.7514 32.7514 45.8061 32.7143C45.8427 32.6896 45.8864 32.6755 45.9373 32.672C45.9892 32.6635 46.0357 32.6764 46.0767 32.7107L47.1853 33.551C47.2386 33.5904 47.2789 33.6008 47.3063 33.5822C47.3337 33.5637 47.34 33.5239 47.3253 33.4628L46.9788 32.1062C46.9652 32.0533 46.9689 32.0064 46.99 31.9655C47.0121 31.9195 47.0414 31.8841 47.0779 31.8594C47.1448 31.814 47.212 31.8018 47.2794 31.8227C47.3469 31.8436 47.3981 31.8799 47.4331 31.9316C47.4393 31.9408 47.4465 31.9514 47.4548 31.9636C47.461 31.9727 47.4651 31.9854 47.4673 32.0017L47.8696 33.8731C47.8854 33.9423 47.8767 34.0081 47.8435 34.0705C47.8134 34.1309 47.771 34.1796 47.7162 34.2167Z"
        fill="#007C0C" />
    <path
        d="M49.1997 33.1031C49.146 33.1477 49.0866 33.1682 49.0217 33.1647C48.9568 33.1613 48.9032 33.1341 48.861 33.0831L47.6828 31.6612C47.6383 31.6074 47.6203 31.5483 47.629 31.4839C47.6376 31.4195 47.6689 31.365 47.7226 31.3204C47.7792 31.2735 47.8386 31.253 47.9006 31.2588C47.9656 31.2623 48.0203 31.2909 48.0649 31.3447L49.243 32.7666C49.2876 32.8204 49.3055 32.8795 49.2969 32.9439C49.2887 33.0032 49.2563 33.0562 49.1997 33.1031Z"
        fill="#007C0C" />
    <path
        d="M51.0064 30.9338C50.9995 31.0225 50.9622 31.1332 50.8946 31.2659C50.8271 31.3986 50.7471 31.5148 50.6549 31.6147C50.5002 31.782 50.3254 31.8981 50.1303 31.9631C49.9325 32.0255 49.7326 32.0334 49.5305 31.9867C49.3284 31.9401 49.1437 31.8394 48.9764 31.6848C48.801 31.5227 48.6835 31.3466 48.624 31.1565C48.567 30.9637 48.5658 30.77 48.6206 30.5754C48.6726 30.3783 48.7797 30.1921 48.9418 30.0166C49.0091 29.9438 49.0832 29.8771 49.164 29.8167C49.2474 29.7536 49.3325 29.7048 49.4196 29.6701C49.4657 29.6527 49.5085 29.6497 49.548 29.6612C49.5872 29.6674 49.6217 29.6843 49.6514 29.7117C49.6946 29.7516 49.7201 29.8052 49.7279 29.8725C49.7356 29.9346 49.7157 29.9913 49.6683 30.0426C49.6484 30.0642 49.6231 30.0834 49.5926 30.1002C49.5288 30.1313 49.4653 30.1702 49.4022 30.2169C49.3363 30.2611 49.2834 30.3048 49.2435 30.348C49.1138 30.4884 49.0526 30.6494 49.0597 30.8312C49.0694 31.0102 49.1538 31.1733 49.3131 31.3205C49.4831 31.4776 49.6604 31.5538 49.8448 31.5491C50.0318 31.5418 50.1951 31.4625 50.3347 31.3114C50.3921 31.2493 50.4424 31.1732 50.4857 31.0831C50.5289 30.9929 50.5543 30.9113 50.5618 30.8382C50.5704 30.7911 50.5908 30.7499 50.6233 30.7149C50.6657 30.669 50.7155 30.6475 50.7728 30.6504C50.83 30.6482 50.8815 30.6683 50.9274 30.7107C50.9867 30.7655 51.0131 30.8399 51.0064 30.9338Z"
        fill="#007C0C" />
    <path
        d="M51.6643 30.3044C51.6017 30.3906 51.5242 30.4411 51.4319 30.4558C51.3395 30.4706 51.2501 30.4466 51.1639 30.3841L49.9234 29.4844C49.8371 29.4218 49.7885 29.348 49.7776 29.2629C49.7637 29.1757 49.7869 29.0904 49.8474 29.0071L50.336 28.3333C50.4266 28.2083 50.5314 28.189 50.6504 28.2753C50.701 28.312 50.7312 28.3611 50.741 28.4227C50.7478 28.4821 50.7318 28.5386 50.693 28.5922L50.3597 29.0518C50.3165 29.1113 50.3247 29.1626 50.3842 29.2058L50.5627 29.3352C50.6222 29.3784 50.6735 29.3702 50.7167 29.3107L51.0014 28.918C51.0446 28.8585 51.0944 28.8243 51.1509 28.8153C51.2073 28.8063 51.2623 28.8212 51.3159 28.8601C51.3635 28.8946 51.3911 28.9441 51.3987 29.0087C51.4085 29.0703 51.3951 29.1263 51.3584 29.1769L51.0736 29.5696C51.0305 29.6291 51.0387 29.6804 51.0982 29.7236L51.2945 29.866C51.354 29.9091 51.4053 29.9009 51.4485 29.8414L51.8142 29.3372C51.8552 29.2807 51.9039 29.2479 51.9603 29.2389C52.0189 29.227 52.0765 29.2415 52.133 29.2825C52.1836 29.3191 52.2138 29.3683 52.2236 29.4299C52.2304 29.4893 52.2144 29.5458 52.1756 29.5993L51.6643 30.3044Z"
        fill="#007C0C" />
    <path
        d="M34.8035 8.79358C35.9293 7.98341 36.1973 6.5048 35.654 5.06361C35.0119 3.3608 32.999 1.06814 31.2962 1.70969C29.5931 2.35107 29.5942 5.40132 30.236 7.10396C30.7689 8.51763 31.9121 9.44429 33.2597 9.3526L37.4014 20.7107L39.1342 20.1095L34.8035 8.79358Z"
        fill="#007C0C" />
    <path
        d="M44.7621 10.4848L36.6428 19.6261C36.4511 19.8616 36.7967 20.4608 37.0323 20.6526L37.42 20.9684C37.5963 21.112 38.0079 21.2694 38.2844 21.2411C38.3774 21.2316 38.4554 21.2003 38.5037 21.1419L46.0662 11.4777C46.3595 11.5864 46.6598 11.6341 46.9585 11.6305C47.8534 11.621 48.738 11.1377 49.4051 10.318C51.6669 7.53947 52.0622 6.93812 51.189 6.04591L48.5065 9.20241C48.4469 9.27566 48.3576 9.3258 48.263 9.33548C48.1782 9.34415 48.097 9.31989 48.0333 9.26769L47.9457 9.19664C47.8816 9.14448 47.8418 9.06934 47.8331 8.98499C47.8239 8.89104 47.8545 8.79342 47.9165 8.7167L50.292 5.27113C50.2218 5.21397 50.1547 5.15931 50.0793 5.09787C49.9516 4.99391 49.8327 4.8967 49.7203 4.80405L46.8185 7.84306C46.7664 7.90789 46.6771 7.95764 46.5832 7.96724C46.4985 7.9759 46.4172 7.95164 46.3536 7.89945L46.2659 7.82839C46.2019 7.77624 46.162 7.7011 46.1534 7.61674C46.1441 7.52279 46.1747 7.42517 46.2368 7.34846L48.77 4.09705C47.7865 3.52532 47.2873 4.13688 45.1055 6.81718C44.3798 7.70884 44.0961 8.77163 44.3734 9.70789C44.4552 9.98059 44.5832 10.2413 44.7621 10.4848Z"
        fill="#007C0C" />
    <path
        d="M68.5246 25.4273L68.5245 25.4274L68.5276 25.4289C69.2624 25.8021 70.1007 25.9848 71.0357 25.9848C71.7772 25.9848 72.449 25.865 73.0463 25.6192C73.3142 25.5109 73.5652 25.3794 73.7985 25.2245C74.45 24.7919 74.3613 23.9279 73.8837 23.4503L73.8168 23.3834C73.2982 22.8648 72.5068 22.9708 71.9626 23.2041L71.9625 23.2041L71.9592 23.2056C71.7054 23.3184 71.3998 23.379 71.0357 23.379C70.655 23.379 70.3548 23.304 70.1215 23.1694C69.9303 23.0591 69.7733 22.9063 69.6507 22.7053L74.2821 22.6838C74.7303 22.6818 75.1989 22.3742 75.2382 21.8571C75.2609 21.6739 75.2723 21.495 75.2723 21.3208C75.2723 20.4994 75.0812 19.7599 74.6922 19.1105C74.3158 18.453 73.7858 17.9412 73.1075 17.5782C72.4372 17.2024 71.6727 17.0183 70.822 17.0183C69.9468 17.0183 69.1496 17.2145 68.4368 17.6116C67.7379 17.9961 67.1821 18.5283 66.7734 19.2051C66.3609 19.8774 66.158 20.6458 66.158 21.5015C66.158 22.3695 66.3669 23.1495 66.7911 23.8329C67.2127 24.512 67.7925 25.0439 68.5246 25.4273ZM71.9666 20.2873L69.6414 20.3065C69.7551 20.1089 69.8987 19.9555 70.0709 19.8407C70.2823 19.6998 70.5396 19.6241 70.8549 19.6241C71.1656 19.6241 71.399 19.6918 71.5731 19.8079C71.7339 19.915 71.8665 20.0708 71.9666 20.2873Z"
        fill="#F00311" stroke="white" stroke-width="0.551226" />
    <path
        d="M57.4382 20.2885L57.4382 20.2886L57.444 20.2938C57.5813 20.4167 57.6645 20.5977 57.6645 20.8773V24.0988C57.6645 25.0407 58.4281 25.8043 59.37 25.8043C60.3119 25.8043 61.0755 25.0407 61.0755 24.0988V20.4171C61.0755 20.3362 61.0735 20.2563 61.0693 20.1776C61.0744 20.1746 61.0797 20.1717 61.0849 20.1689C61.2188 20.1026 61.3669 20.0682 61.5337 20.0682C61.7753 20.0682 61.9634 20.1433 62.1166 20.2885L62.1165 20.2886L62.1224 20.2938C62.2597 20.4167 62.3428 20.5977 62.3428 20.8773V24.0988C62.3428 25.0407 63.1064 25.8043 64.0484 25.8043C64.9903 25.8043 65.7539 25.0407 65.7539 24.0988V20.6472C65.7539 19.9201 65.6039 19.2797 65.2914 18.7374C64.9925 18.1888 64.5711 17.7669 64.0301 17.4784C63.4926 17.1918 62.8884 17.0515 62.224 17.0515C61.5257 17.0515 60.8884 17.2031 60.3185 17.5116C60.1719 17.5897 60.0333 17.6768 59.9029 17.7729C59.7702 17.6655 59.6277 17.5689 59.4755 17.4832C58.9921 17.1941 58.4506 17.0515 57.8579 17.0515C57.2056 17.0515 56.6129 17.1858 56.0866 17.4609C55.9882 17.5123 55.8936 17.5678 55.8026 17.6273C55.5041 17.3709 55.116 17.2159 54.6916 17.2159C53.7497 17.2159 52.9861 17.9795 52.9861 18.9214V24.0988C52.9861 25.0407 53.7497 25.8043 54.6916 25.8043C55.6336 25.8043 56.3972 25.0407 56.3972 24.0988V20.1741C56.4013 20.1717 56.4055 20.1695 56.4097 20.1672C56.5277 20.1043 56.6734 20.0682 56.8553 20.0682C57.097 20.0682 57.285 20.1433 57.4382 20.2885Z"
        fill="#F00311" stroke="white" stroke-width="0.551226" />
    <path
        d="M49.4358 16.3185L49.4358 16.3185L49.4395 16.3222C49.7794 16.6622 50.2072 16.8303 50.7027 16.8303C51.2156 16.8303 51.6528 16.6649 51.986 16.3185C52.3239 15.9676 52.4904 15.5304 52.4904 15.0261C52.4904 14.5316 52.3231 14.1012 51.9879 13.7521C51.6557 13.3945 51.2181 13.2219 50.7027 13.2219C50.2039 13.2219 49.775 13.398 49.4358 13.7502C49.0993 14.0996 48.9314 14.5307 48.9314 15.0261C48.9314 15.5304 49.098 15.9676 49.4358 16.3185ZM48.9972 24.0905C48.9972 25.037 49.7644 25.8043 50.7109 25.8043C51.6574 25.8043 52.4247 25.037 52.4247 24.0905V18.9296C52.4247 17.9832 51.6574 17.2159 50.7109 17.2159C49.7644 17.2159 48.9972 17.9832 48.9972 18.9296V24.0905Z"
        fill="#F00311" stroke="white" stroke-width="0.551226" />
    <path
        d="M47.1527 24.0992V20.1508H47.4606C48.2709 20.1508 48.9278 19.4939 48.9278 18.6835C48.9278 17.8732 48.2709 17.2163 47.4606 17.2163H47.1527V15.6018C47.1527 14.6599 46.3891 13.8963 45.4472 13.8963C44.5053 13.8963 43.7417 14.6599 43.7417 15.6018V17.2163H43.4338C42.6235 17.2163 41.9666 17.8732 41.9666 18.6835C41.9666 19.4939 42.6235 20.1508 43.4338 20.1508H43.7417V24.0992C43.7417 25.0411 44.5053 25.8047 45.4472 25.8047C46.3891 25.8047 47.1527 25.0411 47.1527 24.0992Z"
        fill="#F00311" stroke="white" stroke-width="0.551226" />
    <path
        d="M35.7216 20.3161L35.7215 20.3162L35.7267 20.3211C35.8788 20.4656 35.9696 20.6766 35.9696 20.9924V24.0988C35.9696 25.0407 36.7332 25.8043 37.6751 25.8043C38.6171 25.8043 39.3807 25.0407 39.3807 24.0988V20.3349C39.3807 19.702 39.2398 19.1329 38.9497 18.6365C38.6707 18.14 38.2647 17.7539 37.7404 17.4791C37.2215 17.1903 36.6157 17.0515 35.9329 17.0515C35.3523 17.0515 34.8242 17.1586 34.3542 17.3788V14.9768C34.3542 14.0349 33.5906 13.2713 32.6487 13.2713C31.7067 13.2713 30.9431 14.0349 30.9431 14.9768V24.0988C30.9431 25.0407 31.7067 25.8043 32.6487 25.8043C33.5906 25.8043 34.3542 25.0407 34.3542 24.0988V20.3797C34.4172 20.2999 34.4939 20.2345 34.5858 20.1824C34.728 20.1078 34.8903 20.0681 35.0783 20.0681C35.3525 20.0681 35.5594 20.1539 35.7216 20.3161Z"
        fill="#F00311" stroke="white" stroke-width="0.551226" />
    <path
        d="M25.0651 25.4101L25.0667 25.4109C25.8002 25.7951 26.6173 25.9848 27.5121 25.9848C28.1998 25.9848 28.8234 25.8701 29.3777 25.6344C29.5459 25.5643 29.7102 25.4838 29.8705 25.3929C30.2625 25.1707 30.4563 24.7896 30.4724 24.3969C30.4882 24.0095 30.3329 23.6092 30.0341 23.3131L29.6161 22.8989C29.2149 22.5013 28.6154 22.5847 28.2208 22.7623C28.0456 22.8412 27.8232 22.886 27.5449 22.886C27.2837 22.886 27.0522 22.8261 26.8446 22.7093C26.6448 22.5907 26.481 22.4323 26.3515 22.2308C26.2377 22.0268 26.177 21.7864 26.177 21.5015C26.177 21.2027 26.239 20.9643 26.35 20.7745C26.4791 20.5731 26.6415 20.4211 26.8387 20.3136L26.8387 20.3136L26.8423 20.3116C27.0505 20.1939 27.2827 20.1336 27.5449 20.1336C27.8023 20.1336 28.0109 20.1732 28.1776 20.2435L28.1855 20.2468L28.1935 20.2496C28.5795 20.3847 29.1552 20.4454 29.5393 20.0613L29.9528 19.6478C30.256 19.3446 30.4131 18.9351 30.3941 18.5412C30.3748 18.141 30.1717 17.7553 29.7637 17.5396C29.6313 17.4696 29.4959 17.4066 29.3576 17.3507C28.8059 17.1277 28.2005 17.0183 27.5449 17.0183C26.6387 17.0183 25.8152 17.2137 25.0808 17.6098C24.3608 17.9932 23.7829 18.524 23.3515 19.2002L23.3515 19.2002L23.3497 19.2031C22.9259 19.8859 22.7166 20.6603 22.7166 21.518C22.7166 22.3655 22.9263 23.1342 23.3497 23.8164C23.7706 24.4945 24.3441 25.0263 25.0651 25.4101Z"
        fill="#F00311" stroke="white" stroke-width="0.551226" />
    <path
        d="M18.8233 20.3161L18.8232 20.3162L18.8284 20.3211C18.9805 20.4656 19.0713 20.6766 19.0713 20.9924V24.0988C19.0713 25.0407 19.8349 25.8043 20.7768 25.8043C21.7188 25.8043 22.4824 25.0407 22.4824 24.0988V20.3349C22.4824 19.721 22.3402 19.1626 22.0502 18.6672C21.763 18.1766 21.3673 17.787 20.8677 17.5007C20.3716 17.1991 19.8071 17.0515 19.1826 17.0515C18.5084 17.0515 17.8943 17.1913 17.3468 17.4767C17.1672 17.5686 17 17.674 16.8454 17.7928C16.5329 17.439 16.0758 17.2159 15.5666 17.2159C14.6247 17.2159 13.8611 17.9795 13.8611 18.9214V24.0988C13.8611 25.0407 14.6247 25.8043 15.5666 25.8043C16.5086 25.8043 17.2722 25.0407 17.2722 24.0988V20.6513C17.315 20.5988 17.3528 20.5433 17.3847 20.4865C17.458 20.3562 17.5576 20.2561 17.6875 20.1824C17.8297 20.1078 17.992 20.0682 18.18 20.0682C18.4543 20.0682 18.6611 20.1539 18.8233 20.3161Z"
        fill="#F00311" stroke="white" stroke-width="0.551226" />
    <path
        d="M6.99886 25.5091L6.99883 25.5092L7.00435 25.5119C7.63945 25.8295 8.35652 25.9848 9.14923 25.9848C9.95206 25.9848 10.6702 25.8298 11.296 25.511L11.296 25.511L11.2977 25.5101C11.9312 25.1816 12.43 24.726 12.7865 24.1438C13.1447 23.5587 13.3202 22.8887 13.3202 22.1426V18.9211C13.3202 17.9792 12.5566 17.2156 11.6146 17.2156C10.6727 17.2156 9.90908 17.9792 9.90908 18.9211V22.1426C9.90908 22.4123 9.83035 22.6002 9.69396 22.7366L9.69388 22.7365L9.68847 22.7423C9.56131 22.8769 9.39112 22.9517 9.14923 22.9517C8.9804 22.9517 8.84846 22.9165 8.74358 22.8566C8.63778 22.7961 8.55304 22.7093 8.48844 22.5881C8.42553 22.4702 8.38937 22.3245 8.38937 22.1426V18.9211C8.38937 17.9792 7.62578 17.2156 6.68383 17.2156C5.74189 17.2156 4.97829 17.9792 4.97829 18.9211V22.1426C4.97829 22.8787 5.15417 23.5475 5.51065 24.1416L5.51058 24.1417L5.51407 24.1472C5.88036 24.7262 6.37709 25.1806 6.99886 25.5091Z"
        fill="#F00311" stroke="white" stroke-width="0.551226" />
    <path
        d="M0.833762 24.0988C0.833762 25.0407 1.59736 25.8043 2.5393 25.8043C3.48125 25.8043 4.24484 25.0407 4.24484 24.0988V14.9768C4.24484 14.0349 3.48125 13.2713 2.5393 13.2713C1.59736 13.2713 0.833762 14.0349 0.833762 14.9768V24.0988Z"
        fill="#F00311" stroke="white" stroke-width="0.551226" />
    <defs>
        <linearGradient id="paint0_linear_1802_25243" x1="38" y1="0" x2="38" y2="55" gradientUnits="userSpaceOnUse">
            <stop stop-color="#588C19" />
            <stop offset="1" stop-color="#316010" />
        </linearGradient>
    </defs>
</svg>