<svg width="24" height="24" viewBox="0 0 24 24" fill="none" xmlns="http://www.w3.org/2000/svg">
    <path fill-rule="evenodd" clip-rule="evenodd"
        d="M12 24C18.6274 24 24 18.6274 24 12C24 5.37258 18.6274 0 12 0C5.37258 0 0 5.37258 0 12C0 18.6274 5.37258 24 12 24Z"
        fill="#25D366" />
    <path fill-rule="evenodd" clip-rule="evenodd"
        d="M12.3979 18.6762H12.395C11.2007 18.6757 10.0273 18.3761 8.98507 17.8076L5.20239 18.7999L6.2147 15.1023C5.59026 14.0202 5.26168 12.7926 5.26222 11.535C5.26378 7.60075 8.4648 4.3999 12.3979 4.3999C14.3067 4.40073 16.0983 5.14384 17.4455 6.49261C18.7927 7.84131 19.5342 9.63407 19.5335 11.5407C19.5319 15.474 16.3321 18.6746 12.3979 18.6762ZM9.1571 16.5159L9.37367 16.6444C10.2843 17.1848 11.3281 17.4707 12.3923 17.4711H12.3947C15.6636 17.4711 18.3241 14.8105 18.3254 11.5403C18.326 9.95552 17.7097 8.46546 16.59 7.34441C15.4703 6.22336 13.9812 5.60568 12.397 5.60514C9.12563 5.60514 6.46505 8.26547 6.46376 11.5355C6.4633 12.6561 6.77685 13.7475 7.37054 14.6917L7.51155 14.9161L6.91241 17.1047L9.1571 16.5159ZM15.994 13.2375C15.9495 13.1631 15.8306 13.1185 15.6524 13.0292C15.4741 12.94 14.5975 12.5087 14.434 12.4491C14.2706 12.3897 14.1517 12.3599 14.0329 12.5384C13.914 12.7168 13.5724 13.1185 13.4683 13.2375C13.3643 13.3564 13.2603 13.3714 13.0821 13.2821C12.9038 13.1929 12.3293 13.0046 11.6483 12.3972C11.1182 11.9244 10.7604 11.3405 10.6564 11.162C10.5524 10.9835 10.6453 10.8871 10.7346 10.7982C10.8148 10.7183 10.9129 10.5899 11.002 10.4858C11.0912 10.3817 11.1209 10.3073 11.1803 10.1884C11.2397 10.0693 11.21 9.96527 11.1655 9.87602C11.1209 9.78677 10.7643 8.90917 10.6157 8.55217C10.471 8.2045 10.324 8.2516 10.2146 8.24611C10.1107 8.24089 9.99172 8.23979 9.87288 8.23979C9.75402 8.23979 9.56085 8.28442 9.39743 8.46292C9.23401 8.64142 8.77342 9.07277 8.77342 9.9503C8.77342 10.8279 9.41228 11.6757 9.50143 11.7947C9.59057 11.9137 10.7587 13.7146 12.5472 14.4869C12.9726 14.6706 13.3047 14.7803 13.5636 14.8624C13.9907 14.9982 14.3794 14.979 14.6866 14.9331C15.0292 14.8819 15.7415 14.5018 15.8901 14.0853C16.0386 13.6688 16.0386 13.3118 15.994 13.2375Z"
        fill="#FDFDFD" />
</svg>