<svg width="30" height="30" viewBox="0 0 30 30" fill="none" xmlns="http://www.w3.org/2000/svg">
<g clip-path="url(#clip0_3413_13028)">
<path d="M28.4375 3.12498C28.4375 2.8125 28.125 2.49996 27.8125 2.49996H21.875V0.62502C21.875 0.25002 21.625 0 21.25 0C20.875 0 20.625 0.25002 20.625 0.62502V7.5C20.625 7.875 20.875 8.12502 21.25 8.12502C21.625 8.12502 21.875 7.875 21.875 7.5V5.74998C22.625 6 23.1251 6.68748 23.1251 7.5C23.1251 8.56254 22.3125 9.37506 21.25 9.37506C20.1875 9.37506 19.3749 8.56254 19.3749 7.5C19.3749 7.06248 19.5624 6.62502 19.8125 6.24996C20.0625 5.99994 20 5.62494 19.75 5.37498C19.5 5.12496 19.125 5.18748 18.875 5.43744C18.375 6 18.125 6.74994 18.125 7.49994C18.125 9.24996 19.5 10.6249 21.25 10.6249C23 10.6249 24.375 9.24996 24.375 7.49994C24.375 5.99994 23.3125 4.7499 21.875 4.43742V3.75H27.1875L27.5 11.25H2.5L2.81248 3.75H6.87502C7.25002 3.75 7.50004 3.49998 7.50004 3.12498C7.50004 2.74998 7.25008 2.49996 6.87502 2.49996H2.18752C1.87504 2.49996 1.5625 2.74998 1.5625 3.12498L0.625 26.5625C0.625 28.4375 2.18752 30 4.06252 30H25.9375C26.875 30 27.6875 29.625 28.375 29C29 28.375 29.375 27.5 29.375 26.5625L28.4375 3.12498ZM27.5 28.1251C27.0625 28.5626 26.5625 28.7501 25.9375 28.7501H4.06252C2.87506 28.7501 1.87504 27.75 1.87504 26.5625L2.4376 12.5H27.5625L28.125 26.5625C28.125 27.125 27.875 27.6875 27.5 28.1251Z" fill="#007C0C"/>
<path d="M28.4375 3.12498C28.4375 2.8125 28.125 2.49996 27.8125 2.49996H21.875V0.62502C21.875 0.25002 21.625 0 21.25 0C20.875 0 20.625 0.25002 20.625 0.62502V7.5C20.625 7.875 20.875 8.12502 21.25 8.12502C21.625 8.12502 21.875 7.875 21.875 7.5V5.74998C22.625 6 23.1251 6.68748 23.1251 7.5C23.1251 8.56254 22.3125 9.37506 21.25 9.37506C20.1875 9.37506 19.3749 8.56254 19.3749 7.5C19.3749 7.06248 19.5624 6.62502 19.8125 6.24996C20.0625 5.99994 20 5.62494 19.75 5.37498C19.5 5.12496 19.125 5.18748 18.875 5.43744C18.375 6 18.125 6.74994 18.125 7.49994C18.125 9.24996 19.5 10.6249 21.25 10.6249C23 10.6249 24.375 9.24996 24.375 7.49994C24.375 5.99994 23.3125 4.7499 21.875 4.43742V3.75H27.1875L27.5 11.25H2.5L2.81248 3.75H6.87502C7.25002 3.75 7.50004 3.49998 7.50004 3.12498C7.50004 2.74998 7.25008 2.49996 6.87502 2.49996H2.18752C1.87504 2.49996 1.5625 2.74998 1.5625 3.12498L0.625 26.5625C0.625 28.4375 2.18752 30 4.06252 30H25.9375C26.875 30 27.6875 29.625 28.375 29C29 28.375 29.375 27.5 29.375 26.5625L28.4375 3.12498ZM27.5 28.1251C27.0625 28.5626 26.5625 28.7501 25.9375 28.7501H4.06252C2.87506 28.7501 1.87504 27.75 1.87504 26.5625L2.4376 12.5H27.5625L28.125 26.5625C28.125 27.125 27.875 27.6875 27.5 28.1251Z" fill="black" fill-opacity="0.2"/>
<path d="M8.74998 8.12502C9.12498 8.12502 9.375 7.87506 9.375 7.5V5.74998C10.1249 6 10.625 6.68748 10.625 7.5C10.625 8.56254 9.81252 9.37506 8.74998 9.37506C7.68744 9.37506 6.87492 8.56248 6.87492 7.5C6.87492 7.06248 7.06242 6.62502 7.31244 6.24996C7.56246 5.99994 7.49994 5.62494 7.24998 5.37498C6.99996 5.12496 6.62496 5.18748 6.375 5.43744C5.87502 6 5.625 6.74994 5.625 7.49994C5.625 9.24996 6.99996 10.6249 8.74998 10.6249C10.5 10.6249 11.875 9.24996 11.875 7.49994C11.875 5.99994 10.8125 4.7499 9.375 4.43742V3.75H19.375C19.75 3.75 20 3.49998 20 3.12498C20 2.74998 19.75 2.49996 19.375 2.49996H9.375V0.62502C9.375 0.25002 9.12498 0 8.74998 0C8.37498 0 8.12496 0.25002 8.12496 0.62502V7.5C8.12496 7.875 8.37492 8.12502 8.74998 8.12502Z" fill="#007C0C"/>
<path d="M8.74998 8.12502C9.12498 8.12502 9.375 7.87506 9.375 7.5V5.74998C10.1249 6 10.625 6.68748 10.625 7.5C10.625 8.56254 9.81252 9.37506 8.74998 9.37506C7.68744 9.37506 6.87492 8.56248 6.87492 7.5C6.87492 7.06248 7.06242 6.62502 7.31244 6.24996C7.56246 5.99994 7.49994 5.62494 7.24998 5.37498C6.99996 5.12496 6.62496 5.18748 6.375 5.43744C5.87502 6 5.625 6.74994 5.625 7.49994C5.625 9.24996 6.99996 10.6249 8.74998 10.6249C10.5 10.6249 11.875 9.24996 11.875 7.49994C11.875 5.99994 10.8125 4.7499 9.375 4.43742V3.75H19.375C19.75 3.75 20 3.49998 20 3.12498C20 2.74998 19.75 2.49996 19.375 2.49996H9.375V0.62502C9.375 0.25002 9.12498 0 8.74998 0C8.37498 0 8.12496 0.25002 8.12496 0.62502V7.5C8.12496 7.875 8.37492 8.12502 8.74998 8.12502Z" fill="black" fill-opacity="0.2"/>
<path d="M18.125 15.625H11.875C11.5 15.625 11.25 15.875 11.25 16.25C11.25 16.625 11.5 16.875 11.875 16.875H17L11.9999 24.6876C11.8124 25.0001 11.8749 25.3751 12.1874 25.5626C12.3125 25.625 12.4374 25.6876 12.4999 25.6876C12.6874 25.6876 12.9374 25.5626 12.9999 25.3751L18.6249 16.6251C18.7499 16.4376 18.7499 16.1876 18.6249 16.0001C18.5626 15.75 18.3751 15.625 18.125 15.625Z" fill="#007C0C"/>
<path d="M18.125 15.625H11.875C11.5 15.625 11.25 15.875 11.25 16.25C11.25 16.625 11.5 16.875 11.875 16.875H17L11.9999 24.6876C11.8124 25.0001 11.8749 25.3751 12.1874 25.5626C12.3125 25.625 12.4374 25.6876 12.4999 25.6876C12.6874 25.6876 12.9374 25.5626 12.9999 25.3751L18.6249 16.6251C18.7499 16.4376 18.7499 16.1876 18.6249 16.0001C18.5626 15.75 18.3751 15.625 18.125 15.625Z" fill="black" fill-opacity="0.2"/>
</g>
<defs>
<clipPath id="clip0_3413_13028">
<rect width="30" height="30" fill="white"/>
</clipPath>
</defs>
</svg>
