<svg width="30" height="30" viewBox="0 0 30 30" fill="none" xmlns="http://www.w3.org/2000/svg">
<g clip-path="url(#clip0_3413_13049)">
<path d="M6.69873 14.9999C6.69873 10.151 10.6295 6.22028 15.4784 6.22028C20.3272 6.22028 24.2579 10.151 24.2579 14.9999C24.2579 19.8488 20.3272 23.7795 15.4784 23.7795C10.6295 23.7795 6.69873 19.8488 6.69873 14.9999Z" stroke="#007C0C" stroke-width="1.3" stroke-miterlimit="10" stroke-linecap="round" stroke-linejoin="round"/>
<path d="M6.69873 14.9999C6.69873 10.151 10.6295 6.22028 15.4784 6.22028C20.3272 6.22028 24.2579 10.151 24.2579 14.9999C24.2579 19.8488 20.3272 23.7795 15.4784 23.7795C10.6295 23.7795 6.69873 19.8488 6.69873 14.9999Z" stroke="black" stroke-opacity="0.2" stroke-width="1.3" stroke-miterlimit="10" stroke-linecap="round" stroke-linejoin="round"/>
<path d="M15.478 12.4219V15" stroke="#007C0C" stroke-width="1.3" stroke-miterlimit="10" stroke-linecap="round" stroke-linejoin="round"/>
<path d="M15.478 12.4219V15" stroke="black" stroke-opacity="0.2" stroke-width="1.3" stroke-miterlimit="10" stroke-linecap="round" stroke-linejoin="round"/>
<path d="M20.8592 15H15.478" stroke="#007C0C" stroke-width="1.3" stroke-miterlimit="10" stroke-linecap="round" stroke-linejoin="round"/>
<path d="M20.8592 15H15.478" stroke="black" stroke-opacity="0.2" stroke-width="1.3" stroke-miterlimit="10" stroke-linecap="round" stroke-linejoin="round"/>
<path d="M16.8039 15.0085C16.8039 14.2717 16.2066 13.6744 15.4698 13.6744C14.733 13.6744 14.1357 14.2717 14.1357 15.0085C14.1357 15.7452 14.733 16.3425 15.4698 16.3425C16.2066 16.3425 16.8039 15.7452 16.8039 15.0085Z" fill="#007C0C"/>
<path d="M16.8039 15.0085C16.8039 14.2717 16.2066 13.6744 15.4698 13.6744C14.733 13.6744 14.1357 14.2717 14.1357 15.0085C14.1357 15.7452 14.733 16.3425 15.4698 16.3425C16.2066 16.3425 16.8039 15.7452 16.8039 15.0085Z" fill="black" fill-opacity="0.2"/>
<path d="M28.2422 25.3547C28.8894 25.3547 29.4141 24.8301 29.4141 24.1829V13.9772H27.0703V24.1829C27.0703 24.8301 27.595 25.3547 28.2422 25.3547Z" stroke="#007C0C" stroke-width="1.3" stroke-miterlimit="10" stroke-linecap="round" stroke-linejoin="round"/>
<path d="M28.2422 25.3547C28.8894 25.3547 29.4141 24.8301 29.4141 24.1829V13.9772H27.0703V24.1829C27.0703 24.8301 27.595 25.3547 28.2422 25.3547Z" stroke="black" stroke-opacity="0.2" stroke-width="1.3" stroke-miterlimit="10" stroke-linecap="round" stroke-linejoin="round"/>
<path d="M29.4141 4.64518V13.9771H27.0996C26.6951 13.9771 26.3672 13.6492 26.3672 13.2446V10.3472C26.3672 8.05703 27.5102 5.91801 29.4141 4.64518Z" stroke="#007C0C" stroke-width="1.3" stroke-miterlimit="10" stroke-linecap="round" stroke-linejoin="round"/>
<path d="M29.4141 4.64518V13.9771H27.0996C26.6951 13.9771 26.3672 13.6492 26.3672 13.2446V10.3472C26.3672 8.05703 27.5102 5.91801 29.4141 4.64518Z" stroke="black" stroke-opacity="0.2" stroke-width="1.3" stroke-miterlimit="10" stroke-linecap="round" stroke-linejoin="round"/>
<path d="M0.585938 7.81909V9.45954C0.585938 10.3269 1.05744 11.0836 1.75781 11.489V24.1829C1.75781 24.8301 2.28246 25.3547 2.92969 25.3547C3.57691 25.3547 4.10156 24.8301 4.10156 24.1829V11.489C4.80187 11.0836 5.27344 10.3269 5.27344 9.45954V7.81909H0.585938Z" stroke="#007C0C" stroke-width="1.3" stroke-miterlimit="10" stroke-linecap="round" stroke-linejoin="round"/>
<path d="M0.585938 7.81909V9.45954C0.585938 10.3269 1.05744 11.0836 1.75781 11.489V24.1829C1.75781 24.8301 2.28246 25.3547 2.92969 25.3547C3.57691 25.3547 4.10156 24.8301 4.10156 24.1829V11.489C4.80187 11.0836 5.27344 10.3269 5.27344 9.45954V7.81909H0.585938Z" stroke="black" stroke-opacity="0.2" stroke-width="1.3" stroke-miterlimit="10" stroke-linecap="round" stroke-linejoin="round"/>
<path d="M0.585938 7.81909V4.64524" stroke="#007C0C" stroke-width="1.3" stroke-miterlimit="10" stroke-linecap="round" stroke-linejoin="round"/>
<path d="M0.585938 7.81909V4.64524" stroke="black" stroke-opacity="0.2" stroke-width="1.3" stroke-miterlimit="10" stroke-linecap="round" stroke-linejoin="round"/>
<path d="M2.92969 7.81909V4.64524" stroke="#007C0C" stroke-width="1.3" stroke-miterlimit="10" stroke-linecap="round" stroke-linejoin="round"/>
<path d="M2.92969 7.81909V4.64524" stroke="black" stroke-opacity="0.2" stroke-width="1.3" stroke-miterlimit="10" stroke-linecap="round" stroke-linejoin="round"/>
<path d="M5.27344 7.81909V4.64524" stroke="#007C0C" stroke-width="1.3" stroke-miterlimit="10" stroke-linecap="round" stroke-linejoin="round"/>
<path d="M5.27344 7.81909V4.64524" stroke="black" stroke-opacity="0.2" stroke-width="1.3" stroke-miterlimit="10" stroke-linecap="round" stroke-linejoin="round"/>
</g>
<defs>
<clipPath id="clip0_3413_13049">
<rect width="30" height="30" fill="white"/>
</clipPath>
</defs>
</svg>
