<svg width="27" height="27" viewBox="0 0 27 27" fill="none" xmlns="http://www.w3.org/2000/svg">
    <path
        d="M26.1333 4.69379V21.4395C26.1333 24.0279 24.0279 26.1333 21.4395 26.1333H4.69379C2.10547 26.1333 0 24.0279 0 21.4395V4.69379C0 2.10547 2.10547 0 4.69379 0H21.4395C24.0279 0 26.1333 2.10547 26.1333 4.69379Z"
        fill="#8CC842" />
    <path
        d="M4.13795 3.70215L20.5849 20.1491C20.897 20.4612 21.0723 20.8845 21.0723 21.3259C21.0723 21.7672 20.897 22.1905 20.5849 22.5026C20.2728 22.8146 19.8495 22.9898 19.4082 22.9898C18.9669 22.9898 18.5436 22.8146 18.2315 22.5026L14.2138 18.4157C13.9509 18.1488 13.8034 17.7892 13.8031 17.4144V17.1676C13.8032 16.9784 13.7656 16.7911 13.6926 16.6165C13.6197 16.4419 13.5128 16.2836 13.3781 16.1507L12.8594 15.6717C12.6833 15.5092 12.4692 15.3936 12.2367 15.3356C12.0042 15.2775 11.7609 15.2789 11.5291 15.3395C11.1636 15.4349 10.7795 15.4331 10.4149 15.3342C10.0503 15.2353 9.71786 15.0428 9.45064 14.7757L5.63698 10.9616C3.37459 8.69923 2.54204 5.28288 4.13795 3.70215Z"
        stroke="white" stroke-linejoin="round" />
    <path
        d="M19.4281 2.99951L15.9797 6.44801C15.7143 6.71332 15.5038 7.0283 15.3602 7.37497C15.2166 7.72164 15.1426 8.09321 15.1426 8.46845V9.13181C15.1427 9.22567 15.1242 9.31861 15.0882 9.40531C15.0523 9.49202 14.9997 9.5708 14.9333 9.63715L14.4284 10.142M15.8569 11.5705L16.3618 11.0656C16.4281 10.9993 16.5069 10.9466 16.5936 10.9107C16.6803 10.8748 16.7733 10.8563 16.8671 10.8563H17.5305C17.9057 10.8563 18.2773 10.7824 18.6239 10.6388C18.9706 10.4951 19.2856 10.2846 19.5509 10.0193L22.9994 6.57077M21.2138 4.78514L17.6425 8.3564M10.5 17.9988L6.04842 22.4754C5.71357 22.8101 5.25947 22.9982 4.78598 22.9982C4.3125 22.9982 3.8584 22.8101 3.52354 22.4754C3.18879 22.1405 3.00073 21.6864 3.00073 21.2129C3.00073 20.7395 3.18879 20.2854 3.52354 19.9505L7.28586 16.2132"
        stroke="white" stroke-linecap="round" stroke-linejoin="round" />
</svg>