<svg width="27" height="27" viewBox="0 0 27 27" fill="none" xmlns="http://www.w3.org/2000/svg">
    <path
        d="M26.1333 4.69379V21.4395C26.1333 24.0279 24.0279 26.1333 21.4395 26.1333H4.69379C2.10547 26.1333 0 24.0279 0 21.4395V4.69379C0 2.10547 2.10547 0 4.69379 0H21.4395C24.0279 0 26.1333 2.10547 26.1333 4.69379Z"
        fill="#F3F6F8" />
    <path
        d="M4.13795 3.70239L20.5849 20.1494C20.897 20.4615 21.0723 20.8848 21.0723 21.3261C21.0723 21.7675 20.897 22.1908 20.5849 22.5028C20.2728 22.8148 19.8495 22.9901 19.4082 22.9901C18.9669 22.9901 18.5436 22.8148 18.2315 22.5028L14.2138 18.416C13.9509 18.149 13.8034 17.7894 13.8031 17.4147V17.1678C13.8032 16.9786 13.7656 16.7913 13.6926 16.6167C13.6197 16.4422 13.5128 16.2838 13.3781 16.1509L12.8594 15.6719C12.6833 15.5094 12.4692 15.3939 12.2367 15.3358C12.0042 15.2778 11.7609 15.2791 11.5291 15.3398C11.1636 15.4352 10.7795 15.4333 10.4149 15.3344C10.0503 15.2355 9.71786 15.043 9.45064 14.776L5.63698 10.9619C3.37459 8.69948 2.54204 5.28312 4.13795 3.70239Z"
        stroke="#007C0C" stroke-linejoin="round" />
    <path
        d="M4.13795 3.70239L20.5849 20.1494C20.897 20.4615 21.0723 20.8848 21.0723 21.3261C21.0723 21.7675 20.897 22.1908 20.5849 22.5028C20.2728 22.8148 19.8495 22.9901 19.4082 22.9901C18.9669 22.9901 18.5436 22.8148 18.2315 22.5028L14.2138 18.416C13.9509 18.149 13.8034 17.7894 13.8031 17.4147V17.1678C13.8032 16.9786 13.7656 16.7913 13.6926 16.6167C13.6197 16.4422 13.5128 16.2838 13.3781 16.1509L12.8594 15.6719C12.6833 15.5094 12.4692 15.3939 12.2367 15.3358C12.0042 15.2778 11.7609 15.2791 11.5291 15.3398C11.1636 15.4352 10.7795 15.4333 10.4149 15.3344C10.0503 15.2355 9.71786 15.043 9.45064 14.776L5.63698 10.9619C3.37459 8.69948 2.54204 5.28312 4.13795 3.70239Z"
        stroke="black" stroke-opacity="0.2" stroke-linejoin="round" />
    <path
        d="M19.4281 2.99976L15.9797 6.44825C15.7143 6.71356 15.5038 7.02855 15.3602 7.37522C15.2166 7.72189 15.1426 8.09345 15.1426 8.46869V9.13206C15.1427 9.22591 15.1242 9.31885 15.0882 9.40556C15.0523 9.49227 14.9997 9.57105 14.9333 9.63739L14.4284 10.1423M15.8569 11.5708L16.3618 11.0659C16.4281 10.9995 16.5069 10.9468 16.5936 10.9109C16.6803 10.875 16.7733 10.8565 16.8671 10.8565H17.5305C17.9057 10.8565 18.2773 10.7826 18.6239 10.639C18.9706 10.4954 19.2856 10.2849 19.5509 10.0195L22.9994 6.57102M21.2138 4.78539L17.6425 8.35665M10.5 17.999L6.04842 22.4756C5.71357 22.8104 5.25947 22.9984 4.78598 22.9984C4.3125 22.9984 3.8584 22.8104 3.52354 22.4756C3.18879 22.1408 3.00073 21.6867 3.00073 21.2132C3.00073 20.7397 3.18879 20.2856 3.52354 19.9507L7.28586 16.2134"
        stroke="#8CC842" stroke-linecap="round" stroke-linejoin="round" />
</svg>