<svg width="28" height="28" viewBox="0 0 28 28" fill="none" xmlns="http://www.w3.org/2000/svg">
    <g clip-path="url(#clip0_658_4559)">
        <path
            d="M28 5.02906V22.9709C28 25.7441 25.7441 28 22.9709 28H5.02906C2.25586 28 0 25.7441 0 22.9709V5.02906C0 2.25586 2.25586 0 5.02906 0H22.9709C25.7441 0 28 2.25586 28 5.02906Z"
            fill="#8CC842" />
        <path
            d="M23.6627 21.8508H4.33726C3.24788 21.8508 3.24733 20.2036 4.33726 20.2036H23.6627C24.7521 20.2036 24.7526 21.8508 23.6627 21.8508Z"
            fill="white" />
        <path
            d="M23.5802 14.7409H4.25478C3.1654 14.7409 3.1654 13.0942 4.25478 13.0942H23.5802C24.6702 13.0942 24.6702 14.7409 23.5802 14.7409Z"
            fill="white" />
        <path
            d="M23.5802 7.71359H4.25478C3.1654 7.71359 3.1654 6.06641 4.25478 6.06641H23.5802C24.6702 6.06641 24.6702 7.71359 23.5802 7.71359Z"
            fill="white" />
        <path
            d="M19.2706 16.5802C20.6957 16.5802 21.8509 15.4249 21.8509 13.9998C21.8509 12.5747 20.6957 11.4194 19.2706 11.4194C17.8455 11.4194 16.6902 12.5747 16.6902 13.9998C16.6902 15.4249 17.8455 16.5802 19.2706 16.5802Z"
            fill="white" />
        <path
            d="M12.2432 23.608C13.6683 23.608 14.8236 22.4527 14.8236 21.0276C14.8236 19.6025 13.6683 18.4473 12.2432 18.4473C10.8181 18.4473 9.66284 19.6025 9.66284 21.0276C9.66284 22.4527 10.8181 23.608 12.2432 23.608Z"
            fill="white" />
        <path
            d="M8.72954 9.55284C10.1546 9.55284 11.3099 8.39757 11.3099 6.97246C11.3099 5.54736 10.1546 4.39209 8.72954 4.39209C7.30444 4.39209 6.14917 5.54736 6.14917 6.97246C6.14917 8.39757 7.30444 9.55284 8.72954 9.55284Z"
            fill="white" />
    </g>
    <defs>
        <clipPath id="clip0_658_4559">
            <rect width="28" height="28" fill="white" />
        </clipPath>
    </defs>
</svg>