<svg width="28" height="28" viewBox="0 0 28 28" fill="none" xmlns="http://www.w3.org/2000/svg">
    <g clip-path="url(#clip0_680_4450)">
        <path
            d="M28 5.02906V22.9709C28 25.7441 25.7441 28 22.9709 28H5.02906C2.25586 28 0 25.7441 0 22.9709V5.02906C0 2.25586 2.25586 0 5.02906 0H22.9709C25.7441 0 28 2.25586 28 5.02906Z"
            fill="#F3F6F8" />
        <path d="M4 11H11.3636V13H4V11ZM4 15H9.72727V17H4V15ZM4 7H13V9H4V7ZM4 19H9.09091V21H4V19Z" fill="#007C0C" />
        <path d="M4 11H11.3636V13H4V11ZM4 15H9.72727V17H4V15ZM4 7H13V9H4V7ZM4 19H9.09091V21H4V19Z" fill="black"
            fill-opacity="0.2" />
        <path
            d="M18.0027 19C17.0133 19.0002 16.046 18.707 15.2233 18.1574C14.4006 17.6079 13.7594 16.8268 13.3807 15.9128C13.0021 14.9988 12.9031 13.9931 13.0962 13.0229C13.2893 12.0527 13.7659 11.1615 14.4657 10.4622C16.4154 8.51261 19.5878 8.51261 21.5377 10.4622C23.4876 12.4117 23.4873 15.5833 21.5377 17.5329C21.0738 17.9978 20.5229 18.3666 19.9163 18.6184C19.3097 18.8701 18.6595 18.9998 18.0027 19ZM18.0027 10.2793C17.204 10.28 16.4268 10.5377 15.7858 11.0141C15.1448 11.4905 14.6741 12.1604 14.4432 12.9249C14.2123 13.6893 14.2335 14.5077 14.5036 15.2592C14.7738 16.0107 15.2785 16.6554 15.9433 17.098C16.1517 17.2368 16.3737 17.354 16.606 17.4477C17.2834 17.7223 18.0267 17.7911 18.743 17.6455C19.4593 17.4999 20.1168 17.1463 20.6332 16.6291C22.0842 15.1784 22.0842 12.8175 20.6332 11.3672C20.2879 11.0214 19.8777 10.7472 19.4261 10.5604C18.9745 10.3735 18.4904 10.2777 18.0017 10.2785L18.0027 10.2793Z"
            fill="#8CC842" />
        <path
            d="M24.3906 21C24.3106 21.0001 24.2313 20.9844 24.1574 20.9538C24.0834 20.9232 24.0163 20.8782 23.9597 20.8216L21.1785 18.0403C21.0642 17.926 21 17.771 21 17.6094C21 17.4478 21.0642 17.2928 21.1785 17.1785C21.2928 17.0642 21.4477 17 21.6094 17C21.771 17 21.926 17.0642 22.0402 17.1785L24.8215 19.9598C24.9067 20.045 24.9648 20.1536 24.9883 20.2718C25.0118 20.39 24.9997 20.5125 24.9536 20.6239C24.9075 20.7352 24.8294 20.8304 24.7292 20.8974C24.6289 20.9643 24.5111 21 24.3906 21Z"
            fill="#8CC842" />
    </g>
    <defs>
        <clipPath id="clip0_680_4450">
            <rect width="28" height="28" fill="white" />
        </clipPath>
    </defs>
</svg>