<svg width="28" height="28" viewBox="0 0 28 28" fill="none" xmlns="http://www.w3.org/2000/svg">
    <path
        d="M27.125 23.626H14.875C14.392 23.626 14 23.234 14 22.751C14 22.268 14 5.73398 14 5.25098C14 4.76798 14.392 4.37598 14.875 4.37598H27.125C27.608 4.37598 28 4.76798 28 5.25098V22.751C28 23.234 27.608 23.626 27.125 23.626Z"
        fill="#F3F6F8" />
    <path
        d="M19.375 9.62549H15.875C15.392 9.62549 15 9.23349 15 8.75049C15 8.26749 15.392 7.87549 15.875 7.87549H19.375C19.858 7.87549 20.25 8.26749 20.25 8.75049C20.25 9.23349 19.858 9.62549 19.375 9.62549Z"
        fill="#007C0C" />
    <path
        d="M19.375 9.62549H15.875C15.392 9.62549 15 9.23349 15 8.75049C15 8.26749 15.392 7.87549 15.875 7.87549H19.375C19.858 7.87549 20.25 8.26749 20.25 8.75049C20.25 9.23349 19.858 9.62549 19.375 9.62549Z"
        fill="black" fill-opacity="0.2" />
    <path
        d="M19.375 13.1255H15.875C15.392 13.1255 15 12.7335 15 12.2505C15 11.7675 15.392 11.3755 15.875 11.3755H19.375C19.858 11.3755 20.25 11.7675 20.25 12.2505C20.25 12.7335 19.858 13.1255 19.375 13.1255Z"
        fill="#007C0C" />
    <path
        d="M19.375 13.1255H15.875C15.392 13.1255 15 12.7335 15 12.2505C15 11.7675 15.392 11.3755 15.875 11.3755H19.375C19.858 11.3755 20.25 11.7675 20.25 12.2505C20.25 12.7335 19.858 13.1255 19.375 13.1255Z"
        fill="black" fill-opacity="0.2" />
    <path
        d="M19.375 16.6255H15.875C15.392 16.6255 15 16.2335 15 15.7505C15 15.2675 15.392 14.8755 15.875 14.8755H19.375C19.858 14.8755 20.25 15.2675 20.25 15.7505C20.25 16.2335 19.858 16.6255 19.375 16.6255Z"
        fill="#007C0C" />
    <path
        d="M19.375 16.6255H15.875C15.392 16.6255 15 16.2335 15 15.7505C15 15.2675 15.392 14.8755 15.875 14.8755H19.375C19.858 14.8755 20.25 15.2675 20.25 15.7505C20.25 16.2335 19.858 16.6255 19.375 16.6255Z"
        fill="black" fill-opacity="0.2" />
    <path
        d="M19.375 20.1255H15.875C15.392 20.1255 15 19.7335 15 19.2505C15 18.7675 15.392 18.3755 15.875 18.3755H19.375C19.858 18.3755 20.25 18.7675 20.25 19.2505C20.25 19.7335 19.858 20.1255 19.375 20.1255Z"
        fill="#007C0C" />
    <path
        d="M19.375 20.1255H15.875C15.392 20.1255 15 19.7335 15 19.2505C15 18.7675 15.392 18.3755 15.875 18.3755H19.375C19.858 18.3755 20.25 18.7675 20.25 19.2505C20.25 19.7335 19.858 20.1255 19.375 20.1255Z"
        fill="black" fill-opacity="0.2" />
    <path
        d="M24.625 9.62549H22.875C22.392 9.62549 22 9.23349 22 8.75049C22 8.26749 22.392 7.87549 22.875 7.87549H24.625C25.108 7.87549 25.5 8.26749 25.5 8.75049C25.5 9.23349 25.108 9.62549 24.625 9.62549Z"
        fill="#007C0C" />
    <path
        d="M24.625 9.62549H22.875C22.392 9.62549 22 9.23349 22 8.75049C22 8.26749 22.392 7.87549 22.875 7.87549H24.625C25.108 7.87549 25.5 8.26749 25.5 8.75049C25.5 9.23349 25.108 9.62549 24.625 9.62549Z"
        fill="black" fill-opacity="0.2" />
    <path
        d="M24.625 13.1255H22.875C22.392 13.1255 22 12.7335 22 12.2505C22 11.7675 22.392 11.3755 22.875 11.3755H24.625C25.108 11.3755 25.5 11.7675 25.5 12.2505C25.5 12.7335 25.108 13.1255 24.625 13.1255Z"
        fill="#007C0C" />
    <path
        d="M24.625 13.1255H22.875C22.392 13.1255 22 12.7335 22 12.2505C22 11.7675 22.392 11.3755 22.875 11.3755H24.625C25.108 11.3755 25.5 11.7675 25.5 12.2505C25.5 12.7335 25.108 13.1255 24.625 13.1255Z"
        fill="black" fill-opacity="0.2" />
    <path
        d="M24.625 16.6255H22.875C22.392 16.6255 22 16.2335 22 15.7505C22 15.2675 22.392 14.8755 22.875 14.8755H24.625C25.108 14.8755 25.5 15.2675 25.5 15.7505C25.5 16.2335 25.108 16.6255 24.625 16.6255Z"
        fill="#007C0C" />
    <path
        d="M24.625 16.6255H22.875C22.392 16.6255 22 16.2335 22 15.7505C22 15.2675 22.392 14.8755 22.875 14.8755H24.625C25.108 14.8755 25.5 15.2675 25.5 15.7505C25.5 16.2335 25.108 16.6255 24.625 16.6255Z"
        fill="black" fill-opacity="0.2" />
    <path
        d="M24.625 20.1255H22.875C22.392 20.1255 22 19.7335 22 19.2505C22 18.7675 22.392 18.3755 22.875 18.3755H24.625C25.108 18.3755 25.5 18.7675 25.5 19.2505C25.5 19.7335 25.108 20.1255 24.625 20.1255Z"
        fill="#007C0C" />
    <path
        d="M24.625 20.1255H22.875C22.392 20.1255 22 19.7335 22 19.2505C22 18.7675 22.392 18.3755 22.875 18.3755H24.625C25.108 18.3755 25.5 18.7675 25.5 19.2505C25.5 19.7335 25.108 20.1255 24.625 20.1255Z"
        fill="black" fill-opacity="0.2" />
    <path
        d="M16.4333 1.07694C16.2338 0.910691 15.966 0.838941 15.714 0.891441L1.714 3.51644C1.29925 3.59344 1 3.95394 1 4.37569V23.6257C1 24.0457 1.29925 24.4079 1.714 24.4849L15.714 27.1099C15.7665 27.1204 15.8208 27.1257 15.875 27.1257C16.078 27.1257 16.2758 27.0557 16.4333 26.9244C16.6345 26.7582 16.75 26.5097 16.75 26.2507V1.75069C16.75 1.48994 16.6345 1.24319 16.4333 1.07694Z"
        fill="#669B11" />
    <path
        d="M13.0339 16.9249L10.2672 13.7626L13.0654 10.1646C13.3629 9.78312 13.2929 9.23361 12.9132 8.93611C12.5334 8.63861 11.9839 8.70861 11.6847 9.08836L9.0929 12.4204L6.9089 9.92486C6.58865 9.55736 6.03565 9.52412 5.67515 9.84262C5.31115 10.1611 5.2744 10.7141 5.5929 11.0764L7.99915 13.8274L5.55965 16.9634C5.26215 17.3449 5.33215 17.8944 5.7119 18.1919C5.8729 18.3161 6.06365 18.3756 6.2509 18.3756C6.51165 18.3756 6.7689 18.2601 6.94215 18.0379L9.1734 15.1679L11.7179 18.0746C11.8912 18.2741 12.1326 18.3756 12.3759 18.3756C12.5806 18.3756 12.7854 18.3039 12.9517 18.1586C13.3156 17.8401 13.3524 17.2871 13.0339 16.9249Z"
        fill="white" />
</svg>