<svg width="30" height="30" viewBox="0 0 30 30" fill="none" xmlns="http://www.w3.org/2000/svg">
<path d="M25.3125 3.75H24.375V2.8125C24.375 2.56386 24.2762 2.3254 24.1004 2.14959C23.9246 1.97377 23.6861 1.875 23.4375 1.875C23.1889 1.875 22.9504 1.97377 22.7746 2.14959C22.5988 2.3254 22.5 2.56386 22.5 2.8125V3.75H18.75V2.8125C18.75 2.56386 18.6512 2.3254 18.4754 2.14959C18.2996 1.97377 18.0611 1.875 17.8125 1.875C17.5639 1.875 17.3254 1.97377 17.1496 2.14959C16.9738 2.3254 16.875 2.56386 16.875 2.8125V3.75H13.125V2.8125C13.125 2.56386 13.0262 2.3254 12.8504 2.14959C12.6746 1.97377 12.4361 1.875 12.1875 1.875C11.9389 1.875 11.7004 1.97377 11.5246 2.14959C11.3488 2.3254 11.25 2.56386 11.25 2.8125V3.75H7.5V2.8125C7.5 2.56386 7.40123 2.3254 7.22541 2.14959C7.0496 1.97377 6.81114 1.875 6.5625 1.875C6.31386 1.875 6.0754 1.97377 5.89959 2.14959C5.72377 2.3254 5.625 2.56386 5.625 2.8125V3.75H4.6875C3.94158 3.75 3.22621 4.04632 2.69876 4.57376C2.17132 5.10121 1.875 5.81658 1.875 6.5625V25.3125C1.875 26.0584 2.17132 26.7738 2.69876 27.3012C3.22621 27.8287 3.94158 28.125 4.6875 28.125H25.3125C26.0584 28.125 26.7738 27.8287 27.3012 27.3012C27.8287 26.7738 28.125 26.0584 28.125 25.3125V6.5625C28.125 5.81658 27.8287 5.10121 27.3012 4.57376C26.7738 4.04632 26.0584 3.75 25.3125 3.75ZM26.25 25.3125C26.25 25.5611 26.1512 25.7996 25.9754 25.9754C25.7996 26.1512 25.5611 26.25 25.3125 26.25H4.6875C4.43886 26.25 4.2004 26.1512 4.02459 25.9754C3.84877 25.7996 3.75 25.5611 3.75 25.3125V12.1875H26.25V25.3125ZM26.25 10.3125H3.75V6.5625C3.75 6.31386 3.84877 6.0754 4.02459 5.89959C4.2004 5.72377 4.43886 5.625 4.6875 5.625H5.625V6.5625C5.625 6.81114 5.72377 7.0496 5.89959 7.22541C6.0754 7.40123 6.31386 7.5 6.5625 7.5C6.81114 7.5 7.0496 7.40123 7.22541 7.22541C7.40123 7.0496 7.5 6.81114 7.5 6.5625V5.625H11.25V6.5625C11.25 6.81114 11.3488 7.0496 11.5246 7.22541C11.7004 7.40123 11.9389 7.5 12.1875 7.5C12.4361 7.5 12.6746 7.40123 12.8504 7.22541C13.0262 7.0496 13.125 6.81114 13.125 6.5625V5.625H16.875V6.5625C16.875 6.81114 16.9738 7.0496 17.1496 7.22541C17.3254 7.40123 17.5639 7.5 17.8125 7.5C18.0611 7.5 18.2996 7.40123 18.4754 7.22541C18.6512 7.0496 18.75 6.81114 18.75 6.5625V5.625H22.5V6.5625C22.5 6.81114 22.5988 7.0496 22.7746 7.22541C22.9504 7.40123 23.1889 7.5 23.4375 7.5C23.6861 7.5 23.9246 7.40123 24.1004 7.22541C24.2762 7.0496 24.375 6.81114 24.375 6.5625V5.625H25.3125C25.5611 5.625 25.7996 5.72377 25.9754 5.89959C26.1512 6.0754 26.25 6.31386 26.25 6.5625V10.3125Z" fill="#007C0C"/>
<path d="M25.3125 3.75H24.375V2.8125C24.375 2.56386 24.2762 2.3254 24.1004 2.14959C23.9246 1.97377 23.6861 1.875 23.4375 1.875C23.1889 1.875 22.9504 1.97377 22.7746 2.14959C22.5988 2.3254 22.5 2.56386 22.5 2.8125V3.75H18.75V2.8125C18.75 2.56386 18.6512 2.3254 18.4754 2.14959C18.2996 1.97377 18.0611 1.875 17.8125 1.875C17.5639 1.875 17.3254 1.97377 17.1496 2.14959C16.9738 2.3254 16.875 2.56386 16.875 2.8125V3.75H13.125V2.8125C13.125 2.56386 13.0262 2.3254 12.8504 2.14959C12.6746 1.97377 12.4361 1.875 12.1875 1.875C11.9389 1.875 11.7004 1.97377 11.5246 2.14959C11.3488 2.3254 11.25 2.56386 11.25 2.8125V3.75H7.5V2.8125C7.5 2.56386 7.40123 2.3254 7.22541 2.14959C7.0496 1.97377 6.81114 1.875 6.5625 1.875C6.31386 1.875 6.0754 1.97377 5.89959 2.14959C5.72377 2.3254 5.625 2.56386 5.625 2.8125V3.75H4.6875C3.94158 3.75 3.22621 4.04632 2.69876 4.57376C2.17132 5.10121 1.875 5.81658 1.875 6.5625V25.3125C1.875 26.0584 2.17132 26.7738 2.69876 27.3012C3.22621 27.8287 3.94158 28.125 4.6875 28.125H25.3125C26.0584 28.125 26.7738 27.8287 27.3012 27.3012C27.8287 26.7738 28.125 26.0584 28.125 25.3125V6.5625C28.125 5.81658 27.8287 5.10121 27.3012 4.57376C26.7738 4.04632 26.0584 3.75 25.3125 3.75ZM26.25 25.3125C26.25 25.5611 26.1512 25.7996 25.9754 25.9754C25.7996 26.1512 25.5611 26.25 25.3125 26.25H4.6875C4.43886 26.25 4.2004 26.1512 4.02459 25.9754C3.84877 25.7996 3.75 25.5611 3.75 25.3125V12.1875H26.25V25.3125ZM26.25 10.3125H3.75V6.5625C3.75 6.31386 3.84877 6.0754 4.02459 5.89959C4.2004 5.72377 4.43886 5.625 4.6875 5.625H5.625V6.5625C5.625 6.81114 5.72377 7.0496 5.89959 7.22541C6.0754 7.40123 6.31386 7.5 6.5625 7.5C6.81114 7.5 7.0496 7.40123 7.22541 7.22541C7.40123 7.0496 7.5 6.81114 7.5 6.5625V5.625H11.25V6.5625C11.25 6.81114 11.3488 7.0496 11.5246 7.22541C11.7004 7.40123 11.9389 7.5 12.1875 7.5C12.4361 7.5 12.6746 7.40123 12.8504 7.22541C13.0262 7.0496 13.125 6.81114 13.125 6.5625V5.625H16.875V6.5625C16.875 6.81114 16.9738 7.0496 17.1496 7.22541C17.3254 7.40123 17.5639 7.5 17.8125 7.5C18.0611 7.5 18.2996 7.40123 18.4754 7.22541C18.6512 7.0496 18.75 6.81114 18.75 6.5625V5.625H22.5V6.5625C22.5 6.81114 22.5988 7.0496 22.7746 7.22541C22.9504 7.40123 23.1889 7.5 23.4375 7.5C23.6861 7.5 23.9246 7.40123 24.1004 7.22541C24.2762 7.0496 24.375 6.81114 24.375 6.5625V5.625H25.3125C25.5611 5.625 25.7996 5.72377 25.9754 5.89959C26.1512 6.0754 26.25 6.31386 26.25 6.5625V10.3125Z" fill="black" fill-opacity="0.2"/>
<path d="M25.3125 3.75H24.375V2.8125C24.375 2.56386 24.2762 2.3254 24.1004 2.14959C23.9246 1.97377 23.6861 1.875 23.4375 1.875C23.1889 1.875 22.9504 1.97377 22.7746 2.14959C22.5988 2.3254 22.5 2.56386 22.5 2.8125V3.75H18.75V2.8125C18.75 2.56386 18.6512 2.3254 18.4754 2.14959C18.2996 1.97377 18.0611 1.875 17.8125 1.875C17.5639 1.875 17.3254 1.97377 17.1496 2.14959C16.9738 2.3254 16.875 2.56386 16.875 2.8125V3.75H13.125V2.8125C13.125 2.56386 13.0262 2.3254 12.8504 2.14959C12.6746 1.97377 12.4361 1.875 12.1875 1.875C11.9389 1.875 11.7004 1.97377 11.5246 2.14959C11.3488 2.3254 11.25 2.56386 11.25 2.8125V3.75H7.5V2.8125C7.5 2.56386 7.40123 2.3254 7.22541 2.14959C7.0496 1.97377 6.81114 1.875 6.5625 1.875C6.31386 1.875 6.0754 1.97377 5.89959 2.14959C5.72377 2.3254 5.625 2.56386 5.625 2.8125V3.75H4.6875C3.94158 3.75 3.22621 4.04632 2.69876 4.57376C2.17132 5.10121 1.875 5.81658 1.875 6.5625V25.3125C1.875 26.0584 2.17132 26.7738 2.69876 27.3012C3.22621 27.8287 3.94158 28.125 4.6875 28.125H25.3125C26.0584 28.125 26.7738 27.8287 27.3012 27.3012C27.8287 26.7738 28.125 26.0584 28.125 25.3125V6.5625C28.125 5.81658 27.8287 5.10121 27.3012 4.57376C26.7738 4.04632 26.0584 3.75 25.3125 3.75ZM26.25 25.3125C26.25 25.5611 26.1512 25.7996 25.9754 25.9754C25.7996 26.1512 25.5611 26.25 25.3125 26.25H4.6875C4.43886 26.25 4.2004 26.1512 4.02459 25.9754C3.84877 25.7996 3.75 25.5611 3.75 25.3125V12.1875H26.25V25.3125ZM26.25 10.3125H3.75V6.5625C3.75 6.31386 3.84877 6.0754 4.02459 5.89959C4.2004 5.72377 4.43886 5.625 4.6875 5.625H5.625V6.5625C5.625 6.81114 5.72377 7.0496 5.89959 7.22541C6.0754 7.40123 6.31386 7.5 6.5625 7.5C6.81114 7.5 7.0496 7.40123 7.22541 7.22541C7.40123 7.0496 7.5 6.81114 7.5 6.5625V5.625H11.25V6.5625C11.25 6.81114 11.3488 7.0496 11.5246 7.22541C11.7004 7.40123 11.9389 7.5 12.1875 7.5C12.4361 7.5 12.6746 7.40123 12.8504 7.22541C13.0262 7.0496 13.125 6.81114 13.125 6.5625V5.625H16.875V6.5625C16.875 6.81114 16.9738 7.0496 17.1496 7.22541C17.3254 7.40123 17.5639 7.5 17.8125 7.5C18.0611 7.5 18.2996 7.40123 18.4754 7.22541C18.6512 7.0496 18.75 6.81114 18.75 6.5625V5.625H22.5V6.5625C22.5 6.81114 22.5988 7.0496 22.7746 7.22541C22.9504 7.40123 23.1889 7.5 23.4375 7.5C23.6861 7.5 23.9246 7.40123 24.1004 7.22541C24.2762 7.0496 24.375 6.81114 24.375 6.5625V5.625H25.3125C25.5611 5.625 25.7996 5.72377 25.9754 5.89959C26.1512 6.0754 26.25 6.31386 26.25 6.5625V10.3125Z" stroke="#F3F6F8" stroke-width="0.4"/>
<path d="M14.0625 17.8125H15.9375C16.1861 17.8125 16.4246 17.7137 16.6004 17.5379C16.7762 17.3621 16.875 17.1236 16.875 16.875C16.875 16.6264 16.7762 16.3879 16.6004 16.2121C16.4246 16.0363 16.1861 15.9375 15.9375 15.9375H14.0625C13.8139 15.9375 13.5754 16.0363 13.3996 16.2121C13.2238 16.3879 13.125 16.6264 13.125 16.875C13.125 17.1236 13.2238 17.3621 13.3996 17.5379C13.5754 17.7137 13.8139 17.8125 14.0625 17.8125Z" fill="#007C0C"/>
<path d="M14.0625 17.8125H15.9375C16.1861 17.8125 16.4246 17.7137 16.6004 17.5379C16.7762 17.3621 16.875 17.1236 16.875 16.875C16.875 16.6264 16.7762 16.3879 16.6004 16.2121C16.4246 16.0363 16.1861 15.9375 15.9375 15.9375H14.0625C13.8139 15.9375 13.5754 16.0363 13.3996 16.2121C13.2238 16.3879 13.125 16.6264 13.125 16.875C13.125 17.1236 13.2238 17.3621 13.3996 17.5379C13.5754 17.7137 13.8139 17.8125 14.0625 17.8125Z" fill="black" fill-opacity="0.2"/>
<path d="M14.0625 17.8125H15.9375C16.1861 17.8125 16.4246 17.7137 16.6004 17.5379C16.7762 17.3621 16.875 17.1236 16.875 16.875C16.875 16.6264 16.7762 16.3879 16.6004 16.2121C16.4246 16.0363 16.1861 15.9375 15.9375 15.9375H14.0625C13.8139 15.9375 13.5754 16.0363 13.3996 16.2121C13.2238 16.3879 13.125 16.6264 13.125 16.875C13.125 17.1236 13.2238 17.3621 13.3996 17.5379C13.5754 17.7137 13.8139 17.8125 14.0625 17.8125Z" stroke="#F3F6F8" stroke-width="0.4"/>
<path d="M7.5 17.8125H9.375C9.62364 17.8125 9.8621 17.7137 10.0379 17.5379C10.2137 17.3621 10.3125 17.1236 10.3125 16.875C10.3125 16.6264 10.2137 16.3879 10.0379 16.2121C9.8621 16.0363 9.62364 15.9375 9.375 15.9375H7.5C7.25136 15.9375 7.0129 16.0363 6.83709 16.2121C6.66127 16.3879 6.5625 16.6264 6.5625 16.875C6.5625 17.1236 6.66127 17.3621 6.83709 17.5379C7.0129 17.7137 7.25136 17.8125 7.5 17.8125Z" fill="#007C0C"/>
<path d="M7.5 17.8125H9.375C9.62364 17.8125 9.8621 17.7137 10.0379 17.5379C10.2137 17.3621 10.3125 17.1236 10.3125 16.875C10.3125 16.6264 10.2137 16.3879 10.0379 16.2121C9.8621 16.0363 9.62364 15.9375 9.375 15.9375H7.5C7.25136 15.9375 7.0129 16.0363 6.83709 16.2121C6.66127 16.3879 6.5625 16.6264 6.5625 16.875C6.5625 17.1236 6.66127 17.3621 6.83709 17.5379C7.0129 17.7137 7.25136 17.8125 7.5 17.8125Z" fill="black" fill-opacity="0.2"/>
<path d="M7.5 17.8125H9.375C9.62364 17.8125 9.8621 17.7137 10.0379 17.5379C10.2137 17.3621 10.3125 17.1236 10.3125 16.875C10.3125 16.6264 10.2137 16.3879 10.0379 16.2121C9.8621 16.0363 9.62364 15.9375 9.375 15.9375H7.5C7.25136 15.9375 7.0129 16.0363 6.83709 16.2121C6.66127 16.3879 6.5625 16.6264 6.5625 16.875C6.5625 17.1236 6.66127 17.3621 6.83709 17.5379C7.0129 17.7137 7.25136 17.8125 7.5 17.8125Z" stroke="#F3F6F8" stroke-width="0.4"/>
<path d="M20.625 17.8125H22.5C22.7486 17.8125 22.9871 17.7137 23.1629 17.5379C23.3387 17.3621 23.4375 17.1236 23.4375 16.875C23.4375 16.6264 23.3387 16.3879 23.1629 16.2121C22.9871 16.0363 22.7486 15.9375 22.5 15.9375H20.625C20.3764 15.9375 20.1379 16.0363 19.9621 16.2121C19.7863 16.3879 19.6875 16.6264 19.6875 16.875C19.6875 17.1236 19.7863 17.3621 19.9621 17.5379C20.1379 17.7137 20.3764 17.8125 20.625 17.8125Z" fill="#007C0C"/>
<path d="M20.625 17.8125H22.5C22.7486 17.8125 22.9871 17.7137 23.1629 17.5379C23.3387 17.3621 23.4375 17.1236 23.4375 16.875C23.4375 16.6264 23.3387 16.3879 23.1629 16.2121C22.9871 16.0363 22.7486 15.9375 22.5 15.9375H20.625C20.3764 15.9375 20.1379 16.0363 19.9621 16.2121C19.7863 16.3879 19.6875 16.6264 19.6875 16.875C19.6875 17.1236 19.7863 17.3621 19.9621 17.5379C20.1379 17.7137 20.3764 17.8125 20.625 17.8125Z" fill="black" fill-opacity="0.2"/>
<path d="M20.625 17.8125H22.5C22.7486 17.8125 22.9871 17.7137 23.1629 17.5379C23.3387 17.3621 23.4375 17.1236 23.4375 16.875C23.4375 16.6264 23.3387 16.3879 23.1629 16.2121C22.9871 16.0363 22.7486 15.9375 22.5 15.9375H20.625C20.3764 15.9375 20.1379 16.0363 19.9621 16.2121C19.7863 16.3879 19.6875 16.6264 19.6875 16.875C19.6875 17.1236 19.7863 17.3621 19.9621 17.5379C20.1379 17.7137 20.3764 17.8125 20.625 17.8125Z" stroke="#F3F6F8" stroke-width="0.4"/>
<path d="M14.0625 22.5H15.9375C16.1861 22.5 16.4246 22.4012 16.6004 22.2254C16.7762 22.0496 16.875 21.8111 16.875 21.5625C16.875 21.3139 16.7762 21.0754 16.6004 20.8996C16.4246 20.7238 16.1861 20.625 15.9375 20.625H14.0625C13.8139 20.625 13.5754 20.7238 13.3996 20.8996C13.2238 21.0754 13.125 21.3139 13.125 21.5625C13.125 21.8111 13.2238 22.0496 13.3996 22.2254C13.5754 22.4012 13.8139 22.5 14.0625 22.5Z" fill="#007C0C"/>
<path d="M14.0625 22.5H15.9375C16.1861 22.5 16.4246 22.4012 16.6004 22.2254C16.7762 22.0496 16.875 21.8111 16.875 21.5625C16.875 21.3139 16.7762 21.0754 16.6004 20.8996C16.4246 20.7238 16.1861 20.625 15.9375 20.625H14.0625C13.8139 20.625 13.5754 20.7238 13.3996 20.8996C13.2238 21.0754 13.125 21.3139 13.125 21.5625C13.125 21.8111 13.2238 22.0496 13.3996 22.2254C13.5754 22.4012 13.8139 22.5 14.0625 22.5Z" fill="black" fill-opacity="0.2"/>
<path d="M14.0625 22.5H15.9375C16.1861 22.5 16.4246 22.4012 16.6004 22.2254C16.7762 22.0496 16.875 21.8111 16.875 21.5625C16.875 21.3139 16.7762 21.0754 16.6004 20.8996C16.4246 20.7238 16.1861 20.625 15.9375 20.625H14.0625C13.8139 20.625 13.5754 20.7238 13.3996 20.8996C13.2238 21.0754 13.125 21.3139 13.125 21.5625C13.125 21.8111 13.2238 22.0496 13.3996 22.2254C13.5754 22.4012 13.8139 22.5 14.0625 22.5Z" stroke="#F3F6F8" stroke-width="0.4"/>
<path d="M7.5 22.5H9.375C9.62364 22.5 9.8621 22.4012 10.0379 22.2254C10.2137 22.0496 10.3125 21.8111 10.3125 21.5625C10.3125 21.3139 10.2137 21.0754 10.0379 20.8996C9.8621 20.7238 9.62364 20.625 9.375 20.625H7.5C7.25136 20.625 7.0129 20.7238 6.83709 20.8996C6.66127 21.0754 6.5625 21.3139 6.5625 21.5625C6.5625 21.8111 6.66127 22.0496 6.83709 22.2254C7.0129 22.4012 7.25136 22.5 7.5 22.5Z" fill="#007C0C"/>
<path d="M7.5 22.5H9.375C9.62364 22.5 9.8621 22.4012 10.0379 22.2254C10.2137 22.0496 10.3125 21.8111 10.3125 21.5625C10.3125 21.3139 10.2137 21.0754 10.0379 20.8996C9.8621 20.7238 9.62364 20.625 9.375 20.625H7.5C7.25136 20.625 7.0129 20.7238 6.83709 20.8996C6.66127 21.0754 6.5625 21.3139 6.5625 21.5625C6.5625 21.8111 6.66127 22.0496 6.83709 22.2254C7.0129 22.4012 7.25136 22.5 7.5 22.5Z" fill="black" fill-opacity="0.2"/>
<path d="M7.5 22.5H9.375C9.62364 22.5 9.8621 22.4012 10.0379 22.2254C10.2137 22.0496 10.3125 21.8111 10.3125 21.5625C10.3125 21.3139 10.2137 21.0754 10.0379 20.8996C9.8621 20.7238 9.62364 20.625 9.375 20.625H7.5C7.25136 20.625 7.0129 20.7238 6.83709 20.8996C6.66127 21.0754 6.5625 21.3139 6.5625 21.5625C6.5625 21.8111 6.66127 22.0496 6.83709 22.2254C7.0129 22.4012 7.25136 22.5 7.5 22.5Z" stroke="#F3F6F8" stroke-width="0.4"/>
</svg>
