<svg width="30" height="30" viewBox="0 0 30 30" fill="none" xmlns="http://www.w3.org/2000/svg">
<g clip-path="url(#clip0_3413_13075)">
<path d="M26.7395 19.5934C26.7105 19.5449 26.68 19.4985 26.6495 19.4575C26.3465 19.0339 25.896 18.754 25.382 18.6694C24.8705 18.5849 24.352 18.7054 23.93 19.0084L18.3399 23H12.5C12.2244 23 12 22.776 12 22.5C12 22.224 12.2244 22 12.5 22H15.75C16.715 22 17.5 21.215 17.5 20.25C17.5 20.2445 17.4995 20.1985 17.499 20.1935C17.468 19.229 16.6545 18.477 15.71 18.5H9.20552C8.62901 18.505 8.06751 18.7116 7.62501 19.0805L5.18 21.1155C5.06598 21.211 5 21.3516 5 21.5V27.5C5 27.7765 5.224 28 5.49998 28H17.9055C18.7175 27.999 19.5085 27.713 20.1336 27.1955L26.1951 22.187C27.0185 21.6004 27.2575 20.4615 26.7395 19.5934ZM25.587 21.3944L19.4965 26.425C19.0495 26.795 18.484 26.999 17.9049 26.9999H5.99996V21.7344L8.26544 19.8484C8.53145 19.6269 8.86796 19.5029 9.20997 19.4999L15.726 19.4994C16.1405 19.4989 16.4864 19.8124 16.5 20.2499C16.5 20.6634 16.1635 20.9999 15.75 20.9999H12.5C11.673 20.9999 11 21.6729 11 22.4999C11 23.3269 11.673 23.9999 12.5 23.9999H18.5C18.604 23.9999 18.7055 23.9674 18.7915 23.907L24.5125 19.8214C24.7185 19.6734 24.969 19.6159 25.22 19.6559C25.4705 19.6974 25.6895 19.8334 25.84 20.0434C25.855 20.0639 25.8684 20.0849 25.8814 20.1064C26.1345 20.53 26.017 21.0864 25.587 21.3944Z" fill="#007C0C"/>
<path d="M26.7395 19.5934C26.7105 19.5449 26.68 19.4985 26.6495 19.4575C26.3465 19.0339 25.896 18.754 25.382 18.6694C24.8705 18.5849 24.352 18.7054 23.93 19.0084L18.3399 23H12.5C12.2244 23 12 22.776 12 22.5C12 22.224 12.2244 22 12.5 22H15.75C16.715 22 17.5 21.215 17.5 20.25C17.5 20.2445 17.4995 20.1985 17.499 20.1935C17.468 19.229 16.6545 18.477 15.71 18.5H9.20552C8.62901 18.505 8.06751 18.7116 7.62501 19.0805L5.18 21.1155C5.06598 21.211 5 21.3516 5 21.5V27.5C5 27.7765 5.224 28 5.49998 28H17.9055C18.7175 27.999 19.5085 27.713 20.1336 27.1955L26.1951 22.187C27.0185 21.6004 27.2575 20.4615 26.7395 19.5934ZM25.587 21.3944L19.4965 26.425C19.0495 26.795 18.484 26.999 17.9049 26.9999H5.99996V21.7344L8.26544 19.8484C8.53145 19.6269 8.86796 19.5029 9.20997 19.4999L15.726 19.4994C16.1405 19.4989 16.4864 19.8124 16.5 20.2499C16.5 20.6634 16.1635 20.9999 15.75 20.9999H12.5C11.673 20.9999 11 21.6729 11 22.4999C11 23.3269 11.673 23.9999 12.5 23.9999H18.5C18.604 23.9999 18.7055 23.9674 18.7915 23.907L24.5125 19.8214C24.7185 19.6734 24.969 19.6159 25.22 19.6559C25.4705 19.6974 25.6895 19.8334 25.84 20.0434C25.855 20.0639 25.8684 20.0849 25.8814 20.1064C26.1345 20.53 26.017 21.0864 25.587 21.3944Z" fill="black" fill-opacity="0.2"/>
<path d="M26.7395 19.5934C26.7105 19.5449 26.68 19.4985 26.6495 19.4575C26.3465 19.0339 25.896 18.754 25.382 18.6694C24.8705 18.5849 24.352 18.7054 23.93 19.0084L18.3399 23H12.5C12.2244 23 12 22.776 12 22.5C12 22.224 12.2244 22 12.5 22H15.75C16.715 22 17.5 21.215 17.5 20.25C17.5 20.2445 17.4995 20.1985 17.499 20.1935C17.468 19.229 16.6545 18.477 15.71 18.5H9.20552C8.62901 18.505 8.06751 18.7116 7.62501 19.0805L5.18 21.1155C5.06598 21.211 5 21.3516 5 21.5V27.5C5 27.7765 5.224 28 5.49998 28H17.9055C18.7175 27.999 19.5085 27.713 20.1336 27.1955L26.1951 22.187C27.0185 21.6004 27.2575 20.4615 26.7395 19.5934ZM25.587 21.3944L19.4965 26.425C19.0495 26.795 18.484 26.999 17.9049 26.9999H5.99996V21.7344L8.26544 19.8484C8.53145 19.6269 8.86796 19.5029 9.20997 19.4999L15.726 19.4994C16.1405 19.4989 16.4864 19.8124 16.5 20.2499C16.5 20.6634 16.1635 20.9999 15.75 20.9999H12.5C11.673 20.9999 11 21.6729 11 22.4999C11 23.3269 11.673 23.9999 12.5 23.9999H18.5C18.604 23.9999 18.7055 23.9674 18.7915 23.907L24.5125 19.8214C24.7185 19.6734 24.969 19.6159 25.22 19.6559C25.4705 19.6974 25.6895 19.8334 25.84 20.0434C25.855 20.0639 25.8684 20.0849 25.8814 20.1064C26.1345 20.53 26.017 21.0864 25.587 21.3944Z" stroke="#007C0C" stroke-width="0.2"/>
<path d="M26.7395 19.5934C26.7105 19.5449 26.68 19.4985 26.6495 19.4575C26.3465 19.0339 25.896 18.754 25.382 18.6694C24.8705 18.5849 24.352 18.7054 23.93 19.0084L18.3399 23H12.5C12.2244 23 12 22.776 12 22.5C12 22.224 12.2244 22 12.5 22H15.75C16.715 22 17.5 21.215 17.5 20.25C17.5 20.2445 17.4995 20.1985 17.499 20.1935C17.468 19.229 16.6545 18.477 15.71 18.5H9.20552C8.62901 18.505 8.06751 18.7116 7.62501 19.0805L5.18 21.1155C5.06598 21.211 5 21.3516 5 21.5V27.5C5 27.7765 5.224 28 5.49998 28H17.9055C18.7175 27.999 19.5085 27.713 20.1336 27.1955L26.1951 22.187C27.0185 21.6004 27.2575 20.4615 26.7395 19.5934ZM25.587 21.3944L19.4965 26.425C19.0495 26.795 18.484 26.999 17.9049 26.9999H5.99996V21.7344L8.26544 19.8484C8.53145 19.6269 8.86796 19.5029 9.20997 19.4999L15.726 19.4994C16.1405 19.4989 16.4864 19.8124 16.5 20.2499C16.5 20.6634 16.1635 20.9999 15.75 20.9999H12.5C11.673 20.9999 11 21.6729 11 22.4999C11 23.3269 11.673 23.9999 12.5 23.9999H18.5C18.604 23.9999 18.7055 23.9674 18.7915 23.907L24.5125 19.8214C24.7185 19.6734 24.969 19.6159 25.22 19.6559C25.4705 19.6974 25.6895 19.8334 25.84 20.0434C25.855 20.0639 25.8684 20.0849 25.8814 20.1064C26.1345 20.53 26.017 21.0864 25.587 21.3944Z" stroke="black" stroke-opacity="0.2" stroke-width="0.2"/>
<path d="M5.48503 20.5H0V21.5H4.98499V29H0V30H5.48503C5.76101 30 5.98501 29.7765 5.98501 29.5V21C5.98501 20.7235 5.76101 20.5 5.48503 20.5Z" fill="#007C0C"/>
<path d="M5.48503 20.5H0V21.5H4.98499V29H0V30H5.48503C5.76101 30 5.98501 29.7765 5.98501 29.5V21C5.98501 20.7235 5.76101 20.5 5.48503 20.5Z" fill="black" fill-opacity="0.2"/>
<path d="M5.48503 20.5H0V21.5H4.98499V29H0V30H5.48503C5.76101 30 5.98501 29.7765 5.98501 29.5V21C5.98501 20.7235 5.76101 20.5 5.48503 20.5Z" stroke="#007C0C" stroke-width="0.2"/>
<path d="M5.48503 20.5H0V21.5H4.98499V29H0V30H5.48503C5.76101 30 5.98501 29.7765 5.98501 29.5V21C5.98501 20.7235 5.76101 20.5 5.48503 20.5Z" stroke="black" stroke-opacity="0.2" stroke-width="0.2"/>
<path d="M2.5 25C1.67301 25 1 25.673 1 26.5C1 27.327 1.67301 28 2.5 28C3.327 28 4.00001 27.327 4.00001 26.5C4.00001 25.673 3.327 25 2.5 25ZM2.5 27C2.22449 27 2.00002 26.776 2.00002 26.5C2.00002 26.224 2.22449 26 2.5 26C2.77551 26 2.99998 26.224 2.99998 26.5C2.99998 26.776 2.77551 27 2.5 27Z" fill="#007C0C"/>
<path d="M2.5 25C1.67301 25 1 25.673 1 26.5C1 27.327 1.67301 28 2.5 28C3.327 28 4.00001 27.327 4.00001 26.5C4.00001 25.673 3.327 25 2.5 25ZM2.5 27C2.22449 27 2.00002 26.776 2.00002 26.5C2.00002 26.224 2.22449 26 2.5 26C2.77551 26 2.99998 26.224 2.99998 26.5C2.99998 26.776 2.77551 27 2.5 27Z" fill="black" fill-opacity="0.2"/>
<path d="M2.5 25C1.67301 25 1 25.673 1 26.5C1 27.327 1.67301 28 2.5 28C3.327 28 4.00001 27.327 4.00001 26.5C4.00001 25.673 3.327 25 2.5 25ZM2.5 27C2.22449 27 2.00002 26.776 2.00002 26.5C2.00002 26.224 2.22449 26 2.5 26C2.77551 26 2.99998 26.224 2.99998 26.5C2.99998 26.776 2.77551 27 2.5 27Z" stroke="#007C0C" stroke-width="0.2"/>
<path d="M2.5 25C1.67301 25 1 25.673 1 26.5C1 27.327 1.67301 28 2.5 28C3.327 28 4.00001 27.327 4.00001 26.5C4.00001 25.673 3.327 25 2.5 25ZM2.5 27C2.22449 27 2.00002 26.776 2.00002 26.5C2.00002 26.224 2.22449 26 2.5 26C2.77551 26 2.99998 26.224 2.99998 26.5C2.99998 26.776 2.77551 27 2.5 27Z" stroke="black" stroke-opacity="0.2" stroke-width="0.2"/>
<path d="M29.5001 15.5H0.499981C0.224004 15.5 0 15.7235 0 16C0 17.9295 1.57002 19.5 3.49999 19.5H26.5C28.4295 19.5 30 17.9295 30 16C30.0001 15.7235 29.7766 15.5 29.5001 15.5ZM26.5001 18.5H3.49999C2.29249 18.5 1.2825 17.6395 1.05047 16.5H28.9495C28.7176 17.6395 27.7076 18.5 26.5001 18.5Z" fill="#007C0C"/>
<path d="M29.5001 15.5H0.499981C0.224004 15.5 0 15.7235 0 16C0 17.9295 1.57002 19.5 3.49999 19.5H26.5C28.4295 19.5 30 17.9295 30 16C30.0001 15.7235 29.7766 15.5 29.5001 15.5ZM26.5001 18.5H3.49999C2.29249 18.5 1.2825 17.6395 1.05047 16.5H28.9495C28.7176 17.6395 27.7076 18.5 26.5001 18.5Z" fill="black" fill-opacity="0.2"/>
<path d="M29.5001 15.5H0.499981C0.224004 15.5 0 15.7235 0 16C0 17.9295 1.57002 19.5 3.49999 19.5H26.5C28.4295 19.5 30 17.9295 30 16C30.0001 15.7235 29.7766 15.5 29.5001 15.5ZM26.5001 18.5H3.49999C2.29249 18.5 1.2825 17.6395 1.05047 16.5H28.9495C28.7176 17.6395 27.7076 18.5 26.5001 18.5Z" stroke="#007C0C" stroke-width="0.2"/>
<path d="M29.5001 15.5H0.499981C0.224004 15.5 0 15.7235 0 16C0 17.9295 1.57002 19.5 3.49999 19.5H26.5C28.4295 19.5 30 17.9295 30 16C30.0001 15.7235 29.7766 15.5 29.5001 15.5ZM26.5001 18.5H3.49999C2.29249 18.5 1.2825 17.6395 1.05047 16.5H28.9495C28.7176 17.6395 27.7076 18.5 26.5001 18.5Z" stroke="black" stroke-opacity="0.2" stroke-width="0.2"/>
<path d="M15 2.5C7.83202 2.5 2 8.33202 2 15.5V16C2 16.2765 2.224 16.5 2.49998 16.5H27.5001C27.7766 16.5 28 16.2765 28 16V15.5C28.0001 8.33197 22.1685 2.5 15 2.5ZM3.00002 15.5C3.00002 8.88345 8.38351 3.49996 15 3.49996C21.6166 3.49996 27.0001 8.88345 27.0001 15.5H3.00002Z" fill="#007C0C"/>
<path d="M15 2.5C7.83202 2.5 2 8.33202 2 15.5V16C2 16.2765 2.224 16.5 2.49998 16.5H27.5001C27.7766 16.5 28 16.2765 28 16V15.5C28.0001 8.33197 22.1685 2.5 15 2.5ZM3.00002 15.5C3.00002 8.88345 8.38351 3.49996 15 3.49996C21.6166 3.49996 27.0001 8.88345 27.0001 15.5H3.00002Z" fill="black" fill-opacity="0.2"/>
<path d="M15 2.5C7.83202 2.5 2 8.33202 2 15.5V16C2 16.2765 2.224 16.5 2.49998 16.5H27.5001C27.7766 16.5 28 16.2765 28 16V15.5C28.0001 8.33197 22.1685 2.5 15 2.5ZM3.00002 15.5C3.00002 8.88345 8.38351 3.49996 15 3.49996C21.6166 3.49996 27.0001 8.88345 27.0001 15.5H3.00002Z" stroke="#007C0C" stroke-width="0.2"/>
<path d="M15 2.5C7.83202 2.5 2 8.33202 2 15.5V16C2 16.2765 2.224 16.5 2.49998 16.5H27.5001C27.7766 16.5 28 16.2765 28 16V15.5C28.0001 8.33197 22.1685 2.5 15 2.5ZM3.00002 15.5C3.00002 8.88345 8.38351 3.49996 15 3.49996C21.6166 3.49996 27.0001 8.88345 27.0001 15.5H3.00002Z" stroke="black" stroke-opacity="0.2" stroke-width="0.2"/>
<path d="M6.77598 8.20337C6.42647 8.59636 6.1025 9.01689 5.81299 9.45388L6.64649 10.0064C6.91051 9.60833 7.20547 9.22484 7.52346 8.86735L6.77598 8.20337Z" fill="#007C0C"/>
<path d="M6.77598 8.20337C6.42647 8.59636 6.1025 9.01689 5.81299 9.45388L6.64649 10.0064C6.91051 9.60833 7.20547 9.22484 7.52346 8.86735L6.77598 8.20337Z" fill="black" fill-opacity="0.2"/>
<path d="M6.77598 8.20337C6.42647 8.59636 6.1025 9.01689 5.81299 9.45388L6.64649 10.0064C6.91051 9.60833 7.20547 9.22484 7.52346 8.86735L6.77598 8.20337Z" stroke="#007C0C" stroke-width="0.2"/>
<path d="M6.77598 8.20337C6.42647 8.59636 6.1025 9.01689 5.81299 9.45388L6.64649 10.0064C6.91051 9.60833 7.20547 9.22484 7.52346 8.86735L6.77598 8.20337Z" stroke="black" stroke-opacity="0.2" stroke-width="0.2"/>
<path d="M15.0002 4.5C12.1922 4.50152 9.51864 5.56248 7.47266 7.486L8.15768 8.2145C10.0177 6.46547 12.4482 5.50149 15.0007 5.50002L15.0002 4.5Z" fill="#007C0C"/>
<path d="M15.0002 4.5C12.1922 4.50152 9.51864 5.56248 7.47266 7.486L8.15768 8.2145C10.0177 6.46547 12.4482 5.50149 15.0007 5.50002L15.0002 4.5Z" fill="black" fill-opacity="0.2"/>
<path d="M15.0002 4.5C12.1922 4.50152 9.51864 5.56248 7.47266 7.486L8.15768 8.2145C10.0177 6.46547 12.4482 5.50149 15.0007 5.50002L15.0002 4.5Z" stroke="#007C0C" stroke-width="0.2"/>
<path d="M15.0002 4.5C12.1922 4.50152 9.51864 5.56248 7.47266 7.486L8.15768 8.2145C10.0177 6.46547 12.4482 5.50149 15.0007 5.50002L15.0002 4.5Z" stroke="black" stroke-opacity="0.2" stroke-width="0.2"/>
<path d="M16.5 0H13.5V1.00002H16.5V0Z" fill="#007C0C"/>
<path d="M16.5 0H13.5V1.00002H16.5V0Z" fill="black" fill-opacity="0.2"/>
<path d="M16.5 0H13.5V1.00002H16.5V0Z" stroke="#007C0C" stroke-width="0.2"/>
<path d="M16.5 0H13.5V1.00002H16.5V0Z" stroke="black" stroke-opacity="0.2" stroke-width="0.2"/>
<path d="M15.5 0.5H14.5V3.00002H15.5V0.5Z" fill="#007C0C"/>
<path d="M15.5 0.5H14.5V3.00002H15.5V0.5Z" fill="black" fill-opacity="0.2"/>
<path d="M15.5 0.5H14.5V3.00002H15.5V0.5Z" stroke="#007C0C" stroke-width="0.2"/>
<path d="M15.5 0.5H14.5V3.00002H15.5V0.5Z" stroke="black" stroke-opacity="0.2" stroke-width="0.2"/>
</g>
<defs>
<clipPath id="clip0_3413_13075">
<rect width="30" height="30" fill="white"/>
</clipPath>
</defs>
</svg>
