<svg width="30" height="30" viewBox="0 0 30 30" fill="none" xmlns="http://www.w3.org/2000/svg">
<g clip-path="url(#clip0_3413_13105)">
<path d="M10.961 18.0879C10.9534 18.0504 10.9423 18.0135 10.9276 17.9784C10.913 17.9426 10.8948 17.9086 10.8737 17.877C10.8521 17.8448 10.8274 17.8149 10.8005 17.7879C10.6646 17.652 10.4624 17.5893 10.272 17.628C10.2345 17.6356 10.1976 17.6467 10.1624 17.6614C10.1267 17.676 10.0927 17.6942 10.061 17.7153C10.0288 17.7364 9.99893 17.761 9.97197 17.7879C9.94502 17.8149 9.92041 17.8448 9.89932 17.877C9.87822 17.9086 9.86006 17.9426 9.84541 17.9784C9.83076 18.0135 9.81963 18.0504 9.81201 18.0879C9.8044 18.1254 9.80029 18.1641 9.80029 18.2022C9.80029 18.2403 9.8044 18.2789 9.81201 18.317C9.81963 18.3539 9.83076 18.3909 9.84541 18.4266C9.86006 18.4618 9.87822 18.4957 9.89932 18.5274C9.92041 18.5596 9.94502 18.5895 9.97197 18.6164C9.99893 18.6434 10.0288 18.668 10.061 18.6897C10.0927 18.7108 10.1267 18.7289 10.1624 18.7436C10.1976 18.7582 10.2345 18.7694 10.272 18.777C10.3095 18.7846 10.3481 18.7881 10.3862 18.7881C10.5403 18.7881 10.6915 18.7254 10.8005 18.6164C10.8274 18.5895 10.8521 18.5596 10.8737 18.5274C10.8948 18.4957 10.913 18.4618 10.9276 18.4266C10.9423 18.3909 10.9534 18.3539 10.961 18.317C10.9687 18.2789 10.9722 18.2403 10.9722 18.2022C10.9722 18.1641 10.9687 18.1254 10.961 18.0879Z" fill="#007C0C"/>
<path d="M10.961 18.0879C10.9534 18.0504 10.9423 18.0135 10.9276 17.9784C10.913 17.9426 10.8948 17.9086 10.8737 17.877C10.8521 17.8448 10.8274 17.8149 10.8005 17.7879C10.6646 17.652 10.4624 17.5893 10.272 17.628C10.2345 17.6356 10.1976 17.6467 10.1624 17.6614C10.1267 17.676 10.0927 17.6942 10.061 17.7153C10.0288 17.7364 9.99893 17.761 9.97197 17.7879C9.94502 17.8149 9.92041 17.8448 9.89932 17.877C9.87822 17.9086 9.86006 17.9426 9.84541 17.9784C9.83076 18.0135 9.81963 18.0504 9.81201 18.0879C9.8044 18.1254 9.80029 18.1641 9.80029 18.2022C9.80029 18.2403 9.8044 18.2789 9.81201 18.317C9.81963 18.3539 9.83076 18.3909 9.84541 18.4266C9.86006 18.4618 9.87822 18.4957 9.89932 18.5274C9.92041 18.5596 9.94502 18.5895 9.97197 18.6164C9.99893 18.6434 10.0288 18.668 10.061 18.6897C10.0927 18.7108 10.1267 18.7289 10.1624 18.7436C10.1976 18.7582 10.2345 18.7694 10.272 18.777C10.3095 18.7846 10.3481 18.7881 10.3862 18.7881C10.5403 18.7881 10.6915 18.7254 10.8005 18.6164C10.8274 18.5895 10.8521 18.5596 10.8737 18.5274C10.8948 18.4957 10.913 18.4618 10.9276 18.4266C10.9423 18.3909 10.9534 18.3539 10.961 18.317C10.9687 18.2789 10.9722 18.2403 10.9722 18.2022C10.9722 18.1641 10.9687 18.1254 10.961 18.0879Z" fill="black" fill-opacity="0.2"/>
<path d="M29.4141 28.2061H28.2004V21.9398V19.3702C28.2004 18.403 27.4136 17.6162 26.4464 17.6162H25.4458V14.0712V11.8366C25.4458 10.8695 24.659 10.0826 23.6919 10.0826H21.8931V8.3814C22.2951 8.27991 22.6756 8.07267 22.9894 7.75884C23.7108 7.03755 23.8921 5.93839 23.4405 5.02356L21.8326 1.76604C21.7339 1.56606 21.5302 1.43944 21.3072 1.43944C21.0842 1.43944 20.8805 1.56606 20.7818 1.76604L19.1739 5.02362C18.7223 5.93833 18.9036 7.03755 19.625 7.7589C19.9388 8.07272 20.3193 8.27997 20.7213 8.38145V10.0827H15.5859V7.56384C15.9879 7.46235 16.3684 7.25511 16.6822 6.94128C17.4036 6.21999 17.5848 5.12083 17.1333 4.20601L15.5254 0.948428C15.4267 0.748447 15.223 0.621826 15 0.621826C14.777 0.621826 14.5733 0.748447 14.4746 0.948428L12.8667 4.20606C12.4152 5.12083 12.5965 6.21999 13.3178 6.94128C13.6316 7.25511 14.0121 7.46235 14.4141 7.56384V10.0827H9.27873V8.38327C9.69006 8.27956 10.0673 8.06663 10.375 7.7589C11.0964 7.03761 11.2777 5.93839 10.8261 5.02362L9.2182 1.76604C9.11947 1.56606 8.9158 1.43944 8.69279 1.43944C8.46978 1.43944 8.26611 1.56606 8.16738 1.76604L6.55945 5.02368C6.10799 5.93839 6.28928 7.03761 7.01057 7.75896C7.3183 8.06669 7.69553 8.27962 8.10686 8.38333V10.0827H6.30814C5.341 10.0827 4.5542 10.8695 4.5542 11.8367V14.0714V17.6164H3.55359C2.58645 17.6164 1.79965 18.4032 1.79965 19.3703V21.9399V28.2062H0.585938C0.262324 28.2062 0 28.4685 0 28.7921C0 29.1157 0.262324 29.3781 0.585938 29.3781H2.38559H27.6144H29.4141C29.7377 29.3781 30 29.1157 30 28.7921C30 28.4685 29.7377 28.2061 29.4141 28.2061ZM20.4536 6.93015C20.0876 6.56417 19.9956 6.00642 20.2247 5.54224L21.3073 3.34913L22.3898 5.54224C22.6189 6.00642 22.5269 6.56417 22.1609 6.93015C22.0796 7.01142 21.9891 7.07769 21.8933 7.13089C21.5299 7.33257 21.0847 7.33257 20.7214 7.13089C20.6254 7.07774 20.5349 7.01147 20.4536 6.93015ZM14.1464 6.11259C13.7804 5.74661 13.6884 5.18886 13.9175 4.72468L15 2.53163L16.0825 4.72474C16.3116 5.18892 16.2196 5.74667 15.8537 6.11265C15.7724 6.19392 15.6819 6.26019 15.586 6.31339C15.2227 6.51507 14.7775 6.51507 14.4141 6.31339C14.3182 6.26013 14.2277 6.19392 14.1464 6.11259ZM7.8392 6.93015C7.47316 6.56417 7.38123 6.00642 7.61033 5.54224L8.69285 3.34913L9.77537 5.54224C10.0045 6.00636 9.91248 6.56411 9.5465 6.93015C9.46523 7.01142 9.37471 7.07769 9.27885 7.13089C8.91557 7.33257 8.47031 7.33257 8.10697 7.13089C8.011 7.07774 7.92047 7.01147 7.8392 6.93015ZM6.30814 11.2545H23.6919C24.0129 11.2545 24.274 11.5156 24.274 11.8366V13.6762C24.0158 13.7573 23.7377 13.7946 23.4094 13.7946C22.5356 13.7946 22.1368 13.5287 21.6319 13.1922C21.07 12.8175 20.433 12.393 19.2044 12.393C17.9758 12.393 17.3389 12.8175 16.777 13.1922C16.2721 13.5287 15.8734 13.7946 14.9996 13.7946C14.1258 13.7946 13.7271 13.5287 13.2223 13.1922C12.6604 12.8176 12.0235 12.393 10.7949 12.393C9.56637 12.393 8.92951 12.8176 8.3676 13.1922C7.86281 13.5287 7.46408 13.7946 6.59039 13.7946C6.26227 13.7946 5.98424 13.7572 5.72613 13.6762V11.8366H5.72607C5.72607 11.5156 5.98723 11.2545 6.30814 11.2545ZM27.0285 28.2061H2.97152V22.5747C3.46969 22.6663 3.78703 22.8775 4.16291 23.1281C4.72482 23.5027 5.36168 23.9273 6.59033 23.9273C7.81887 23.9273 8.45572 23.5027 9.01764 23.1281C9.52242 22.7915 9.92115 22.5257 10.7948 22.5257C11.6686 22.5257 12.0674 22.7915 12.5722 23.1281C13.1341 23.5027 13.7709 23.9273 14.9995 23.9273C16.2282 23.9273 16.865 23.5027 17.427 23.1281C17.9318 22.7915 18.3305 22.5257 19.2043 22.5257C20.0782 22.5257 20.477 22.7915 20.9818 23.1281C21.5438 23.5027 22.1807 23.9273 23.4094 23.9273C24.638 23.9273 25.2749 23.5027 25.8369 23.1281C26.2129 22.8775 26.5303 22.6663 27.0285 22.5746V28.2061ZM27.0285 21.3893C26.1681 21.4988 25.6518 21.843 25.1869 22.153C24.682 22.4895 24.2832 22.7554 23.4094 22.7554C22.5355 22.7554 22.1368 22.4895 21.6319 22.153C21.0699 21.7784 20.433 21.3538 19.2043 21.3538C17.9757 21.3538 17.3388 21.7784 16.7769 22.153C16.2721 22.4895 15.8733 22.7554 14.9995 22.7554C14.1257 22.7554 13.727 22.4895 13.2222 22.153C12.6603 21.7783 12.0234 21.3538 10.7948 21.3538C9.56625 21.3538 8.92939 21.7784 8.36748 22.153C7.86269 22.4895 7.46396 22.7554 6.59027 22.7554C5.71646 22.7554 5.31773 22.4895 4.81295 22.153C4.34801 21.843 3.8318 21.4988 2.97152 21.3893V19.3701C2.97152 19.0491 3.23268 18.7881 3.55359 18.7881H8.05037C8.37398 18.7881 8.63631 18.5257 8.63631 18.2021C8.63631 17.8785 8.37398 17.6162 8.05037 17.6162H5.72607V14.8839C5.99572 14.939 6.28061 14.9665 6.59033 14.9665C7.81887 14.9665 8.45572 14.5419 9.01764 14.1673C9.52242 13.8307 9.92115 13.5649 10.7948 13.5649C11.6687 13.5649 12.0674 13.8307 12.5722 14.1673C13.1341 14.5419 13.7709 14.9665 14.9995 14.9665C16.2281 14.9665 16.865 14.5419 17.427 14.1673C17.9318 13.8307 18.3305 13.5649 19.2043 13.5649C20.0782 13.5649 20.477 13.8307 20.9818 14.1673C21.5438 14.5419 22.1807 14.9665 23.4094 14.9665C23.7192 14.9665 24.0042 14.939 24.2739 14.8838V17.6162H12.7224C12.3988 17.6162 12.1365 17.8786 12.1365 18.2022C12.1365 18.5258 12.3988 18.7881 12.7224 18.7881H26.4464C26.7674 18.7881 27.0285 19.0493 27.0285 19.3702V21.3893Z" fill="#007C0C"/>
<path d="M29.4141 28.2061H28.2004V21.9398V19.3702C28.2004 18.403 27.4136 17.6162 26.4464 17.6162H25.4458V14.0712V11.8366C25.4458 10.8695 24.659 10.0826 23.6919 10.0826H21.8931V8.3814C22.2951 8.27991 22.6756 8.07267 22.9894 7.75884C23.7108 7.03755 23.8921 5.93839 23.4405 5.02356L21.8326 1.76604C21.7339 1.56606 21.5302 1.43944 21.3072 1.43944C21.0842 1.43944 20.8805 1.56606 20.7818 1.76604L19.1739 5.02362C18.7223 5.93833 18.9036 7.03755 19.625 7.7589C19.9388 8.07272 20.3193 8.27997 20.7213 8.38145V10.0827H15.5859V7.56384C15.9879 7.46235 16.3684 7.25511 16.6822 6.94128C17.4036 6.21999 17.5848 5.12083 17.1333 4.20601L15.5254 0.948428C15.4267 0.748447 15.223 0.621826 15 0.621826C14.777 0.621826 14.5733 0.748447 14.4746 0.948428L12.8667 4.20606C12.4152 5.12083 12.5965 6.21999 13.3178 6.94128C13.6316 7.25511 14.0121 7.46235 14.4141 7.56384V10.0827H9.27873V8.38327C9.69006 8.27956 10.0673 8.06663 10.375 7.7589C11.0964 7.03761 11.2777 5.93839 10.8261 5.02362L9.2182 1.76604C9.11947 1.56606 8.9158 1.43944 8.69279 1.43944C8.46978 1.43944 8.26611 1.56606 8.16738 1.76604L6.55945 5.02368C6.10799 5.93839 6.28928 7.03761 7.01057 7.75896C7.3183 8.06669 7.69553 8.27962 8.10686 8.38333V10.0827H6.30814C5.341 10.0827 4.5542 10.8695 4.5542 11.8367V14.0714V17.6164H3.55359C2.58645 17.6164 1.79965 18.4032 1.79965 19.3703V21.9399V28.2062H0.585938C0.262324 28.2062 0 28.4685 0 28.7921C0 29.1157 0.262324 29.3781 0.585938 29.3781H2.38559H27.6144H29.4141C29.7377 29.3781 30 29.1157 30 28.7921C30 28.4685 29.7377 28.2061 29.4141 28.2061ZM20.4536 6.93015C20.0876 6.56417 19.9956 6.00642 20.2247 5.54224L21.3073 3.34913L22.3898 5.54224C22.6189 6.00642 22.5269 6.56417 22.1609 6.93015C22.0796 7.01142 21.9891 7.07769 21.8933 7.13089C21.5299 7.33257 21.0847 7.33257 20.7214 7.13089C20.6254 7.07774 20.5349 7.01147 20.4536 6.93015ZM14.1464 6.11259C13.7804 5.74661 13.6884 5.18886 13.9175 4.72468L15 2.53163L16.0825 4.72474C16.3116 5.18892 16.2196 5.74667 15.8537 6.11265C15.7724 6.19392 15.6819 6.26019 15.586 6.31339C15.2227 6.51507 14.7775 6.51507 14.4141 6.31339C14.3182 6.26013 14.2277 6.19392 14.1464 6.11259ZM7.8392 6.93015C7.47316 6.56417 7.38123 6.00642 7.61033 5.54224L8.69285 3.34913L9.77537 5.54224C10.0045 6.00636 9.91248 6.56411 9.5465 6.93015C9.46523 7.01142 9.37471 7.07769 9.27885 7.13089C8.91557 7.33257 8.47031 7.33257 8.10697 7.13089C8.011 7.07774 7.92047 7.01147 7.8392 6.93015ZM6.30814 11.2545H23.6919C24.0129 11.2545 24.274 11.5156 24.274 11.8366V13.6762C24.0158 13.7573 23.7377 13.7946 23.4094 13.7946C22.5356 13.7946 22.1368 13.5287 21.6319 13.1922C21.07 12.8175 20.433 12.393 19.2044 12.393C17.9758 12.393 17.3389 12.8175 16.777 13.1922C16.2721 13.5287 15.8734 13.7946 14.9996 13.7946C14.1258 13.7946 13.7271 13.5287 13.2223 13.1922C12.6604 12.8176 12.0235 12.393 10.7949 12.393C9.56637 12.393 8.92951 12.8176 8.3676 13.1922C7.86281 13.5287 7.46408 13.7946 6.59039 13.7946C6.26227 13.7946 5.98424 13.7572 5.72613 13.6762V11.8366H5.72607C5.72607 11.5156 5.98723 11.2545 6.30814 11.2545ZM27.0285 28.2061H2.97152V22.5747C3.46969 22.6663 3.78703 22.8775 4.16291 23.1281C4.72482 23.5027 5.36168 23.9273 6.59033 23.9273C7.81887 23.9273 8.45572 23.5027 9.01764 23.1281C9.52242 22.7915 9.92115 22.5257 10.7948 22.5257C11.6686 22.5257 12.0674 22.7915 12.5722 23.1281C13.1341 23.5027 13.7709 23.9273 14.9995 23.9273C16.2282 23.9273 16.865 23.5027 17.427 23.1281C17.9318 22.7915 18.3305 22.5257 19.2043 22.5257C20.0782 22.5257 20.477 22.7915 20.9818 23.1281C21.5438 23.5027 22.1807 23.9273 23.4094 23.9273C24.638 23.9273 25.2749 23.5027 25.8369 23.1281C26.2129 22.8775 26.5303 22.6663 27.0285 22.5746V28.2061ZM27.0285 21.3893C26.1681 21.4988 25.6518 21.843 25.1869 22.153C24.682 22.4895 24.2832 22.7554 23.4094 22.7554C22.5355 22.7554 22.1368 22.4895 21.6319 22.153C21.0699 21.7784 20.433 21.3538 19.2043 21.3538C17.9757 21.3538 17.3388 21.7784 16.7769 22.153C16.2721 22.4895 15.8733 22.7554 14.9995 22.7554C14.1257 22.7554 13.727 22.4895 13.2222 22.153C12.6603 21.7783 12.0234 21.3538 10.7948 21.3538C9.56625 21.3538 8.92939 21.7784 8.36748 22.153C7.86269 22.4895 7.46396 22.7554 6.59027 22.7554C5.71646 22.7554 5.31773 22.4895 4.81295 22.153C4.34801 21.843 3.8318 21.4988 2.97152 21.3893V19.3701C2.97152 19.0491 3.23268 18.7881 3.55359 18.7881H8.05037C8.37398 18.7881 8.63631 18.5257 8.63631 18.2021C8.63631 17.8785 8.37398 17.6162 8.05037 17.6162H5.72607V14.8839C5.99572 14.939 6.28061 14.9665 6.59033 14.9665C7.81887 14.9665 8.45572 14.5419 9.01764 14.1673C9.52242 13.8307 9.92115 13.5649 10.7948 13.5649C11.6687 13.5649 12.0674 13.8307 12.5722 14.1673C13.1341 14.5419 13.7709 14.9665 14.9995 14.9665C16.2281 14.9665 16.865 14.5419 17.427 14.1673C17.9318 13.8307 18.3305 13.5649 19.2043 13.5649C20.0782 13.5649 20.477 13.8307 20.9818 14.1673C21.5438 14.5419 22.1807 14.9665 23.4094 14.9665C23.7192 14.9665 24.0042 14.939 24.2739 14.8838V17.6162H12.7224C12.3988 17.6162 12.1365 17.8786 12.1365 18.2022C12.1365 18.5258 12.3988 18.7881 12.7224 18.7881H26.4464C26.7674 18.7881 27.0285 19.0493 27.0285 19.3702V21.3893Z" fill="black" fill-opacity="0.2"/>
<path d="M5.71484 26.7503C5.70723 26.7128 5.69609 26.6759 5.68145 26.6407C5.6668 26.6056 5.64863 26.5716 5.62754 26.5394C5.60586 26.5077 5.58184 26.4778 5.5543 26.4503C5.52734 26.4234 5.49746 26.3993 5.46523 26.3776C5.43359 26.3566 5.39961 26.3384 5.36445 26.3237C5.3293 26.3091 5.29238 26.298 5.25488 26.2903C5.06445 26.2523 4.8623 26.3144 4.72578 26.4503C4.69883 26.4778 4.67422 26.5077 4.65313 26.5394C4.63203 26.5716 4.61387 26.6056 4.59922 26.6407C4.58457 26.6759 4.57344 26.7128 4.56582 26.7503C4.5582 26.7884 4.55469 26.8265 4.55469 26.8651C4.55469 26.9032 4.5582 26.9413 4.56582 26.9794C4.57344 27.0169 4.58457 27.0538 4.59922 27.089C4.61387 27.1241 4.63203 27.1581 4.65313 27.1903C4.67422 27.222 4.69883 27.2519 4.72578 27.2794C4.83477 27.3884 4.98594 27.4511 5.14062 27.4511C5.17871 27.4511 5.2168 27.447 5.25488 27.4394C5.29238 27.4318 5.3293 27.4206 5.36445 27.406C5.39961 27.3913 5.43359 27.3732 5.46523 27.3521C5.49746 27.3304 5.52734 27.3064 5.5543 27.2794C5.58184 27.2519 5.60586 27.222 5.62754 27.1903C5.64863 27.1581 5.6668 27.1241 5.68145 27.089C5.69609 27.0538 5.70723 27.0169 5.71484 26.9794C5.72246 26.9413 5.72656 26.9032 5.72656 26.8651C5.72656 26.8265 5.72246 26.7884 5.71484 26.7503Z" fill="#007C0C"/>
<path d="M5.71484 26.7503C5.70723 26.7128 5.69609 26.6759 5.68145 26.6407C5.6668 26.6056 5.64863 26.5716 5.62754 26.5394C5.60586 26.5077 5.58184 26.4778 5.5543 26.4503C5.52734 26.4234 5.49746 26.3993 5.46523 26.3776C5.43359 26.3566 5.39961 26.3384 5.36445 26.3237C5.3293 26.3091 5.29238 26.298 5.25488 26.2903C5.06445 26.2523 4.8623 26.3144 4.72578 26.4503C4.69883 26.4778 4.67422 26.5077 4.65313 26.5394C4.63203 26.5716 4.61387 26.6056 4.59922 26.6407C4.58457 26.6759 4.57344 26.7128 4.56582 26.7503C4.5582 26.7884 4.55469 26.8265 4.55469 26.8651C4.55469 26.9032 4.5582 26.9413 4.56582 26.9794C4.57344 27.0169 4.58457 27.0538 4.59922 27.089C4.61387 27.1241 4.63203 27.1581 4.65313 27.1903C4.67422 27.222 4.69883 27.2519 4.72578 27.2794C4.83477 27.3884 4.98594 27.4511 5.14062 27.4511C5.17871 27.4511 5.2168 27.447 5.25488 27.4394C5.29238 27.4318 5.3293 27.4206 5.36445 27.406C5.39961 27.3913 5.43359 27.3732 5.46523 27.3521C5.49746 27.3304 5.52734 27.3064 5.5543 27.2794C5.58184 27.2519 5.60586 27.222 5.62754 27.1903C5.64863 27.1581 5.6668 27.1241 5.68145 27.089C5.69609 27.0538 5.70723 27.0169 5.71484 26.9794C5.72246 26.9413 5.72656 26.9032 5.72656 26.8651C5.72656 26.8265 5.72246 26.7884 5.71484 26.7503Z" fill="black" fill-opacity="0.2"/>
<path d="M12.0123 24.9985C12.0047 24.961 11.9936 24.9241 11.9789 24.8889C11.9643 24.8538 11.9461 24.8198 11.925 24.7875C11.9033 24.7559 11.8787 24.7254 11.8518 24.6985C11.8248 24.6715 11.7949 24.6469 11.7627 24.6258C11.7311 24.6047 11.6971 24.5866 11.6619 24.5719C11.6262 24.5573 11.5893 24.5461 11.5523 24.5385C11.4768 24.5233 11.3988 24.5233 11.3232 24.5385C11.2857 24.5461 11.2488 24.5573 11.2137 24.5719C11.1779 24.5866 11.1439 24.6047 11.1123 24.6258C11.0801 24.6469 11.0502 24.6715 11.0232 24.6985C10.9963 24.7254 10.9717 24.7559 10.9506 24.7875C10.9295 24.8198 10.9113 24.8538 10.8967 24.8889C10.882 24.9241 10.8709 24.961 10.8633 24.9985C10.8557 25.0366 10.8516 25.0747 10.8516 25.1127C10.8516 25.1514 10.8557 25.1895 10.8633 25.2276C10.8709 25.2651 10.882 25.302 10.8967 25.3372C10.9113 25.3723 10.9295 25.4063 10.9506 25.4385C10.9717 25.4702 10.9963 25.5006 11.0232 25.5276C11.0502 25.5545 11.0801 25.5786 11.1123 25.6002C11.1439 25.6213 11.1779 25.6395 11.2137 25.6542C11.2488 25.6688 11.2857 25.6799 11.3232 25.6875C11.3607 25.6952 11.3994 25.6993 11.4375 25.6993C11.4756 25.6993 11.5143 25.6952 11.5523 25.6875C11.5893 25.6799 11.6262 25.6688 11.6619 25.6542C11.6971 25.6395 11.7311 25.6213 11.7627 25.6002C11.7949 25.5786 11.8248 25.5545 11.8518 25.5276C11.8787 25.5006 11.9033 25.4702 11.925 25.4385C11.9461 25.4063 11.9643 25.3723 11.9789 25.3372C11.9936 25.302 12.0047 25.2651 12.0123 25.2276C12.0199 25.1895 12.0234 25.1514 12.0234 25.1127C12.0234 25.0747 12.0199 25.0366 12.0123 24.9985Z" fill="#007C0C"/>
<path d="M12.0123 24.9985C12.0047 24.961 11.9936 24.9241 11.9789 24.8889C11.9643 24.8538 11.9461 24.8198 11.925 24.7875C11.9033 24.7559 11.8787 24.7254 11.8518 24.6985C11.8248 24.6715 11.7949 24.6469 11.7627 24.6258C11.7311 24.6047 11.6971 24.5866 11.6619 24.5719C11.6262 24.5573 11.5893 24.5461 11.5523 24.5385C11.4768 24.5233 11.3988 24.5233 11.3232 24.5385C11.2857 24.5461 11.2488 24.5573 11.2137 24.5719C11.1779 24.5866 11.1439 24.6047 11.1123 24.6258C11.0801 24.6469 11.0502 24.6715 11.0232 24.6985C10.9963 24.7254 10.9717 24.7559 10.9506 24.7875C10.9295 24.8198 10.9113 24.8538 10.8967 24.8889C10.882 24.9241 10.8709 24.961 10.8633 24.9985C10.8557 25.0366 10.8516 25.0747 10.8516 25.1127C10.8516 25.1514 10.8557 25.1895 10.8633 25.2276C10.8709 25.2651 10.882 25.302 10.8967 25.3372C10.9113 25.3723 10.9295 25.4063 10.9506 25.4385C10.9717 25.4702 10.9963 25.5006 11.0232 25.5276C11.0502 25.5545 11.0801 25.5786 11.1123 25.6002C11.1439 25.6213 11.1779 25.6395 11.2137 25.6542C11.2488 25.6688 11.2857 25.6799 11.3232 25.6875C11.3607 25.6952 11.3994 25.6993 11.4375 25.6993C11.4756 25.6993 11.5143 25.6952 11.5523 25.6875C11.5893 25.6799 11.6262 25.6688 11.6619 25.6542C11.6971 25.6395 11.7311 25.6213 11.7627 25.6002C11.7949 25.5786 11.8248 25.5545 11.8518 25.5276C11.8787 25.5006 11.9033 25.4702 11.925 25.4385C11.9461 25.4063 11.9643 25.3723 11.9789 25.3372C11.9936 25.302 12.0047 25.2651 12.0123 25.2276C12.0199 25.1895 12.0234 25.1514 12.0234 25.1127C12.0234 25.0747 12.0199 25.0366 12.0123 24.9985Z" fill="black" fill-opacity="0.2"/>
<path d="M18.7861 26.7504C18.7785 26.7129 18.7674 26.676 18.7527 26.6409C18.7381 26.6057 18.7199 26.5717 18.6988 26.5395C18.6777 26.5079 18.6531 26.478 18.6262 26.4504C18.5992 26.4235 18.5693 26.3995 18.5371 26.3778C18.5055 26.3567 18.4715 26.3385 18.4357 26.3239C18.4006 26.3092 18.3637 26.2981 18.3262 26.2905C18.2506 26.2752 18.1727 26.2752 18.0971 26.2905C18.0602 26.2981 18.0232 26.3092 17.9875 26.3239C17.9523 26.3385 17.9184 26.3567 17.8867 26.3778C17.8545 26.3995 17.8246 26.4235 17.7977 26.4504C17.7707 26.478 17.7461 26.5079 17.7244 26.5395C17.7033 26.5717 17.6852 26.6057 17.6705 26.6409C17.6559 26.676 17.6447 26.7129 17.6371 26.7504C17.6295 26.7885 17.626 26.8266 17.626 26.8653C17.626 26.9034 17.6295 26.9415 17.6371 26.9795C17.6447 27.017 17.6559 27.054 17.6705 27.0891C17.6852 27.1243 17.7033 27.1583 17.7244 27.1905C17.7461 27.2221 17.7707 27.2526 17.7977 27.2795C17.8246 27.3065 17.8545 27.3311 17.8867 27.3522C17.9184 27.3733 17.9523 27.3915 17.9875 27.4061C18.0232 27.4208 18.0602 27.4319 18.0971 27.4395C18.1352 27.4471 18.1738 27.4512 18.2119 27.4512C18.366 27.4512 18.5172 27.3885 18.6262 27.2795C18.6531 27.2526 18.6777 27.2221 18.6988 27.1905C18.7199 27.1583 18.7381 27.1243 18.7527 27.0891C18.7674 27.054 18.7785 27.017 18.7861 26.9795C18.7937 26.9415 18.7979 26.9034 18.7979 26.8653C18.7979 26.8266 18.7937 26.7885 18.7861 26.7504Z" fill="#007C0C"/>
<path d="M18.7861 26.7504C18.7785 26.7129 18.7674 26.676 18.7527 26.6409C18.7381 26.6057 18.7199 26.5717 18.6988 26.5395C18.6777 26.5079 18.6531 26.478 18.6262 26.4504C18.5992 26.4235 18.5693 26.3995 18.5371 26.3778C18.5055 26.3567 18.4715 26.3385 18.4357 26.3239C18.4006 26.3092 18.3637 26.2981 18.3262 26.2905C18.2506 26.2752 18.1727 26.2752 18.0971 26.2905C18.0602 26.2981 18.0232 26.3092 17.9875 26.3239C17.9523 26.3385 17.9184 26.3567 17.8867 26.3778C17.8545 26.3995 17.8246 26.4235 17.7977 26.4504C17.7707 26.478 17.7461 26.5079 17.7244 26.5395C17.7033 26.5717 17.6852 26.6057 17.6705 26.6409C17.6559 26.676 17.6447 26.7129 17.6371 26.7504C17.6295 26.7885 17.626 26.8266 17.626 26.8653C17.626 26.9034 17.6295 26.9415 17.6371 26.9795C17.6447 27.017 17.6559 27.054 17.6705 27.0891C17.6852 27.1243 17.7033 27.1583 17.7244 27.1905C17.7461 27.2221 17.7707 27.2526 17.7977 27.2795C17.8246 27.3065 17.8545 27.3311 17.8867 27.3522C17.9184 27.3733 17.9523 27.3915 17.9875 27.4061C18.0232 27.4208 18.0602 27.4319 18.0971 27.4395C18.1352 27.4471 18.1738 27.4512 18.2119 27.4512C18.366 27.4512 18.5172 27.3885 18.6262 27.2795C18.6531 27.2526 18.6777 27.2221 18.6988 27.1905C18.7199 27.1583 18.7381 27.1243 18.7527 27.0891C18.7674 27.054 18.7785 27.017 18.7861 26.9795C18.7937 26.9415 18.7979 26.9034 18.7979 26.8653C18.7979 26.8266 18.7937 26.7885 18.7861 26.7504Z" fill="black" fill-opacity="0.2"/>
<path d="M25.4346 25.3489C25.427 25.3114 25.4158 25.2745 25.4012 25.2393C25.3865 25.2041 25.3684 25.1696 25.3473 25.1379C25.3262 25.1063 25.3016 25.0758 25.2746 25.0489C25.165 24.9399 25.0145 24.8772 24.8604 24.8772C24.7057 24.8772 24.5551 24.9399 24.4455 25.0489C24.4186 25.0758 24.3945 25.1063 24.3729 25.1379C24.3518 25.1696 24.3336 25.2041 24.3189 25.2393C24.3043 25.2745 24.2932 25.3114 24.2855 25.3489C24.2779 25.3864 24.2744 25.425 24.2744 25.4631C24.2744 25.5018 24.2779 25.5399 24.2855 25.578C24.2932 25.6155 24.3043 25.6524 24.3189 25.6875C24.3336 25.7227 24.3518 25.7567 24.3729 25.7883C24.3945 25.8206 24.4186 25.8504 24.4455 25.878C24.473 25.9049 24.5029 25.929 24.5346 25.9506C24.5668 25.9717 24.6008 25.9899 24.6359 26.0045C24.6711 26.0192 24.708 26.0303 24.7455 26.0379C24.7836 26.0456 24.8217 26.0491 24.8604 26.0491C25.0145 26.0491 25.1656 25.987 25.2746 25.878C25.3016 25.8504 25.3262 25.8206 25.3473 25.7883C25.3684 25.7567 25.3865 25.7227 25.4012 25.6875C25.4158 25.6518 25.427 25.6155 25.4346 25.578C25.4422 25.5399 25.4463 25.5018 25.4463 25.4631C25.4463 25.425 25.4422 25.3864 25.4346 25.3489Z" fill="#007C0C"/>
<path d="M25.4346 25.3489C25.427 25.3114 25.4158 25.2745 25.4012 25.2393C25.3865 25.2041 25.3684 25.1696 25.3473 25.1379C25.3262 25.1063 25.3016 25.0758 25.2746 25.0489C25.165 24.9399 25.0145 24.8772 24.8604 24.8772C24.7057 24.8772 24.5551 24.9399 24.4455 25.0489C24.4186 25.0758 24.3945 25.1063 24.3729 25.1379C24.3518 25.1696 24.3336 25.2041 24.3189 25.2393C24.3043 25.2745 24.2932 25.3114 24.2855 25.3489C24.2779 25.3864 24.2744 25.425 24.2744 25.4631C24.2744 25.5018 24.2779 25.5399 24.2855 25.578C24.2932 25.6155 24.3043 25.6524 24.3189 25.6875C24.3336 25.7227 24.3518 25.7567 24.3729 25.7883C24.3945 25.8206 24.4186 25.8504 24.4455 25.878C24.473 25.9049 24.5029 25.929 24.5346 25.9506C24.5668 25.9717 24.6008 25.9899 24.6359 26.0045C24.6711 26.0192 24.708 26.0303 24.7455 26.0379C24.7836 26.0456 24.8217 26.0491 24.8604 26.0491C25.0145 26.0491 25.1656 25.987 25.2746 25.878C25.3016 25.8504 25.3262 25.8206 25.3473 25.7883C25.3684 25.7567 25.3865 25.7227 25.4012 25.6875C25.4158 25.6518 25.427 25.6155 25.4346 25.578C25.4422 25.5399 25.4463 25.5018 25.4463 25.4631C25.4463 25.425 25.4422 25.3864 25.4346 25.3489Z" fill="black" fill-opacity="0.2"/>
<path d="M19.6041 15.7709C19.5965 15.734 19.5854 15.6971 19.5707 15.6614C19.5561 15.6262 19.5379 15.5922 19.5168 15.5606C19.4951 15.5284 19.4705 15.4985 19.4436 15.4715C19.4166 15.444 19.3867 15.42 19.3545 15.3983C19.3229 15.3772 19.2889 15.359 19.2537 15.3444C19.218 15.3297 19.1811 15.3186 19.1441 15.311C19.0686 15.2958 18.9906 15.2958 18.915 15.311C18.8775 15.3186 18.8406 15.3297 18.8055 15.3444C18.7697 15.359 18.7357 15.3772 18.7041 15.3983C18.6719 15.42 18.642 15.444 18.615 15.4715C18.5881 15.4985 18.5635 15.5284 18.5424 15.5606C18.5213 15.5922 18.5031 15.6262 18.4885 15.6614C18.4738 15.6971 18.4627 15.734 18.4551 15.7709C18.4475 15.809 18.4434 15.8477 18.4434 15.8858C18.4434 15.9239 18.4475 15.9625 18.4551 16C18.4627 16.0375 18.4738 16.0745 18.4885 16.1096C18.5031 16.1448 18.5213 16.1793 18.5424 16.211C18.5635 16.2432 18.5881 16.2731 18.615 16.3C18.642 16.327 18.6719 16.3516 18.7041 16.3727C18.7357 16.3938 18.7697 16.412 18.8055 16.4266C18.8406 16.4413 18.8775 16.4524 18.915 16.46C18.9525 16.4676 18.9912 16.4717 19.0293 16.4717C19.0674 16.4717 19.1061 16.4676 19.1441 16.46C19.1811 16.4524 19.218 16.4413 19.2537 16.4266C19.2889 16.412 19.3229 16.3938 19.3545 16.3727C19.3867 16.3516 19.4166 16.327 19.4436 16.3C19.4705 16.2731 19.4951 16.2432 19.5168 16.211C19.5379 16.1793 19.5561 16.1448 19.5707 16.1096C19.5854 16.0745 19.5965 16.0375 19.6041 16C19.6117 15.9625 19.6152 15.9239 19.6152 15.8858C19.6152 15.8477 19.6117 15.809 19.6041 15.7709Z" fill="#007C0C"/>
<path d="M19.6041 15.7709C19.5965 15.734 19.5854 15.6971 19.5707 15.6614C19.5561 15.6262 19.5379 15.5922 19.5168 15.5606C19.4951 15.5284 19.4705 15.4985 19.4436 15.4715C19.4166 15.444 19.3867 15.42 19.3545 15.3983C19.3229 15.3772 19.2889 15.359 19.2537 15.3444C19.218 15.3297 19.1811 15.3186 19.1441 15.311C19.0686 15.2958 18.9906 15.2958 18.915 15.311C18.8775 15.3186 18.8406 15.3297 18.8055 15.3444C18.7697 15.359 18.7357 15.3772 18.7041 15.3983C18.6719 15.42 18.642 15.444 18.615 15.4715C18.5881 15.4985 18.5635 15.5284 18.5424 15.5606C18.5213 15.5922 18.5031 15.6262 18.4885 15.6614C18.4738 15.6971 18.4627 15.734 18.4551 15.7709C18.4475 15.809 18.4434 15.8477 18.4434 15.8858C18.4434 15.9239 18.4475 15.9625 18.4551 16C18.4627 16.0375 18.4738 16.0745 18.4885 16.1096C18.5031 16.1448 18.5213 16.1793 18.5424 16.211C18.5635 16.2432 18.5881 16.2731 18.615 16.3C18.642 16.327 18.6719 16.3516 18.7041 16.3727C18.7357 16.3938 18.7697 16.412 18.8055 16.4266C18.8406 16.4413 18.8775 16.4524 18.915 16.46C18.9525 16.4676 18.9912 16.4717 19.0293 16.4717C19.0674 16.4717 19.1061 16.4676 19.1441 16.46C19.1811 16.4524 19.218 16.4413 19.2537 16.4266C19.2889 16.412 19.3229 16.3938 19.3545 16.3727C19.3867 16.3516 19.4166 16.327 19.4436 16.3C19.4705 16.2731 19.4951 16.2432 19.5168 16.211C19.5379 16.1793 19.5561 16.1448 19.5707 16.1096C19.5854 16.0745 19.5965 16.0375 19.6041 16C19.6117 15.9625 19.6152 15.9239 19.6152 15.8858C19.6152 15.8477 19.6117 15.809 19.6041 15.7709Z" fill="black" fill-opacity="0.2"/>
<path d="M11.9536 14.9731C11.946 14.9356 11.9349 14.8987 11.9202 14.8635C11.9056 14.8284 11.8874 14.7944 11.8663 14.7622C11.8452 14.7305 11.8206 14.7 11.7937 14.6731C11.7667 14.6461 11.7362 14.6215 11.7046 14.6004C11.6724 14.5793 11.6384 14.5612 11.6032 14.5465C11.5681 14.5319 11.5312 14.5208 11.4937 14.5131C11.4181 14.4979 11.3401 14.4979 11.2646 14.5131C11.2271 14.5208 11.1901 14.5319 11.155 14.5465C11.1198 14.5612 11.0858 14.5793 11.0536 14.6004C11.022 14.6215 10.9921 14.6461 10.9646 14.6731C10.9376 14.7 10.9136 14.7305 10.8919 14.7622C10.8708 14.7944 10.8526 14.8284 10.838 14.8635C10.8233 14.8987 10.8122 14.9356 10.8046 14.9731C10.797 15.0112 10.7935 15.0493 10.7935 15.0879C10.7935 15.126 10.797 15.1641 10.8046 15.2022C10.8122 15.2397 10.8233 15.2766 10.838 15.3118C10.8526 15.3469 10.8708 15.3809 10.8919 15.4131C10.9136 15.4448 10.9376 15.4747 10.9646 15.5022C10.9921 15.5292 11.022 15.5532 11.0536 15.5749C11.0858 15.5959 11.1198 15.6141 11.155 15.6288C11.1901 15.6434 11.2271 15.6545 11.2646 15.6622C11.3026 15.6698 11.3407 15.6739 11.3794 15.6739C11.4175 15.6739 11.4562 15.6698 11.4937 15.6622C11.5312 15.6545 11.5681 15.6434 11.6032 15.6288C11.6384 15.6141 11.6724 15.5959 11.7046 15.5749C11.7362 15.5532 11.7667 15.5292 11.7937 15.5022C11.8206 15.4747 11.8446 15.4448 11.8663 15.4131C11.8874 15.3809 11.9056 15.3469 11.9202 15.3118C11.9349 15.2766 11.946 15.2397 11.9536 15.2022C11.9612 15.1641 11.9647 15.126 11.9647 15.0879C11.9647 15.0492 11.9612 15.0111 11.9536 14.9731Z" fill="#007C0C"/>
<path d="M11.9536 14.9731C11.946 14.9356 11.9349 14.8987 11.9202 14.8635C11.9056 14.8284 11.8874 14.7944 11.8663 14.7622C11.8452 14.7305 11.8206 14.7 11.7937 14.6731C11.7667 14.6461 11.7362 14.6215 11.7046 14.6004C11.6724 14.5793 11.6384 14.5612 11.6032 14.5465C11.5681 14.5319 11.5312 14.5208 11.4937 14.5131C11.4181 14.4979 11.3401 14.4979 11.2646 14.5131C11.2271 14.5208 11.1901 14.5319 11.155 14.5465C11.1198 14.5612 11.0858 14.5793 11.0536 14.6004C11.022 14.6215 10.9921 14.6461 10.9646 14.6731C10.9376 14.7 10.9136 14.7305 10.8919 14.7622C10.8708 14.7944 10.8526 14.8284 10.838 14.8635C10.8233 14.8987 10.8122 14.9356 10.8046 14.9731C10.797 15.0112 10.7935 15.0493 10.7935 15.0879C10.7935 15.126 10.797 15.1641 10.8046 15.2022C10.8122 15.2397 10.8233 15.2766 10.838 15.3118C10.8526 15.3469 10.8708 15.3809 10.8919 15.4131C10.9136 15.4448 10.9376 15.4747 10.9646 15.5022C10.9921 15.5292 11.022 15.5532 11.0536 15.5749C11.0858 15.5959 11.1198 15.6141 11.155 15.6288C11.1901 15.6434 11.2271 15.6545 11.2646 15.6622C11.3026 15.6698 11.3407 15.6739 11.3794 15.6739C11.4175 15.6739 11.4562 15.6698 11.4937 15.6622C11.5312 15.6545 11.5681 15.6434 11.6032 15.6288C11.6384 15.6141 11.6724 15.5959 11.7046 15.5749C11.7362 15.5532 11.7667 15.5292 11.7937 15.5022C11.8206 15.4747 11.8446 15.4448 11.8663 15.4131C11.8874 15.3809 11.9056 15.3469 11.9202 15.3118C11.9349 15.2766 11.946 15.2397 11.9536 15.2022C11.9612 15.1641 11.9647 15.126 11.9647 15.0879C11.9647 15.0492 11.9612 15.0111 11.9536 14.9731Z" fill="black" fill-opacity="0.2"/>
</g>
<defs>
<clipPath id="clip0_3413_13105">
<rect width="30" height="30" fill="white"/>
</clipPath>
</defs>
</svg>
