<svg width="80" height="80" viewBox="0 0 80 80" fill="none" xmlns="http://www.w3.org/2000/svg">
<g clip-path="url(#clip0_1685_11575)">
<path d="M80 40C80 62.0914 62.0914 80 40 80C28.3543 80 17.871 75.0237 10.5616 67.0808C8.64163 64.9959 6.94204 62.7053 5.49551 60.2482C2.00327 54.3086 0 47.3877 0 40C0 17.9086 17.9086 0 40 0C47.3894 0 54.3102 2.00326 60.2482 5.49714C62.7053 6.94204 64.9943 8.64163 67.0792 10.5633C75.022 17.8694 80 28.3543 80 40Z" fill="#F0CD00"/>
<path d="M79.9986 40.0001C79.9986 61.5935 62.89 79.1903 41.4876 79.9723C20.0851 79.1903 2.97656 61.5935 2.97656 40.0001C2.97656 18.4066 20.0851 0.809873 41.4876 0.027832C62.89 0.809873 79.9986 18.4066 79.9986 40.0001Z" fill="#FFDE50"/>
<path d="M67.0798 10.5632L10.5622 67.0807C8.64222 64.9958 6.94262 62.7052 5.49609 60.2481L60.2487 5.49707C62.7059 6.94197 64.9949 8.64156 67.0798 10.5632Z" fill="#FFEA94"/>
<path d="M77.2396 25.3763L25.3734 77.2424C21.7016 75.7991 18.2943 73.8285 15.2461 71.4236L71.4224 15.2473C73.8273 18.2955 75.7979 21.7028 77.2396 25.3763Z" fill="#FFEA94"/>
<path d="M71.0829 39.9999C71.0829 57.1656 57.1661 71.0824 40.0004 71.0824C34.0216 71.0824 28.438 69.3942 23.6984 66.4685C21.6331 65.195 19.7294 63.6848 18.0216 61.9771C16.7661 60.7232 15.6167 59.3599 14.5898 57.9052C13.1759 55.902 11.9923 53.724 11.0796 51.4105C9.72776 47.9901 8.96695 44.271 8.92123 40.382C8.91797 40.2546 8.91797 40.1273 8.91797 39.9999C8.91797 22.8342 22.8331 8.91748 40.0004 8.91748C40.1278 8.91748 40.2567 8.91748 40.3841 8.92075C44.2731 8.96646 47.9906 9.72891 51.411 11.0791C53.7245 11.9934 55.9025 13.1754 57.9057 14.5893C59.3604 15.6179 60.722 16.7656 61.9776 18.0212C63.6853 19.7273 65.1955 21.6326 66.469 23.6979C69.3947 28.4375 71.0829 34.0212 71.0829 39.9999Z" fill="#FAA300"/>
<path d="M61.9776 18.0212L18.0216 61.9771C16.7661 60.7232 15.6167 59.3599 14.5898 57.9052C13.1759 55.902 11.9923 53.724 11.0796 51.4105C9.72776 47.9901 8.96695 44.2709 8.92123 40.382C8.91797 40.2546 8.91797 40.1273 8.91797 39.9999C8.91797 22.8342 22.8331 8.91748 40.0004 8.91748C40.1278 8.91748 40.2567 8.91748 40.3841 8.92075C44.2731 8.96646 47.9906 9.72891 51.411 11.0791C53.7245 11.9934 55.9025 13.1754 57.9057 14.5893C59.3604 15.6179 60.722 16.7656 61.9776 18.0212Z" fill="#FFBD00"/>
<path d="M71.0797 39.9999C71.0797 57.1656 57.163 71.0824 39.9973 71.0824C39.4079 71.0824 38.8234 71.066 38.2422 71.0334C54.5916 70.124 67.5679 56.5763 67.5679 39.9999C67.5679 23.4236 54.5916 9.87585 38.2422 8.96646C38.8234 8.93381 39.4079 8.91748 39.9973 8.91748C57.163 8.91748 71.0797 22.8342 71.0797 39.9999Z" fill="#F68E00"/>
<path d="M41.6012 46.704C49.7368 46.704 56.3556 40.085 56.3556 31.9495C56.3556 23.814 49.7367 17.1951 41.6012 17.1951H25.3249C23.5215 17.1951 22.0596 18.6569 22.0596 20.4604V40.1734H19.8356C18.0322 40.1734 16.5703 41.6352 16.5703 43.4387C16.5703 45.2421 18.0322 46.704 19.8356 46.704H22.0596V50.4596H19.8356C18.0322 50.4596 16.5703 51.9214 16.5703 53.7249C16.5703 55.5283 18.0322 56.9902 19.8356 56.9902H22.0596V60.327C22.0596 62.1304 23.5215 63.5923 25.3249 63.5923C27.1284 63.5923 28.5902 62.1304 28.5902 60.327V56.9902H40.0115C41.8149 56.9902 43.2768 55.5283 43.2768 53.7249C43.2768 51.9214 41.8149 50.4596 40.0115 50.4596H28.5902V46.704H41.6012ZM28.5902 23.7257H41.6012C46.1359 23.7257 49.825 27.4148 49.825 31.9495C49.825 36.484 46.1359 40.1734 41.6012 40.1734H28.5902V23.7257Z" fill="#F68E00"/>
<path d="M45.6832 46.704C53.8189 46.704 60.4376 40.085 60.4376 31.9495C60.4376 23.814 53.8187 17.1951 45.6832 17.1951H29.407C27.6035 17.1951 26.1417 18.6569 26.1417 20.4604V40.1734H23.9176C22.1142 40.1734 20.6523 41.6352 20.6523 43.4387C20.6523 45.2421 22.1142 46.704 23.9176 46.704H26.1417V50.4596H23.9176C22.1142 50.4596 20.6523 51.9214 20.6523 53.7249C20.6523 55.5283 22.1142 56.9902 23.9176 56.9902H26.1417V60.327C26.1417 62.1304 27.6035 63.5923 29.407 63.5923C31.2104 63.5923 32.6723 62.1304 32.6723 60.327V56.9902H44.0935C45.8969 56.9902 47.3588 55.5283 47.3588 53.7249C47.3588 51.9214 45.8969 50.4596 44.0935 50.4596H32.6723V46.704H45.6832ZM32.6723 23.7257H45.6832C50.2179 23.7257 53.907 27.4148 53.907 31.9495C53.907 36.484 50.2179 40.1734 45.6832 40.1734H32.6723V23.7257Z" fill="#FFEA94"/>
</g>
<defs>
<clipPath id="clip0_1685_11575">
<rect width="80" height="80" fill="white"/>
</clipPath>
</defs>
</svg>
