<svg width="80" height="80" viewBox="0 0 80 80" fill="none" xmlns="http://www.w3.org/2000/svg">
<g clip-path="url(#clip0_1793_17034)">
<path d="M80 40C80 62.0914 62.0914 80 40 80C28.3543 80 17.871 75.0237 10.5616 67.0808C8.64163 64.9959 6.94204 62.7053 5.49551 60.2482C2.00327 54.3086 0 47.3877 0 40C0 17.9086 17.9086 0 40 0C47.3894 0 54.3102 2.00326 60.2482 5.49714C62.7053 6.94204 64.9943 8.64163 67.0792 10.5633C75.022 17.8694 80 28.3543 80 40Z" fill="#B4CEE1"/>
<mask id="mask0_1793_17034" style="mask-type:alpha" maskUnits="userSpaceOnUse" x="0" y="0" width="80" height="80">
<path d="M80 40C80 62.0914 62.0914 80 40 80C28.3543 80 17.871 75.0237 10.5616 67.0808C8.64163 64.9959 6.94204 62.7053 5.49551 60.2482C2.00327 54.3086 0 47.3877 0 40C0 17.9086 17.9086 0 40 0C47.3894 0 54.3102 2.00326 60.2482 5.49714C62.7053 6.94204 64.9943 8.64163 67.0792 10.5633C75.022 17.8694 80 28.3543 80 40Z" fill="#F3F6F8"/>
</mask>
<g mask="url(#mask0_1793_17034)">
<path d="M60.2344 32.8872H65.8713C66.4939 32.8872 66.9987 33.5755 66.9987 34.4245V83.6195H60.2344V32.8872Z" fill="#A9B0BB"/>
<path d="M54.5977 23.8682H60.2346C60.8572 23.8682 61.362 24.5541 61.362 25.4003V83.6195H54.5977V23.8682Z" fill="#CAD0D7"/>
<path d="M13.8984 83.8139V29.3302L23.87 19.3586H54.8925C55.5044 19.3586 56.0004 19.8547 56.0004 20.4666V83.8139H13.8984Z" fill="#E4E8EB"/>
<path d="M13.8984 29.3302L23.87 19.3586V28.2222C23.87 28.8341 23.3739 29.3302 22.762 29.3302H13.8984Z" fill="#CAD0D7"/>
<path d="M20.7393 41.6341H19.6314C19.0195 41.6341 18.5234 41.1381 18.5234 40.5262C18.5234 39.9143 19.0195 39.4182 19.6314 39.4182H20.7393C21.3512 39.4182 21.8473 39.9143 21.8473 40.5262C21.8473 41.1381 21.3512 41.6341 20.7393 41.6341Z" fill="#A9B0BB"/>
<path d="M50.4581 41.6341H25.8306C25.2187 41.6341 24.7227 41.1381 24.7227 40.5262C24.7227 39.9143 25.2187 39.4182 25.8306 39.4182H50.4581C51.07 39.4182 51.5661 39.9143 51.5661 40.5262C51.5661 41.1381 51.07 41.6341 50.4581 41.6341Z" fill="#A9B0BB"/>
<path d="M50.4581 46.066H49.3501C48.7382 46.066 48.2422 45.5699 48.2422 44.958C48.2422 44.3461 48.7382 43.8501 49.3501 43.8501H50.4581C51.07 43.8501 51.566 44.3461 51.566 44.958C51.566 45.5699 51.07 46.066 50.4581 46.066Z" fill="#A9B0BB"/>
<path d="M44.2589 46.066H19.6314C19.0195 46.066 18.5234 45.5699 18.5234 44.958C18.5234 44.3461 19.0195 43.8501 19.6314 43.8501H44.2589C44.8708 43.8501 45.3668 44.3461 45.3668 44.958C45.3668 45.5699 44.8708 46.066 44.2589 46.066Z" fill="#A9B0BB"/>
<path d="M20.7393 50.4976H19.6314C19.0195 50.4976 18.5234 50.0016 18.5234 49.3897C18.5234 48.7778 19.0195 48.2817 19.6314 48.2817H20.7393C21.3512 48.2817 21.8473 48.7778 21.8473 49.3897C21.8473 50.0016 21.3512 50.4976 20.7393 50.4976Z" fill="#A9B0BB"/>
<path d="M50.4581 50.4976H25.8306C25.2187 50.4976 24.7227 50.0016 24.7227 49.3897C24.7227 48.7778 25.2187 48.2817 25.8306 48.2817H50.4581C51.07 48.2817 51.5661 48.7778 51.5661 49.3897C51.5661 50.0016 51.07 50.4976 50.4581 50.4976Z" fill="#A9B0BB"/>
<path d="M50.4581 54.9295H49.3501C48.7382 54.9295 48.2422 54.4335 48.2422 53.8216C48.2422 53.2097 48.7382 52.7136 49.3501 52.7136H50.4581C51.07 52.7136 51.566 53.2097 51.566 53.8216C51.566 54.4335 51.07 54.9295 50.4581 54.9295Z" fill="#A9B0BB"/>
<path d="M44.2589 54.9295H19.6314C19.0195 54.9295 18.5234 54.4335 18.5234 53.8216C18.5234 53.2097 19.0195 52.7136 19.6314 52.7136H44.2589C44.8708 52.7136 45.3668 53.2097 45.3668 53.8216C45.3668 54.4335 44.8708 54.9295 44.2589 54.9295Z" fill="#A9B0BB"/>
<path d="M20.7393 59.3612H19.6314C19.0195 59.3612 18.5234 58.8651 18.5234 58.2532C18.5234 57.6413 19.0195 57.1453 19.6314 57.1453H20.7393C21.3512 57.1453 21.8473 57.6413 21.8473 58.2532C21.8473 58.8651 21.3512 59.3612 20.7393 59.3612Z" fill="#A9B0BB"/>
<path d="M50.4581 59.3612H25.8306C25.2187 59.3612 24.7227 58.8651 24.7227 58.2532C24.7227 57.6413 25.2187 57.1453 25.8306 57.1453H50.4581C51.07 57.1453 51.5661 57.6413 51.5661 58.2532C51.5661 58.8651 51.07 59.3612 50.4581 59.3612Z" fill="#A9B0BB"/>
<path d="M50.4586 64.4149H19.4361C18.8242 64.4149 18.3281 63.9188 18.3281 63.3069C18.3281 62.695 18.8242 62.199 19.4361 62.199H50.4586C51.0705 62.199 51.5665 62.695 51.5665 63.3069C51.5665 63.9188 51.0705 64.4149 50.4586 64.4149Z" fill="#A9B0BB"/>
<path d="M39.3791 68.8465H19.4361C18.8242 68.8465 18.3281 68.3505 18.3281 67.7386C18.3281 67.1267 18.8242 66.6306 19.4361 66.6306H39.3791C39.991 66.6306 40.4871 67.1267 40.4871 67.7386C40.4871 68.3505 39.991 68.8465 39.3791 68.8465Z" fill="#A9B0BB"/>
</g>
</g>
<defs>
<clipPath id="clip0_1793_17034">
<rect width="80" height="80" fill="white"/>
</clipPath>
</defs>
</svg>
