<svg width="36" height="24" viewBox="0 0 36 24" fill="none" xmlns="http://www.w3.org/2000/svg">
    <path
        d="M33.2444 6.74707H31.0299C30.3603 6.74707 29.8453 6.95307 29.5363 7.62259L25.3132 17.2533H28.3003C28.3003 17.2533 28.8153 15.9658 28.9183 15.6568C29.2273 15.6568 32.1629 15.6568 32.5749 15.6568C32.6779 16.0173 32.9354 17.2018 32.9354 17.2018H35.6135L33.2444 6.74707ZM29.7423 13.4937C29.9998 12.8757 30.8754 10.5582 30.8754 10.5582C30.8754 10.6097 31.1329 9.94014 31.2359 9.57963L31.4419 10.5067C31.4419 10.5067 32.0084 13.0302 32.1114 13.5452H29.7423V13.4937Z"
        fill="#3362AB" />
    <path
        d="M25.518 13.8026C25.518 15.9656 23.561 17.4076 20.5224 17.4076C19.2349 17.4076 17.9989 17.1501 17.3293 16.8411L17.7414 14.4721L18.1019 14.6266C19.0289 15.0386 19.6469 15.1931 20.7799 15.1931C21.6039 15.1931 22.4795 14.8841 22.4795 14.1631C22.4795 13.6996 22.119 13.3906 20.9859 12.8755C19.9044 12.3605 18.4624 11.5365 18.4624 10.043C18.4624 7.98294 20.4709 6.59241 23.3035 6.59241C24.385 6.59241 25.312 6.79841 25.8785 7.05592L25.4665 9.32197L25.2605 9.11596C24.7455 8.90996 24.076 8.70395 23.0975 8.70395C22.0159 8.75546 21.5009 9.21897 21.5009 9.63098C21.5009 10.0945 22.119 10.455 23.0975 10.9185C24.7455 11.691 25.518 12.5665 25.518 13.8026Z"
        fill="#3362AB" />
    <path
        d="M0.386719 6.85029L0.43822 6.64429H4.86732C5.48533 6.64429 5.94884 6.85029 6.10335 7.51981L7.08187 12.1549C6.10335 9.68285 3.8373 7.67431 0.386719 6.85029Z"
        fill="#F9B50B" />
    <path
        d="M13.3122 6.74803L8.83164 17.2028H5.79308L3.21802 8.44757C5.07206 9.6321 6.61709 11.4861 7.18361 12.7737L7.49261 13.8552L10.2737 6.69653H13.3122V6.74803Z"
        fill="#3362AB" />
    <path d="M14.5005 6.69653H17.3331L15.5306 17.2028H12.698L14.5005 6.69653Z" fill="#3362AB" />
</svg>