<svg width="25" height="24" viewBox="0 0 25 24" fill="none" xmlns="http://www.w3.org/2000/svg">
    <g clip-path="url(#clip0_3405_15843)">
        <path
            d="M21.6961 4.8938C22.2481 5.60759 22.7155 6.38306 23.0887 7.20464L12.5022 15.0088L8.07788 12.2352V8.89852L12.5022 11.6721L21.6961 4.8938Z"
            fill="#21A038" />
        <path
            d="M3.56287 11.9997C3.56287 11.85 3.56652 11.7013 3.57382 11.5534L0.892532 11.422C0.883406 11.6137 0.877933 11.8072 0.877933 12.0024C0.876792 13.5283 1.17691 15.0393 1.76107 16.4488C2.34522 17.8584 3.20192 19.1387 4.28202 20.2163L6.18392 18.3153C5.3525 17.4872 4.69293 16.5029 4.24312 15.4191C3.79331 14.3353 3.56213 13.1732 3.56287 11.9997Z"
            fill="url(#paint0_linear_3405_15843)" />
        <path
            d="M12.5002 3.06273C12.6498 3.06273 12.7986 3.06821 12.9464 3.07551L13.0806 0.393214C12.8884 0.384088 12.6948 0.379525 12.5002 0.379525C10.9737 0.377664 9.46192 0.677355 8.05161 1.26139C6.64129 1.84543 5.36023 2.70231 4.28198 3.78282L6.18389 5.6848C7.01199 4.85307 7.99633 4.19324 9.08031 3.74326C10.1643 3.29327 11.3265 3.06199 12.5002 3.06273Z"
            fill="url(#paint1_linear_3405_15843)" />
        <path
            d="M12.5003 20.9373C12.3506 20.9373 12.2018 20.9373 12.0531 20.9254L11.9189 23.6068C12.1118 23.6165 12.3056 23.6214 12.5003 23.6214C14.0261 23.623 15.5372 23.3231 16.9467 22.7389C18.3563 22.1547 19.6365 21.2977 20.7139 20.2172L18.8157 18.3162C17.9874 19.1474 17.0032 19.8069 15.9194 20.2567C14.8357 20.7065 13.6737 20.9379 12.5003 20.9373Z"
            fill="url(#paint2_linear_3405_15843)" />
        <path
            d="M17.5385 4.62204L19.7981 2.95644C17.7328 1.28396 15.1547 0.373531 12.4971 0.378192V3.06231C14.2967 3.06008 16.0545 3.60394 17.5385 4.62204Z"
            fill="url(#paint3_linear_3405_15843)" />
        <path
            d="M24.1221 12.0002C24.1235 11.3019 24.0624 10.6049 23.9395 9.91748L21.438 11.761C21.438 11.8405 21.438 11.9199 21.438 12.0002C21.4387 13.2489 21.1769 14.4839 20.6698 15.625C20.1626 16.7661 19.4212 17.7879 18.4939 18.6242L20.2982 20.6184C21.5038 19.53 22.4672 18.2003 23.1259 16.7157C23.7847 15.231 24.1241 13.6244 24.1221 12.0002Z"
            fill="#21A038" />
        <path
            d="M12.4998 20.9376C11.2509 20.9381 10.0159 20.6762 8.8747 20.169C7.73352 19.6619 6.71156 18.9206 5.875 17.9934L3.88184 19.7968C4.9701 21.0027 6.29965 21.9663 7.78429 22.6252C9.26891 23.2841 10.8754 23.6236 12.4998 23.6217V20.9376Z"
            fill="url(#paint4_linear_3405_15843)" />
        <path
            d="M6.507 5.37562L4.70366 3.38147C3.49769 4.4697 2.53392 5.79927 1.87484 7.28395C1.21578 8.76862 0.876133 10.3753 0.877937 11.9997H3.56288C3.56232 10.751 3.82412 9.51598 4.33129 8.37486C4.83847 7.23379 5.57971 6.21196 6.507 5.37562Z"
            fill="url(#paint5_linear_3405_15843)" />
    </g>
    <defs>
        <linearGradient id="paint0_linear_3405_15843" x1="4.82503" y1="19.8814" x2="1.89167" y2="11.402"
            gradientUnits="userSpaceOnUse">
            <stop offset="0.14" stop-color="#F1E813" />
            <stop offset="0.3" stop-color="#E6E418" />
            <stop offset="0.58" stop-color="#C9DA26" />
            <stop offset="0.89" stop-color="#A2CC39" />
        </linearGradient>
        <linearGradient id="paint1_linear_3405_15843" x1="5.04858" y1="4.2574" x2="12.6042" y2="1.37815"
            gradientUnits="userSpaceOnUse">
            <stop offset="0.06" stop-color="#0FA7DF" />
            <stop offset="0.54" stop-color="#0098F8" />
            <stop offset="0.92" stop-color="#0290EA" />
        </linearGradient>
        <linearGradient id="paint2_linear_3405_15843" x1="11.7419" y1="22.0014" x2="20.2859" y2="20.0713"
            gradientUnits="userSpaceOnUse">
            <stop offset="0.12" stop-color="#A2CC39" />
            <stop offset="0.28" stop-color="#86C239" />
            <stop offset="0.87" stop-color="#219F38" />
        </linearGradient>
        <linearGradient id="paint3_linear_3405_15843" x1="11.9386" y1="1.27716" x2="19.2432" y2="3.53127"
            gradientUnits="userSpaceOnUse">
            <stop offset="0.06" stop-color="#0290EA" />
            <stop offset="0.79" stop-color="#0C89CA" />
        </linearGradient>
        <linearGradient id="paint4_linear_3405_15843" x1="4.55535" y1="19.4701" x2="12.5062" y2="22.4415"
            gradientUnits="userSpaceOnUse">
            <stop offset="0.13" stop-color="#F1E813" />
            <stop offset="0.3" stop-color="#EAE616" />
            <stop offset="0.53" stop-color="#D8DF1F" />
            <stop offset="0.8" stop-color="#BAD52D" />
            <stop offset="0.98" stop-color="#A2CC39" />
        </linearGradient>
        <linearGradient id="paint5_linear_3405_15843" x1="1.87817" y1="12.3246" x2="5.06982" y2="4.02223"
            gradientUnits="userSpaceOnUse">
            <stop offset="0.07" stop-color="#A2CC39" />
            <stop offset="0.26" stop-color="#81C45E" />
            <stop offset="0.92" stop-color="#0FA7DF" />
        </linearGradient>
        <clipPath id="clip0_3405_15843">
            <rect width="25" height="24" fill="white" />
        </clipPath>
    </defs>
</svg>