<svg width="25" height="24" viewBox="0 0 25 24" fill="none" xmlns="http://www.w3.org/2000/svg">
    <path
        d="M19.0721 14.7931C19.4628 14.9606 19.6303 15.5188 19.6303 15.798C19.6861 16.2445 19.5745 16.4678 19.407 16.4678C19.2396 16.4678 19.0163 16.3004 18.793 15.9096C18.5697 15.5188 18.458 15.1281 18.5697 14.9048C18.7371 14.7931 18.9046 14.7373 19.0721 14.7931Z"
        fill="#F28A1A" />
    <path
        d="M16.7811 16.5226C17.0044 16.5226 17.2835 16.6342 17.5627 16.8575C18.0092 17.2483 18.1767 17.6949 17.9534 18.0298C17.8418 18.1973 17.5627 18.3089 17.3394 18.3089C17.0602 18.3089 16.7811 18.1973 16.6137 18.0298C16.1671 17.639 16.0554 17.0808 16.3345 16.7459C16.3904 16.6342 16.5578 16.5226 16.7811 16.5226Z"
        fill="#F28A1A" />
    <path
        d="M11.4779 20.9337C5.6723 20.9337 0.983154 16.2445 0.983154 10.4947C0.983154 4.74497 5.6723 0 11.4779 0C17.2835 0 21.9726 4.68914 21.9726 10.4947C21.9726 12.4486 21.4144 14.2907 20.5212 15.8538C20.4654 15.9096 20.4096 15.9096 20.4096 15.7979C20.0188 13.2301 18.4558 11.8345 16.2229 11.3879C15.9996 11.3321 15.9996 11.2204 16.2787 11.2204C17.0044 11.1646 17.9534 11.1646 18.5116 11.2763C18.5674 10.9972 18.5674 10.718 18.5674 10.4947C18.5674 6.69877 15.4413 3.57268 11.6454 3.57268C7.8494 3.57268 4.7233 6.69877 4.7233 10.4947C4.7233 14.2907 7.8494 17.4168 11.6454 17.4168H11.9803C11.8687 16.8028 11.8128 16.1887 11.8687 15.5188C11.8687 15.0722 11.9803 15.0164 12.1478 15.3514C13.0968 17.0261 14.4924 18.4775 17.1719 19.0915C19.349 19.5939 21.5261 20.1522 23.9265 23.1108C24.1497 23.3899 23.8148 23.669 23.5915 23.4457C21.1911 21.3244 19.014 20.5987 17.0044 20.5987C14.4924 20.6546 12.9851 20.9337 11.4779 20.9337Z"
        fill="#F28A1A" />
</svg>