<svg width="42" height="24" viewBox="0 0 42 24" fill="none" xmlns="http://www.w3.org/2000/svg">
    <path
        d="M36.832 6.20618H29.1365C29.5848 8.74646 32.0503 11.1373 34.74 11.1373H40.8666C40.9413 10.9132 40.9413 10.5396 40.9413 10.3155C40.9413 8.07403 39.0734 6.20618 36.832 6.20618Z"
        fill="url(#paint0_linear_3405_15843)" />
    <path d="M29.8042 11.5927V17.7939H33.5399V14.5065H36.8273C38.6205 14.5065 40.1895 13.2364 40.7125 11.5927H29.8042Z"
        fill="#4FAD50" />
    <path
        d="M16.6841 6.20618V17.7122H19.9715C19.9715 17.7122 20.7934 17.7122 21.2416 16.8903C23.4831 12.4822 24.1555 11.1373 24.1555 11.1373H24.6038V17.7122H28.3395V6.20618H25.0521C25.0521 6.20618 24.2302 6.2809 23.7819 7.02804C21.9141 10.8385 20.8681 12.781 20.8681 12.781H20.4198V6.20618H16.6841Z"
        fill="#4FAD50" />
    <path
        d="M1 17.7914V6.2854H4.7357C4.7357 6.2854 5.78171 6.2854 6.37942 7.92911C7.87371 12.2625 8.02314 12.8602 8.02314 12.8602C8.02314 12.8602 8.32199 11.8142 9.66684 7.92911C10.2646 6.2854 11.3106 6.2854 11.3106 6.2854H15.0463V17.7914H11.3106V11.5901H10.8623L8.77028 17.7914H7.12656L5.03458 11.5901H4.58629V17.7914H1Z"
        fill="#4FAD50" />
    <defs>
        <linearGradient id="paint0_linear_3405_15843" x1="29.1232" y1="8.70708" x2="40.9148" y2="8.70708"
            gradientUnits="userSpaceOnUse">
            <stop stop-color="#27B1E6" />
            <stop offset="1" stop-color="#148ACA" />
        </linearGradient>
    </defs>
</svg>