<svg width="24" height="24" viewBox="0 0 24 24" fill="none" xmlns="http://www.w3.org/2000/svg">
<path d="M23.5481 9.99224C23.427 9.26982 22.7608 8.7882 21.8523 8.7882C21.5495 8.7882 21.3072 8.7882 21.0044 8.7882C20.4593 8.728 20.3382 8.90861 20.3382 9.33003C20.3382 11.4371 20.3382 13.484 20.3382 15.591C20.3382 16.6747 19.248 17.8185 17.9761 18.0593C13.9789 18.9624 9.98158 19.8052 5.9843 20.7082C5.56035 20.8286 5.07584 20.8286 4.59132 20.8286C4.40963 20.8286 4.10681 20.7082 4.04624 20.5276C3.98568 20.4072 4.16737 20.1664 4.2885 20.046C4.47019 19.9256 4.71245 19.8052 4.95471 19.6848C5.68149 19.444 6.46882 19.2032 7.1956 18.9624C10.1633 17.9991 13.131 17.0359 16.0986 16.0125C17.4311 15.591 18.1578 14.688 18.1578 13.5442C18.2184 9.93205 18.1578 6.25972 18.1578 2.64759C18.1578 2.04557 17.855 1.56395 17.1888 1.32314C16.4014 1.02213 15.6747 1.26294 15.0085 1.56395C10.7689 3.55062 6.58995 5.53729 2.35042 7.52396C1.13912 8.12598 0.412354 8.96881 0.412354 10.1729C0.412354 13.6044 0.412354 17.0359 0.412354 20.4674C0.412354 20.648 0.412339 20.8286 0.472904 20.949C0.896857 22.0929 1.98704 22.8153 3.44059 22.8153C6.40827 22.8153 9.37593 22.8153 12.3436 22.8153C15.3113 22.8153 18.2184 22.8153 21.1861 22.8153C21.8523 22.8153 22.3974 22.6949 22.8819 22.2735C23.4875 21.7919 23.4875 21.1296 23.4875 20.5276C23.4875 17.1563 23.4875 13.8452 23.4875 10.4739C23.6087 10.4137 23.6087 10.1729 23.5481 9.99224ZM11.1929 8.90861C11.4957 8.12599 12.1619 7.64437 13.131 7.52396C13.7972 7.46376 14.3422 7.82497 14.4634 8.427C14.5845 9.33003 13.4943 10.4137 12.3436 10.4137C11.4351 10.4137 10.8901 9.75144 11.1929 8.90861Z" fill="#E47418"/>
</svg>
