<svg width="40" height="24" viewBox="0 0 40 24" fill="none" xmlns="http://www.w3.org/2000/svg">
    <g clip-path="url(#clip0_3405_15843)">
        <path
            d="M39.3135 12C39.3135 18.3584 34.1435 23.5877 27.7257 23.5877C21.3673 23.5877 16.1379 18.3584 16.1379 12C16.1379 5.64158 21.3079 0.412231 27.6663 0.412231C34.1435 0.412231 39.3135 5.64158 39.3135 12Z"
            fill="#F9B50B" />
        <path
            d="M23.8029 12.0594C23.8029 11.2275 23.684 10.3955 23.5652 9.62301H16.4342C16.4937 9.20704 16.6125 8.8505 16.7314 8.3751H23.0898C22.9709 7.95913 22.7926 7.54316 22.6144 7.12719H17.2068C17.385 6.71122 17.6227 6.35467 17.8604 5.87928H21.9607C21.723 5.46331 21.4259 5.04733 21.0693 4.63136H18.8112C19.1678 4.21539 19.5243 3.85885 19.9997 3.44288C17.9793 1.54129 15.2457 0.412231 12.2151 0.412231C5.91611 0.590505 0.686768 5.64158 0.686768 12C0.686768 18.3584 5.85669 23.5877 12.2745 23.5877C15.3052 23.5877 17.9793 22.3993 20.0591 20.5571C20.4751 20.2006 20.8316 19.7846 21.2476 19.3092H18.8706C18.5735 18.9526 18.2764 18.5367 18.0387 18.1207H22.0796C22.3172 17.7642 22.5549 17.3482 22.7332 16.8728H17.3256C17.1473 16.5162 16.9691 16.1003 16.8502 15.6249H23.2086C23.5652 14.5552 23.8029 13.3668 23.8029 12.0594Z"
            fill="#C8191C" />
        <path
            d="M16.3748 14.9709L16.553 13.9012C16.4936 13.9012 16.3748 13.9606 16.2559 13.9606C15.84 13.9606 15.7805 13.7229 15.84 13.6041L16.1965 11.4648H16.8502L17.0284 10.2763H16.4342L16.553 9.56323H15.3051C15.3051 9.56323 14.592 13.6041 14.592 14.0795C14.592 14.7926 15.008 15.1491 15.6023 15.1491C15.9588 15.1491 16.2559 15.0303 16.3748 14.9709Z"
            fill="white" />
        <path
            d="M16.7913 13.0082C16.7913 14.7315 17.9797 15.1474 18.9305 15.1474C19.8219 15.1474 20.2379 14.9692 20.2379 14.9692L20.4756 13.7807C20.4756 13.7807 19.8219 14.0778 19.1682 14.0778C17.8015 14.0778 18.0392 13.0676 18.0392 13.0676H20.535C20.535 13.0676 20.7133 12.2951 20.7133 11.9385C20.7133 11.166 20.2973 10.1558 18.9305 10.1558C17.7421 10.0964 16.7913 11.4631 16.7913 13.0082ZM18.9305 11.2254C19.5842 11.2254 19.4654 11.998 19.4654 12.0574H18.0986C18.158 11.998 18.2769 11.2254 18.9305 11.2254Z"
            fill="white" />
        <path
            d="M26.7139 14.9713L26.9515 13.6046C26.9515 13.6046 26.3573 13.9017 25.8819 13.9017C25.05 13.9017 24.634 13.248 24.634 12.4755C24.634 10.9899 25.3471 10.2174 26.2385 10.2174C26.8327 10.2174 27.3675 10.5739 27.3675 10.5739L27.5458 9.2666C27.5458 9.2666 26.8327 8.96948 26.1196 8.96948C24.6934 8.96948 23.3267 10.2174 23.3267 12.5349C23.3267 14.08 24.0398 15.0902 25.5254 15.0902C26.0602 15.1496 26.7139 14.9713 26.7139 14.9713Z"
            fill="white" />
        <path
            d="M9.66057 10.0981C8.82863 10.0981 8.17496 10.3358 8.17496 10.3358L7.99669 11.4055C7.99669 11.4055 8.53151 11.1678 9.36345 11.1678C9.77942 11.1678 10.136 11.2272 10.136 11.5838C10.136 11.8215 10.0765 11.8809 10.0765 11.8809H9.54172C8.47208 11.8809 7.34302 12.2968 7.34302 13.723C7.34302 14.8521 8.05611 15.0898 8.53151 15.0898C9.36345 15.0898 9.77942 14.555 9.83884 14.555L9.77942 15.0304H10.7896L11.265 11.6432C11.265 10.1576 10.0765 10.0981 9.66057 10.0981ZM9.89827 12.8317C9.89827 13.0099 9.77942 14.0202 9.06633 14.0202C8.70978 14.0202 8.59093 13.723 8.59093 13.5448C8.59093 13.2476 8.7692 12.8317 9.71999 12.8317C9.83884 12.8317 9.89827 12.8317 9.89827 12.8317Z"
            fill="white" />
        <path
            d="M12.4519 15.0896C12.749 15.0896 14.2941 15.1491 14.2941 13.4852C14.2941 11.9402 12.8085 12.2373 12.8085 11.643C12.8085 11.3459 13.0462 11.2271 13.4621 11.2271C13.6404 11.2271 14.2941 11.2865 14.2941 11.2865L14.4723 10.1574C14.4723 10.1574 14.0564 10.0386 13.2839 10.0386C12.3925 10.0386 11.4417 10.3951 11.4417 11.643C11.4417 13.0692 12.9867 12.9504 12.9867 13.4852C12.9867 13.8417 12.5708 13.9012 12.2736 13.9012C11.7388 13.9012 11.1446 13.7229 11.1446 13.7229L10.9663 14.852C11.0852 14.9708 11.4417 15.0896 12.4519 15.0896Z"
            fill="white" />
        <path
            d="M36.935 9.14758L36.6973 10.8115C36.6973 10.8115 36.2219 10.2172 35.5088 10.2172C34.3797 10.2172 33.429 11.584 33.429 13.1884C33.429 14.1987 33.9044 15.2089 34.974 15.2089C35.6871 15.2089 36.1625 14.7335 36.1625 14.7335L36.1031 15.1494H37.351L38.2423 9.26643L36.935 9.14758ZM36.3408 12.3565C36.3408 13.0102 36.0436 13.9015 35.3305 13.9015C34.9146 13.9015 34.6769 13.545 34.6769 12.8913C34.6769 11.8811 35.0928 11.2869 35.6871 11.2869C36.1031 11.3463 36.3408 11.6434 36.3408 12.3565Z"
            fill="white" />
        <path
            d="M2.94508 15.0306L3.65817 10.6332L3.77702 15.0306H4.60896L6.21342 10.6332L5.55975 15.0306H6.86709L7.87731 9.14758H5.85688L4.60896 12.7725L4.54954 9.14758H2.76681L1.75659 15.0306H2.94508Z"
            fill="white" />
        <path
            d="M21.961 15.0299C22.3175 13.0095 22.377 11.3456 23.2683 11.6427C23.3872 10.8702 23.5655 10.5137 23.6843 10.2166H23.4466C22.9118 10.2166 22.4364 10.9296 22.4364 10.9296L22.5552 10.276H21.3668L20.5942 15.0299H21.961V15.0299Z"
            fill="white" />
        <path
            d="M29.5678 10.0981C28.7359 10.0981 28.0822 10.3358 28.0822 10.3358L27.9039 11.4055C27.9039 11.4055 28.4387 11.1678 29.2707 11.1678C29.6866 11.1678 30.0432 11.2272 30.0432 11.5838C30.0432 11.8215 29.9838 11.8809 29.9838 11.8809H29.4489C28.3793 11.8809 27.2502 12.2968 27.2502 13.723C27.2502 14.8521 27.9633 15.0898 28.4387 15.0898C29.2707 15.0898 29.6866 14.555 29.7461 14.555L29.6866 15.0304H30.8157L31.2911 11.6432C31.2911 10.1576 29.9838 10.0981 29.5678 10.0981ZM29.8649 12.8317C29.8649 13.0099 29.7461 14.0202 29.033 14.0202C28.6764 14.0202 28.5576 13.723 28.5576 13.5448C28.5576 13.2476 28.7359 12.8317 29.6866 12.8317C29.8055 12.8317 29.8055 12.8317 29.8649 12.8317Z"
            fill="white" />
        <path
            d="M32.242 15.0299C32.5986 13.0095 32.658 11.3456 33.5493 11.6427C33.6682 10.8702 33.8465 10.5137 33.9653 10.2166H33.7276C33.1928 10.2166 32.7174 10.9296 32.7174 10.9296L32.8362 10.276H31.6478L30.8752 15.0299H32.242V15.0299Z"
            fill="white" />
    </g>
    <defs>
        <clipPath id="clip0_3405_15843">
            <rect width="40" height="24" fill="white" />
        </clipPath>
    </defs>
</svg>