<svg width="40" height="24" viewBox="0 0 40 24" fill="none" xmlns="http://www.w3.org/2000/svg">
    <g clip-path="url(#clip0_3405_15843)">
        <path
            d="M19.9783 20.8489C22.3731 18.6431 23.8857 15.492 23.8857 12.0257C23.8857 8.49642 22.3731 5.34528 19.9783 3.2025C17.8355 1.31182 15.0625 0.11438 11.9743 0.11438C5.35694 0.11438 0 5.47133 0 12.0257C0 18.6431 5.35694 24 11.9743 24C15.0625 23.937 17.8355 22.7396 19.9783 20.8489Z"
            fill="#3362AB" />
        <path
            d="M19.979 20.8486C22.3739 18.6428 23.8864 15.4916 23.8864 12.0254C23.8864 8.49607 22.3739 5.34493 19.979 3.20215"
            fill="#3362AB" />
        <path
            d="M19.979 20.8486C22.3739 18.6428 23.8864 15.4916 23.8864 12.0254C23.8864 8.49607 22.3739 5.34493 19.979 3.20215"
            stroke="#3362AB" stroke-width="0.239249" />
        <path
            d="M27.985 0.0517578C24.8968 0.0517578 22.0608 1.24919 19.981 3.13987C19.5399 3.51801 19.1617 3.95917 18.7836 4.40033H21.1785C21.4936 4.77847 21.8087 5.21963 22.0608 5.66079H17.8383C17.5862 6.03893 17.3341 6.48009 17.145 6.92125H22.754C22.9431 7.36241 23.1322 7.74054 23.2582 8.1817H16.6408C16.5148 8.62286 16.3887 9.001 16.2627 9.44216H23.5734C23.7624 10.2615 23.8254 11.0808 23.8254 11.9631C23.8254 13.2866 23.6364 14.547 23.1952 15.7444H16.5778C16.7039 16.1856 16.8929 16.6268 17.082 17.0049H22.691C22.5019 17.4461 22.2499 17.8872 21.9978 18.2654H17.7752C18.0273 18.7065 18.3424 19.1477 18.6576 19.5258H21.0524C20.6743 19.967 20.2961 20.4081 19.855 20.7863C21.9978 22.677 24.7708 23.8744 27.8589 23.8744C34.4763 23.8744 39.7702 18.5175 39.7702 11.9001C39.9593 5.4087 34.6024 0.0517578 27.985 0.0517578Z"
            fill="#C9191B" />
        <path
            d="M10.4627 14.9254H8.9502L9.83252 10.2617L7.8158 14.9254H6.49231L6.24022 10.3248L5.35789 14.9254H4.03442L5.16883 8.87524H7.50068L7.62672 12.6566L9.26531 8.87524H11.6602L10.4627 14.9254Z"
            fill="white" />
        <path
            d="M27.1008 14.9243C26.7227 15.0504 26.3446 15.1134 26.0295 15.1134C25.2732 15.1134 24.832 14.7352 24.832 14.042C24.832 13.9159 24.832 13.7269 24.895 13.6008L24.9581 13.0966L25.0211 12.7185L25.7143 8.93713H27.1639L26.9748 10.0715H27.7311L27.542 11.269H26.7857L26.4076 13.3487C26.4076 13.4118 26.4076 13.5378 26.4076 13.5378C26.4076 13.7899 26.5967 13.9159 26.9118 13.9159C27.1008 13.9159 27.2269 13.9159 27.2899 13.8529L27.1008 14.9243Z"
            fill="white" />
        <path
            d="M31.3859 10.0722C31.2598 10.0091 31.2598 10.0092 31.1968 10.0092C31.1338 10.0092 31.0707 10.0092 31.0707 10.0092C31.0077 10.0092 30.9447 10.0092 30.8817 10.0092C30.3775 10.0092 30.0624 10.1982 29.5582 10.8284L29.6842 10.0722H28.4868L27.6045 14.988H29.117C29.6212 11.9629 29.8733 11.4587 30.5666 11.4587C30.6296 11.4587 30.6926 11.4587 30.7556 11.4587L30.9447 11.5217L31.3859 10.0722Z"
            fill="white" />
        <path
            d="M21.1768 11.5844C21.1768 12.2146 21.555 12.6558 22.3112 12.9709C22.9415 13.223 23.0045 13.286 23.0045 13.5381C23.0045 13.8532 22.7524 13.9793 22.1222 13.9793C21.681 13.9793 21.2398 13.9162 20.7987 13.7902L20.6096 14.9246H20.6726L20.9247 14.9876C20.9878 14.9876 21.1768 15.0507 21.3029 15.0507C21.681 15.0507 21.9331 15.1137 22.1222 15.1137C23.6977 15.1137 24.454 14.6095 24.454 13.4751C24.454 12.7818 24.1389 12.4037 23.3826 12.0886C22.7524 11.8365 22.6894 11.7735 22.6894 11.5214C22.6894 11.2693 22.9415 11.1432 23.4456 11.1432C23.7608 11.1432 24.1389 11.1432 24.517 11.2063L24.7061 10.0718C24.328 10.0088 23.7608 9.9458 23.3826 9.9458C21.744 9.9458 21.1768 10.7021 21.1768 11.5844Z"
            fill="white" />
        <path
            d="M14.2431 12.7818C14.054 12.7818 13.991 12.7818 13.928 12.7818C13.1087 12.7818 12.6675 13.0339 12.6675 13.5381C12.6675 13.8532 12.8566 14.0423 13.1717 14.0423C13.7389 13.9793 14.1801 13.4751 14.2431 12.7818ZM15.3145 14.9246H14.054L14.1171 14.4204C13.7389 14.7986 13.2348 14.9876 12.5415 14.9876C11.7222 14.9876 11.218 14.4204 11.218 13.6641C11.218 12.4667 12.1634 11.7735 13.802 11.7735C13.991 11.7735 14.1801 11.7735 14.4322 11.8365C14.4952 11.6474 14.4952 11.5844 14.4952 11.5214C14.4952 11.2063 14.2431 11.0802 13.5499 11.0802C13.1087 11.0802 12.6675 11.1432 12.3524 11.2063L12.1634 11.2693L12.0373 11.3323L12.2264 10.1979C12.9827 10.0088 13.4238 9.9458 13.991 9.9458C15.2515 9.9458 15.9447 10.45 15.9447 11.3953C15.9447 11.6474 15.9447 11.8365 15.8187 12.3407L15.5036 14.1053L15.4405 14.4204L15.3775 14.6725V14.8616L15.3145 14.9246Z"
            fill="white" />
        <path
            d="M19.4125 11.9007C19.4125 11.7746 19.4125 11.7116 19.4125 11.6486C19.4125 11.2704 19.1604 11.0183 18.7192 11.0183C18.215 11.0183 17.8999 11.3334 17.7739 11.9007H19.4125ZM20.1687 14.8627C19.6645 14.9888 19.1604 15.0518 18.6562 15.0518C17.0176 15.0518 16.1353 14.2955 16.1353 12.846C16.1353 11.1444 17.2066 9.88391 18.7192 9.88391C19.9166 9.88391 20.7359 10.5772 20.7359 11.6486C20.7359 12.0267 20.6729 12.3418 20.5469 12.846H17.5848C17.5848 12.909 17.5848 12.972 17.5848 12.972C17.5848 13.5392 18.0259 13.8544 18.9083 13.8544C19.4124 13.8544 19.9166 13.7283 20.4838 13.5392L20.1687 14.8627Z"
            fill="white" />
        <path
            d="M34.4742 12.0886C34.4742 11.5844 34.2851 11.0802 33.6549 11.0802C32.8986 11.0802 32.4574 11.9625 32.4574 12.7818C32.4574 13.4751 32.7726 13.9162 33.3398 13.9162C33.6549 13.9162 34.3481 13.4751 34.4742 12.7188C34.4742 12.5297 34.4742 12.2776 34.4742 12.0886ZM36.0497 12.7188C35.7976 14.3574 34.6632 15.1137 33.1507 15.1137C31.4491 15.1137 30.8188 14.1053 30.8188 12.8449C30.8188 11.0802 31.9532 9.9458 33.7179 9.9458C35.2935 9.9458 36.0497 10.8911 36.0497 12.1516C36.1128 12.4037 36.1128 12.4037 36.0497 12.7188Z"
            fill="white" />
    </g>
    <defs>
        <clipPath id="clip0_3405_15843">
            <rect width="40" height="24" fill="white" />
        </clipPath>
    </defs>
</svg>