<svg width="76" height="24" viewBox="0 0 76 24" fill="none" xmlns="http://www.w3.org/2000/svg">
    <path
        d="M1.7763 7.82055C1.46578 7.97581 1.20702 8.23458 1.10351 8.49334C1.05176 8.64861 1 10.046 1 12.5819V16.4116H2.81138V13.9792H5.19204L5.81309 15.1696L6.43413 16.3599H7.4692C8.03849 16.3599 8.50427 16.3599 8.50427 16.3081C8.50427 16.2564 8.19375 15.6353 7.77972 14.9108L7.05518 13.5652L7.26219 13.4617C8.29726 12.7889 8.76304 11.3915 8.50427 9.83894C8.34901 8.90737 7.88322 8.23458 7.15867 7.92405C6.74465 7.76879 6.6929 7.71704 4.36398 7.71704C2.55261 7.71704 1.98332 7.71704 1.7763 7.82055ZM6.27887 9.58017C6.38238 9.63192 6.53764 9.78718 6.5894 9.94245C6.74466 10.3047 6.74465 11.1845 6.64114 11.4433C6.33062 12.0643 5.91659 12.2196 4.15697 12.2196H2.86313V9.47666H4.4675C5.34731 9.47666 6.17537 9.52842 6.27887 9.58017ZM11.1437 7.76879C10.3674 8.02756 9.79811 8.5451 9.5911 9.3214C9.38409 9.94244 9.17708 11.3398 9.17708 12.0643C9.17708 12.7371 9.38408 14.0827 9.53934 14.652C9.84986 15.5836 10.3157 16.1011 11.1955 16.3081C11.6095 16.4116 11.9718 16.4116 13.3174 16.4116C14.8182 16.4116 14.9735 16.3599 15.3875 16.2046C16.4743 15.7388 16.9401 14.445 16.9401 12.0643C16.9401 9.52842 16.4226 8.28633 15.284 7.8723C14.87 7.71704 14.7147 7.71704 13.0586 7.71704C12.1788 7.71704 11.299 7.76879 11.1437 7.76879ZM14.7665 9.68368C15.284 10.4082 15.284 13.9275 14.7665 14.445C14.6112 14.6003 11.6095 14.6003 11.506 14.445C11.1437 13.9792 10.9884 11.4433 11.299 10.253C11.4025 9.78719 11.4542 9.63192 11.6095 9.58017C11.713 9.52842 12.4376 9.52842 13.2656 9.52842C14.5077 9.52842 14.7147 9.52842 14.7665 9.68368ZM18.6997 7.8723C18.5445 7.97581 18.3375 8.18282 18.234 8.33808C18.0787 8.59685 18.0787 8.75211 18.0269 11.8573C18.0269 14.031 18.0269 15.2213 18.0787 15.4283C18.2339 15.8941 18.5445 16.2564 19.0103 16.3599C19.476 16.4634 22.9435 16.4634 23.5646 16.3599C24.7549 16.1529 25.376 15.4801 25.4795 14.1862C25.5312 13.4617 25.4277 12.9442 25.1172 12.4266L24.9102 12.0643L25.2207 11.4951C25.4795 10.9775 25.5312 10.9258 25.5312 10.1495C25.5312 9.52842 25.4795 9.26965 25.3759 8.95913C25.1689 8.49334 24.8584 8.18282 24.3926 7.92405L23.9786 7.71704H21.5462C19.0103 7.71704 19.0103 7.71704 18.6997 7.8723ZM23.5128 9.58017C23.6163 9.68368 23.6681 10.2012 23.6163 10.46C23.5646 10.6152 23.4611 10.7705 23.3576 10.9258C23.1505 11.1328 23.1505 11.1328 21.5462 11.1328H19.9418V9.47666H21.7014C22.633 9.52842 23.4611 9.58017 23.5128 9.58017ZM23.1505 13.0477C23.4611 13.1512 23.6163 13.5134 23.6163 13.9275C23.6163 14.1862 23.5646 14.3415 23.4611 14.3933C23.3575 14.4968 22.8918 14.4968 21.5979 14.4968H19.8383V12.8406L21.3909 12.8924C22.2707 12.9442 23.047 12.9959 23.1505 13.0477ZM28.0671 7.8723C27.2908 8.18282 26.9285 8.70036 26.618 9.83894C26.4628 10.4082 26.4628 10.7188 26.4628 12.0643C26.4628 13.4617 26.4628 13.6169 26.6698 14.3415C26.9286 15.2213 27.1356 15.5836 27.6013 15.9459C28.1706 16.3599 28.3259 16.3599 30.2925 16.3599C32.2592 16.3599 32.4662 16.3081 32.9837 15.9459C33.4495 15.6353 33.6565 15.2213 33.9153 14.3415C34.1223 13.6169 34.1223 13.4617 34.1223 12.0643C34.1223 10.7705 34.1223 10.46 33.967 9.83894C33.6565 8.6486 33.2942 8.13107 32.5179 7.8723C32.1039 7.71704 31.9487 7.71704 30.2925 7.71704C28.6364 7.71704 28.4294 7.71704 28.0671 7.8723ZM31.7934 9.58017C32.0004 9.68368 32.1039 9.89069 32.2592 10.7705C32.4662 11.8573 32.2592 13.8757 31.9487 14.3415C31.8452 14.5485 31.8451 14.5485 30.2925 14.5485C28.4812 14.5485 28.5847 14.6003 28.3776 13.5652C28.0671 12.1161 28.3259 9.73543 28.7399 9.58017C28.9987 9.47666 31.5864 9.47666 31.7934 9.58017Z"
        fill="#2F69B1" />
    <path
        d="M35.6216 7.92465L35.3628 8.18342V15.8947L35.5698 16.1017C35.7768 16.3087 35.8803 16.3087 36.2426 16.3087C36.6049 16.3087 36.7084 16.257 36.8637 16.1535C37.1224 15.843 37.1742 15.5324 37.1742 14.1868V12.893H38.3128L38.882 13.4105C40.0206 14.3939 40.4347 14.9114 40.4347 15.4807C40.4347 15.7912 40.4864 15.8947 40.6934 16.1017C40.9522 16.3605 41.0039 16.3605 41.3662 16.3605C41.6767 16.3605 41.7802 16.3087 41.9873 16.1535C42.246 15.9465 42.246 15.8947 42.246 15.3254C42.246 14.8596 42.1943 14.6526 41.9873 14.2386C41.7285 13.6693 40.9004 12.7377 40.4347 12.3237L40.1241 12.0649L40.6417 11.5992C41.2627 11.0299 41.832 10.3053 42.0908 9.73603C42.246 9.42551 42.2978 9.16674 42.2978 8.75271C42.2978 8.18342 42.2978 8.18342 42.039 7.92465C41.832 7.71764 41.7285 7.71764 41.3145 7.71764C40.8487 7.71764 40.7969 7.71764 40.6417 7.92465C40.5382 8.07991 40.4864 8.23518 40.4864 8.49394C40.4864 8.70096 40.4347 8.95973 40.3829 9.06323C40.2276 9.37375 39.6584 10.0465 38.9338 10.6676L38.3645 11.1334H37.2259V9.83954C37.2259 9.16674 37.1742 8.44219 37.1224 8.28693C37.0189 7.8729 36.7084 7.66589 36.2426 7.66589C35.8803 7.71764 35.8286 7.71764 35.6216 7.92465ZM45.5065 7.82115C44.4714 8.13167 43.9021 8.90797 43.4881 10.4088C43.2811 11.0816 43.2811 11.3404 43.2293 13.307C43.1776 15.6359 43.2294 15.8947 43.5916 16.1535C43.8504 16.3605 44.5232 16.3605 44.7302 16.1535C44.989 15.9465 45.0925 15.6877 45.0925 14.9114V14.1351H49.1293V15.0149C49.1293 15.843 49.1292 15.8947 49.3363 16.1017C49.5433 16.3087 49.6468 16.3087 50.0091 16.3087C50.4231 16.3087 50.4748 16.3087 50.6819 16.05L50.8889 15.7912V13.307C50.8371 10.9781 50.8371 10.7711 50.6819 10.2536C50.3196 9.01148 49.7503 8.23517 49.0258 7.92465C48.6117 7.71764 48.5082 7.71764 47.2144 7.71764C46.2311 7.71764 45.7135 7.71764 45.5065 7.82115ZM48.1977 9.58077C48.6117 9.73603 48.974 10.6676 49.0775 11.8579L49.1293 12.3755H45.0925L45.1442 11.7544C45.2477 10.6676 45.6618 9.63252 46.0758 9.52902C46.4381 9.47726 47.9389 9.52901 48.1977 9.58077ZM53.3731 7.82115C52.5967 8.07991 52.1827 8.44219 51.9239 9.11499C51.7687 9.47726 51.7687 9.68428 51.7687 10.3053C51.7687 11.5474 52.131 12.272 53.0108 12.686C53.373 12.8412 53.4766 12.893 55.0292 12.893C56.6335 12.9448 56.6853 12.9448 56.8405 13.1C57.0475 13.307 57.0993 13.9798 56.8923 14.2903L56.737 14.4974H54.6669C52.7003 14.4974 52.545 14.4974 52.3897 14.6526C51.9757 15.0149 51.924 15.7394 52.338 16.1017L52.5967 16.3087H54.8739C56.116 16.3087 57.2546 16.257 57.4098 16.2052C57.8239 16.1017 58.2896 15.6359 58.6002 15.0666C58.8589 14.6009 58.8589 14.4974 58.8589 13.6693C58.8589 12.893 58.8589 12.7895 58.6519 12.3755C58.3931 11.8062 58.0309 11.4439 57.6686 11.2369C57.4098 11.1334 57.1511 11.0816 55.5985 11.0299C53.5283 10.9781 53.5801 11.0299 53.5801 10.2018C53.5801 9.37375 53.4766 9.42551 55.9607 9.37375L58.0826 9.322L58.2896 9.11499C58.4967 8.90797 58.4967 8.85622 58.5484 8.23518L58.6002 7.56238H56.1677C54.4081 7.71764 53.5801 7.76939 53.3731 7.82115ZM61.0843 7.82115C60.9291 7.8729 60.6703 7.97641 60.515 8.02816C59.5317 8.5457 59.0659 10.3571 59.687 11.5992C59.9457 12.1167 60.2045 12.4272 60.6703 12.686C61.0326 12.893 61.0843 12.893 62.6369 12.9448C63.5168 12.9448 64.2931 12.9965 64.3966 13.0483C64.6553 13.1518 64.8106 13.5658 64.7071 14.0316C64.6036 14.6009 64.7071 14.6009 62.3264 14.6009H60.2045L59.9975 14.8079C59.7905 15.0149 59.7905 15.1184 59.7905 15.4807C59.7905 15.843 59.8422 15.9465 59.9975 16.1535L60.2045 16.3605H62.5334C65.1729 16.3605 65.2246 16.3605 65.7422 15.843C66.2079 15.3772 66.415 14.8596 66.4667 13.9281C66.5185 12.893 66.3114 12.272 65.7422 11.7027C65.4834 11.4439 65.2246 11.2886 65.0176 11.2369C64.8624 11.1851 64.086 11.1334 63.258 11.1334C62.4299 11.1334 61.7054 11.1334 61.5501 11.0816C61.2913 11.0299 61.1361 10.7711 61.1361 10.3053C61.1361 9.83954 61.2396 9.58077 61.5501 9.52902C61.7054 9.52902 62.6369 9.47726 63.672 9.47726C66.1044 9.47726 66.1562 9.42551 66.1562 8.28693V7.71764H63.7238C62.1194 7.71764 61.2913 7.76939 61.0843 7.82115ZM69.6237 7.8729C69.4167 7.97641 69.1061 8.13167 68.9509 8.23518C68.3298 8.70096 67.7606 9.94304 67.6053 11.2369C67.5018 12.1167 67.5018 15.5842 67.6053 15.8947C67.7088 16.2052 68.0193 16.3605 68.4851 16.3605C68.7439 16.3605 68.8991 16.3087 69.1061 16.1535L69.3649 15.9465V15.0666L69.4167 14.1868H73.3499L73.4017 15.0666V15.9465L73.6605 16.1535C73.8675 16.3605 73.971 16.3605 74.2815 16.3605C74.592 16.3605 74.6955 16.3087 74.9026 16.1535L75.1613 15.9465V13.514C75.1613 11.2886 75.1613 11.0299 75.006 10.4606C74.6438 9.16674 74.1262 8.39044 73.4017 8.02816C72.9359 7.82115 72.9359 7.82115 71.4868 7.76939C70.193 7.71764 69.986 7.71764 69.6237 7.8729ZM72.7289 9.78778C73.0394 10.1501 73.2982 10.9264 73.2982 11.7027L73.3499 12.3237H69.3649V11.8579C69.3649 10.8746 69.7789 9.73603 70.2447 9.52902C70.3482 9.47726 70.8658 9.47726 71.4868 9.47726H72.5219L72.7289 9.78778Z"
        fill="#D31223" />
</svg>