<svg width="80" height="80" viewBox="0 0 80 80" fill="none" xmlns="http://www.w3.org/2000/svg">
<g clip-path="url(#clip0_611_934)">
<path d="M14.6667 0C12.4577 0 10.6667 1.79094 10.6667 4V76C10.6667 78.2091 12.4577 80 14.6667 80H58.6667C59.0203 80 59.3594 79.8594 59.6094 79.6094L68.9427 70.2761C69.1927 70.0261 69.3333 69.687 69.3333 69.3334V4C69.3333 1.79094 67.5424 0 65.3333 0L14.6667 0ZM60 75.448V71.6666C60.0014 71.1148 60.4483 70.668 61 70.6666H64.7814L60 75.448ZM66.6667 4V68H61C58.9757 68.0014 57.3349 69.6422 57.3333 71.6667V77.3334H14.6667C13.9303 77.3334 13.3335 76.7366 13.3335 76.0002V4C13.3335 3.26359 13.9305 2.66672 14.6667 2.66672H65.3335C66.0697 2.66672 66.6667 3.26359 66.6667 4Z" fill="#007C0C"/>
<path d="M14.6667 0C12.4577 0 10.6667 1.79094 10.6667 4V76C10.6667 78.2091 12.4577 80 14.6667 80H58.6667C59.0203 80 59.3594 79.8594 59.6094 79.6094L68.9427 70.2761C69.1927 70.0261 69.3333 69.687 69.3333 69.3334V4C69.3333 1.79094 67.5424 0 65.3333 0L14.6667 0ZM60 75.448V71.6666C60.0014 71.1148 60.4483 70.668 61 70.6666H64.7814L60 75.448ZM66.6667 4V68H61C58.9757 68.0014 57.3349 69.6422 57.3333 71.6667V77.3334H14.6667C13.9303 77.3334 13.3335 76.7366 13.3335 76.0002V4C13.3335 3.26359 13.9305 2.66672 14.6667 2.66672H65.3335C66.0697 2.66672 66.6667 3.26359 66.6667 4Z" fill="black" fill-opacity="0.2"/>
<path d="M54.6668 6.6665C53.9304 6.6665 53.3335 7.26354 53.3335 7.99979V26.6665C53.3335 27.4029 53.9305 27.9998 54.6668 27.9998C55.4032 27.9998 56.0001 27.4028 56.0001 26.6665V21.3332H58.6668C60.1396 21.3332 61.3335 20.1393 61.3335 18.6665V13.3331C61.329 9.65307 58.3468 6.67088 54.6668 6.6665ZM56.0001 18.6665V9.56119C57.5969 10.1284 58.6646 11.6385 58.6668 13.3332V18.6665H56.0001Z" fill="#007C0C"/>
<path d="M54.6668 6.6665C53.9304 6.6665 53.3335 7.26354 53.3335 7.99979V26.6665C53.3335 27.4029 53.9305 27.9998 54.6668 27.9998C55.4032 27.9998 56.0001 27.4028 56.0001 26.6665V21.3332H58.6668C60.1396 21.3332 61.3335 20.1393 61.3335 18.6665V13.3331C61.329 9.65307 58.3468 6.67088 54.6668 6.6665ZM56.0001 18.6665V9.56119C57.5969 10.1284 58.6646 11.6385 58.6668 13.3332V18.6665H56.0001Z" fill="black" fill-opacity="0.2"/>
<path d="M40 27.9998C45.8911 27.9998 50.6667 23.2242 50.6667 17.3331C50.6667 11.442 45.8911 6.6665 40 6.6665C34.1089 6.6665 29.3333 11.4421 29.3333 17.3332C29.34 23.2213 34.1117 27.9932 40 27.9998ZM40 9.33307C44.4183 9.33307 48 12.9148 48 17.3331C48 21.7513 44.4183 25.3331 40 25.3331C35.5817 25.3331 32 21.7513 32 17.3331C32.0043 12.9167 35.5836 9.3376 40 9.33307Z" fill="#8CC842"/>
<path d="M25.3333 32H20C18.5272 32 17.3333 33.1939 17.3333 34.6667V40C17.3333 41.4728 18.5272 42.6667 20 42.6667H25.3333C26.8061 42.6667 28 41.4728 28 40V34.6667C28 33.1939 26.8061 32 25.3333 32ZM20 40V34.6667H25.3333V40H20Z" fill="#8CC842"/>
<path d="M25.3333 46.6665H20C18.5272 46.6665 17.3333 47.8604 17.3333 49.3332V54.6665C17.3333 56.1393 18.5272 57.3332 20 57.3332H25.3333C26.8061 57.3332 28 56.1393 28 54.6665V49.3332C28 47.8604 26.8061 46.6665 25.3333 46.6665ZM20 54.6665V49.3332H25.3333V54.6665H20Z" fill="#8CC842"/>
<path d="M25.3333 61.3335H20C18.5272 61.3335 17.3333 62.5274 17.3333 64.0002V69.3335C17.3333 70.8063 18.5272 72.0002 20 72.0002H25.3333C26.8061 72.0002 28 70.8063 28 69.3335V64.0002C28 62.5274 26.8061 61.3335 25.3333 61.3335ZM20 69.3335V64.0002H25.3333V69.3335H20Z" fill="#8CC842"/>
<path d="M58.6667 33.3335H32C31.2636 33.3335 30.6667 33.9305 30.6667 34.6668C30.6667 35.4032 31.2638 36.0001 32 36.0001H58.6667C59.4032 36.0001 60 35.403 60 34.6668C60 33.9305 59.4032 33.3335 58.6667 33.3335Z" fill="#007C0C"/>
<path d="M58.6667 33.3335H32C31.2636 33.3335 30.6667 33.9305 30.6667 34.6668C30.6667 35.4032 31.2638 36.0001 32 36.0001H58.6667C59.4032 36.0001 60 35.403 60 34.6668C60 33.9305 59.4032 33.3335 58.6667 33.3335Z" fill="black" fill-opacity="0.2"/>
<path d="M32 41.3331H48C48.7364 41.3331 49.3333 40.736 49.3333 39.9998C49.3333 39.2634 48.7364 38.6665 48 38.6665H32C31.2636 38.6665 30.6667 39.2635 30.6667 39.9998C30.6667 40.7362 31.2636 41.3331 32 41.3331Z" fill="#8CC842"/>
<path d="M58.6667 48H32C31.2636 48 30.6667 48.597 30.6667 49.3333C30.6667 50.0697 31.2638 50.6666 32 50.6666H58.6667C59.4032 50.6666 60 50.0695 60 49.3333C60 48.597 59.4032 48 58.6667 48Z" fill="#007C0C"/>
<path d="M58.6667 48H32C31.2636 48 30.6667 48.597 30.6667 49.3333C30.6667 50.0697 31.2638 50.6666 32 50.6666H58.6667C59.4032 50.6666 60 50.0695 60 49.3333C60 48.597 59.4032 48 58.6667 48Z" fill="black" fill-opacity="0.2"/>
<path d="M32 56.0001H48C48.7364 56.0001 49.3333 55.403 49.3333 54.6668C49.3333 53.9304 48.7364 53.3335 48 53.3335H32C31.2636 53.3335 30.6667 53.9305 30.6667 54.6668C30.6667 55.403 31.2636 56.0001 32 56.0001Z" fill="#8CC842"/>
<path d="M58.6667 62.6665H32C31.2636 62.6665 30.6667 63.2635 30.6667 63.9998C30.6667 64.7362 31.2638 65.3331 32 65.3331H58.6667C59.4032 65.3331 60 64.736 60 63.9998C60 63.2634 59.4032 62.6665 58.6667 62.6665Z" fill="#007C0C"/>
<path d="M58.6667 62.6665H32C31.2636 62.6665 30.6667 63.2635 30.6667 63.9998C30.6667 64.7362 31.2638 65.3331 32 65.3331H58.6667C59.4032 65.3331 60 64.736 60 63.9998C60 63.2634 59.4032 62.6665 58.6667 62.6665Z" fill="black" fill-opacity="0.2"/>
<path d="M48 68H32C31.2636 68 30.6667 68.597 30.6667 69.3333C30.6667 70.0697 31.2638 70.6666 32 70.6666H48C48.7364 70.6666 49.3333 70.0695 49.3333 69.3333C49.3333 68.597 48.7364 68 48 68Z" fill="#8CC842"/>
<path d="M21.3333 15.9998V26.6665C21.3333 27.4029 21.9303 27.9998 22.6666 27.9998C23.403 27.9998 23.9999 27.4028 23.9999 26.6665V15.9998C25.4727 15.9998 26.6666 14.8059 26.6666 13.3331V7.99979C26.6666 7.26338 26.0696 6.6665 25.3333 6.6665C24.5969 6.6665 24 7.26354 24 7.99979V13.3331H21.3333V7.99979C21.3333 7.26338 20.7364 6.6665 20 6.6665C19.2636 6.6665 18.6667 7.26354 18.6667 7.99979V13.3331C18.6667 14.8059 19.8607 15.9998 21.3333 15.9998Z" fill="#007C0C"/>
<path d="M21.3333 15.9998V26.6665C21.3333 27.4029 21.9303 27.9998 22.6666 27.9998C23.403 27.9998 23.9999 27.4028 23.9999 26.6665V15.9998C25.4727 15.9998 26.6666 14.8059 26.6666 13.3331V7.99979C26.6666 7.26338 26.0696 6.6665 25.3333 6.6665C24.5969 6.6665 24 7.26354 24 7.99979V13.3331H21.3333V7.99979C21.3333 7.26338 20.7364 6.6665 20 6.6665C19.2636 6.6665 18.6667 7.26354 18.6667 7.99979V13.3331C18.6667 14.8059 19.8607 15.9998 21.3333 15.9998Z" fill="black" fill-opacity="0.2"/>
</g>
<defs>
<clipPath id="clip0_611_934">
<rect width="80" height="80" fill="white"/>
</clipPath>
</defs>
</svg>
