<svg width="80" height="80" viewBox="0 0 80 80" fill="none" xmlns="http://www.w3.org/2000/svg">
<path d="M74.8539 32.2738L69.86 33.2631C69.2228 33.39 68.8095 34.0067 68.9364 34.6439C69.0617 35.2795 69.68 35.6913 70.3156 35.5675C75.6042 34.5316 75.3678 34.5389 75.6931 34.5389C76.623 34.5389 77.4292 35.2027 77.6092 36.1153L77.6139 36.1388C77.8244 37.2042 77.1291 38.2309 76.075 38.4384L56.7645 42.263C57.2842 40.9198 57.6272 39.5045 57.7742 38.0517L65.7081 36.48C66.3453 36.3531 66.7586 35.7348 66.6317 35.0992C66.5064 34.4636 65.8881 34.0503 65.2525 34.1756L57.8351 35.6441C57.7714 34.3505 57.5758 33.4777 57.533 33.2113C57.2794 31.9322 56.1491 31.0039 54.8466 31.0039C54.3455 31.0039 56.877 30.5673 14.607 38.9222C13.9698 39.0475 13.5566 39.6658 13.6834 40.3014C13.8087 40.937 14.427 41.3503 15.0626 41.225L54.7683 33.36C54.9984 33.3194 55.1887 33.4667 55.2286 33.6684C55.4719 35.2355 55.6562 36.5242 55.3459 38.5325C54.8053 42.0422 52.9178 45.2297 50.125 47.3822C48.0153 42.1197 45.4247 42.6175 44.2794 45.3767C43.4919 47.2756 42.4352 49.0494 41.1516 50.643L40.2012 50.8308C40.0855 49.7553 39.7801 48.7095 39.3026 47.7592C38.6308 46.4261 36.7001 46.5083 36.1325 47.8766C35.8805 48.4855 35.5517 49.0633 35.1587 49.5892L32.1561 44.5452C31.4791 43.41 29.8509 43.4081 29.1644 44.5233C28.6587 45.342 28.067 46.3189 27.505 47.3506C27.1934 47.9189 27.4033 48.6328 27.9731 48.9428C28.5414 49.2544 29.2553 49.0445 29.5653 48.4763C29.9222 47.8234 30.2948 47.1878 30.647 46.6023L33.9064 52.0769C33.9264 52.0989 34.1508 52.6198 34.7878 52.7141C35.1384 52.7658 35.4923 52.6577 35.7522 52.4197C36.5109 51.7244 37.1589 50.9159 37.6716 50.0402C38.0694 51.4967 37.9733 53.1222 37.3225 54.5191C36.8 55.6386 38.1441 56.7016 39.1103 55.9405C44.6075 51.6284 46.302 46.4447 46.6419 45.89C48.2678 47.8419 50.1481 53.1967 47.8848 58.1603C47.4298 59.157 48.4741 60.1808 49.4628 59.7055C51.3102 58.8131 52.9805 57.5561 54.3612 56.0281C54.2062 58.0617 52.7895 60.1814 50.7825 61.3633H28.5997C27.1706 59.2305 26.5872 56.2291 27.7606 52.5573C27.9562 51.9389 27.615 51.2798 26.9967 51.0827C26.3783 50.887 25.7192 51.2283 25.522 51.8466C25.3075 52.5259 25.1384 53.185 25.0164 53.8378C19.1248 54.9392 18.1516 55.3658 15.9412 55.3658C9.35671 55.3658 3.6489 50.6709 2.36687 44.1991L2.35593 44.1411C2.31281 43.9586 2.43078 43.7266 2.66281 43.6808L10.4558 42.1372C11.093 42.0119 11.5062 41.3936 11.3794 40.758C11.2541 40.1208 10.6358 39.7091 10.0002 39.8344L2.20718 41.378C0.762183 41.6628 -0.243598 43.0711 0.0515584 44.5998L0.0640584 44.6563C1.56218 52.2223 8.23906 57.7141 15.9414 57.7141C18.4544 57.7141 19.7805 57.2009 24.7755 56.28C24.7776 58.0786 25.1876 59.8605 25.9306 61.4055H13.8112C12.0992 61.4055 10.7064 62.7983 10.7064 64.5103V71.1377C10.7064 72.8497 12.0992 74.2425 13.8112 74.2425H17.3783V76.8256C17.3783 77.4742 17.9037 77.9997 18.5523 77.9997H61.4469C62.0955 77.9997 62.6209 77.4742 62.6209 76.8256V74.2431H66.188C67.9 74.2431 69.2928 72.8503 69.2928 71.1383V64.5109C69.2928 62.7989 67.9 61.4061 66.188 61.4061H54.3826C56.1687 59.3986 57.1598 56.6389 56.5373 54.0936C56.1895 52.6566 54.3233 52.267 53.433 53.4611C52.7426 54.3894 51.9333 55.2286 51.0347 55.9502C51.4286 53.8772 51.3428 51.782 50.8641 49.7352C51.3594 49.4942 53.7406 47.6878 55.4447 44.9197L76.5303 40.743C78.5406 40.3438 79.9997 38.5702 79.9997 36.5225C79.9997 33.7977 77.5262 31.7455 74.8539 32.2738ZM13.8112 71.8948C13.3941 71.8948 13.0547 71.5555 13.0547 71.1383V64.5109C13.0547 64.0938 13.3941 63.7544 13.8112 63.7544H38.8255V71.895C36.1287 71.8948 16.6792 71.8948 13.8112 71.8948ZM60.2728 75.652H19.7266V74.2431H60.273V75.652H60.2728ZM66.1881 63.7542C66.6053 63.7542 66.9447 64.0936 66.9447 64.5108V71.1381C66.9447 71.5553 66.6053 71.8947 66.1881 71.8947C63.4512 71.8947 43.7992 71.8947 41.1739 71.8947V63.7541H66.1881V63.7542Z" fill="#007C0C"/>
<path d="M74.8539 32.2738L69.86 33.2631C69.2228 33.39 68.8095 34.0067 68.9364 34.6439C69.0617 35.2795 69.68 35.6913 70.3156 35.5675C75.6042 34.5316 75.3678 34.5389 75.6931 34.5389C76.623 34.5389 77.4292 35.2027 77.6092 36.1153L77.6139 36.1388C77.8244 37.2042 77.1291 38.2309 76.075 38.4384L56.7645 42.263C57.2842 40.9198 57.6272 39.5045 57.7742 38.0517L65.7081 36.48C66.3453 36.3531 66.7586 35.7348 66.6317 35.0992C66.5064 34.4636 65.8881 34.0503 65.2525 34.1756L57.8351 35.6441C57.7714 34.3505 57.5758 33.4777 57.533 33.2113C57.2794 31.9322 56.1491 31.0039 54.8466 31.0039C54.3455 31.0039 56.877 30.5673 14.607 38.9222C13.9698 39.0475 13.5566 39.6658 13.6834 40.3014C13.8087 40.937 14.427 41.3503 15.0626 41.225L54.7683 33.36C54.9984 33.3194 55.1887 33.4667 55.2286 33.6684C55.4719 35.2355 55.6562 36.5242 55.3459 38.5325C54.8053 42.0422 52.9178 45.2297 50.125 47.3822C48.0153 42.1197 45.4247 42.6175 44.2794 45.3767C43.4919 47.2756 42.4352 49.0494 41.1516 50.643L40.2012 50.8308C40.0855 49.7553 39.7801 48.7095 39.3026 47.7592C38.6308 46.4261 36.7001 46.5083 36.1325 47.8766C35.8805 48.4855 35.5517 49.0633 35.1587 49.5892L32.1561 44.5452C31.4791 43.41 29.8509 43.4081 29.1644 44.5233C28.6587 45.342 28.067 46.3189 27.505 47.3506C27.1934 47.9189 27.4033 48.6328 27.9731 48.9428C28.5414 49.2544 29.2553 49.0445 29.5653 48.4763C29.9222 47.8234 30.2948 47.1878 30.647 46.6023L33.9064 52.0769C33.9264 52.0989 34.1508 52.6198 34.7878 52.7141C35.1384 52.7658 35.4923 52.6577 35.7522 52.4197C36.5109 51.7244 37.1589 50.9159 37.6716 50.0402C38.0694 51.4967 37.9733 53.1222 37.3225 54.5191C36.8 55.6386 38.1441 56.7016 39.1103 55.9405C44.6075 51.6284 46.302 46.4447 46.6419 45.89C48.2678 47.8419 50.1481 53.1967 47.8848 58.1603C47.4298 59.157 48.4741 60.1808 49.4628 59.7055C51.3102 58.8131 52.9805 57.5561 54.3612 56.0281C54.2062 58.0617 52.7895 60.1814 50.7825 61.3633H28.5997C27.1706 59.2305 26.5872 56.2291 27.7606 52.5573C27.9562 51.9389 27.615 51.2798 26.9967 51.0827C26.3783 50.887 25.7192 51.2283 25.522 51.8466C25.3075 52.5259 25.1384 53.185 25.0164 53.8378C19.1248 54.9392 18.1516 55.3658 15.9412 55.3658C9.35671 55.3658 3.6489 50.6709 2.36687 44.1991L2.35593 44.1411C2.31281 43.9586 2.43078 43.7266 2.66281 43.6808L10.4558 42.1372C11.093 42.0119 11.5062 41.3936 11.3794 40.758C11.2541 40.1208 10.6358 39.7091 10.0002 39.8344L2.20718 41.378C0.762183 41.6628 -0.243598 43.0711 0.0515584 44.5998L0.0640584 44.6563C1.56218 52.2223 8.23906 57.7141 15.9414 57.7141C18.4544 57.7141 19.7805 57.2009 24.7755 56.28C24.7776 58.0786 25.1876 59.8605 25.9306 61.4055H13.8112C12.0992 61.4055 10.7064 62.7983 10.7064 64.5103V71.1377C10.7064 72.8497 12.0992 74.2425 13.8112 74.2425H17.3783V76.8256C17.3783 77.4742 17.9037 77.9997 18.5523 77.9997H61.4469C62.0955 77.9997 62.6209 77.4742 62.6209 76.8256V74.2431H66.188C67.9 74.2431 69.2928 72.8503 69.2928 71.1383V64.5109C69.2928 62.7989 67.9 61.4061 66.188 61.4061H54.3826C56.1687 59.3986 57.1598 56.6389 56.5373 54.0936C56.1895 52.6566 54.3233 52.267 53.433 53.4611C52.7426 54.3894 51.9333 55.2286 51.0347 55.9502C51.4286 53.8772 51.3428 51.782 50.8641 49.7352C51.3594 49.4942 53.7406 47.6878 55.4447 44.9197L76.5303 40.743C78.5406 40.3438 79.9997 38.5702 79.9997 36.5225C79.9997 33.7977 77.5262 31.7455 74.8539 32.2738ZM13.8112 71.8948C13.3941 71.8948 13.0547 71.5555 13.0547 71.1383V64.5109C13.0547 64.0938 13.3941 63.7544 13.8112 63.7544H38.8255V71.895C36.1287 71.8948 16.6792 71.8948 13.8112 71.8948ZM60.2728 75.652H19.7266V74.2431H60.273V75.652H60.2728ZM66.1881 63.7542C66.6053 63.7542 66.9447 64.0936 66.9447 64.5108V71.1381C66.9447 71.5553 66.6053 71.8947 66.1881 71.8947C63.4512 71.8947 43.7992 71.8947 41.1739 71.8947V63.7541H66.1881V63.7542Z" fill="black" fill-opacity="0.2"/>
<g clip-path="url(#clip0_611_953)">
<path d="M74.8539 32.2738L69.86 33.2631C69.2228 33.39 68.8095 34.0067 68.9364 34.6439C69.0617 35.2795 69.68 35.6913 70.3156 35.5675C75.6042 34.5316 75.3678 34.5389 75.6931 34.5389C76.623 34.5389 77.4292 35.2027 77.6092 36.1153L77.6139 36.1388C77.8244 37.2042 77.1291 38.2309 76.075 38.4384L56.7645 42.263C57.2842 40.9198 57.6272 39.5045 57.7742 38.0517L65.7081 36.48C66.3453 36.3531 66.7586 35.7348 66.6317 35.0992C66.5064 34.4636 65.8881 34.0503 65.2525 34.1756L57.8351 35.6441C57.7714 34.3505 57.5758 33.4777 57.533 33.2113C57.2794 31.9322 56.1491 31.0039 54.8466 31.0039C54.3455 31.0039 56.877 30.5673 14.607 38.9222C13.9698 39.0475 13.5566 39.6658 13.6834 40.3014C13.8087 40.937 14.427 41.3503 15.0626 41.225L54.7683 33.36C54.9984 33.3194 55.1887 33.4667 55.2286 33.6684C55.4719 35.2355 55.6562 36.5242 55.3459 38.5325C54.8053 42.0422 52.9178 45.2297 50.125 47.3822C48.0153 42.1197 45.4247 42.6175 44.2794 45.3767C43.4919 47.2756 42.4352 49.0494 41.1516 50.643L40.2012 50.8308C40.0855 49.7553 39.7801 48.7095 39.3026 47.7592C38.6308 46.4261 36.7001 46.5083 36.1325 47.8766C35.8805 48.4855 35.5517 49.0633 35.1587 49.5892L32.1561 44.5452C31.4791 43.41 29.8509 43.4081 29.1644 44.5233C28.6587 45.342 28.067 46.3189 27.505 47.3506C27.1934 47.9189 27.4033 48.6328 27.9731 48.9428C28.5414 49.2544 29.2553 49.0445 29.5653 48.4763C29.9222 47.8234 30.2948 47.1878 30.647 46.6023L33.9064 52.0769C33.9264 52.0989 34.1508 52.6198 34.7878 52.7141C35.1384 52.7658 35.4923 52.6577 35.7522 52.4197C36.5109 51.7244 37.1589 50.9159 37.6716 50.0402C38.0694 51.4967 37.9733 53.1222 37.3225 54.5191C36.8 55.6386 38.1441 56.7016 39.1103 55.9405C44.6075 51.6284 46.302 46.4447 46.6419 45.89C48.2678 47.8419 50.1481 53.1967 47.8848 58.1603C47.4298 59.157 48.4741 60.1808 49.4628 59.7055C51.3102 58.8131 52.9805 57.5561 54.3612 56.0281C54.2062 58.0617 52.7895 60.1814 50.7825 61.3633H28.5997C27.1706 59.2305 26.5872 56.2291 27.7606 52.5573C27.9562 51.9389 27.615 51.2798 26.9967 51.0827C26.3783 50.887 25.7192 51.2283 25.522 51.8466C25.3075 52.5259 25.1384 53.185 25.0164 53.8378C19.1248 54.9392 18.1516 55.3658 15.9412 55.3658C9.35671 55.3658 3.6489 50.6709 2.36687 44.1991L2.35593 44.1411C2.31281 43.9586 2.43078 43.7266 2.66281 43.6808L10.4558 42.1372C11.093 42.0119 11.5062 41.3936 11.3794 40.758C11.2541 40.1208 10.6358 39.7091 10.0002 39.8344L2.20718 41.378C0.762183 41.6628 -0.243598 43.0711 0.0515584 44.5998L0.0640584 44.6563C1.56218 52.2223 8.23906 57.7141 15.9414 57.7141C18.4544 57.7141 19.7805 57.2009 24.7755 56.28C24.7776 58.0786 25.1876 59.8605 25.9306 61.4055H13.8112C12.0992 61.4055 10.7064 62.7983 10.7064 64.5103V71.1377C10.7064 72.8497 12.0992 74.2425 13.8112 74.2425H17.3783V76.8256C17.3783 77.4742 17.9037 77.9997 18.5523 77.9997H61.4469C62.0955 77.9997 62.6209 77.4742 62.6209 76.8256V74.2431H66.188C67.9 74.2431 69.2928 72.8503 69.2928 71.1383V64.5109C69.2928 62.7989 67.9 61.4061 66.188 61.4061H54.3826C56.1687 59.3986 57.1598 56.6389 56.5373 54.0936C56.1895 52.6566 54.3233 52.267 53.433 53.4611C52.7426 54.3894 51.9333 55.2286 51.0347 55.9502C51.4286 53.8772 51.3428 51.782 50.8641 49.7352C51.3594 49.4942 53.7406 47.6878 55.4447 44.9197L76.5303 40.743C78.5406 40.3438 79.9997 38.5702 79.9997 36.5225C79.9997 33.7977 77.5262 31.7455 74.8539 32.2738ZM13.8112 71.8948C13.3941 71.8948 13.0547 71.5555 13.0547 71.1383V64.5109C13.0547 64.0938 13.3941 63.7544 13.8112 63.7544H38.8255V71.895C36.1287 71.8948 16.6792 71.8948 13.8112 71.8948ZM60.2728 75.652H19.7266V74.2431H60.273V75.652H60.2728ZM66.1881 63.7542C66.6053 63.7542 66.9447 64.0936 66.9447 64.5108V71.1381C66.9447 71.5553 66.6053 71.8947 66.1881 71.8947C63.4512 71.8947 43.7992 71.8947 41.1739 71.8947V63.7541H66.1881V63.7542Z" fill="#8CC842"/>
</g>
<path d="M52.6339 10.6388C52.2146 10.144 51.4739 10.0827 50.9792 10.5021L47.4368 13.5041C44.6187 11.2568 40.4192 11.9543 38.5028 15.047C32.2665 15.1006 28.7161 22.4991 32.8642 27.3935C37.0067 32.2818 44.8917 30.0081 45.9681 23.8557C49.3278 22.4748 50.7128 18.449 48.9553 15.2956L52.4975 12.2935C52.9918 11.8743 53.0531 11.1334 52.6339 10.6388ZM44.5973 21.8434C44.1089 21.9706 43.7564 22.3954 43.7215 22.899C43.4018 27.5457 37.6067 29.3584 34.6553 25.8757C31.6709 22.3543 34.5023 16.9779 39.0782 17.4198C39.5815 17.4674 40.0576 17.1902 40.2631 16.7295C41.1648 14.7071 43.6622 13.9035 45.5872 15.0718L38.3386 21.2149C37.5029 21.9231 38.0122 23.2848 39.0982 23.2848C39.8772 23.2848 39.5604 23.1238 47.1053 16.8631C47.9414 18.9518 46.7423 21.2849 44.5973 21.8434Z" fill="#8CC842"/>
<path d="M28.9278 2.9375C26.2423 2.9375 24.0575 5.12234 24.0575 7.80781C24.0575 10.4933 26.2423 12.6781 28.9278 12.6781C31.6134 12.6781 33.7983 10.4933 33.7983 7.80781C33.7983 5.12234 31.6134 2.9375 28.9278 2.9375ZM28.9278 10.3297C27.5372 10.3297 26.4058 9.19812 26.4058 7.80766C26.4058 6.41719 27.5373 5.28562 28.9278 5.28562C30.3186 5.28562 31.45 6.41719 31.45 7.80766C31.45 9.19812 30.3184 10.3297 28.9278 10.3297Z" fill="#007C0C"/>
<path d="M28.9278 2.9375C26.2423 2.9375 24.0575 5.12234 24.0575 7.80781C24.0575 10.4933 26.2423 12.6781 28.9278 12.6781C31.6134 12.6781 33.7983 10.4933 33.7983 7.80781C33.7983 5.12234 31.6134 2.9375 28.9278 2.9375ZM28.9278 10.3297C27.5372 10.3297 26.4058 9.19812 26.4058 7.80766C26.4058 6.41719 27.5373 5.28562 28.9278 5.28562C30.3186 5.28562 31.45 6.41719 31.45 7.80766C31.45 9.19812 30.3184 10.3297 28.9278 10.3297Z" fill="black" fill-opacity="0.2"/>
<path d="M6.72908 28.9131C4.04361 28.9131 1.85876 31.0979 1.85876 33.7834C1.85876 36.4689 4.04361 38.6537 6.72908 38.6537C9.41455 38.6537 11.5994 36.4689 11.5994 33.7834C11.5994 31.0979 9.41455 28.9131 6.72908 28.9131ZM6.72923 36.3054C5.33876 36.3054 4.2072 35.1739 4.2072 33.7834C4.2072 32.3929 5.33876 31.2614 6.72923 31.2614C8.1197 31.2614 9.25126 32.3928 9.25126 33.7834C9.25126 35.174 8.1197 36.3054 6.72923 36.3054Z" fill="#8CC842"/>
<path d="M25.9528 20.4056C23.8316 17.4281 19.1461 13.4094 15.1853 12.6877L12.798 9.33437C14.3655 7.78406 14.607 5.31109 13.3052 3.48249C11.0106 0.260776 5.93438 1.32484 5.16766 5.24531C2.4075 4.85703 0 7.00171 0 9.73359C0 13.0562 3.51344 15.2905 6.53594 13.7945L9.30375 17.6802C8.9375 21.4386 10.5062 26.7709 12.6962 29.8472C15.8809 34.3178 21.4887 36.2144 25.2922 33.5073C28.6745 31.0984 29.5048 25.3981 25.9528 20.4056ZM11.3906 13.35C10.8819 13.7131 10.4592 14.1937 10.1273 14.7872L7.78375 11.4966C7.55719 11.1802 7.19812 11.0034 6.82719 11.0034C6.27578 11.0034 6.04328 11.3309 5.79703 11.5091C4.3375 12.5455 2.34828 11.4812 2.34828 9.73374C2.34828 8.00343 4.26328 6.95749 5.71719 7.89906C6.61094 8.47406 7.74578 7.66015 7.49406 6.63265C7.15984 5.24484 8.2075 3.92749 9.61063 3.92749C11.8486 3.92749 12.667 6.93999 10.6281 8.04312C9.99906 8.37249 9.80703 9.18578 10.2195 9.76203L12.4034 12.8289C12.0403 12.9558 11.7005 13.1295 11.3922 13.3502C11.3906 13.35 11.3906 13.35 11.3906 13.35ZM14.6077 28.4851C11.8967 24.6751 10.4264 16.9139 12.7541 15.2614C13.9695 14.3941 16.2786 15.3559 17.6102 16.0927C20.0147 17.4202 22.5492 19.6745 24.0397 21.7677C25.242 23.4569 25.9042 25.3964 25.9042 27.2328C25.9042 33.5642 18.6522 34.1609 14.6077 28.4851Z" fill="#007C0C"/>
<path d="M25.9528 20.4056C23.8316 17.4281 19.1461 13.4094 15.1853 12.6877L12.798 9.33437C14.3655 7.78406 14.607 5.31109 13.3052 3.48249C11.0106 0.260776 5.93438 1.32484 5.16766 5.24531C2.4075 4.85703 0 7.00171 0 9.73359C0 13.0562 3.51344 15.2905 6.53594 13.7945L9.30375 17.6802C8.9375 21.4386 10.5062 26.7709 12.6962 29.8472C15.8809 34.3178 21.4887 36.2144 25.2922 33.5073C28.6745 31.0984 29.5048 25.3981 25.9528 20.4056ZM11.3906 13.35C10.8819 13.7131 10.4592 14.1937 10.1273 14.7872L7.78375 11.4966C7.55719 11.1802 7.19812 11.0034 6.82719 11.0034C6.27578 11.0034 6.04328 11.3309 5.79703 11.5091C4.3375 12.5455 2.34828 11.4812 2.34828 9.73374C2.34828 8.00343 4.26328 6.95749 5.71719 7.89906C6.61094 8.47406 7.74578 7.66015 7.49406 6.63265C7.15984 5.24484 8.2075 3.92749 9.61063 3.92749C11.8486 3.92749 12.667 6.93999 10.6281 8.04312C9.99906 8.37249 9.80703 9.18578 10.2195 9.76203L12.4034 12.8289C12.0403 12.9558 11.7005 13.1295 11.3922 13.3502C11.3906 13.35 11.3906 13.35 11.3906 13.35ZM14.6077 28.4851C11.8967 24.6751 10.4264 16.9139 12.7541 15.2614C13.9695 14.3941 16.2786 15.3559 17.6102 16.0927C20.0147 17.4202 22.5492 19.6745 24.0397 21.7677C25.242 23.4569 25.9042 25.3964 25.9042 27.2328C25.9042 33.5642 18.6522 34.1609 14.6077 28.4851Z" fill="black" fill-opacity="0.2"/>
<defs>
<clipPath id="clip0_611_953">
<rect width="80" height="18" fill="white" transform="translate(0 61)"/>
</clipPath>
</defs>
</svg>
