<svg width="80" height="80" viewBox="0 0 80 80" fill="none" xmlns="http://www.w3.org/2000/svg">
<path d="M41.25 21.2501C42.6711 21.2591 44.0777 20.9631 45.3747 20.3822C46.6717 19.8013 47.829 18.949 48.7686 17.8827C49.7082 16.8164 50.4081 15.561 50.8212 14.2012C51.2342 12.8414 51.3509 11.4088 51.1631 10.0001H57.5C57.8315 10.0001 58.1495 9.86843 58.3839 9.63401C58.6183 9.39959 58.75 9.08165 58.75 8.75012C58.75 8.4186 58.6183 8.10066 58.3839 7.86624C58.1495 7.63182 57.8315 7.50012 57.5 7.50012H50.5137C49.8329 5.81888 48.7075 4.35455 47.258 3.26401C45.8086 2.17347 44.0898 1.49782 42.2857 1.30944C40.4816 1.12106 38.6603 1.42704 37.0168 2.19462C35.3734 2.96219 33.9697 4.16243 32.9562 5.66674C31.9427 7.17106 31.3576 8.92277 31.2635 10.7342C31.1694 12.5456 31.5699 14.3485 32.4221 15.9498C33.2743 17.551 34.5461 18.8902 36.1012 19.8239C37.6563 20.7576 39.4361 21.2506 41.25 21.2501ZM41.25 3.75012C42.5649 3.75167 43.8562 4.09895 44.9945 4.75715C46.1328 5.41535 47.078 6.3613 47.7353 7.50012H34.7648C35.422 6.3613 36.3672 5.41535 37.5055 4.75715C38.6438 4.09895 39.9351 3.75167 41.25 3.75012ZM33.8625 10.0001H48.6375C48.8264 11.0782 48.777 12.1845 48.4928 13.2415C48.2087 14.2984 47.6966 15.2804 46.9927 16.1184C46.2887 16.9564 45.4098 17.6302 44.4177 18.0925C43.4257 18.5547 42.3445 18.7943 41.25 18.7943C40.1555 18.7943 39.0743 18.5547 38.0823 18.0925C37.0902 17.6302 36.2113 16.9564 35.5073 16.1184C34.8034 15.2804 34.2913 14.2984 34.0072 13.2415C33.723 12.1845 33.6736 11.0782 33.8625 10.0001ZM21.25 42.5001H28.75C29.0815 42.5001 29.3995 42.6318 29.6339 42.8662C29.8683 43.1007 30 43.4186 30 43.7501C30 44.0816 29.8683 44.3996 29.6339 44.634C29.3995 44.8684 29.0815 45.0001 28.75 45.0001H21.25C20.9185 45.0001 20.6005 44.8684 20.3661 44.634C20.1317 44.3996 20 44.0816 20 43.7501C20 43.4186 20.1317 43.1007 20.3661 42.8662C20.6005 42.6318 20.9185 42.5001 21.25 42.5001ZM2.5 45.0001C2.16848 45.0001 1.85054 44.8684 1.61612 44.634C1.3817 44.3996 1.25 44.0816 1.25 43.7501C1.25 43.4186 1.3817 43.1007 1.61612 42.8662C1.85054 42.6318 2.16848 42.5001 2.5 42.5001H16.25C16.5815 42.5001 16.8995 42.6318 17.1339 42.8662C17.3683 43.1007 17.5 43.4186 17.5 43.7501C17.5 44.0816 17.3683 44.3996 17.1339 44.634C16.8995 44.8684 16.5815 45.0001 16.25 45.0001H2.5ZM25 37.5001C24.6685 37.5001 24.3505 37.3684 24.1161 37.134C23.8817 36.8996 23.75 36.5816 23.75 36.2501C23.75 35.9186 23.8817 35.6007 24.1161 35.3662C24.3505 35.1318 24.6685 35.0001 25 35.0001H28.75C29.0815 35.0001 29.3995 35.1318 29.6339 35.3662C29.8683 35.6007 30 35.9186 30 36.2501C30 36.5816 29.8683 36.8996 29.6339 37.134C29.3995 37.3684 29.0815 37.5001 28.75 37.5001H25ZM2.5 36.2501C2.5 35.9186 2.6317 35.6007 2.86612 35.3662C3.10054 35.1318 3.41848 35.0001 3.75 35.0001H20C20.3315 35.0001 20.6495 35.1318 20.8839 35.3662C21.1183 35.6007 21.25 35.9186 21.25 36.2501C21.25 36.5816 21.1183 36.8996 20.8839 37.134C20.6495 37.3684 20.3315 37.5001 20 37.5001H3.75C3.41848 37.5001 3.10054 37.3684 2.86612 37.134C2.6317 36.8996 2.5 36.5816 2.5 36.2501ZM3.75 28.7501C3.75 28.4186 3.8817 28.1007 4.11612 27.8662C4.35054 27.6318 4.66848 27.5001 5 27.5001H13.75C14.0815 27.5001 14.3995 27.6318 14.6339 27.8662C14.8683 28.1007 15 28.4186 15 28.7501C15 29.0816 14.8683 29.3996 14.6339 29.634C14.3995 29.8684 14.0815 30.0001 13.75 30.0001H5C4.66848 30.0001 4.35054 29.8684 4.11612 29.634C3.8817 29.3996 3.75 29.0816 3.75 28.7501ZM17.5 48.7501C17.8315 48.7501 18.1495 48.8818 18.3839 49.1162C18.6183 49.3507 18.75 49.6686 18.75 50.0001C18.75 50.3316 18.6183 50.6496 18.3839 50.884C18.1495 51.1184 17.8315 51.2501 17.5 51.2501H6.25C5.91848 51.2501 5.60054 51.1184 5.36612 50.884C5.1317 50.6496 5 50.3316 5 50.0001C5 49.6686 5.1317 49.3507 5.36612 49.1162C5.60054 48.8818 5.91848 48.7501 6.25 48.7501H17.5ZM75 12.5001H57.5C56.5058 12.5012 55.5526 12.8967 54.8496 13.5997C54.1465 14.3027 53.7511 15.2559 53.75 16.2501V33.7501C53.7543 34.1769 53.8322 34.5998 53.9804 35.0001H52.8845L44.602 25.9852C43.6192 24.9178 42.2964 24.2245 40.8594 24.0236L34.4629 23.1349C32.9927 22.9252 31.4961 23.2507 30.2458 24.0519C28.9954 24.8531 28.0744 26.0768 27.6506 27.5001H18.75C18.4185 27.5001 18.1005 27.6318 17.8661 27.8662C17.6317 28.1007 17.5 28.4186 17.5 28.7501C17.5 29.0816 17.6317 29.3996 17.8661 29.634C18.1005 29.8684 18.4185 30.0001 18.75 30.0001H30C30.3315 30.0001 30.6495 29.8684 30.8839 29.634C31.1183 29.3996 31.25 29.0816 31.25 28.7501C31.2478 28.4751 31.1537 28.2087 30.9826 27.9934C30.8116 27.7781 30.5734 27.6262 30.306 27.5619C30.6632 26.8835 31.2212 26.3319 31.9038 25.9826C32.5863 25.6334 33.3601 25.5034 34.1193 25.6105L40.5151 26.4991C41.3776 26.6199 42.1715 27.0363 42.7612 27.6771L51.4148 37.0961C51.5319 37.2235 51.6742 37.3251 51.8326 37.3947C51.9911 37.4642 52.1622 37.5001 52.3352 37.5001H63.0132C63.528 37.4999 64.0228 37.6995 64.3933 38.0569C64.7638 38.4143 64.9811 38.9016 64.9995 39.416C65.0179 39.9305 64.8358 40.432 64.4917 40.8149C64.1476 41.1977 63.6684 41.4321 63.1549 41.4686L50.2136 42.3927C49.9162 42.4151 49.6176 42.3697 49.3403 42.2599C49.063 42.1502 48.8142 41.9789 48.6126 41.7591L47.1527 40.1771L47.1521 40.1759L38.432 30.4176C38.3239 30.2909 38.1916 30.187 38.0428 30.1122C37.894 30.0373 37.7318 29.9929 37.5656 29.9816C37.3994 29.9704 37.2327 29.9924 37.0751 30.0465C36.9176 30.1006 36.7724 30.1856 36.6482 30.2965C36.524 30.4075 36.4232 30.5422 36.3518 30.6926C36.2803 30.8431 36.2397 31.0063 36.2322 31.1727C36.2247 31.3391 36.2506 31.5053 36.3082 31.6616C36.3659 31.8178 36.4542 31.961 36.568 32.0826L38.4061 34.1396C37.427 38.3556 36.6918 42.6245 36.2043 46.9251C36.1748 47.1651 36.2155 47.4086 36.3214 47.626C36.4273 47.8433 36.5939 48.0254 36.8011 48.1501L49.3176 55.6764C49.5391 55.8095 49.7312 55.9861 49.8824 56.1956C50.0336 56.4051 50.1407 56.6431 50.1972 56.8952C50.2538 57.1472 50.2586 57.4082 50.2114 57.6622C50.1641 57.9162 50.0659 58.158 49.9225 58.3729L39.2529 74.3776C38.9794 74.7889 38.5573 75.0783 38.075 75.1851C37.5928 75.2918 37.0879 75.2076 36.6664 74.9502C36.2449 74.6927 35.9395 74.282 35.8143 73.8042C35.6891 73.3264 35.7538 72.8187 35.9949 72.3876L43.2923 59.298C43.4516 59.0119 43.4925 58.6747 43.406 58.3588C43.3195 58.0429 43.1126 57.7735 42.8298 57.6085L32.3923 51.5294C32.2433 51.4427 32.078 51.3877 31.9068 51.368C31.7356 51.3482 31.5622 51.3641 31.3974 51.4145C31.2326 51.465 31.08 51.549 30.9493 51.6613C30.8185 51.7735 30.7123 51.9116 30.6375 52.0669L24.7943 64.1676L6.50087 66.9301C6.01393 67.0028 5.51769 66.8851 5.1153 66.6014C4.71292 66.3177 4.43533 65.8898 4.34025 65.4067L4.31525 65.2786C4.21741 64.7899 4.31542 64.2823 4.58817 63.8652C4.86091 63.4481 5.28658 63.1547 5.7735 63.0484L20.89 59.6645C21.074 59.6236 21.2463 59.5414 21.394 59.4243C21.5417 59.3072 21.6609 59.1581 21.7426 58.9882C21.7426 58.9882 24.9841 52.2757 25.4801 51.2507H26.25C26.5815 51.2507 26.8995 51.1191 27.1339 50.8846C27.3683 50.6502 27.5 50.3323 27.5 50.0007C27.5 49.6692 27.3683 49.3513 27.1339 49.1169C26.8995 48.8824 26.5815 48.7507 26.25 48.7507H22.5C22.1685 48.7507 21.8505 48.8824 21.6161 49.1169C21.3817 49.3513 21.25 49.6692 21.25 50.0007C21.25 50.3323 21.3817 50.6502 21.6161 50.8846C21.8505 51.1191 22.1685 51.2507 22.5 51.2507H22.75C22.1375 52.4264 21.2231 54.3147 19.7535 57.3579L5.22762 60.6092C4.10349 60.8543 3.12067 61.5312 2.49102 62.4942C1.86137 63.4571 1.63533 64.6289 1.86163 65.757L1.88662 65.8851C2.10411 67.0016 2.74446 67.9909 3.67398 68.6464C4.6035 69.302 5.75032 69.5731 6.875 69.4032L25.8204 66.5419C26.0214 66.5113 26.2119 66.4322 26.3755 66.3113C26.539 66.1905 26.6707 66.0316 26.759 65.8485L32.3022 54.3702L40.5121 59.1517L33.8121 71.1695C33.3715 71.9725 33.1908 72.8923 33.295 73.8023C33.3991 74.7123 33.783 75.5675 34.3937 76.2501H27.5C27.1685 76.2501 26.8505 76.3818 26.6161 76.6162C26.3817 76.8507 26.25 77.1686 26.25 77.5001C26.25 77.8316 26.3817 78.1496 26.6161 78.384C26.8505 78.6184 27.1685 78.7501 27.5 78.7501H48.75C49.0815 78.7501 49.3995 78.6184 49.6339 78.384C49.8683 78.1496 50 77.8316 50 77.5001C50 77.1686 49.8683 76.8507 49.6339 76.6162C49.3995 76.3818 49.0815 76.2501 48.75 76.2501H40.9115C41.064 76.099 41.2049 75.9366 41.333 75.7642L52.0026 59.7596C52.3334 59.2632 52.5601 58.7049 52.669 58.1184C52.7778 57.5319 52.7666 56.9294 52.636 56.3474C52.5054 55.7653 52.2582 55.2158 51.9092 54.7321C51.5601 54.2483 51.1167 53.8404 50.6055 53.5329L38.786 46.4259C39.2682 42.6307 39.7961 39.4251 40.4144 36.5601L46.775 43.4547C47.229 43.9531 47.7909 44.341 48.4178 44.589C49.0447 44.837 49.7199 44.9383 50.392 44.8854L63.3326 43.9612C64.4631 43.8771 65.5202 43.3695 66.2927 42.5399C67.0653 41.7103 67.4964 40.6198 67.5 39.4862C67.4956 38.7955 67.3296 38.1153 67.0154 37.5001H75C75.9942 37.499 76.9474 37.1036 77.6504 36.4006C78.3535 35.6975 78.7489 34.7444 78.75 33.7501V16.2501C78.7489 15.2559 78.3535 14.3027 77.6504 13.5997C76.9474 12.8967 75.9942 12.5012 75 12.5001ZM63.75 15.0001H68.75V20.7325L67.1338 19.1164C67.0177 19.0002 66.88 18.9081 66.7283 18.8453C66.5767 18.7824 66.4141 18.7501 66.25 18.7501C66.0859 18.7501 65.9233 18.7824 65.7717 18.8453C65.62 18.9081 65.4823 19.0002 65.3662 19.1164L63.75 20.7325V15.0001ZM76.25 33.7501C76.2497 34.0816 76.1179 34.3993 75.8836 34.6337C75.6492 34.868 75.3314 34.9998 75 35.0001H57.5C57.1686 34.9998 56.8508 34.868 56.6164 34.6337C56.3821 34.3993 56.2503 34.0816 56.25 33.7501V16.2501C56.2503 15.9187 56.3821 15.6009 56.6164 15.3666C56.8508 15.1322 57.1686 15.0004 57.5 15.0001H61.25V23.7501C61.2501 23.9973 61.3234 24.2389 61.4607 24.4444C61.5981 24.65 61.7933 24.8101 62.0217 24.9047C62.2501 24.9993 62.5014 25.0241 62.7438 24.9759C62.9862 24.9276 63.2089 24.8086 63.3838 24.6339L66.25 21.7677L69.1162 24.6339C69.2911 24.8086 69.5138 24.9276 69.7562 24.9759C69.9986 25.0241 70.2499 24.9993 70.4783 24.9047C70.7067 24.8101 70.9019 24.65 71.0393 24.4444C71.1766 24.2389 71.2499 23.9973 71.25 23.7501V15.0001H75C75.3314 15.0004 75.6492 15.1322 75.8836 15.3666C76.1179 15.6009 76.2497 15.9187 76.25 16.2501V33.7501ZM65 28.7501C65 29.0816 64.8683 29.3996 64.6339 29.634C64.3995 29.8684 64.0815 30.0001 63.75 30.0001H58.75C58.4185 30.0001 58.1005 29.8684 57.8661 29.634C57.6317 29.3996 57.5 29.0816 57.5 28.7501C57.5 28.4186 57.6317 28.1007 57.8661 27.8662C58.1005 27.6318 58.4185 27.5001 58.75 27.5001H63.75C64.0815 27.5001 64.3995 27.6318 64.6339 27.8662C64.8683 28.1007 65 28.4186 65 28.7501ZM65 32.5001C65 32.8316 64.8683 33.1496 64.6339 33.384C64.3995 33.6184 64.0815 33.7501 63.75 33.7501H58.75C58.4185 33.7501 58.1005 33.6184 57.8661 33.384C57.6317 33.1496 57.5 32.8316 57.5 32.5001C57.5 32.1686 57.6317 31.8507 57.8661 31.6162C58.1005 31.3818 58.4185 31.2501 58.75 31.2501H63.75C64.0815 31.2501 64.3995 31.3818 64.6339 31.6162C64.8683 31.8507 65 32.1686 65 32.5001Z" fill="#007C0C"/>
<path d="M41.25 21.2501C42.6711 21.2591 44.0777 20.9631 45.3747 20.3822C46.6717 19.8013 47.829 18.949 48.7686 17.8827C49.7082 16.8164 50.4081 15.561 50.8212 14.2012C51.2342 12.8414 51.3509 11.4088 51.1631 10.0001H57.5C57.8315 10.0001 58.1495 9.86843 58.3839 9.63401C58.6183 9.39959 58.75 9.08165 58.75 8.75012C58.75 8.4186 58.6183 8.10066 58.3839 7.86624C58.1495 7.63182 57.8315 7.50012 57.5 7.50012H50.5137C49.8329 5.81888 48.7075 4.35455 47.258 3.26401C45.8086 2.17347 44.0898 1.49782 42.2857 1.30944C40.4816 1.12106 38.6603 1.42704 37.0168 2.19462C35.3734 2.96219 33.9697 4.16243 32.9562 5.66674C31.9427 7.17106 31.3576 8.92277 31.2635 10.7342C31.1694 12.5456 31.5699 14.3485 32.4221 15.9498C33.2743 17.551 34.5461 18.8902 36.1012 19.8239C37.6563 20.7576 39.4361 21.2506 41.25 21.2501ZM41.25 3.75012C42.5649 3.75167 43.8562 4.09895 44.9945 4.75715C46.1328 5.41535 47.078 6.3613 47.7353 7.50012H34.7648C35.422 6.3613 36.3672 5.41535 37.5055 4.75715C38.6438 4.09895 39.9351 3.75167 41.25 3.75012ZM33.8625 10.0001H48.6375C48.8264 11.0782 48.777 12.1845 48.4928 13.2415C48.2087 14.2984 47.6966 15.2804 46.9927 16.1184C46.2887 16.9564 45.4098 17.6302 44.4177 18.0925C43.4257 18.5547 42.3445 18.7943 41.25 18.7943C40.1555 18.7943 39.0743 18.5547 38.0823 18.0925C37.0902 17.6302 36.2113 16.9564 35.5073 16.1184C34.8034 15.2804 34.2913 14.2984 34.0072 13.2415C33.723 12.1845 33.6736 11.0782 33.8625 10.0001ZM21.25 42.5001H28.75C29.0815 42.5001 29.3995 42.6318 29.6339 42.8662C29.8683 43.1007 30 43.4186 30 43.7501C30 44.0816 29.8683 44.3996 29.6339 44.634C29.3995 44.8684 29.0815 45.0001 28.75 45.0001H21.25C20.9185 45.0001 20.6005 44.8684 20.3661 44.634C20.1317 44.3996 20 44.0816 20 43.7501C20 43.4186 20.1317 43.1007 20.3661 42.8662C20.6005 42.6318 20.9185 42.5001 21.25 42.5001ZM2.5 45.0001C2.16848 45.0001 1.85054 44.8684 1.61612 44.634C1.3817 44.3996 1.25 44.0816 1.25 43.7501C1.25 43.4186 1.3817 43.1007 1.61612 42.8662C1.85054 42.6318 2.16848 42.5001 2.5 42.5001H16.25C16.5815 42.5001 16.8995 42.6318 17.1339 42.8662C17.3683 43.1007 17.5 43.4186 17.5 43.7501C17.5 44.0816 17.3683 44.3996 17.1339 44.634C16.8995 44.8684 16.5815 45.0001 16.25 45.0001H2.5ZM25 37.5001C24.6685 37.5001 24.3505 37.3684 24.1161 37.134C23.8817 36.8996 23.75 36.5816 23.75 36.2501C23.75 35.9186 23.8817 35.6007 24.1161 35.3662C24.3505 35.1318 24.6685 35.0001 25 35.0001H28.75C29.0815 35.0001 29.3995 35.1318 29.6339 35.3662C29.8683 35.6007 30 35.9186 30 36.2501C30 36.5816 29.8683 36.8996 29.6339 37.134C29.3995 37.3684 29.0815 37.5001 28.75 37.5001H25ZM2.5 36.2501C2.5 35.9186 2.6317 35.6007 2.86612 35.3662C3.10054 35.1318 3.41848 35.0001 3.75 35.0001H20C20.3315 35.0001 20.6495 35.1318 20.8839 35.3662C21.1183 35.6007 21.25 35.9186 21.25 36.2501C21.25 36.5816 21.1183 36.8996 20.8839 37.134C20.6495 37.3684 20.3315 37.5001 20 37.5001H3.75C3.41848 37.5001 3.10054 37.3684 2.86612 37.134C2.6317 36.8996 2.5 36.5816 2.5 36.2501ZM3.75 28.7501C3.75 28.4186 3.8817 28.1007 4.11612 27.8662C4.35054 27.6318 4.66848 27.5001 5 27.5001H13.75C14.0815 27.5001 14.3995 27.6318 14.6339 27.8662C14.8683 28.1007 15 28.4186 15 28.7501C15 29.0816 14.8683 29.3996 14.6339 29.634C14.3995 29.8684 14.0815 30.0001 13.75 30.0001H5C4.66848 30.0001 4.35054 29.8684 4.11612 29.634C3.8817 29.3996 3.75 29.0816 3.75 28.7501ZM17.5 48.7501C17.8315 48.7501 18.1495 48.8818 18.3839 49.1162C18.6183 49.3507 18.75 49.6686 18.75 50.0001C18.75 50.3316 18.6183 50.6496 18.3839 50.884C18.1495 51.1184 17.8315 51.2501 17.5 51.2501H6.25C5.91848 51.2501 5.60054 51.1184 5.36612 50.884C5.1317 50.6496 5 50.3316 5 50.0001C5 49.6686 5.1317 49.3507 5.36612 49.1162C5.60054 48.8818 5.91848 48.7501 6.25 48.7501H17.5ZM75 12.5001H57.5C56.5058 12.5012 55.5526 12.8967 54.8496 13.5997C54.1465 14.3027 53.7511 15.2559 53.75 16.2501V33.7501C53.7543 34.1769 53.8322 34.5998 53.9804 35.0001H52.8845L44.602 25.9852C43.6192 24.9178 42.2964 24.2245 40.8594 24.0236L34.4629 23.1349C32.9927 22.9252 31.4961 23.2507 30.2458 24.0519C28.9954 24.8531 28.0744 26.0768 27.6506 27.5001H18.75C18.4185 27.5001 18.1005 27.6318 17.8661 27.8662C17.6317 28.1007 17.5 28.4186 17.5 28.7501C17.5 29.0816 17.6317 29.3996 17.8661 29.634C18.1005 29.8684 18.4185 30.0001 18.75 30.0001H30C30.3315 30.0001 30.6495 29.8684 30.8839 29.634C31.1183 29.3996 31.25 29.0816 31.25 28.7501C31.2478 28.4751 31.1537 28.2087 30.9826 27.9934C30.8116 27.7781 30.5734 27.6262 30.306 27.5619C30.6632 26.8835 31.2212 26.3319 31.9038 25.9826C32.5863 25.6334 33.3601 25.5034 34.1193 25.6105L40.5151 26.4991C41.3776 26.6199 42.1715 27.0363 42.7612 27.6771L51.4148 37.0961C51.5319 37.2235 51.6742 37.3251 51.8326 37.3947C51.9911 37.4642 52.1622 37.5001 52.3352 37.5001H63.0132C63.528 37.4999 64.0228 37.6995 64.3933 38.0569C64.7638 38.4143 64.9811 38.9016 64.9995 39.416C65.0179 39.9305 64.8358 40.432 64.4917 40.8149C64.1476 41.1977 63.6684 41.4321 63.1549 41.4686L50.2136 42.3927C49.9162 42.4151 49.6176 42.3697 49.3403 42.2599C49.063 42.1502 48.8142 41.9789 48.6126 41.7591L47.1527 40.1771L47.1521 40.1759L38.432 30.4176C38.3239 30.2909 38.1916 30.187 38.0428 30.1122C37.894 30.0373 37.7318 29.9929 37.5656 29.9816C37.3994 29.9704 37.2327 29.9924 37.0751 30.0465C36.9176 30.1006 36.7724 30.1856 36.6482 30.2965C36.524 30.4075 36.4232 30.5422 36.3518 30.6926C36.2803 30.8431 36.2397 31.0063 36.2322 31.1727C36.2247 31.3391 36.2506 31.5053 36.3082 31.6616C36.3659 31.8178 36.4542 31.961 36.568 32.0826L38.4061 34.1396C37.427 38.3556 36.6918 42.6245 36.2043 46.9251C36.1748 47.1651 36.2155 47.4086 36.3214 47.626C36.4273 47.8433 36.5939 48.0254 36.8011 48.1501L49.3176 55.6764C49.5391 55.8095 49.7312 55.9861 49.8824 56.1956C50.0336 56.4051 50.1407 56.6431 50.1972 56.8952C50.2538 57.1472 50.2586 57.4082 50.2114 57.6622C50.1641 57.9162 50.0659 58.158 49.9225 58.3729L39.2529 74.3776C38.9794 74.7889 38.5573 75.0783 38.075 75.1851C37.5928 75.2918 37.0879 75.2076 36.6664 74.9502C36.2449 74.6927 35.9395 74.282 35.8143 73.8042C35.6891 73.3264 35.7538 72.8187 35.9949 72.3876L43.2923 59.298C43.4516 59.0119 43.4925 58.6747 43.406 58.3588C43.3195 58.0429 43.1126 57.7735 42.8298 57.6085L32.3923 51.5294C32.2433 51.4427 32.078 51.3877 31.9068 51.368C31.7356 51.3482 31.5622 51.3641 31.3974 51.4145C31.2326 51.465 31.08 51.549 30.9493 51.6613C30.8185 51.7735 30.7123 51.9116 30.6375 52.0669L24.7943 64.1676L6.50087 66.9301C6.01393 67.0028 5.51769 66.8851 5.1153 66.6014C4.71292 66.3177 4.43533 65.8898 4.34025 65.4067L4.31525 65.2786C4.21741 64.7899 4.31542 64.2823 4.58817 63.8652C4.86091 63.4481 5.28658 63.1547 5.7735 63.0484L20.89 59.6645C21.074 59.6236 21.2463 59.5414 21.394 59.4243C21.5417 59.3072 21.6609 59.1581 21.7426 58.9882C21.7426 58.9882 24.9841 52.2757 25.4801 51.2507H26.25C26.5815 51.2507 26.8995 51.1191 27.1339 50.8846C27.3683 50.6502 27.5 50.3323 27.5 50.0007C27.5 49.6692 27.3683 49.3513 27.1339 49.1169C26.8995 48.8824 26.5815 48.7507 26.25 48.7507H22.5C22.1685 48.7507 21.8505 48.8824 21.6161 49.1169C21.3817 49.3513 21.25 49.6692 21.25 50.0007C21.25 50.3323 21.3817 50.6502 21.6161 50.8846C21.8505 51.1191 22.1685 51.2507 22.5 51.2507H22.75C22.1375 52.4264 21.2231 54.3147 19.7535 57.3579L5.22762 60.6092C4.10349 60.8543 3.12067 61.5312 2.49102 62.4942C1.86137 63.4571 1.63533 64.6289 1.86163 65.757L1.88662 65.8851C2.10411 67.0016 2.74446 67.9909 3.67398 68.6464C4.6035 69.302 5.75032 69.5731 6.875 69.4032L25.8204 66.5419C26.0214 66.5113 26.2119 66.4322 26.3755 66.3113C26.539 66.1905 26.6707 66.0316 26.759 65.8485L32.3022 54.3702L40.5121 59.1517L33.8121 71.1695C33.3715 71.9725 33.1908 72.8923 33.295 73.8023C33.3991 74.7123 33.783 75.5675 34.3937 76.2501H27.5C27.1685 76.2501 26.8505 76.3818 26.6161 76.6162C26.3817 76.8507 26.25 77.1686 26.25 77.5001C26.25 77.8316 26.3817 78.1496 26.6161 78.384C26.8505 78.6184 27.1685 78.7501 27.5 78.7501H48.75C49.0815 78.7501 49.3995 78.6184 49.6339 78.384C49.8683 78.1496 50 77.8316 50 77.5001C50 77.1686 49.8683 76.8507 49.6339 76.6162C49.3995 76.3818 49.0815 76.2501 48.75 76.2501H40.9115C41.064 76.099 41.2049 75.9366 41.333 75.7642L52.0026 59.7596C52.3334 59.2632 52.5601 58.7049 52.669 58.1184C52.7778 57.5319 52.7666 56.9294 52.636 56.3474C52.5054 55.7653 52.2582 55.2158 51.9092 54.7321C51.5601 54.2483 51.1167 53.8404 50.6055 53.5329L38.786 46.4259C39.2682 42.6307 39.7961 39.4251 40.4144 36.5601L46.775 43.4547C47.229 43.9531 47.7909 44.341 48.4178 44.589C49.0447 44.837 49.7199 44.9383 50.392 44.8854L63.3326 43.9612C64.4631 43.8771 65.5202 43.3695 66.2927 42.5399C67.0653 41.7103 67.4964 40.6198 67.5 39.4862C67.4956 38.7955 67.3296 38.1153 67.0154 37.5001H75C75.9942 37.499 76.9474 37.1036 77.6504 36.4006C78.3535 35.6975 78.7489 34.7444 78.75 33.7501V16.2501C78.7489 15.2559 78.3535 14.3027 77.6504 13.5997C76.9474 12.8967 75.9942 12.5012 75 12.5001ZM63.75 15.0001H68.75V20.7325L67.1338 19.1164C67.0177 19.0002 66.88 18.9081 66.7283 18.8453C66.5767 18.7824 66.4141 18.7501 66.25 18.7501C66.0859 18.7501 65.9233 18.7824 65.7717 18.8453C65.62 18.9081 65.4823 19.0002 65.3662 19.1164L63.75 20.7325V15.0001ZM76.25 33.7501C76.2497 34.0816 76.1179 34.3993 75.8836 34.6337C75.6492 34.868 75.3314 34.9998 75 35.0001H57.5C57.1686 34.9998 56.8508 34.868 56.6164 34.6337C56.3821 34.3993 56.2503 34.0816 56.25 33.7501V16.2501C56.2503 15.9187 56.3821 15.6009 56.6164 15.3666C56.8508 15.1322 57.1686 15.0004 57.5 15.0001H61.25V23.7501C61.2501 23.9973 61.3234 24.2389 61.4607 24.4444C61.5981 24.65 61.7933 24.8101 62.0217 24.9047C62.2501 24.9993 62.5014 25.0241 62.7438 24.9759C62.9862 24.9276 63.2089 24.8086 63.3838 24.6339L66.25 21.7677L69.1162 24.6339C69.2911 24.8086 69.5138 24.9276 69.7562 24.9759C69.9986 25.0241 70.2499 24.9993 70.4783 24.9047C70.7067 24.8101 70.9019 24.65 71.0393 24.4444C71.1766 24.2389 71.2499 23.9973 71.25 23.7501V15.0001H75C75.3314 15.0004 75.6492 15.1322 75.8836 15.3666C76.1179 15.6009 76.2497 15.9187 76.25 16.2501V33.7501ZM65 28.7501C65 29.0816 64.8683 29.3996 64.6339 29.634C64.3995 29.8684 64.0815 30.0001 63.75 30.0001H58.75C58.4185 30.0001 58.1005 29.8684 57.8661 29.634C57.6317 29.3996 57.5 29.0816 57.5 28.7501C57.5 28.4186 57.6317 28.1007 57.8661 27.8662C58.1005 27.6318 58.4185 27.5001 58.75 27.5001H63.75C64.0815 27.5001 64.3995 27.6318 64.6339 27.8662C64.8683 28.1007 65 28.4186 65 28.7501ZM65 32.5001C65 32.8316 64.8683 33.1496 64.6339 33.384C64.3995 33.6184 64.0815 33.7501 63.75 33.7501H58.75C58.4185 33.7501 58.1005 33.6184 57.8661 33.384C57.6317 33.1496 57.5 32.8316 57.5 32.5001C57.5 32.1686 57.6317 31.8507 57.8661 31.6162C58.1005 31.3818 58.4185 31.2501 58.75 31.2501H63.75C64.0815 31.2501 64.3995 31.3818 64.6339 31.6162C64.8683 31.8507 65 32.1686 65 32.5001Z" fill="black" fill-opacity="0.2"/>
<path d="M41.25 21.2501C42.6711 21.2591 44.0777 20.9631 45.3747 20.3822C46.6717 19.8013 47.829 18.949 48.7686 17.8827C49.7082 16.8164 50.4081 15.561 50.8212 14.2012C51.2342 12.8414 51.3509 11.4088 51.1631 10.0001H57.5C57.8315 10.0001 58.1495 9.86843 58.3839 9.63401C58.6183 9.39959 58.75 9.08165 58.75 8.75012C58.75 8.4186 58.6183 8.10066 58.3839 7.86624C58.1495 7.63182 57.8315 7.50012 57.5 7.50012H50.5137C49.8329 5.81888 48.7075 4.35455 47.258 3.26401C45.8086 2.17347 44.0898 1.49782 42.2857 1.30944C40.4816 1.12106 38.6603 1.42704 37.0168 2.19462C35.3734 2.96219 33.9697 4.16243 32.9562 5.66674C31.9427 7.17106 31.3576 8.92277 31.2635 10.7342C31.1694 12.5456 31.5699 14.3485 32.4221 15.9498C33.2743 17.551 34.5461 18.8902 36.1012 19.8239C37.6563 20.7576 39.4361 21.2506 41.25 21.2501ZM41.25 3.75012C42.5649 3.75167 43.8562 4.09895 44.9945 4.75715C46.1328 5.41535 47.078 6.3613 47.7353 7.50012H34.7648C35.422 6.3613 36.3672 5.41535 37.5055 4.75715C38.6438 4.09895 39.9351 3.75167 41.25 3.75012ZM33.8625 10.0001H48.6375C48.8264 11.0782 48.777 12.1845 48.4928 13.2415C48.2087 14.2984 47.6966 15.2804 46.9927 16.1184C46.2887 16.9564 45.4098 17.6302 44.4177 18.0925C43.4257 18.5547 42.3445 18.7943 41.25 18.7943C40.1555 18.7943 39.0743 18.5547 38.0823 18.0925C37.0902 17.6302 36.2113 16.9564 35.5073 16.1184C34.8034 15.2804 34.2913 14.2984 34.0072 13.2415C33.723 12.1845 33.6736 11.0782 33.8625 10.0001ZM21.25 42.5001H28.75C29.0815 42.5001 29.3995 42.6318 29.6339 42.8662C29.8683 43.1007 30 43.4186 30 43.7501C30 44.0816 29.8683 44.3996 29.6339 44.634C29.3995 44.8684 29.0815 45.0001 28.75 45.0001H21.25C20.9185 45.0001 20.6005 44.8684 20.3661 44.634C20.1317 44.3996 20 44.0816 20 43.7501C20 43.4186 20.1317 43.1007 20.3661 42.8662C20.6005 42.6318 20.9185 42.5001 21.25 42.5001ZM2.5 45.0001C2.16848 45.0001 1.85054 44.8684 1.61612 44.634C1.3817 44.3996 1.25 44.0816 1.25 43.7501C1.25 43.4186 1.3817 43.1007 1.61612 42.8662C1.85054 42.6318 2.16848 42.5001 2.5 42.5001H16.25C16.5815 42.5001 16.8995 42.6318 17.1339 42.8662C17.3683 43.1007 17.5 43.4186 17.5 43.7501C17.5 44.0816 17.3683 44.3996 17.1339 44.634C16.8995 44.8684 16.5815 45.0001 16.25 45.0001H2.5ZM25 37.5001C24.6685 37.5001 24.3505 37.3684 24.1161 37.134C23.8817 36.8996 23.75 36.5816 23.75 36.2501C23.75 35.9186 23.8817 35.6007 24.1161 35.3662C24.3505 35.1318 24.6685 35.0001 25 35.0001H28.75C29.0815 35.0001 29.3995 35.1318 29.6339 35.3662C29.8683 35.6007 30 35.9186 30 36.2501C30 36.5816 29.8683 36.8996 29.6339 37.134C29.3995 37.3684 29.0815 37.5001 28.75 37.5001H25ZM2.5 36.2501C2.5 35.9186 2.6317 35.6007 2.86612 35.3662C3.10054 35.1318 3.41848 35.0001 3.75 35.0001H20C20.3315 35.0001 20.6495 35.1318 20.8839 35.3662C21.1183 35.6007 21.25 35.9186 21.25 36.2501C21.25 36.5816 21.1183 36.8996 20.8839 37.134C20.6495 37.3684 20.3315 37.5001 20 37.5001H3.75C3.41848 37.5001 3.10054 37.3684 2.86612 37.134C2.6317 36.8996 2.5 36.5816 2.5 36.2501ZM3.75 28.7501C3.75 28.4186 3.8817 28.1007 4.11612 27.8662C4.35054 27.6318 4.66848 27.5001 5 27.5001H13.75C14.0815 27.5001 14.3995 27.6318 14.6339 27.8662C14.8683 28.1007 15 28.4186 15 28.7501C15 29.0816 14.8683 29.3996 14.6339 29.634C14.3995 29.8684 14.0815 30.0001 13.75 30.0001H5C4.66848 30.0001 4.35054 29.8684 4.11612 29.634C3.8817 29.3996 3.75 29.0816 3.75 28.7501ZM17.5 48.7501C17.8315 48.7501 18.1495 48.8818 18.3839 49.1162C18.6183 49.3507 18.75 49.6686 18.75 50.0001C18.75 50.3316 18.6183 50.6496 18.3839 50.884C18.1495 51.1184 17.8315 51.2501 17.5 51.2501H6.25C5.91848 51.2501 5.60054 51.1184 5.36612 50.884C5.1317 50.6496 5 50.3316 5 50.0001C5 49.6686 5.1317 49.3507 5.36612 49.1162C5.60054 48.8818 5.91848 48.7501 6.25 48.7501H17.5ZM65 28.7501C65 29.0816 64.8683 29.3996 64.6339 29.634C64.3995 29.8684 64.0815 30.0001 63.75 30.0001H58.75C58.4185 30.0001 58.1005 29.8684 57.8661 29.634C57.6317 29.3996 57.5 29.0816 57.5 28.7501C57.5 28.4186 57.6317 28.1007 57.8661 27.8662C58.1005 27.6318 58.4185 27.5001 58.75 27.5001H63.75C64.0815 27.5001 64.3995 27.6318 64.6339 27.8662C64.8683 28.1007 65 28.4186 65 28.7501ZM65 32.5001C65 32.8316 64.8683 33.1496 64.6339 33.384C64.3995 33.6184 64.0815 33.7501 63.75 33.7501H58.75C58.4185 33.7501 58.1005 33.6184 57.8661 33.384C57.6317 33.1496 57.5 32.8316 57.5 32.5001C57.5 32.1686 57.6317 31.8507 57.8661 31.6162C58.1005 31.3818 58.4185 31.2501 58.75 31.2501H63.75C64.0815 31.2501 64.3995 31.3818 64.6339 31.6162C64.8683 31.8507 65 32.1686 65 32.5001Z" fill="#8CC842"/>
</svg>
