<svg width="22" height="22" viewBox="0 0 22 22" fill="none" xmlns="http://www.w3.org/2000/svg">
<path d="M14 9.5C14 10.2956 13.6839 11.0587 13.1213 11.6213C12.5587 12.1839 11.7956 12.5 11 12.5C10.2044 12.5 9.44129 12.1839 8.87868 11.6213C8.31607 11.0587 8 10.2956 8 9.5C8 8.70435 8.31607 7.94129 8.87868 7.37868C9.44129 6.81607 10.2044 6.5 11 6.5C11.7956 6.5 12.5587 6.81607 13.1213 7.37868C13.6839 7.94129 14 8.70435 14 9.5Z" stroke="#007C0C" stroke-width="1.5" stroke-linecap="round" stroke-linejoin="round"/>
<path d="M14 9.5C14 10.2956 13.6839 11.0587 13.1213 11.6213C12.5587 12.1839 11.7956 12.5 11 12.5C10.2044 12.5 9.44129 12.1839 8.87868 11.6213C8.31607 11.0587 8 10.2956 8 9.5C8 8.70435 8.31607 7.94129 8.87868 7.37868C9.44129 6.81607 10.2044 6.5 11 6.5C11.7956 6.5 12.5587 6.81607 13.1213 7.37868C13.6839 7.94129 14 8.70435 14 9.5Z" stroke="black" stroke-opacity="0.2" stroke-width="1.5" stroke-linecap="round" stroke-linejoin="round"/>
<path d="M18.5 9.5C18.5 16.642 11 20.75 11 20.75C11 20.75 3.5 16.642 3.5 9.5C3.5 7.51088 4.29018 5.60322 5.6967 4.1967C7.10322 2.79018 9.01088 2 11 2C12.9891 2 14.8968 2.79018 16.3033 4.1967C17.7098 5.60322 18.5 7.51088 18.5 9.5Z" stroke="#007C0C" stroke-width="1.5" stroke-linecap="round" stroke-linejoin="round"/>
<path d="M18.5 9.5C18.5 16.642 11 20.75 11 20.75C11 20.75 3.5 16.642 3.5 9.5C3.5 7.51088 4.29018 5.60322 5.6967 4.1967C7.10322 2.79018 9.01088 2 11 2C12.9891 2 14.8968 2.79018 16.3033 4.1967C17.7098 5.60322 18.5 7.51088 18.5 9.5Z" stroke="black" stroke-opacity="0.2" stroke-width="1.5" stroke-linecap="round" stroke-linejoin="round"/>
</svg>
