<svg width="22" height="22" viewBox="0 0 22 22" fill="none" xmlns="http://www.w3.org/2000/svg">
<g clip-path="url(#clip0_1728_16613)">
<path fill-rule="evenodd" clip-rule="evenodd" d="M10.9991 0.40332C8.1887 0.40332 5.49336 1.51977 3.50607 3.50705C1.51879 5.49434 0.402344 8.18967 0.402344 11.0001C0.402344 13.8106 1.51879 16.5059 3.50607 18.4932C5.49336 20.4805 8.1887 21.5969 10.9991 21.5969C13.8096 21.5969 16.5049 20.4805 18.4922 18.4932C20.4795 16.5059 21.5959 13.8106 21.5959 11.0001C21.5959 8.18967 20.4795 5.49434 18.4922 3.50705C16.5049 1.51977 13.8096 0.40332 10.9991 0.40332ZM1.92234 11.0001C1.92234 8.5928 2.87865 6.28408 4.58088 4.58185C6.28311 2.87962 8.59183 1.92332 10.9991 1.92332C13.4065 1.92332 15.7152 2.87962 17.4174 4.58185C19.1196 6.28408 20.0759 8.5928 20.0759 11.0001C20.0759 13.4074 19.1196 15.7162 17.4174 17.4184C15.7152 19.1206 13.4065 20.0769 10.9991 20.0769C8.59183 20.0769 6.28311 19.1206 4.58088 17.4184C2.87865 15.7162 1.92234 13.4074 1.92234 11.0001ZM11.7991 6.20012C11.7991 5.98795 11.7149 5.78446 11.5648 5.63444C11.4148 5.48441 11.2113 5.40012 10.9991 5.40012C10.787 5.40012 10.5835 5.48441 10.4335 5.63444C10.2834 5.78446 10.1991 5.98795 10.1991 6.20012V11.0001C10.199 11.1052 10.2195 11.2094 10.2596 11.3066C10.2997 11.4038 10.3585 11.4921 10.4327 11.5665L13.6327 14.7665C13.783 14.9167 13.9867 15.0011 14.1991 15.0011C14.4116 15.0011 14.6153 14.9167 14.7655 14.7665C14.9158 14.6163 15.0002 14.4126 15.0002 14.2001C15.0002 13.9877 14.9158 13.7839 14.7655 13.6337L11.7991 10.6689V6.20012Z" fill="#007C0C"/>
<path fill-rule="evenodd" clip-rule="evenodd" d="M10.9991 0.40332C8.1887 0.40332 5.49336 1.51977 3.50607 3.50705C1.51879 5.49434 0.402344 8.18967 0.402344 11.0001C0.402344 13.8106 1.51879 16.5059 3.50607 18.4932C5.49336 20.4805 8.1887 21.5969 10.9991 21.5969C13.8096 21.5969 16.5049 20.4805 18.4922 18.4932C20.4795 16.5059 21.5959 13.8106 21.5959 11.0001C21.5959 8.18967 20.4795 5.49434 18.4922 3.50705C16.5049 1.51977 13.8096 0.40332 10.9991 0.40332ZM1.92234 11.0001C1.92234 8.5928 2.87865 6.28408 4.58088 4.58185C6.28311 2.87962 8.59183 1.92332 10.9991 1.92332C13.4065 1.92332 15.7152 2.87962 17.4174 4.58185C19.1196 6.28408 20.0759 8.5928 20.0759 11.0001C20.0759 13.4074 19.1196 15.7162 17.4174 17.4184C15.7152 19.1206 13.4065 20.0769 10.9991 20.0769C8.59183 20.0769 6.28311 19.1206 4.58088 17.4184C2.87865 15.7162 1.92234 13.4074 1.92234 11.0001ZM11.7991 6.20012C11.7991 5.98795 11.7149 5.78446 11.5648 5.63444C11.4148 5.48441 11.2113 5.40012 10.9991 5.40012C10.787 5.40012 10.5835 5.48441 10.4335 5.63444C10.2834 5.78446 10.1991 5.98795 10.1991 6.20012V11.0001C10.199 11.1052 10.2195 11.2094 10.2596 11.3066C10.2997 11.4038 10.3585 11.4921 10.4327 11.5665L13.6327 14.7665C13.783 14.9167 13.9867 15.0011 14.1991 15.0011C14.4116 15.0011 14.6153 14.9167 14.7655 14.7665C14.9158 14.6163 15.0002 14.4126 15.0002 14.2001C15.0002 13.9877 14.9158 13.7839 14.7655 13.6337L11.7991 10.6689V6.20012Z" fill="black" fill-opacity="0.2"/>
</g>
<defs>
<clipPath id="clip0_1728_16613">
<rect width="22" height="22" fill="white"/>
</clipPath>
</defs>
</svg>
