<svg width="22" height="22" viewBox="0 0 22 22" fill="none" xmlns="http://www.w3.org/2000/svg">
<g clip-path="url(#clip0_1731_15968)">
<path d="M11.0029 1C12.5135 1.00087 14.0042 1.34375 15.3633 2.00292C16.7224 2.66208 17.9145 3.6204 18.8501 4.80596C19.7858 5.99152 20.4407 7.37354 20.7657 8.8483C21.0907 10.3231 21.0774 11.8523 20.7268 13.3211C20.3762 14.79 19.6973 16.1604 18.7412 17.3296C17.785 18.4987 16.5764 19.4361 15.2061 20.0715C13.8357 20.707 12.3392 21.0239 10.8289 20.9985C9.31852 20.9731 7.83352 20.606 6.48534 19.9249L6.33404 19.8436L1.77647 20.9811C1.68876 21.0032 1.59731 21.0059 1.50843 20.9892C1.41954 20.9725 1.33535 20.9367 1.26165 20.8843C1.18795 20.8319 1.1265 20.7641 1.08154 20.6857C1.03659 20.6072 1.00919 20.52 1.00125 20.4299V20.3274L1.01876 20.2236L2.15658 15.6687L2.07781 15.5187C1.50705 14.3921 1.15491 13.1676 1.04001 11.9099L1.00875 11.4324L1 10.9999C1 8.34779 2.05387 5.80427 3.92978 3.92892C5.80569 2.05356 8.34996 1 11.0029 1ZM11.0029 2.24999C9.47553 2.24975 7.97469 2.64907 6.64951 3.40829C5.32434 4.1675 4.22096 5.26018 3.44904 6.57773C2.67711 7.89528 2.2635 9.39184 2.24932 10.9187C2.23514 12.4455 2.62087 13.9495 3.36818 15.2812C3.4262 15.3847 3.45353 15.5027 3.44696 15.6212L3.42945 15.7387L2.48418 19.5149L6.26527 18.5724C6.34213 18.5534 6.4219 18.5491 6.50034 18.5599L6.61412 18.5861L6.7229 18.6349C7.88992 19.288 9.19114 19.6651 10.5266 19.7372C11.8621 19.8092 13.1964 19.5744 14.427 19.0506C15.6575 18.5269 16.7517 17.7281 17.6253 16.7158C18.499 15.7035 19.129 14.5044 19.4669 13.2107C19.8049 11.9171 19.8417 10.5632 19.5747 9.25306C19.3077 7.94292 18.7439 6.71139 17.9266 5.65302C17.1093 4.59465 16.0603 3.7376 14.8601 3.14769C13.6598 2.55777 12.3403 2.25068 11.0029 2.24999ZM11.6281 12.2499C11.7843 12.2496 11.935 12.3078 12.0504 12.4131C12.1659 12.5183 12.2377 12.6629 12.2518 12.8185C12.266 12.974 12.2213 13.1292 12.1267 13.2535C12.0321 13.3777 11.8943 13.4621 11.7406 13.4899L11.6281 13.4999H7.87699C7.72076 13.5002 7.57009 13.442 7.45464 13.3368C7.33919 13.2316 7.26733 13.0869 7.25321 12.9314C7.2391 12.7759 7.28375 12.6207 7.37837 12.4964C7.47299 12.3721 7.61073 12.2878 7.76446 12.2599L7.87699 12.2499H11.6281ZM14.1288 8.49996C14.285 8.49967 14.4357 8.55787 14.5511 8.66309C14.6666 8.76831 14.7385 8.91294 14.7526 9.06848C14.7667 9.22402 14.722 9.37921 14.6274 9.50349C14.5328 9.62777 14.3951 9.71212 14.2413 9.73995L14.1288 9.74995H7.87699C7.72076 9.75024 7.57009 9.69204 7.45464 9.58681C7.33919 9.48159 7.26733 9.33697 7.25321 9.18143C7.2391 9.02588 7.28375 8.87069 7.37837 8.74641C7.47299 8.62214 7.61073 8.53778 7.76446 8.50996L7.87699 8.49996H14.1288Z" fill="#007C0C"/>
<path d="M11.0029 1C12.5135 1.00087 14.0042 1.34375 15.3633 2.00292C16.7224 2.66208 17.9145 3.6204 18.8501 4.80596C19.7858 5.99152 20.4407 7.37354 20.7657 8.8483C21.0907 10.3231 21.0774 11.8523 20.7268 13.3211C20.3762 14.79 19.6973 16.1604 18.7412 17.3296C17.785 18.4987 16.5764 19.4361 15.2061 20.0715C13.8357 20.707 12.3392 21.0239 10.8289 20.9985C9.31852 20.9731 7.83352 20.606 6.48534 19.9249L6.33404 19.8436L1.77647 20.9811C1.68876 21.0032 1.59731 21.0059 1.50843 20.9892C1.41954 20.9725 1.33535 20.9367 1.26165 20.8843C1.18795 20.8319 1.1265 20.7641 1.08154 20.6857C1.03659 20.6072 1.00919 20.52 1.00125 20.4299V20.3274L1.01876 20.2236L2.15658 15.6687L2.07781 15.5187C1.50705 14.3921 1.15491 13.1676 1.04001 11.9099L1.00875 11.4324L1 10.9999C1 8.34779 2.05387 5.80427 3.92978 3.92892C5.80569 2.05356 8.34996 1 11.0029 1ZM11.0029 2.24999C9.47553 2.24975 7.97469 2.64907 6.64951 3.40829C5.32434 4.1675 4.22096 5.26018 3.44904 6.57773C2.67711 7.89528 2.2635 9.39184 2.24932 10.9187C2.23514 12.4455 2.62087 13.9495 3.36818 15.2812C3.4262 15.3847 3.45353 15.5027 3.44696 15.6212L3.42945 15.7387L2.48418 19.5149L6.26527 18.5724C6.34213 18.5534 6.4219 18.5491 6.50034 18.5599L6.61412 18.5861L6.7229 18.6349C7.88992 19.288 9.19114 19.6651 10.5266 19.7372C11.8621 19.8092 13.1964 19.5744 14.427 19.0506C15.6575 18.5269 16.7517 17.7281 17.6253 16.7158C18.499 15.7035 19.129 14.5044 19.4669 13.2107C19.8049 11.9171 19.8417 10.5632 19.5747 9.25306C19.3077 7.94292 18.7439 6.71139 17.9266 5.65302C17.1093 4.59465 16.0603 3.7376 14.8601 3.14769C13.6598 2.55777 12.3403 2.25068 11.0029 2.24999ZM11.6281 12.2499C11.7843 12.2496 11.935 12.3078 12.0504 12.4131C12.1659 12.5183 12.2377 12.6629 12.2518 12.8185C12.266 12.974 12.2213 13.1292 12.1267 13.2535C12.0321 13.3777 11.8943 13.4621 11.7406 13.4899L11.6281 13.4999H7.87699C7.72076 13.5002 7.57009 13.442 7.45464 13.3368C7.33919 13.2316 7.26733 13.0869 7.25321 12.9314C7.2391 12.7759 7.28375 12.6207 7.37837 12.4964C7.47299 12.3721 7.61073 12.2878 7.76446 12.2599L7.87699 12.2499H11.6281ZM14.1288 8.49996C14.285 8.49967 14.4357 8.55787 14.5511 8.66309C14.6666 8.76831 14.7385 8.91294 14.7526 9.06848C14.7667 9.22402 14.722 9.37921 14.6274 9.50349C14.5328 9.62777 14.3951 9.71212 14.2413 9.73995L14.1288 9.74995H7.87699C7.72076 9.75024 7.57009 9.69204 7.45464 9.58681C7.33919 9.48159 7.26733 9.33697 7.25321 9.18143C7.2391 9.02588 7.28375 8.87069 7.37837 8.74641C7.47299 8.62214 7.61073 8.53778 7.76446 8.50996L7.87699 8.49996H14.1288Z" fill="black" fill-opacity="0.2"/>
<path d="M11.0029 1C12.5135 1.00087 14.0042 1.34375 15.3633 2.00292C16.7224 2.66208 17.9145 3.6204 18.8501 4.80596C19.7858 5.99152 20.4407 7.37354 20.7657 8.8483C21.0907 10.3231 21.0774 11.8523 20.7268 13.3211C20.3762 14.79 19.6973 16.1604 18.7412 17.3296C17.785 18.4987 16.5764 19.4361 15.2061 20.0715C13.8357 20.707 12.3392 21.0239 10.8289 20.9985C9.31852 20.9731 7.83352 20.606 6.48534 19.9249L6.33404 19.8436L1.77647 20.9811C1.68876 21.0032 1.59731 21.0059 1.50843 20.9892C1.41954 20.9725 1.33535 20.9367 1.26165 20.8843C1.18795 20.8319 1.1265 20.7641 1.08154 20.6857C1.03659 20.6072 1.00919 20.52 1.00125 20.4299V20.3274L1.01876 20.2236L2.15658 15.6687L2.07781 15.5187C1.50705 14.3921 1.15491 13.1676 1.04001 11.9099L1.00875 11.4324L1 10.9999C1 8.34779 2.05387 5.80427 3.92978 3.92892C5.80569 2.05356 8.34996 1 11.0029 1ZM11.0029 2.24999C9.47553 2.24975 7.97469 2.64907 6.64951 3.40829C5.32434 4.1675 4.22096 5.26018 3.44904 6.57773C2.67711 7.89528 2.2635 9.39184 2.24932 10.9187C2.23514 12.4455 2.62087 13.9495 3.36818 15.2812C3.4262 15.3847 3.45353 15.5027 3.44696 15.6212L3.42945 15.7387L2.48418 19.5149L6.26527 18.5724C6.34213 18.5534 6.4219 18.5491 6.50034 18.5599L6.61412 18.5861L6.7229 18.6349C7.88992 19.288 9.19114 19.6651 10.5266 19.7372C11.8621 19.8092 13.1964 19.5744 14.427 19.0506C15.6575 18.5269 16.7517 17.7281 17.6253 16.7158C18.499 15.7035 19.129 14.5044 19.4669 13.2107C19.8049 11.9171 19.8417 10.5632 19.5747 9.25306C19.3077 7.94292 18.7439 6.71139 17.9266 5.65302C17.1093 4.59465 16.0603 3.7376 14.8601 3.14769C13.6598 2.55777 12.3403 2.25068 11.0029 2.24999ZM11.6281 12.2499C11.7843 12.2496 11.935 12.3078 12.0504 12.4131C12.1659 12.5183 12.2377 12.6629 12.2518 12.8185C12.266 12.974 12.2213 13.1292 12.1267 13.2535C12.0321 13.3777 11.8943 13.4621 11.7406 13.4899L11.6281 13.4999H7.87699C7.72076 13.5002 7.57009 13.442 7.45464 13.3368C7.33919 13.2316 7.26733 13.0869 7.25321 12.9314C7.2391 12.7759 7.28375 12.6207 7.37837 12.4964C7.47299 12.3721 7.61073 12.2878 7.76446 12.2599L7.87699 12.2499H11.6281ZM14.1288 8.49996C14.285 8.49967 14.4357 8.55787 14.5511 8.66309C14.6666 8.76831 14.7385 8.91294 14.7526 9.06848C14.7667 9.22402 14.722 9.37921 14.6274 9.50349C14.5328 9.62777 14.3951 9.71212 14.2413 9.73995L14.1288 9.74995H7.87699C7.72076 9.75024 7.57009 9.69204 7.45464 9.58681C7.33919 9.48159 7.26733 9.33697 7.25321 9.18143C7.2391 9.02588 7.28375 8.87069 7.37837 8.74641C7.47299 8.62214 7.61073 8.53778 7.76446 8.50996L7.87699 8.49996H14.1288Z" stroke="#007C0C" stroke-width="0.2"/>
<path d="M11.0029 1C12.5135 1.00087 14.0042 1.34375 15.3633 2.00292C16.7224 2.66208 17.9145 3.6204 18.8501 4.80596C19.7858 5.99152 20.4407 7.37354 20.7657 8.8483C21.0907 10.3231 21.0774 11.8523 20.7268 13.3211C20.3762 14.79 19.6973 16.1604 18.7412 17.3296C17.785 18.4987 16.5764 19.4361 15.2061 20.0715C13.8357 20.707 12.3392 21.0239 10.8289 20.9985C9.31852 20.9731 7.83352 20.606 6.48534 19.9249L6.33404 19.8436L1.77647 20.9811C1.68876 21.0032 1.59731 21.0059 1.50843 20.9892C1.41954 20.9725 1.33535 20.9367 1.26165 20.8843C1.18795 20.8319 1.1265 20.7641 1.08154 20.6857C1.03659 20.6072 1.00919 20.52 1.00125 20.4299V20.3274L1.01876 20.2236L2.15658 15.6687L2.07781 15.5187C1.50705 14.3921 1.15491 13.1676 1.04001 11.9099L1.00875 11.4324L1 10.9999C1 8.34779 2.05387 5.80427 3.92978 3.92892C5.80569 2.05356 8.34996 1 11.0029 1ZM11.0029 2.24999C9.47553 2.24975 7.97469 2.64907 6.64951 3.40829C5.32434 4.1675 4.22096 5.26018 3.44904 6.57773C2.67711 7.89528 2.2635 9.39184 2.24932 10.9187C2.23514 12.4455 2.62087 13.9495 3.36818 15.2812C3.4262 15.3847 3.45353 15.5027 3.44696 15.6212L3.42945 15.7387L2.48418 19.5149L6.26527 18.5724C6.34213 18.5534 6.4219 18.5491 6.50034 18.5599L6.61412 18.5861L6.7229 18.6349C7.88992 19.288 9.19114 19.6651 10.5266 19.7372C11.8621 19.8092 13.1964 19.5744 14.427 19.0506C15.6575 18.5269 16.7517 17.7281 17.6253 16.7158C18.499 15.7035 19.129 14.5044 19.4669 13.2107C19.8049 11.9171 19.8417 10.5632 19.5747 9.25306C19.3077 7.94292 18.7439 6.71139 17.9266 5.65302C17.1093 4.59465 16.0603 3.7376 14.8601 3.14769C13.6598 2.55777 12.3403 2.25068 11.0029 2.24999ZM11.6281 12.2499C11.7843 12.2496 11.935 12.3078 12.0504 12.4131C12.1659 12.5183 12.2377 12.6629 12.2518 12.8185C12.266 12.974 12.2213 13.1292 12.1267 13.2535C12.0321 13.3777 11.8943 13.4621 11.7406 13.4899L11.6281 13.4999H7.87699C7.72076 13.5002 7.57009 13.442 7.45464 13.3368C7.33919 13.2316 7.26733 13.0869 7.25321 12.9314C7.2391 12.7759 7.28375 12.6207 7.37837 12.4964C7.47299 12.3721 7.61073 12.2878 7.76446 12.2599L7.87699 12.2499H11.6281ZM14.1288 8.49996C14.285 8.49967 14.4357 8.55787 14.5511 8.66309C14.6666 8.76831 14.7385 8.91294 14.7526 9.06848C14.7667 9.22402 14.722 9.37921 14.6274 9.50349C14.5328 9.62777 14.3951 9.71212 14.2413 9.73995L14.1288 9.74995H7.87699C7.72076 9.75024 7.57009 9.69204 7.45464 9.58681C7.33919 9.48159 7.26733 9.33697 7.25321 9.18143C7.2391 9.02588 7.28375 8.87069 7.37837 8.74641C7.47299 8.62214 7.61073 8.53778 7.76446 8.50996L7.87699 8.49996H14.1288Z" stroke="black" stroke-opacity="0.2" stroke-width="0.2"/>
</g>
<defs>
<clipPath id="clip0_1731_15968">
<rect width="22" height="22" fill="white"/>
</clipPath>
</defs>
</svg>
