<svg width="24" height="24" viewBox="0 0 24 24" fill="none" xmlns="http://www.w3.org/2000/svg">
<path fill-rule="evenodd" clip-rule="evenodd" d="M12 0C18.6274 0 24 5.37258 24 12C24 18.6274 18.6274 24 12 24C5.37258 24 0 18.6274 0 12C0 5.37258 5.37258 0 12 0Z" fill="#7F4DA0"/>
<path fill-rule="evenodd" clip-rule="evenodd" d="M15.2018 10.4792C15.1435 10.005 14.9977 9.63273 14.7389 9.30295C14.4028 8.87832 13.9734 8.62404 13.3375 8.4732C12.9232 8.37266 12.7557 8.3842 12.6059 8.5211C12.4663 8.64935 12.439 8.90647 12.5457 9.07298C12.6207 9.19383 12.7073 9.23712 12.948 9.28437C13.2685 9.34335 13.4901 9.41989 13.6916 9.53511C14.1193 9.78208 14.3185 10.1686 14.3398 10.7942C14.3498 11.088 14.3752 11.1783 14.4778 11.2825C14.6679 11.473 15.0064 11.4359 15.15 11.208C15.2026 11.1221 15.2107 11.0847 15.2162 10.8852C15.2199 10.7617 15.2146 10.5779 15.2018 10.4792Z" fill="white"/>
<path fill-rule="evenodd" clip-rule="evenodd" d="M16.8726 11.0139C16.7882 9.56117 16.22 8.39242 15.2031 7.57011C14.6301 7.10805 13.9376 6.79033 13.1785 6.63581C12.9004 6.58055 12.3884 6.53576 12.3006 6.56138C12.2177 6.58511 12.1004 6.67485 12.0482 6.75601C11.9929 6.84402 11.9805 7.04053 12.0276 7.15419C12.1037 7.3442 12.2452 7.41133 12.6416 7.44601C13.2527 7.49947 13.8829 7.71415 14.3591 8.03198C14.9028 8.39384 15.335 8.88879 15.6145 9.4704C15.8561 9.97012 16.0047 10.6903 16.0005 11.3352C15.9992 11.5684 16.0352 11.7001 16.129 11.7964C16.2706 11.9445 16.477 11.9769 16.6591 11.8785C16.861 11.7724 16.9082 11.586 16.8726 11.0139Z" fill="white"/>
<path fill-rule="evenodd" clip-rule="evenodd" d="M18.7295 16.6082C18.7011 16.5252 18.6348 16.3971 18.5874 16.3235C18.289 15.8729 16.6856 14.6181 15.8851 14.2078C15.428 13.973 15.0893 13.8947 14.8383 13.9682C14.5683 14.0441 14.4262 14.1698 13.9738 14.732C13.7915 14.9573 13.6044 15.1684 13.5547 15.2016C13.4315 15.287 13.1899 15.3558 13.0194 15.3558C12.6239 15.3534 11.9063 15.0973 11.3545 14.7604C10.9258 14.4996 10.3764 14.0323 9.95478 13.5697C9.4574 13.0266 9.11877 12.5474 8.85112 12.0066C8.50536 11.3117 8.41773 10.8871 8.56218 10.5763C8.59771 10.4981 8.64509 10.4151 8.66637 10.389C8.6877 10.3653 8.91034 10.1826 9.15662 9.98337C9.63979 9.59914 9.71793 9.51137 9.80793 9.24809C9.9216 8.91362 9.89083 8.57207 9.71557 8.22816C9.58056 7.96723 9.22769 7.39798 8.97192 7.03033C8.63324 6.54648 7.79011 5.51232 7.62193 5.37233C7.31879 5.12568 6.93042 5.08296 6.5017 5.24902C6.04939 5.42455 5.2015 6.10766 4.83913 6.58442C4.5123 7.01611 4.38682 7.32207 4.36785 7.7253C4.35129 8.05736 4.3797 8.19493 4.55496 8.61952C5.92623 11.9497 7.97245 14.6086 10.7837 16.7197C12.2521 17.8226 13.7749 18.6623 15.3546 19.2363C16.2759 19.5707 16.6761 19.5873 17.1474 19.3122C17.3463 19.1936 17.839 18.6884 18.1137 18.3207C18.5684 17.7088 18.7366 17.4265 18.7839 17.2012C18.8171 17.047 18.7911 16.779 18.7295 16.6082Z" fill="white"/>
<path fill-rule="evenodd" clip-rule="evenodd" d="M18.5773 11.3475C18.547 10.5258 18.4087 9.85177 18.1202 9.1003C17.8354 8.36111 17.5471 7.87875 17.0027 7.22634C16.488 6.61463 16.0883 6.26535 15.4543 5.87656C14.5697 5.33486 13.4932 4.97639 12.2868 4.82563C11.8754 4.77294 11.7823 4.7767 11.6561 4.86092C11.4115 5.02047 11.4148 5.4184 11.6601 5.57555C11.7413 5.62554 11.8134 5.64376 12.1425 5.68683C12.6477 5.75485 12.9725 5.81894 13.358 5.92411C14.8695 6.3373 16.0319 7.18188 16.809 8.43561C17.4593 9.4806 17.7292 10.5257 17.6909 11.8604C17.6776 12.3116 17.6872 12.3911 17.7562 12.4995C17.8883 12.7015 18.2367 12.7415 18.4154 12.5738C18.5266 12.4716 18.5475 12.3949 18.5694 12.0087C18.5799 11.8072 18.5822 11.5098 18.5773 11.3475Z" fill="white"/>
</svg>
