<svg width="24" height="24" viewBox="0 0 24 24" fill="none" xmlns="http://www.w3.org/2000/svg">
<path fill-rule="evenodd" clip-rule="evenodd" d="M0 12C0 5.37258 5.37258 0 12 0C18.6274 0 24 5.37258 24 12C24 18.6274 18.6274 24 12 24C5.37258 24 0 18.6274 0 12Z" fill="#F68634"/>
<path fill-rule="evenodd" clip-rule="evenodd" d="M13.3118 9.09677C13.3118 8.38974 12.716 7.81481 11.9836 7.81481C11.2517 7.81481 10.6553 8.38974 10.6553 9.09677C10.6553 9.80325 11.2517 10.3785 11.9836 10.3785C12.716 10.3785 13.3118 9.80325 13.3118 9.09677ZM15.1877 9.09679C15.1877 10.804 13.7493 12.1927 11.9798 12.1927C10.2106 12.1927 8.7718 10.804 8.7718 9.09679C8.7718 7.38905 10.2106 6 11.9798 6C13.7493 6 15.1877 7.38905 15.1877 9.09679ZM15.1519 13.9755C14.5719 14.3272 13.9421 14.5766 13.2891 14.7201L15.0824 16.4514C15.4498 16.8053 15.4498 17.38 15.0824 17.7343C14.7154 18.0886 14.1206 18.0886 13.754 17.7343L11.9908 16.0331L10.2291 17.7343C10.0454 17.9112 9.80473 17.9998 9.56404 17.9998C9.32372 17.9998 9.08341 17.9112 8.89972 17.7343C8.53272 17.38 8.53272 16.8057 8.89933 16.4514L10.6929 14.7201C10.0399 14.5766 9.4101 14.3268 8.83004 13.9755C8.39106 13.7083 8.2592 13.1486 8.53579 12.7245C8.81161 12.2998 9.39167 12.172 9.83141 12.4392C11.1447 13.2366 12.8365 13.2368 14.1505 12.4392C14.5903 12.172 15.1701 12.2998 15.4465 12.7245C15.7231 13.1482 15.5909 13.7083 15.1519 13.9755Z" fill="white"/>
</svg>
