<svg width="30" height="30" viewBox="0 0 30 30" fill="none" xmlns="http://www.w3.org/2000/svg">
<path fill-rule="evenodd" clip-rule="evenodd" d="M15 30C23.2843 30 30 23.2843 30 15C30 6.71573 23.2843 0 15 0C6.71573 0 0 6.71573 0 15C0 23.2843 6.71573 30 15 30Z" fill="#00AEF3"/>
<path fill-rule="evenodd" clip-rule="evenodd" d="M22.54 16.6985C22.6557 16.1773 22.7159 15.6376 22.7159 15.083C22.7159 10.9284 19.3001 7.55921 15.0847 7.55921C14.6406 7.55921 14.2051 7.59723 13.7799 7.66956C13.0978 7.24575 12.2907 7 11.4262 7C8.98119 7 7 8.95305 7 11.3642C7 12.1692 7.22201 12.9222 7.60771 13.5714C7.50706 14.0592 7.45343 14.5655 7.45343 15.083C7.45343 19.2395 10.8702 22.6077 15.0847 22.6077C15.5626 22.6077 16.0292 22.5641 16.4826 22.4816C17.1063 22.8117 17.8175 23 18.5748 23C21.0188 23 23 21.046 23 18.6367C23 17.9402 22.8344 17.2827 22.54 16.6985Z" fill="white"/>
<path fill-rule="evenodd" clip-rule="evenodd" d="M18.998 18.6794C18.6452 19.1727 18.124 19.5622 17.4467 19.8386C16.7778 20.1131 15.9763 20.2531 15.0629 20.2531C13.9669 20.2531 13.0478 20.063 12.3301 19.6874C11.8174 19.4148 11.395 19.0457 11.0742 18.5876C10.7496 18.1276 10.5859 17.6704 10.5859 17.228C10.5859 16.9535 10.6932 16.7143 10.9039 16.5186C11.1127 16.3238 11.3809 16.2265 11.7007 16.2265C11.9622 16.2265 12.1889 16.3034 12.3724 16.4564C12.5483 16.6039 12.6988 16.8218 12.8202 17.101C12.9556 17.407 13.1024 17.6648 13.2576 17.8661C13.4081 18.0627 13.6236 18.2268 13.8983 18.3557C14.1748 18.4837 14.5483 18.5505 15.0064 18.5505C15.6377 18.5505 16.1551 18.4169 16.5436 18.1554C16.9246 17.9004 17.109 17.5925 17.109 17.216C17.109 16.9201 17.0121 16.6864 16.8145 16.5028C16.6057 16.3118 16.3319 16.1634 15.9999 16.0595C15.6527 15.9538 15.1824 15.8379 14.6 15.7173C13.807 15.5504 13.1344 15.3529 12.6 15.1275C12.0525 14.8985 11.6113 14.5804 11.2887 14.1825C10.9613 13.7773 10.7948 13.27 10.7948 12.6737C10.7948 12.1061 10.9688 11.5933 11.3131 11.1519C11.6537 10.7132 12.1523 10.3701 12.7948 10.1373C13.4279 9.9064 14.1805 9.78955 15.0337 9.78955C15.7148 9.78955 16.3141 9.86745 16.8145 10.0214C17.3178 10.1753 17.7412 10.3831 18.0742 10.64C18.41 10.8996 18.6603 11.175 18.8164 11.4625C18.9745 11.7528 19.0554 12.0412 19.0554 12.3204C19.0554 12.5893 18.95 12.8341 18.7421 13.0465C18.5333 13.2616 18.2689 13.3701 17.9585 13.3701C17.6762 13.3701 17.4542 13.3015 17.3018 13.168C17.1588 13.0428 17.0102 12.848 16.8456 12.5698C16.6556 12.2137 16.4251 11.9327 16.1607 11.7343C15.9039 11.5414 15.4759 11.4449 14.886 11.4449C14.3404 11.4449 13.8945 11.5525 13.5643 11.7667C13.2463 11.9717 13.0911 12.2081 13.0911 12.4882C13.0911 12.6588 13.141 12.8026 13.2445 12.925C13.3517 13.0567 13.505 13.1698 13.6988 13.2663C13.8992 13.3655 14.1062 13.4453 14.3131 13.5009C14.5248 13.5593 14.8804 13.6456 15.3686 13.7569C15.9867 13.8867 16.554 14.0341 17.0554 14.1927C17.5643 14.3522 18.0027 14.5488 18.362 14.7798C18.727 15.0144 19.0159 15.3149 19.2219 15.6747C19.4279 16.0373 19.5323 16.4824 19.5323 17.0008C19.5323 17.6203 19.3517 18.1851 18.998 18.6794Z" fill="#00AEF3"/>
</svg>
