<svg width="30" height="30" viewBox="0 0 30 30" fill="none" xmlns="http://www.w3.org/2000/svg">
<path fill-rule="evenodd" clip-rule="evenodd" d="M0 15C0 6.71573 6.71573 0 15 0C23.2843 0 30 6.71573 30 15C30 23.2843 23.2843 30 15 30C6.71573 30 0 23.2843 0 15Z" fill="#168DE2"/>
<path fill-rule="evenodd" clip-rule="evenodd" d="M18.1097 14.9181C18.0072 12.9278 16.5302 11.7311 14.7462 11.7311H14.679C12.6203 11.7311 11.4785 13.3501 11.4785 15.189C11.4785 17.2484 12.86 18.5489 14.671 18.5489C16.6904 18.5489 18.0183 17.0698 18.1144 15.3203L18.1097 14.9181ZM14.6879 9.95052C16.0635 9.95052 17.3567 10.5584 18.3064 11.5103V11.5141C18.3064 11.0568 18.6139 10.7124 19.0411 10.7124L19.149 10.7117C19.8172 10.7117 19.9542 11.344 19.9542 11.5441L19.9575 18.651C19.9104 19.1158 20.4377 19.3559 20.7301 19.0578C21.8712 17.885 23.2363 13.0292 20.0207 10.2154C17.0236 7.59237 13.0025 8.02478 10.8639 9.49871C8.59046 11.0668 7.13569 14.5367 8.54883 17.7959C10.0892 21.3516 14.4973 22.4114 17.1171 21.3542C18.4436 20.8187 19.0565 22.6122 17.6786 23.1979C15.5968 24.0852 9.80253 23.9958 7.09572 19.3069C5.26697 16.1407 5.36442 10.5698 10.2146 7.68368C13.9251 5.47598 18.8169 6.08746 21.7666 9.16825C24.85 12.3886 24.6703 18.4189 21.6626 20.7648C20.3 21.8295 18.2761 20.7927 18.2892 19.2405L18.275 18.7328C17.3262 19.6745 16.0635 20.2238 14.6879 20.2238C11.9698 20.2238 9.57828 17.832 9.57828 15.1148C9.57828 12.3697 11.9698 9.95052 14.6879 9.95052Z" fill="white"/>
</svg>
