<svg width="50" height="50" viewBox="0 0 50 50" fill="none" xmlns="http://www.w3.org/2000/svg">
<path d="M25 30.1119C23.9873 30.1119 22.9987 29.9672 22.0342 29.6537C20.7803 29.2438 19.647 28.6169 18.6584 27.773C17.718 26.9531 16.9464 25.9645 16.3436 24.8553C15.7649 23.722 15.4273 22.5405 15.3067 21.2866C15.1862 19.9846 15.3308 18.7066 15.7408 17.4527C16.1507 16.1989 16.7776 15.0656 17.6215 14.077C18.4414 13.1366 19.43 12.365 20.5392 11.7621C21.6725 11.1834 22.854 10.8459 24.1078 10.7253C25.4099 10.6047 26.6879 10.7494 27.9418 11.1593C28.3758 11.304 28.641 11.7863 28.4963 12.2203C28.3517 12.6543 27.8694 12.9196 27.4354 12.7749C26.3985 12.4373 25.3376 12.3167 24.2766 12.4132C23.2398 12.5096 22.2512 12.799 21.3108 13.2812C20.3704 13.7635 19.5747 14.4145 18.8995 15.1861C18.2002 16.006 17.6698 16.9464 17.3563 17.9591C17.0187 18.9959 16.8982 20.0569 16.9946 21.1179C17.0911 22.1547 17.3804 23.1433 17.8627 24.0837C18.3449 25.0241 18.9718 25.8198 19.7676 26.495C20.5874 27.1942 21.5278 27.7247 22.5405 28.0382C23.5774 28.3758 24.6383 28.4963 25.6993 28.3999C26.7361 28.3034 27.7247 28.0141 28.6651 27.5318C29.6055 27.0496 30.4012 26.3985 31.0764 25.6269C31.7757 24.8071 32.3061 23.8667 32.6196 22.854C32.9572 21.8171 33.0778 20.7562 32.9813 19.6952C32.9331 19.2371 33.2707 18.8272 33.7529 18.7789C34.211 18.7307 34.621 19.0683 34.6692 19.5505C34.7898 20.8526 34.6451 22.1306 34.2352 23.3844C33.8252 24.6383 33.1983 25.7716 32.3544 26.7602C31.5345 27.7006 30.5459 28.4963 29.4367 29.075C28.3034 29.6537 27.0978 29.9913 25.8681 30.1119C25.5787 30.0878 25.2894 30.1119 25 30.1119Z" fill="#007C0C"/>
<path d="M25 30.1119C23.9873 30.1119 22.9987 29.9672 22.0342 29.6537C20.7803 29.2438 19.647 28.6169 18.6584 27.773C17.718 26.9531 16.9464 25.9645 16.3436 24.8553C15.7649 23.722 15.4273 22.5405 15.3067 21.2866C15.1862 19.9846 15.3308 18.7066 15.7408 17.4527C16.1507 16.1989 16.7776 15.0656 17.6215 14.077C18.4414 13.1366 19.43 12.365 20.5392 11.7621C21.6725 11.1834 22.854 10.8459 24.1078 10.7253C25.4099 10.6047 26.6879 10.7494 27.9418 11.1593C28.3758 11.304 28.641 11.7863 28.4963 12.2203C28.3517 12.6543 27.8694 12.9196 27.4354 12.7749C26.3985 12.4373 25.3376 12.3167 24.2766 12.4132C23.2398 12.5096 22.2512 12.799 21.3108 13.2812C20.3704 13.7635 19.5747 14.4145 18.8995 15.1861C18.2002 16.006 17.6698 16.9464 17.3563 17.9591C17.0187 18.9959 16.8982 20.0569 16.9946 21.1179C17.0911 22.1547 17.3804 23.1433 17.8627 24.0837C18.3449 25.0241 18.9718 25.8198 19.7676 26.495C20.5874 27.1942 21.5278 27.7247 22.5405 28.0382C23.5774 28.3758 24.6383 28.4963 25.6993 28.3999C26.7361 28.3034 27.7247 28.0141 28.6651 27.5318C29.6055 27.0496 30.4012 26.3985 31.0764 25.6269C31.7757 24.8071 32.3061 23.8667 32.6196 22.854C32.9572 21.8171 33.0778 20.7562 32.9813 19.6952C32.9331 19.2371 33.2707 18.8272 33.7529 18.7789C34.211 18.7307 34.621 19.0683 34.6692 19.5505C34.7898 20.8526 34.6451 22.1306 34.2352 23.3844C33.8252 24.6383 33.1983 25.7716 32.3544 26.7602C31.5345 27.7006 30.5459 28.4963 29.4367 29.075C28.3034 29.6537 27.0978 29.9913 25.8681 30.1119C25.5787 30.0878 25.2894 30.1119 25 30.1119Z" fill="black" fill-opacity="0.2"/>
<path d="M25 40.7697C23.2398 40.7697 21.8654 39.3712 20.6838 38.1415C19.9122 37.3457 19.1647 36.5741 18.4414 36.2848C17.6698 35.9713 16.5124 35.9713 15.4032 35.9713C13.6429 35.9954 11.8104 35.9954 10.6048 34.8139C9.39912 33.6083 9.42323 31.7998 9.44734 30.0155C9.44734 28.9063 9.47146 27.7489 9.13388 26.9773C8.84453 26.2539 8.07292 25.5064 7.27721 24.7348C6.04746 23.5292 4.64893 22.1789 4.64893 20.3945C4.64893 18.6343 6.04746 17.2599 7.27721 16.0784C8.07292 15.3068 8.84453 14.5593 9.13388 13.8359C9.44734 13.0643 9.44734 11.9069 9.44734 10.7977C9.42323 9.03748 9.42323 7.20492 10.6048 5.99928C11.8104 4.79365 13.6188 4.81776 15.4032 4.84188C16.5124 4.84188 17.6698 4.86599 18.4414 4.52841C19.1647 4.23906 19.9122 3.46745 20.6838 2.67174C21.8895 1.44199 23.2398 0.043457 25.0241 0.043457C26.7843 0.043457 28.1588 1.44199 29.3403 2.67174C30.1119 3.46745 30.8594 4.23906 31.5828 4.52841C32.3544 4.84188 33.5118 4.84188 34.621 4.84188C36.3812 4.81776 38.2137 4.81776 39.4194 5.99928C40.625 7.20492 40.6009 9.01336 40.5768 10.7977C40.5768 11.9069 40.5527 13.0643 40.8902 13.8359C41.1796 14.5593 41.9512 15.3068 42.7469 16.0784C43.9767 17.284 45.3752 18.6343 45.3752 20.4187C45.3752 22.1789 43.9767 23.5533 42.7469 24.7348C41.9512 25.5064 41.1796 26.2539 40.8902 26.9773C40.5768 27.7489 40.5768 28.9063 40.5768 30.0155C40.6009 31.7757 40.6009 33.6083 39.4194 34.8139C38.2137 36.0195 36.4053 35.9954 34.621 35.9713C33.5118 35.9713 32.3544 35.9472 31.5828 36.2848C30.8594 36.5741 30.1119 37.3457 29.3403 38.1415C28.1347 39.3471 26.7602 40.7697 25 40.7697ZM15.9819 34.2593C17.0669 34.2593 18.152 34.3075 19.0683 34.6933C20.1051 35.1274 21.0214 36.0437 21.8654 36.9358C22.8781 37.9727 23.9391 39.0577 24.9759 39.0577C26.0369 39.0577 27.0737 37.9727 28.0864 36.9358C28.9545 36.0437 29.8466 35.1274 30.8835 34.6933C31.9686 34.2352 33.2948 34.2593 34.5727 34.2593C36.0677 34.2834 37.4663 34.2834 38.1655 33.5842C38.8648 32.8849 38.8407 31.4864 38.8407 29.9914C38.8407 28.7134 38.8166 27.3872 39.2747 26.3021C39.7087 25.2653 40.625 24.349 41.5172 23.5051C42.554 22.4923 43.6391 21.4314 43.6391 20.3945C43.6391 19.3336 42.554 18.2967 41.5172 17.284C40.625 16.416 39.7087 15.5238 39.2747 14.4869C38.8166 13.4019 38.8407 12.0757 38.8407 10.7977C38.8648 9.30272 38.8648 7.90418 38.1655 7.20492C37.4663 6.50565 36.0677 6.52976 34.5727 6.52976C33.2948 6.52976 31.9686 6.55387 30.8835 6.09573C29.8466 5.66171 28.9304 4.74542 28.0864 3.85326C27.0737 2.81641 26.0369 1.73134 24.9759 1.73134C23.9149 1.73134 22.8781 2.81641 21.8654 3.85326C20.9973 4.74542 20.1051 5.66171 19.0683 6.09573C17.9832 6.55387 16.657 6.52976 15.3791 6.52976C13.8841 6.50565 12.4855 6.50565 11.7863 7.20492C11.087 7.90418 11.1111 9.30272 11.1111 10.7977C11.1111 12.0757 11.1352 13.4019 10.6771 14.4869C10.2431 15.5238 9.32678 16.4401 8.43461 17.284C7.39777 18.2967 6.3127 19.3336 6.3127 20.3945C6.3127 21.4555 7.39777 22.4923 8.43461 23.5051C9.32678 24.3731 10.2431 25.2653 10.6771 26.3021C11.1352 27.3872 11.1111 28.7134 11.1111 29.9914C11.087 31.4864 11.087 32.8849 11.7863 33.5842C12.4855 34.2834 13.8841 34.2593 15.3791 34.2593H15.9819Z" fill="#8CC842"/>
<path d="M33.9217 49.9566C33.7529 49.9566 33.56 49.9084 33.4153 49.836L25.1206 45.4475L16.8258 49.836C16.4882 50.0048 16.0783 50.0048 15.7649 49.8119C15.4273 49.619 15.2344 49.2573 15.2344 48.8715V39.5158C15.2344 39.0577 15.6202 38.6719 16.0783 38.6719C16.5365 38.6719 16.9223 39.0577 16.9223 39.5158V47.8588L25.1206 43.5185L33.3189 47.8588V39.5158C33.3189 39.0577 33.7047 38.6719 34.1628 38.6719C34.6209 38.6719 35.0068 39.0577 35.0068 39.5158V48.8715C35.0068 49.2573 34.8138 49.5949 34.4763 49.8119C34.3075 49.9084 34.1146 49.9566 33.9217 49.9566Z" fill="#8CC842"/>
<path d="M24.8312 23.7462L19.7676 18.6825C19.43 18.345 19.43 17.8145 19.7676 17.501C20.1052 17.1634 20.6356 17.1634 20.9491 17.501L24.8071 21.359L33.9699 12.2203C34.3075 11.8828 34.838 11.8828 35.1756 12.2203C35.5131 12.5579 35.5131 13.0884 35.1756 13.4019L24.8312 23.7462Z" fill="#007C0C"/>
<path d="M24.8312 23.7462L19.7676 18.6825C19.43 18.345 19.43 17.8145 19.7676 17.501C20.1052 17.1634 20.6356 17.1634 20.9491 17.501L24.8071 21.359L33.9699 12.2203C34.3075 11.8828 34.838 11.8828 35.1756 12.2203C35.5131 12.5579 35.5131 13.0884 35.1756 13.4019L24.8312 23.7462Z" fill="black" fill-opacity="0.2"/>
</svg>
