<svg width="50" height="50" viewBox="0 0 50 50" fill="none" xmlns="http://www.w3.org/2000/svg">
<path d="M46.0063 33.2945C44.8756 34.0821 43.5762 34.5941 42.2121 34.7894C40.8481 34.9848 39.4572 34.8581 38.1509 34.4195C38.0325 34.3774 37.9058 34.3644 37.7813 34.3817C37.6569 34.3989 37.5384 34.446 37.436 34.5188L33.9204 37.0117L34.8251 38.286L38.0149 36.0203C39.5058 36.4558 41.0751 36.5532 42.6083 36.3055C44.1416 36.0578 45.6004 35.4711 46.8782 34.5883C47.3386 34.2772 47.775 33.932 48.1837 33.5555L47.1243 32.407C46.7747 32.7307 46.4009 33.0274 46.0063 33.2945Z" fill="#8CC842"/>
<path d="M38.139 21.6352C37.0208 22.3496 36.1251 23.3629 35.5533 24.5604C34.9815 25.7578 34.7565 27.0914 34.9038 28.4102L24.9999 34.7586L15.0945 28.4141C15.245 27.0949 15.0211 25.76 14.4484 24.5621C13.8757 23.3643 12.9774 22.3518 11.8562 21.6406C10.3679 20.6148 8.55812 20.1635 6.76243 20.3703C5.91541 20.4532 5.09713 20.7221 4.36604 21.1578C3.63495 21.5935 3.00907 22.1853 2.53309 22.8908C2.05711 23.5963 1.74278 24.3983 1.61253 25.2393C1.48229 26.0804 1.53934 26.9398 1.77962 27.7563C2.26096 29.4978 3.3577 31.0057 4.86634 32C5.94655 32.7743 7.22315 33.2285 8.5497 33.3105C9.87625 33.3924 11.199 33.0988 12.3663 32.4633L20.0546 37.9219L12.7382 42.6133C12.3924 42.833 12.0942 43.1199 11.8613 43.4571C11.6283 43.7942 11.4655 44.1746 11.3823 44.5758C11.2991 44.977 11.2972 45.3908 11.3769 45.7927C11.4566 46.1946 11.6161 46.5765 11.846 46.9156C12.0751 47.254 12.3694 47.5433 12.7118 47.7663C13.0542 47.9894 13.4377 48.1418 13.8398 48.2146C14.2419 48.2874 14.6545 48.279 15.0534 48.1901C15.4522 48.1012 15.8293 47.9335 16.1624 47.6969L24.9999 41.4297L33.8374 47.7016C34.1709 47.9455 34.5503 48.1197 34.9527 48.2136C35.3551 48.3074 35.7723 48.3191 36.1794 48.2479C36.5864 48.1767 36.9749 48.0241 37.3215 47.7991C37.6681 47.5742 37.9658 47.2816 38.1967 46.9389C38.4275 46.5962 38.5868 46.2104 38.665 45.8046C38.7433 45.3989 38.7387 44.9815 38.6518 44.5775C38.5649 44.1736 38.3973 43.7913 38.1591 43.4537C37.9209 43.116 37.617 42.8299 37.2656 42.6125L29.9406 37.925L37.6343 32.4641C38.8015 33.0998 40.1242 33.3937 41.4507 33.312C42.7773 33.2304 44.0539 32.7764 45.1343 32.0023C48.3452 29.8352 49.3937 25.7461 47.4695 22.8867C45.5452 20.0273 41.357 19.468 38.139 21.6352ZM15.2577 46.4258C14.9239 46.6505 14.5155 46.7358 14.1197 46.6636C13.7238 46.5913 13.3719 46.3672 13.139 46.0391C13.0263 45.8728 12.9481 45.6855 12.909 45.4884C12.87 45.2913 12.871 45.0884 12.9119 44.8917C12.9527 44.6949 13.0327 44.5084 13.147 44.3432C13.2613 44.1779 13.4076 44.0373 13.5773 43.9297L21.4281 38.8953L23.646 40.4688L15.2577 46.4258ZM37.0859 44.8922C37.1471 45.1886 37.1177 45.4966 37.0014 45.7761C36.8852 46.0555 36.6876 46.2936 36.4342 46.4592C36.1809 46.6248 35.8835 46.7103 35.5809 46.7046C35.2783 46.699 34.9844 46.6023 34.7374 46.4273L12.832 30.8805C12.6984 30.7858 12.5384 30.7354 12.3747 30.7365C12.211 30.7376 12.0517 30.7902 11.9195 30.8867C10.994 31.4907 9.90577 31.797 8.80108 31.7645C7.6964 31.732 6.62813 31.3621 5.73978 30.7047C4.54454 29.9207 3.67409 28.7299 3.28978 27.3531C3.10588 26.7517 3.05878 26.1168 3.15192 25.4948C3.24505 24.8728 3.47607 24.2795 3.82807 23.7584C4.18006 23.2372 4.64413 22.8013 5.18631 22.4826C5.72849 22.1639 6.33507 21.9704 6.96165 21.9164C8.382 21.757 9.81198 22.1178 10.9867 22.932C11.9283 23.51 12.6706 24.3622 13.1138 25.3743C13.5571 26.3863 13.6801 27.5098 13.4663 28.5938C13.4262 28.7527 13.437 28.9202 13.4973 29.0726C13.5576 29.225 13.6643 29.3545 13.8023 29.443L36.4226 43.9289C36.5923 44.0366 36.7385 44.1774 36.8524 44.3429C36.9664 44.5085 37.0458 44.6953 37.0859 44.8922ZM44.2577 30.7031C43.3691 31.3604 42.3006 31.73 41.1958 31.7623C40.091 31.7945 39.0027 31.4879 38.0773 30.8836C37.945 30.7871 37.7858 30.7345 37.622 30.7334C37.4583 30.7323 37.2983 30.7826 37.1648 30.8773L28.5218 37.0133L26.4499 35.6852L36.1952 29.4352C36.3329 29.3468 36.4394 29.2175 36.4997 29.0654C36.56 28.9133 36.571 28.7462 36.5312 28.5875C36.3217 27.5033 36.447 26.3811 36.8905 25.3698C37.3339 24.3585 38.0746 23.5061 39.014 22.9258C41.514 21.2406 44.7281 21.6125 46.1726 23.7523C47.6171 25.8922 46.757 29.018 44.2577 30.7031Z" fill="#8CC842"/>
<path d="M10.0992 2.99456L9.23435 1.69299C7.34716 2.94347 5.93187 4.78863 5.21325 6.93544C4.49462 9.08224 4.51388 11.4076 5.26794 13.5422L6.7406 13.0203C6.10297 11.2138 6.08723 9.2461 6.69588 7.42964C7.30452 5.61318 8.50266 4.05217 10.1 2.99456H10.0992Z" fill="#8CC842"/>
<path d="M8.39844 15.8344C8.02226 15.4076 7.68889 14.945 7.40312 14.4531L6.05078 15.2344C6.38819 15.8159 6.78201 16.3628 7.22656 16.8672L8.39844 15.8344Z" fill="#8CC842"/>
<path d="M33.5781 28.2812L35.8023 17.1609C37.6106 17.0036 39.288 16.153 40.4835 14.7872C41.679 13.4213 42.3 11.6461 42.2166 9.83282C42.1331 8.01959 41.3517 6.30889 40.0357 5.05865C38.7198 3.80842 36.9713 3.11554 35.1562 3.12499C33.5764 3.11939 32.042 3.65264 30.8062 4.6367C30.1625 3.6896 29.2969 2.91434 28.2848 2.37852C27.2728 1.84269 26.1451 1.56256 24.9999 1.56256C23.8548 1.56256 22.727 1.84269 21.715 2.37852C20.703 2.91434 19.8374 3.6896 19.1937 4.6367C17.9579 3.65264 16.4234 3.11939 14.8437 3.12499C13.0347 3.12482 11.2953 3.82183 9.9871 5.07112C8.67885 6.3204 7.90241 8.02583 7.81921 9.83285C7.73602 11.6399 8.35246 13.4094 9.54038 14.7736C10.7283 16.1378 12.3963 16.9917 14.1976 17.1578L16.4218 28.2812L17.953 27.975L17.5155 25.7812H32.4843L32.0468 27.9687L33.5781 28.2812ZM29.807 24.2187L30.4609 19.6422L28.914 19.4203L28.2288 24.2187H25.7812V15.625H24.2187V24.2187H21.771L21.0859 19.4203L19.539 19.6422L20.1929 24.2187H17.203L15.6093 16.25C15.5733 16.0735 15.4774 15.9149 15.3379 15.801C15.1984 15.6871 15.0238 15.6249 14.8437 15.625C13.3933 15.625 12.0023 15.0488 10.9767 14.0232C9.95109 12.9976 9.37492 11.6066 9.37492 10.1562C9.37492 8.70583 9.95109 7.31484 10.9767 6.28925C12.0023 5.26366 13.3933 4.68749 14.8437 4.68749C15.5882 4.68558 16.3251 4.83722 17.0084 5.13295C17.6916 5.42868 18.3066 5.86213 18.8148 6.40624C18.9016 6.49806 19.0094 6.56745 19.129 6.60845C19.2485 6.64945 19.3762 6.66083 19.5011 6.64163C19.626 6.62242 19.7444 6.5732 19.8461 6.49818C19.9479 6.42317 20.0298 6.32459 20.0851 6.21092C20.5314 5.28665 21.2293 4.50695 22.0986 3.96134C22.968 3.41572 23.9735 3.1263 24.9999 3.1263C26.0263 3.1263 27.0319 3.41572 27.9012 3.96134C28.7706 4.50695 29.4685 5.28665 29.9148 6.21092C29.97 6.32459 30.052 6.42317 30.1537 6.49818C30.2554 6.5732 30.3738 6.62242 30.4987 6.64163C30.6236 6.66083 30.7513 6.64945 30.8709 6.60845C30.9904 6.56745 31.0982 6.49806 31.1851 6.40624C31.6933 5.86213 32.3082 5.42868 32.9915 5.13295C33.6747 4.83722 34.4117 4.68558 35.1562 4.68749C36.6066 4.68749 37.9976 5.26366 39.0232 6.28925C40.0488 7.31484 40.6249 8.70583 40.6249 10.1562C40.6249 11.6066 40.0488 12.9976 39.0232 14.0232C37.9976 15.0488 36.6066 15.625 35.1562 15.625C34.9761 15.6249 34.8015 15.6871 34.662 15.801C34.5225 15.9149 34.4266 16.0735 34.3906 16.25L32.7968 24.2187H29.807Z" fill="#007C0C"/>
<path d="M33.5781 28.2812L35.8023 17.1609C37.6106 17.0036 39.288 16.153 40.4835 14.7872C41.679 13.4213 42.3 11.6461 42.2166 9.83282C42.1331 8.01959 41.3517 6.30889 40.0357 5.05865C38.7198 3.80842 36.9713 3.11554 35.1562 3.12499C33.5764 3.11939 32.042 3.65264 30.8062 4.6367C30.1625 3.6896 29.2969 2.91434 28.2848 2.37852C27.2728 1.84269 26.1451 1.56256 24.9999 1.56256C23.8548 1.56256 22.727 1.84269 21.715 2.37852C20.703 2.91434 19.8374 3.6896 19.1937 4.6367C17.9579 3.65264 16.4234 3.11939 14.8437 3.12499C13.0347 3.12482 11.2953 3.82183 9.9871 5.07112C8.67885 6.3204 7.90241 8.02583 7.81921 9.83285C7.73602 11.6399 8.35246 13.4094 9.54038 14.7736C10.7283 16.1378 12.3963 16.9917 14.1976 17.1578L16.4218 28.2812L17.953 27.975L17.5155 25.7812H32.4843L32.0468 27.9687L33.5781 28.2812ZM29.807 24.2187L30.4609 19.6422L28.914 19.4203L28.2288 24.2187H25.7812V15.625H24.2187V24.2187H21.771L21.0859 19.4203L19.539 19.6422L20.1929 24.2187H17.203L15.6093 16.25C15.5733 16.0735 15.4774 15.9149 15.3379 15.801C15.1984 15.6871 15.0238 15.6249 14.8437 15.625C13.3933 15.625 12.0023 15.0488 10.9767 14.0232C9.95109 12.9976 9.37492 11.6066 9.37492 10.1562C9.37492 8.70583 9.95109 7.31484 10.9767 6.28925C12.0023 5.26366 13.3933 4.68749 14.8437 4.68749C15.5882 4.68558 16.3251 4.83722 17.0084 5.13295C17.6916 5.42868 18.3066 5.86213 18.8148 6.40624C18.9016 6.49806 19.0094 6.56745 19.129 6.60845C19.2485 6.64945 19.3762 6.66083 19.5011 6.64163C19.626 6.62242 19.7444 6.5732 19.8461 6.49818C19.9479 6.42317 20.0298 6.32459 20.0851 6.21092C20.5314 5.28665 21.2293 4.50695 22.0986 3.96134C22.968 3.41572 23.9735 3.1263 24.9999 3.1263C26.0263 3.1263 27.0319 3.41572 27.9012 3.96134C28.7706 4.50695 29.4685 5.28665 29.9148 6.21092C29.97 6.32459 30.052 6.42317 30.1537 6.49818C30.2554 6.5732 30.3738 6.62242 30.4987 6.64163C30.6236 6.66083 30.7513 6.64945 30.8709 6.60845C30.9904 6.56745 31.0982 6.49806 31.1851 6.40624C31.6933 5.86213 32.3082 5.42868 32.9915 5.13295C33.6747 4.83722 34.4117 4.68558 35.1562 4.68749C36.6066 4.68749 37.9976 5.26366 39.0232 6.28925C40.0488 7.31484 40.6249 8.70583 40.6249 10.1562C40.6249 11.6066 40.0488 12.9976 39.0232 14.0232C37.9976 15.0488 36.6066 15.625 35.1562 15.625C34.9761 15.6249 34.8015 15.6871 34.662 15.801C34.5225 15.9149 34.4266 16.0735 34.3906 16.25L32.7968 24.2187H29.807Z" fill="black" fill-opacity="0.2"/>
</svg>
