<svg width="50" height="50" viewBox="0 0 50 50" fill="none" xmlns="http://www.w3.org/2000/svg">
<g clip-path="url(#clip0_201_362)">
<g clip-path="url(#clip1_201_362)">
<path d="M28.4673 24.3795L25.798 24.4383L25.8098 21.4117C25.818 19.2036 25.4006 17.0544 24.5688 15.0242C23.7365 12.9928 22.4512 11.0993 20.6379 9.28603C20.2954 8.94349 19.7398 8.94382 19.3969 9.28668C19.0542 9.62938 19.0539 10.185 19.3964 10.5275L19.9667 11.1027L10.6771 20.3923L10.1019 19.822C9.7594 19.4795 9.20378 19.4798 8.86091 19.8227C8.51805 20.1655 8.51788 20.721 8.86043 21.0636C10.6737 22.8768 12.5671 24.1623 14.5984 24.9942C16.6288 25.8262 18.778 26.2437 20.986 26.2353L24.0125 26.2238L23.9538 28.8931C23.9042 31.1542 24.3013 33.3589 25.1338 35.4456C25.9669 37.5337 27.1931 39.3962 28.7781 40.9812C29.1206 41.3238 29.6762 41.3238 30.0191 40.9809C30.362 40.638 30.3621 40.0822 30.0196 39.7397C29.8546 39.5747 29.694 39.4064 29.5377 39.2349L38.8092 29.9635C38.9807 30.1196 39.1491 30.2802 39.3141 30.4452C39.6566 30.7877 40.2123 30.7877 40.5551 30.4449C40.898 30.102 40.8981 29.5462 40.5556 29.2037C38.9706 27.6187 37.1081 26.3925 35.02 25.5594C32.9333 24.7269 30.7286 24.3298 28.4673 24.3795ZM12.0192 21.5314L21.1058 12.4448C21.4606 12.9178 21.7858 13.4116 22.0809 13.9249L13.4993 22.5065C12.9859 22.2114 12.4921 21.8862 12.0192 21.5314ZM15.16 23.3269L22.9013 15.5856C23.1174 16.1136 23.3458 16.7556 23.4993 17.3004L16.8748 23.925C16.33 23.7714 15.688 23.543 15.16 23.3269ZM18.9317 24.3492L23.9236 19.3573L24.043 24.4686L18.9317 24.3492ZM25.7685 26.1941L30.355 26.2062L25.7806 30.7806L25.7685 26.1941ZM26.1493 32.893L32.4674 26.5749C33.0615 26.7237 33.6471 26.9097 34.2231 27.1325L26.7068 34.6487C26.4839 34.0729 26.2981 33.4871 26.1493 32.893ZM28.4307 37.8609C28.0867 37.3764 27.7726 36.8715 27.4894 36.3469L35.9213 27.915C36.4457 28.1983 36.9508 28.5123 37.4351 28.8565L28.4307 37.8609Z" fill="#007C0C"/>
<path d="M28.4673 24.3795L25.798 24.4383L25.8098 21.4117C25.818 19.2036 25.4006 17.0544 24.5688 15.0242C23.7365 12.9928 22.4512 11.0993 20.6379 9.28603C20.2954 8.94349 19.7398 8.94382 19.3969 9.28668C19.0542 9.62938 19.0539 10.185 19.3964 10.5275L19.9667 11.1027L10.6771 20.3923L10.1019 19.822C9.7594 19.4795 9.20378 19.4798 8.86091 19.8227C8.51805 20.1655 8.51788 20.721 8.86043 21.0636C10.6737 22.8768 12.5671 24.1623 14.5984 24.9942C16.6288 25.8262 18.778 26.2437 20.986 26.2353L24.0125 26.2238L23.9538 28.8931C23.9042 31.1542 24.3013 33.3589 25.1338 35.4456C25.9669 37.5337 27.1931 39.3962 28.7781 40.9812C29.1206 41.3238 29.6762 41.3238 30.0191 40.9809C30.362 40.638 30.3621 40.0822 30.0196 39.7397C29.8546 39.5747 29.694 39.4064 29.5377 39.2349L38.8092 29.9635C38.9807 30.1196 39.1491 30.2802 39.3141 30.4452C39.6566 30.7877 40.2123 30.7877 40.5551 30.4449C40.898 30.102 40.8981 29.5462 40.5556 29.2037C38.9706 27.6187 37.1081 26.3925 35.02 25.5594C32.9333 24.7269 30.7286 24.3298 28.4673 24.3795ZM12.0192 21.5314L21.1058 12.4448C21.4606 12.9178 21.7858 13.4116 22.0809 13.9249L13.4993 22.5065C12.9859 22.2114 12.4921 21.8862 12.0192 21.5314ZM15.16 23.3269L22.9013 15.5856C23.1174 16.1136 23.3458 16.7556 23.4993 17.3004L16.8748 23.925C16.33 23.7714 15.688 23.543 15.16 23.3269ZM18.9317 24.3492L23.9236 19.3573L24.043 24.4686L18.9317 24.3492ZM25.7685 26.1941L30.355 26.2062L25.7806 30.7806L25.7685 26.1941ZM26.1493 32.893L32.4674 26.5749C33.0615 26.7237 33.6471 26.9097 34.2231 27.1325L26.7068 34.6487C26.4839 34.0729 26.2981 33.4871 26.1493 32.893ZM28.4307 37.8609C28.0867 37.3764 27.7726 36.8715 27.4894 36.3469L35.9213 27.915C36.4457 28.1983 36.9508 28.5123 37.4351 28.8565L28.4307 37.8609Z" fill="black" fill-opacity="0.2"/>
<rect x="12.7666" y="32.0137" width="28.1201" height="7.31189" transform="rotate(-45 12.7666 32.0137)" fill="white"/>
</g>
<path d="M46.1383 25C46.1394 29.0368 44.9842 32.9894 42.8094 36.3903C40.6347 39.7911 37.5314 42.498 33.8666 44.1907C30.2019 45.8833 26.129 46.4909 22.1298 45.9416C18.1306 45.3923 14.3723 43.7091 11.2997 41.091C11.2143 41.0183 11.1448 40.9287 11.0958 40.8278C11.0467 40.7269 11.0191 40.6169 11.0146 40.5048C11.0101 40.3927 11.0289 40.2809 11.0698 40.1764C11.1106 40.0719 11.1727 39.9771 11.252 39.8977L39.8979 11.2519C39.9765 11.1715 40.0713 11.1088 40.176 11.0679C40.2807 11.027 40.393 11.0088 40.5052 11.0145C40.6173 11.0188 40.7273 11.0464 40.8281 11.0955C40.929 11.1445 41.0186 11.214 41.0912 11.2995C44.347 15.1222 46.1361 19.9787 46.1383 25ZM44.5123 25C44.5102 20.6681 43.0673 16.46 40.4108 13.0383L13.0384 40.4106C15.9219 42.6504 19.3761 44.036 23.0081 44.4098C26.6401 44.7835 30.3041 44.1305 33.5833 42.5249C36.8625 40.9193 39.6253 38.4256 41.5574 35.3274C43.4894 32.2293 44.5132 28.6512 44.5123 25ZM38.7482 10.1022L10.1024 38.7481C9.94989 38.9005 9.74317 38.9862 9.52758 38.9863C9.51647 38.9863 9.50614 38.9863 9.49506 38.9855C9.38298 38.9812 9.27302 38.9536 9.17215 38.9045C9.07129 38.8554 8.98172 38.786 8.90913 38.7004C5.46311 34.656 3.6671 29.4618 3.87884 24.1526C4.09059 18.8434 6.29455 13.8088 10.0517 10.0516C13.8089 6.29441 18.8435 4.09044 24.1527 3.87868C29.4619 3.66692 34.6561 5.46292 38.7006 8.90893C38.786 8.98168 38.8554 9.07132 38.9045 9.17221C38.9535 9.2731 38.9811 9.38306 38.9856 9.49515C38.9901 9.60725 38.9713 9.71906 38.9305 9.82354C38.8896 9.92802 38.8275 10.0229 38.7482 10.1022ZM36.9618 9.58935C33.2086 6.67389 28.5201 5.22887 23.7769 5.52565C19.0336 5.82243 14.5618 7.84058 11.2012 11.2011C7.84069 14.5617 5.82254 19.0335 5.52576 23.7767C5.22898 28.52 6.674 33.2085 9.58946 36.9617L36.9618 9.58935ZM49.3904 25C49.3904 29.8239 47.9599 34.5395 45.2799 38.5505C42.5998 42.5614 38.7906 45.6876 34.3339 47.5336C29.8771 49.3797 24.9731 49.8627 20.2418 48.9216C15.5106 47.9805 11.1646 45.6575 7.75361 42.2465C4.34257 38.8355 2.01963 34.4895 1.07853 29.7583C0.137423 25.027 0.620431 20.123 2.46647 15.6662C4.31251 11.2095 7.43867 7.40027 11.4496 4.72024C15.4606 2.0402 20.1762 0.609741 25.0001 0.609741C31.4666 0.61707 37.6661 3.1891 42.2385 7.76157C46.811 12.334 49.383 18.5335 49.3904 25ZM47.7643 25C47.7643 20.4976 46.4292 16.0964 43.9279 12.3529C41.4265 8.6093 37.8712 5.69155 33.7116 3.96858C29.552 2.24561 24.9749 1.7948 20.559 2.67317C16.1432 3.55153 12.087 5.71961 8.90338 8.90324C5.71974 12.0869 3.55166 16.1431 2.6733 20.5589C1.79494 24.9747 2.24574 29.5519 3.96871 33.7115C5.69168 37.8711 8.60943 41.4264 12.353 43.9277C16.0965 46.4291 20.4978 47.7642 25.0001 47.7642C31.0355 47.7574 36.8217 45.3569 41.0894 41.0892C45.357 36.8216 47.7576 31.0354 47.7643 25Z" fill="#8CC842"/>
</g>
<defs>
<clipPath id="clip0_201_362">
<rect width="50" height="50" fill="white"/>
</clipPath>
<clipPath id="clip1_201_362">
<rect width="31.1127" height="31.1127" fill="white" transform="translate(3.38477 25.3848) rotate(-45)"/>
</clipPath>
</defs>
</svg>
