<svg width="22" height="22" viewBox="0 0 22 22" fill="none" xmlns="http://www.w3.org/2000/svg">
<path d="M14.75 1C15.3467 1 15.919 1.23705 16.341 1.65901C16.7629 2.08097 17 2.65326 17 3.25V18.75C17 19.3467 16.7629 19.919 16.341 20.341C15.919 20.7629 15.3467 21 14.75 21H7.25C6.65326 21 6.08097 20.7629 5.65901 20.341C5.23705 19.919 5 19.3467 5 18.75V3.25C5 2.65326 5.23705 2.08097 5.65901 1.65901C6.08097 1.23705 6.65326 1 7.25 1H14.75ZM14.75 2.5H7.25C7.05109 2.5 6.86032 2.57902 6.71967 2.71967C6.57902 2.86032 6.5 3.05109 6.5 3.25V18.75C6.5 19.164 6.836 19.5 7.25 19.5H14.75C14.9489 19.5 15.1397 19.421 15.2803 19.2803C15.421 19.1397 15.5 18.9489 15.5 18.75V3.25C15.5 3.05109 15.421 2.86032 15.2803 2.71967C15.1397 2.57902 14.9489 2.5 14.75 2.5ZM12.249 16.5C12.4479 16.4997 12.6388 16.5785 12.7796 16.719C12.9205 16.8594 12.9997 17.0501 13 17.249C13.0003 17.4479 12.9215 17.6388 12.781 17.7796C12.6406 17.9205 12.4499 17.9997 12.251 18L9.751 18.004C9.55209 18.0043 9.36122 17.9255 9.22038 17.785C9.07954 17.6446 9.00027 17.4539 9 17.255C8.99973 17.0561 9.0785 16.8652 9.21896 16.7244C9.35943 16.5835 9.55009 16.5043 9.749 16.504L12.249 16.5Z" fill="#007C0C"/>
<path d="M14.75 1C15.3467 1 15.919 1.23705 16.341 1.65901C16.7629 2.08097 17 2.65326 17 3.25V18.75C17 19.3467 16.7629 19.919 16.341 20.341C15.919 20.7629 15.3467 21 14.75 21H7.25C6.65326 21 6.08097 20.7629 5.65901 20.341C5.23705 19.919 5 19.3467 5 18.75V3.25C5 2.65326 5.23705 2.08097 5.65901 1.65901C6.08097 1.23705 6.65326 1 7.25 1H14.75ZM14.75 2.5H7.25C7.05109 2.5 6.86032 2.57902 6.71967 2.71967C6.57902 2.86032 6.5 3.05109 6.5 3.25V18.75C6.5 19.164 6.836 19.5 7.25 19.5H14.75C14.9489 19.5 15.1397 19.421 15.2803 19.2803C15.421 19.1397 15.5 18.9489 15.5 18.75V3.25C15.5 3.05109 15.421 2.86032 15.2803 2.71967C15.1397 2.57902 14.9489 2.5 14.75 2.5ZM12.249 16.5C12.4479 16.4997 12.6388 16.5785 12.7796 16.719C12.9205 16.8594 12.9997 17.0501 13 17.249C13.0003 17.4479 12.9215 17.6388 12.781 17.7796C12.6406 17.9205 12.4499 17.9997 12.251 18L9.751 18.004C9.55209 18.0043 9.36122 17.9255 9.22038 17.785C9.07954 17.6446 9.00027 17.4539 9 17.255C8.99973 17.0561 9.0785 16.8652 9.21896 16.7244C9.35943 16.5835 9.55009 16.5043 9.749 16.504L12.249 16.5Z" fill="black" fill-opacity="0.2"/>
</svg>
