<svg width="22" height="22" viewBox="0 0 22 22" fill="none" xmlns="http://www.w3.org/2000/svg">
<path d="M3.85 5.09496L9.1 2.25496C9.68373 1.93987 10.3367 1.7749 11 1.7749C11.6633 1.7749 12.3163 1.93987 12.9 2.25496L18.15 5.09496C18.7835 5.4369 19.313 5.94348 19.6826 6.56124C20.0522 7.17901 20.2482 7.88507 20.25 8.60496V16.225C20.25 17.2858 19.8286 18.3032 19.0784 19.0534C18.3283 19.8035 17.3109 20.225 16.25 20.225H5.75C4.68913 20.225 3.67172 19.8035 2.92157 19.0534C2.17143 18.3032 1.75 17.2858 1.75 16.225V8.60496C1.75179 7.88507 1.94783 7.17901 2.31743 6.56124C2.68703 5.94348 3.21651 5.4369 3.85 5.09496Z" stroke="#007C0C" stroke-width="1.5"/>
<path d="M3.85 5.09496L9.1 2.25496C9.68373 1.93987 10.3367 1.7749 11 1.7749C11.6633 1.7749 12.3163 1.93987 12.9 2.25496L18.15 5.09496C18.7835 5.4369 19.313 5.94348 19.6826 6.56124C20.0522 7.17901 20.2482 7.88507 20.25 8.60496V16.225C20.25 17.2858 19.8286 18.3032 19.0784 19.0534C18.3283 19.8035 17.3109 20.225 16.25 20.225H5.75C4.68913 20.225 3.67172 19.8035 2.92157 19.0534C2.17143 18.3032 1.75 17.2858 1.75 16.225V8.60496C1.75179 7.88507 1.94783 7.17901 2.31743 6.56124C2.68703 5.94348 3.21651 5.4369 3.85 5.09496Z" stroke="black" stroke-opacity="0.2" stroke-width="1.5"/>
<path d="M1.91016 7.49487L9.00016 11.5949C9.60823 11.9459 10.298 12.1308 11.0002 12.1308C11.7023 12.1308 12.3921 11.9459 13.0002 11.5949L20.1402 7.59487" stroke="#007C0C" stroke-width="1.5" stroke-linecap="round" stroke-linejoin="round"/>
<path d="M1.91016 7.49487L9.00016 11.5949C9.60823 11.9459 10.298 12.1308 11.0002 12.1308C11.7023 12.1308 12.3921 11.9459 13.0002 11.5949L20.1402 7.59487" stroke="black" stroke-opacity="0.2" stroke-width="1.5" stroke-linecap="round" stroke-linejoin="round"/>
</svg>
