<svg width="24" height="24" viewBox="0 0 24 24" fill="none" xmlns="http://www.w3.org/2000/svg">
<path fill-rule="evenodd" clip-rule="evenodd" d="M12 24C18.6274 24 24 18.6274 24 12C24 5.37258 18.6274 0 12 0C5.37258 0 0 5.37258 0 12C0 18.6274 5.37258 24 12 24Z" fill="#25D366"/>
<path fill-rule="evenodd" clip-rule="evenodd" d="M12.3982 18.6762H12.3952C11.201 18.6757 10.0275 18.3761 8.98531 17.8076L5.20264 18.7999L6.21494 15.1023C5.5905 14.0202 5.26193 12.7926 5.26246 11.535C5.26403 7.60075 8.46505 4.3999 12.3981 4.3999C14.307 4.40073 16.0985 5.14384 17.4457 6.49261C18.7929 7.84131 19.5345 9.63407 19.5337 11.5407C19.5321 15.474 16.3324 18.6746 12.3982 18.6762ZM9.15734 16.5159L9.37391 16.6444C10.2845 17.1848 11.3283 17.4707 12.3925 17.4711H12.3949C15.6638 17.4711 18.3244 14.8105 18.3257 11.5403C18.3263 9.95552 17.71 8.46546 16.5902 7.34441C15.4705 6.22336 13.9814 5.60568 12.3973 5.60514C9.12587 5.60514 6.4653 8.26547 6.464 11.5355C6.46354 12.6561 6.7771 13.7475 7.37078 14.6917L7.5118 14.9161L6.91265 17.1047L9.15734 16.5159ZM15.9943 13.2375C15.9497 13.1631 15.8309 13.1185 15.6526 13.0292C15.4743 12.94 14.5977 12.5087 14.4343 12.4491C14.2709 12.3897 14.152 12.3599 14.0331 12.5384C13.9143 12.7168 13.5726 13.1185 13.4686 13.2375C13.3646 13.3564 13.2606 13.3714 13.0823 13.2821C12.904 13.1929 12.3295 13.0046 11.6485 12.3972C11.1185 11.9244 10.7607 11.3405 10.6567 11.162C10.5527 10.9835 10.6456 10.8871 10.7348 10.7982C10.815 10.7183 10.9131 10.5899 11.0023 10.4858C11.0914 10.3817 11.1211 10.3073 11.1806 10.1884C11.24 10.0693 11.2103 9.96527 11.1657 9.87602C11.1211 9.78677 10.7646 8.90917 10.616 8.55217C10.4713 8.2045 10.3243 8.2516 10.2148 8.24611C10.111 8.24089 9.99197 8.23979 9.87312 8.23979C9.75427 8.23979 9.5611 8.28442 9.39767 8.46292C9.23425 8.64142 8.77366 9.07277 8.77366 9.9503C8.77366 10.8279 9.41252 11.6757 9.50168 11.7947C9.59082 11.9137 10.7589 13.7146 12.5475 14.4869C12.9728 14.6706 13.3049 14.7803 13.5639 14.8624C13.991 14.9982 14.3797 14.979 14.6868 14.9331C15.0294 14.8819 15.7417 14.5018 15.8903 14.0853C16.0388 13.6688 16.0388 13.3118 15.9943 13.2375Z" fill="#FDFDFD"/>
</svg>
