<svg width="24" height="24" viewBox="0 0 24 24" fill="none" xmlns="http://www.w3.org/2000/svg">
<path fill-rule="evenodd" clip-rule="evenodd" d="M12 24C18.6274 24 24 18.6274 24 12C24 5.37258 18.6274 0 12 0C5.37258 0 0 5.37258 0 12C0 18.6274 5.37258 24 12 24Z" fill="#00AEF3"/>
<path fill-rule="evenodd" clip-rule="evenodd" d="M18.1757 12.0663C18.1757 12.5099 18.1276 12.9417 18.035 13.3586C18.2706 13.826 18.403 14.352 18.403 14.9092C18.403 16.8367 16.8181 18.3999 14.8629 18.3999C14.257 18.3999 13.6881 18.2492 13.1891 17.9851C12.8264 18.0512 12.4531 18.086 12.0708 18.086C8.69917 18.086 5.96577 15.3914 5.96577 12.0663C5.96577 11.6523 6.00867 11.2472 6.0892 10.857C5.78064 10.3376 5.60303 9.7352 5.60303 9.09123C5.60303 7.16229 7.18798 5.59985 9.14395 5.59985C9.83558 5.59985 10.4813 5.79646 11.0269 6.13551C11.3671 6.07764 11.7155 6.04722 12.0708 6.04722C15.4431 6.04722 18.1757 8.74254 18.1757 12.0663ZM13.9604 15.8706C14.5023 15.6495 14.9192 15.3379 15.2014 14.9432C15.4844 14.5478 15.6289 14.096 15.6289 13.6004C15.6289 13.1857 15.5453 12.8296 15.3805 12.5395C15.2157 12.2516 14.9847 12.0113 14.6927 11.8236C14.4052 11.6388 14.0545 11.4815 13.6473 11.3539C13.2462 11.2271 12.7924 11.1091 12.2979 11.0052C11.9073 10.9162 11.6229 10.8472 11.4535 10.8005C11.288 10.756 11.1224 10.6922 10.9621 10.6128C10.8071 10.5356 10.6844 10.4451 10.5986 10.3398C10.5158 10.2418 10.4759 10.1268 10.4759 9.99033C10.4759 9.76627 10.6001 9.57709 10.8545 9.41313C11.1186 9.24175 11.4754 9.15569 11.9119 9.15569C12.3837 9.15569 12.7262 9.23285 12.9316 9.38716C13.1431 9.54593 13.3275 9.77072 13.4795 10.0556C13.6112 10.2782 13.7301 10.434 13.8445 10.5341C13.9664 10.641 14.144 10.6959 14.3698 10.6959C14.6182 10.6959 14.8296 10.6091 14.9967 10.4369C15.163 10.2671 15.2473 10.0712 15.2473 9.85604C15.2473 9.63273 15.1826 9.402 15.0562 9.16978C14.9312 8.9398 14.731 8.71945 14.4624 8.51172C14.196 8.30621 13.8573 8.14003 13.4547 8.01687C13.0543 7.89372 12.5749 7.8314 12.03 7.8314C11.3474 7.8314 10.7453 7.92488 10.2389 8.10961C9.72483 8.29583 9.32596 8.57033 9.05353 8.92125C8.77808 9.27439 8.63885 9.68466 8.63885 10.1387C8.63885 10.6157 8.77206 11.0216 9.03396 11.3458C9.2921 11.6641 9.64506 11.9185 10.0831 12.1018C10.5105 12.2821 11.0486 12.4401 11.6831 12.5736C12.1489 12.6701 12.5252 12.7628 12.8029 12.8474C13.0686 12.9305 13.2876 13.0492 13.4547 13.202C13.6127 13.3489 13.6902 13.5359 13.6902 13.7725C13.6902 14.0737 13.5427 14.3201 13.2379 14.5241C12.9271 14.7333 12.5132 14.8401 12.0082 14.8401C11.6417 14.8401 11.3429 14.7867 11.1216 14.6843C10.9019 14.5812 10.7295 14.4499 10.6091 14.2926C10.4849 14.1316 10.3675 13.9254 10.2592 13.6805C10.1621 13.4572 10.0417 13.2829 9.90094 13.1649C9.75419 13.0425 9.57281 12.9809 9.36359 12.9809C9.10771 12.9809 8.89323 13.0588 8.72615 13.2146C8.55757 13.3712 8.47178 13.5626 8.47178 13.7822C8.47178 14.1361 8.60273 14.5018 8.86237 14.8698C9.119 15.2363 9.45691 15.5316 9.86707 15.7497C10.4413 16.0502 11.1766 16.2023 12.0533 16.2023C12.7841 16.2023 13.4253 16.0902 13.9604 15.8706Z" fill="#EFF7FC"/>
</svg>
