<svg width="24" height="24" viewBox="0 0 24 24" fill="none" xmlns="http://www.w3.org/2000/svg">
<g clip-path="url(#clip0_1715_7741)">
<path d="M7.28686 11.0574C8.79753 9.54675 11.4322 9.54675 12.9429 11.0574L13.8855 12.0001L15.7709 10.1148L14.8282 9.17208C13.5709 7.91342 11.8962 7.21875 10.1149 7.21875C8.33353 7.21875 6.65886 7.91342 5.40153 9.17208L2.57219 12.0001C1.32459 13.2517 0.624023 14.9469 0.624023 16.7141C0.624023 18.4813 1.32459 20.1765 2.57219 21.4281C3.19069 22.0475 3.92548 22.5385 4.73435 22.8731C5.54322 23.2076 6.41021 23.379 7.28553 23.3774C8.16107 23.3792 9.02835 23.208 9.83746 22.8734C10.6466 22.5389 11.3816 22.0477 12.0002 21.4281L12.9429 20.4854L11.0575 18.6001L10.1149 19.5427C9.36349 20.2908 8.34642 20.7107 7.28619 20.7107C6.22597 20.7107 5.2089 20.2908 4.45753 19.5427C3.70886 18.7917 3.28847 17.7745 3.28847 16.7141C3.28847 15.6536 3.70886 14.6364 4.45753 13.8854L7.28686 11.0574Z" fill="#CBD3D9"/>
<path d="M12.0002 2.57207L11.0575 3.51474L12.9428 5.40007L13.8855 4.45741C14.6369 3.70939 15.6539 3.28944 16.7142 3.28944C17.7744 3.28944 18.7915 3.70939 19.5428 4.45741C20.2915 5.20843 20.7119 6.22563 20.7119 7.28607C20.7119 8.34652 20.2915 9.36371 19.5428 10.1147L16.7135 12.9427C15.2028 14.4534 12.5682 14.4534 11.0575 12.9427L10.1148 12.0001L8.22949 13.8854L9.17216 14.8281C10.4295 16.0867 12.1042 16.7814 13.8855 16.7814C15.6668 16.7814 17.3415 16.0867 18.5988 14.8281L21.4282 12.0001C22.6758 10.7485 23.3763 9.0533 23.3763 7.28607C23.3763 5.51885 22.6758 3.82369 21.4282 2.57207C20.1769 1.32381 18.4816 0.622803 16.7142 0.622803C14.9467 0.622803 13.2514 1.32381 12.0002 2.57207Z" fill="#CBD3D9"/>
</g>
<defs>
<clipPath id="clip0_1715_7741">
<rect width="24" height="24" fill="white"/>
</clipPath>
</defs>
</svg>
